999
FreeCAD v0.20 29177 +426 (Git)
  0
SECTION
  2
HEADER
  9
$ACADVER
  1
AC1014
  9
$ACADMAINTVER
 70
     9
  9
$DWGCODEPAGE
  3
ANSI_1252
  9
$TEXTSTYLE
  7
STANDARD
  9
$DIMSTYLE
  2
STANDARD
  9
$DIMTXSTY
  7
STANDARD
  9
$CMLSTYLE
  2
STANDARD
  9
$LUNITS
 70
2
  9
$INSUNITS
 70
4
  9
$PEXTMAX
 10
50
 20
50
 30
50
  9
$PEXTMIN
 10
0
 20
0
 30
0
  9
$HANDSEED
  5
FFFF
  0
ENDSEC
  0
SECTION
  2
CLASSES
  0
CLASS
  1
ACDBDICTIONARYWDFLT
  2
AcDbDictionaryWithDefault
  3
ObjectDBX Classes
 90
        0
280
     0
281
     0
  0
CLASS
  1
XRECORD
  2
AcDbXrecord
  3
ObjectDBX Classes
 90
        0
280
     0
281
     0
  0
CLASS
  1
LWPOLYLINE
  2
AcDbPolyline
  3
ObjectDBX Classes
 90
        0
280
     0
281
     1
  0
ENDSEC
  0
SECTION
  2
TABLES
  0
TABLE
  2
VPORT
  5
20
330
0
100
AcDbSymbolTable
 70
     1
  0
VPORT
  5
21
330
20
100
AcDbSymbolTableRecord
100
AcDbViewportTableRecord
  2
*ACTIVE
 70
     0
  0
ENDTAB
  0
TABLE
  2
LTYPE
  5
22
330
0
100
AcDbSymbolTable
 70
     1
  0
LTYPE
  5
23
330
21
100
AcDbSymbolTableRecord
100
AcDbLinetypeTableRecord
  2
BYBLOCK
 70
     0
  3

 72
    65
 73
     0
 40
0.0
  0
LTYPE
  5
24
330
21
100
AcDbSymbolTableRecord
100
AcDbLinetypeTableRecord
  2
BYLAYER
 70
     0
  3

 72
    65
 73
     0
 40
0.0
  0
LTYPE
  5
25
330
21
100
AcDbSymbolTableRecord
100
AcDbLinetypeTableRecord
  2
CONTINUOUS
 70
     0
  3
Solid line
 72
    65
 73
     0
 40
0.0
  0
ENDTAB
  0
TABLE
  2
LAYER
  5
A8F
330
0
100
AcDbSymbolTable
 70
4
  0
LAYER
  5
A90
330
A8F
100
AcDbSymbolTableRecord
100
AcDbLayerTableRecord
  2
0
 70
   0
 62
   7
  6
CONTINUOUS
  0
LAYER
  5
A91
330
A8F
100
AcDbSymbolTableRecord
100
AcDbLayerTableRecord
  2
none
 70
    0
 62
    7
  6
CONTINUOUS
  0
LAYER
  5
A92
330
A8F
100
AcDbSymbolTableRecord
100
AcDbLayerTableRecord
  2
Sketch
 70
    0
 62
    7
  6
CONTINUOUS
  0
LAYER
  5
A93
330
A8F
100
AcDbSymbolTableRecord
100
AcDbLayerTableRecord
  2
Sketch001
 70
    0
 62
    7
  6
CONTINUOUS
  0
ENDTAB
  0
TABLE
  2
STYLE
  5
70
330
0
100
AcDbSymbolTable
 70
     2
  0
STYLE
  5
71
330
70
100
AcDbSymbolTableRecord
100
AcDbTextStyleTableRecord
  2
STANDARD
 70
     0
 40
0.0
 41
1.0
 50
0.0
 71
     0
 42
2.5
  3
arial.ttf
  4

  0
STYLE
  5
72
330
70
100
AcDbSymbolTableRecord
100
AcDbTextStyleTableRecord
  2
ANNOTATIVE
 70
     0
 40
0.0
 41
1.0
 50
0.0
 71
     0
 42
2.5
  3
arial.ttf
  4

  0
ENDTAB
  0
TABLE
  2
VIEW
  5
73
330
0
100
AcDbSymbolTable
 70
     0
  0
ENDTAB
  0
TABLE
  2
UCS
  5
74
330
0
100
AcDbSymbolTable
 70
     0
  0
ENDTAB
  0
TABLE
  2
APPID
  5
75
330
0
100
AcDbSymbolTable
 70
     2
  0
APPID
  5
76
330
75
100
AcDbSymbolTableRecord
100
AcDbRegAppTableRecord
  2
ACAD
 70
     0
  0
APPID
  5
77
330
75
100
AcDbSymbolTableRecord
100
AcDbRegAppTableRecord
  2
ACADANNOTATIVE
 70
     0
  0
ENDTAB
  0
TABLE
  2
DIMSTYLE
  5
78
330
0
100
AcDbSymbolTable
 70
     2
  0
DIMSTYLE
105
79
330
78
100
AcDbSymbolTableRecord
100
AcDbDimStyleTableRecord
  2
STANDARD
 70
     0
  3

  4

  5

  6

  7

 40
0.0
 41
2.5
 42
0.625
 43
3.75
 44
1.25
 45
0.0
 46
0.0
 47
0.0
 48
0.0
140
2.5
141
2.5
142
0.0
143
0.03937007874016
144
1.0
145
0.0
146
1.0
147
0.625
 71
     0
 72
     0
 73
     0
 74
     0
 75
     0
 76
     0
 77
     1
 78
     8
170
     0
171
     3
172
     1
173
     0
174
     0
175
     0
176
     0
177
     0
178
     0
270
     2
271
     2
272
     2
273
     2
274
     3
340
71
275
     0
280
     0
281
     0
282
     0
283
     0
284
     8
285
     0
286
     0
287
     3
288
     0
  0
ENDTAB
  0
TABLE
  2
BLOCK_RECORD
  5
A01
330
0
100
AcDbSymbolTable
  70
5
  0
BLOCK_RECORD
  5
A02
330
A01
100
AcDbSymbolTableRecord
100
AcDbBlockTableRecord
  2
*MODEL_SPACE
  0
BLOCK_RECORD
  5
A03
330
A01
100
AcDbSymbolTableRecord
100
AcDbBlockTableRecord
  2
*PAPER_SPACE
  0
ENDTAB
  0
ENDSEC
  0
SECTION
  2
BLOCKS
  0
BLOCK
  5
A04
330
A02
100
AcDbEntity
  8
0
100
AcDbBlockBegin
  2
*MODEL_SPACE
 70
   0
 10
0
 20
0
 30
0
  3
*MODEL_SPACE
  1
 
  0
ENDBLK
  5
A05
330
A02
100
AcDbEntity
  8
0
100
AcDbBlockEnd
  0
BLOCK
  5
A06
330
A03
100
AcDbEntity
 67
1
  8
0
100
AcDbBlockBegin
  2
*PAPER_SPACE
 70
   0
 10
0
 20
0
 30
0
  3
*PAPER_SPACE
  1
 
  0
ENDBLK
  5
A07
330
A03
100
AcDbEntity
 67
    1
  8
0
100
AcDbBlockEnd
  0
ENDSEC
  0
SECTION
  2
ENTITIES
  0
CIRCLE
  5
A08
330
A02
100
AcDbEntity
  8
Sketch
100
AcDbCircle
 10
165.971
 20
76.4159
 40
12
  0
CIRCLE
  5
A09
330
A02
100
AcDbEntity
  8
Sketch
100
AcDbCircle
 10
195.971
 20
76.4159
 40
12
  0
CIRCLE
  5
A0A
330
A02
100
AcDbEntity
  8
Sketch
100
AcDbCircle
 10
165.971
 20
106.416
 40
12
  0
CIRCLE
  5
A0B
330
A02
100
AcDbEntity
  8
Sketch
100
AcDbCircle
 10
195.971
 20
106.416
 40
12
  0
CIRCLE
  5
A0C
330
A02
100
AcDbEntity
  8
Sketch
100
AcDbCircle
 10
225.019
 20
98.9159
 40
12
  0
CIRCLE
  5
A0D
330
A02
100
AcDbEntity
  8
Sketch
100
AcDbCircle
 10
225.019
 20
68.9159
 40
12
  0
CIRCLE
  5
A0E
330
A02
100
AcDbEntity
  8
Sketch
100
AcDbCircle
 10
139.99
 20
91.4159
 40
12
  0
CIRCLE
  5
A0F
330
A02
100
AcDbEntity
  8
Sketch
100
AcDbCircle
 10
139.99
 20
61.4159
 40
12
  0
CIRCLE
  5
A10
330
A02
100
AcDbEntity
  8
Sketch
100
AcDbCircle
 10
114.01
 20
76.4159
 40
12
  0
CIRCLE
  5
A11
330
A02
100
AcDbEntity
  8
Sketch
100
AcDbCircle
 10
88.0289
 20
91.4159
 40
12
  0
CIRCLE
  5
A12
330
A02
100
AcDbEntity
  8
Sketch
100
AcDbCircle
 10
58.0289
 20
91.4159
 40
12
  0
CIRCLE
  5
A13
330
A02
100
AcDbEntity
  8
Sketch
100
AcDbCircle
 10
127
 20
23.5841
 40
15
  0
LINE
  5
A14
330
A02
100
AcDbEntity
  8
Sketch
100
AcDbLine
 10
0
 20
10
 30
0
 11
0
 21
117
 31
0
  0
ARC
  5
A15
330
A02
100
AcDbEntity
  8
Sketch
100
AcDbCircle
 10
10
 20
117
 30
0
 40
10
100
AcDbArc
 50
90
 51
180
  0
LINE
  5
A16
330
A02
100
AcDbEntity
  8
Sketch
100
AcDbLine
 10
10
 20
127
 30
0
 11
244
 21
127
 31
0
  0
ARC
  5
A17
330
A02
100
AcDbEntity
  8
Sketch
100
AcDbCircle
 10
244
 20
117
 30
0
 40
10
100
AcDbArc
 50
0
 51
90
  0
LINE
  5
A18
330
A02
100
AcDbEntity
  8
Sketch
100
AcDbLine
 10
254
 20
117
 30
0
 11
254
 21
10
 31
0
  0
ARC
  5
A19
330
A02
100
AcDbEntity
  8
Sketch
100
AcDbCircle
 10
244
 20
10
 30
0
 40
10
100
AcDbArc
 50
-90
 51
-1.01778e-14
  0
LINE
  5
A1A
330
A02
100
AcDbEntity
  8
Sketch
100
AcDbLine
 10
244
 20
0
 30
0
 11
10
 21
0
 31
0
  0
ARC
  5
A1B
330
A02
100
AcDbEntity
  8
Sketch
100
AcDbCircle
 10
10
 20
10
 30
0
 40
10
100
AcDbArc
 50
180
 51
-90
  0
CIRCLE
  5
A1C
330
A02
100
AcDbEntity
  8
Sketch
100
AcDbCircle
 10
28.9815
 20
83.9159
 40
12
  0
CIRCLE
  5
A1D
330
A02
100
AcDbEntity
  8
Sketch
100
AcDbCircle
 10
28.9815
 20
53.9159
 40
12
  0
CIRCLE
  5
A1E
330
A02
100
AcDbEntity
  8
Sketch
100
AcDbCircle
 10
58.0289
 20
61.4159
 40
12
  0
CIRCLE
  5
A1F
330
A02
100
AcDbEntity
  8
Sketch
100
AcDbCircle
 10
88.0289
 20
61.4159
 40
12
  0
LINE
  5
A20
330
A02
100
AcDbEntity
  8
Sketch
100
AcDbLine
 10
17.522
 20
119.1
 30
0
 11
44.422
 21
119.1
 31
0
  0
LINE
  5
A21
330
A02
100
AcDbEntity
  8
Sketch
100
AcDbLine
 10
44.422
 20
119.1
 30
0
 11
44.422
 21
99.64
 31
0
  0
LINE
  5
A22
330
A02
100
AcDbEntity
  8
Sketch
100
AcDbLine
 10
44.422
 20
99.64
 30
0
 11
17.522
 21
99.64
 31
0
  0
LINE
  5
A23
330
A02
100
AcDbEntity
  8
Sketch
100
AcDbLine
 10
17.522
 20
99.64
 30
0
 11
17.522
 21
119.1
 31
0
  0
CIRCLE
  5
A24
330
A02
100
AcDbEntity
  8
Sketch
100
AcDbCircle
 10
157.215
 20
36.8533
 40
12
  0
CIRCLE
  5
A25
330
A02
100
AcDbEntity
  8
Sketch
100
AcDbCircle
 10
94.1366
 20
26.5841
 40
12
  0
LINE
  5
A26
330
A02
100
AcDbEntity
  8
Sketch
100
AcDbLine
 10
109.54
 20
127
 30
0
 11
118.48
 21
127
 31
0
  0
LINE
  5
A27
330
A02
100
AcDbEntity
  8
Sketch
100
AcDbLine
 10
118.48
 20
127
 30
0
 11
118.48
 21
119.41
 31
0
  0
LINE
  5
A28
330
A02
100
AcDbEntity
  8
Sketch
100
AcDbLine
 10
118.48
 20
119.41
 30
0
 11
109.54
 21
119.41
 31
0
  0
LINE
  5
A29
330
A02
100
AcDbEntity
  8
Sketch
100
AcDbLine
 10
109.54
 20
119.41
 30
0
 11
109.54
 21
127
 31
0
  0
LINE
  5
A2A
330
A02
100
AcDbEntity
  8
Sketch
100
AcDbLine
 10
81.9846
 20
127
 30
0
 11
95.2346
 21
127
 31
0
  0
LINE
  5
A2B
330
A02
100
AcDbEntity
  8
Sketch
100
AcDbLine
 10
95.2346
 20
127
 30
0
 11
95.2346
 21
118.4
 31
0
  0
LINE
  5
A2C
330
A02
100
AcDbEntity
  8
Sketch
100
AcDbLine
 10
95.2346
 20
118.4
 30
0
 11
81.9846
 21
118.4
 31
0
  0
LINE
  5
A2D
330
A02
100
AcDbEntity
  8
Sketch
100
AcDbLine
 10
81.9846
 20
118.4
 30
0
 11
81.9846
 21
127
 31
0
  0
LINE
  5
A2E
330
A02
100
AcDbEntity
  8
Sketch
100
AcDbLine
 10
17.522
 20
127
 30
0
 11
25.372
 21
127
 31
0
  0
LINE
  5
A2F
330
A02
100
AcDbEntity
  8
Sketch
100
AcDbLine
 10
25.372
 20
127
 30
0
 11
25.372
 21
123.25
 31
0
  0
LINE
  5
A30
330
A02
100
AcDbEntity
  8
Sketch
100
AcDbLine
 10
25.372
 20
123.25
 30
0
 11
17.522
 21
123.25
 31
0
  0
LINE
  5
A31
330
A02
100
AcDbEntity
  8
Sketch
100
AcDbLine
 10
17.522
 20
123.25
 30
0
 11
17.522
 21
127
 31
0
  0
LINE
  5
A32
330
A02
100
AcDbEntity
  8
Sketch
100
AcDbLine
 10
20
 20
117
 30
0
 11
41.744
 21
117
 31
0
  0
LINE
  5
A33
330
A02
100
AcDbEntity
  8
Sketch
100
AcDbLine
 10
41.744
 20
117
 30
0
 11
41.744
 21
106.136
 31
0
  0
LINE
  5
A34
330
A02
100
AcDbEntity
  8
Sketch
100
AcDbLine
 10
41.744
 20
106.136
 30
0
 11
20
 21
106.136
 31
0
  0
LINE
  5
A35
330
A02
100
AcDbEntity
  8
Sketch
100
AcDbLine
 10
20
 20
106.136
 30
0
 11
20
 21
117
 31
0
  0
LINE
  5
A36
330
A02
100
AcDbEntity
  8
Sketch
100
AcDbLine
 10
36.572
 20
127
 30
0
 11
44.422
 21
127
 31
0
  0
LINE
  5
A37
330
A02
100
AcDbEntity
  8
Sketch
100
AcDbLine
 10
44.422
 20
127
 30
0
 11
44.422
 21
123.25
 31
0
  0
LINE
  5
A38
330
A02
100
AcDbEntity
  8
Sketch
100
AcDbLine
 10
44.422
 20
123.25
 30
0
 11
36.572
 21
123.25
 31
0
  0
LINE
  5
A39
330
A02
100
AcDbEntity
  8
Sketch
100
AcDbLine
 10
36.572
 20
123.25
 30
0
 11
36.572
 21
127
 31
0
  0
CIRCLE
  5
A3A
330
A02
100
AcDbEntity
  8
Sketch
100
AcDbCircle
 10
10
 20
117
 40
2
  0
CIRCLE
  5
A3B
330
A02
100
AcDbEntity
  8
Sketch
100
AcDbCircle
 10
244
 20
117
 40
2
  0
CIRCLE
  5
A3C
330
A02
100
AcDbEntity
  8
Sketch
100
AcDbCircle
 10
244
 20
10
 40
2
  0
CIRCLE
  5
A3D
330
A02
100
AcDbEntity
  8
Sketch
100
AcDbCircle
 10
10
 20
10
 40
2
  0
CIRCLE
  5
A3E
330
A02
100
AcDbEntity
  8
Sketch
100
AcDbCircle
 10
109.191
 20
10
 40
2
  0
CIRCLE
  5
A3F
330
A02
100
AcDbEntity
  8
Sketch
100
AcDbCircle
 10
144.809
 20
117
 40
2
  0
LINE
  5
A40
330
A02
100
AcDbEntity
  8
Sketch
100
AcDbLine
 10
23.172
 20
98.48
 30
0
 11
23.172
 21
108.71
 31
0
  0
LINE
  5
A41
330
A02
100
AcDbEntity
  8
Sketch
100
AcDbLine
 10
23.172
 20
108.71
 30
0
 11
38.772
 21
108.71
 31
0
  0
LINE
  5
A42
330
A02
100
AcDbEntity
  8
Sketch
100
AcDbLine
 10
38.772
 20
108.71
 30
0
 11
38.772
 21
98.48
 31
0
  0
ARC
  5
A43
330
A02
100
AcDbEntity
  8
Sketch
100
AcDbCircle
 10
23.172
 20
98.48
 30
0
 40
0.5
100
AcDbArc
 50
90
 51
-90
  0
LINE
  5
A44
330
A02
100
AcDbEntity
  8
Sketch
100
AcDbLine
 10
23.172
 20
97.98
 30
0
 11
38.772
 21
97.98
 31
0
  0
ARC
  5
A45
330
A02
100
AcDbEntity
  8
Sketch
100
AcDbCircle
 10
38.772
 20
98.48
 30
0
 40
0.5
100
AcDbArc
 50
-90
 51
90
  0
LINE
  5
A46
330
A02
100
AcDbEntity
  8
Sketch
100
AcDbLine
 10
23.172
 20
98.98
 30
0
 11
38.772
 21
98.98
 31
0
  0
LINE
  5
A47
330
A02
100
AcDbEntity
  8
Sketch001
100
AcDbLine
 10
28.9815
 20
84.9159
 30
0
 11
28.9815
 21
83.9159
 31
0
  0
LINE
  5
A48
330
A02
100
AcDbEntity
  8
Sketch001
100
AcDbLine
 10
28.9815
 20
83.9159
 30
0
 11
28.9815
 21
82.9159
 31
0
  0
LINE
  5
A49
330
A02
100
AcDbEntity
  8
Sketch001
100
AcDbLine
 10
28.9815
 20
83.9159
 30
0
 11
27.9815
 21
83.9159
 31
0
  0
LINE
  5
A4A
330
A02
100
AcDbEntity
  8
Sketch001
100
AcDbLine
 10
28.9815
 20
83.9159
 30
0
 11
29.9815
 21
83.9159
 31
0
  0
LINE
  5
A4B
330
A02
100
AcDbEntity
  8
Sketch001
100
AcDbLine
 10
58.0289
 20
92.4159
 30
0
 11
58.0289
 21
91.4159
 31
0
  0
LINE
  5
A4C
330
A02
100
AcDbEntity
  8
Sketch001
100
AcDbLine
 10
58.0289
 20
91.4159
 30
0
 11
58.0289
 21
90.4159
 31
0
  0
LINE
  5
A4D
330
A02
100
AcDbEntity
  8
Sketch001
100
AcDbLine
 10
58.0289
 20
91.4159
 30
0
 11
57.0289
 21
91.4159
 31
0
  0
LINE
  5
A4E
330
A02
100
AcDbEntity
  8
Sketch001
100
AcDbLine
 10
58.0289
 20
91.4159
 30
0
 11
59.0289
 21
91.4159
 31
0
  0
LINE
  5
A4F
330
A02
100
AcDbEntity
  8
Sketch001
100
AcDbLine
 10
28.9815
 20
54.9159
 30
0
 11
28.9815
 21
53.9159
 31
0
  0
LINE
  5
A50
330
A02
100
AcDbEntity
  8
Sketch001
100
AcDbLine
 10
28.9815
 20
53.9159
 30
0
 11
28.9815
 21
52.9159
 31
0
  0
LINE
  5
A51
330
A02
100
AcDbEntity
  8
Sketch001
100
AcDbLine
 10
28.9815
 20
53.9159
 30
0
 11
27.9815
 21
53.9159
 31
0
  0
LINE
  5
A52
330
A02
100
AcDbEntity
  8
Sketch001
100
AcDbLine
 10
28.9815
 20
53.9159
 30
0
 11
29.9815
 21
53.9159
 31
0
  0
LINE
  5
A53
330
A02
100
AcDbEntity
  8
Sketch001
100
AcDbLine
 10
58.0289
 20
62.4159
 30
0
 11
58.0289
 21
61.4159
 31
0
  0
LINE
  5
A54
330
A02
100
AcDbEntity
  8
Sketch001
100
AcDbLine
 10
58.0289
 20
61.4159
 30
0
 11
58.0289
 21
60.4159
 31
0
  0
LINE
  5
A55
330
A02
100
AcDbEntity
  8
Sketch001
100
AcDbLine
 10
58.0289
 20
61.4159
 30
0
 11
57.0289
 21
61.4159
 31
0
  0
LINE
  5
A56
330
A02
100
AcDbEntity
  8
Sketch001
100
AcDbLine
 10
58.0289
 20
61.4159
 30
0
 11
59.0289
 21
61.4159
 31
0
  0
LINE
  5
A57
330
A02
100
AcDbEntity
  8
Sketch001
100
AcDbLine
 10
88.0289
 20
92.4159
 30
0
 11
88.0289
 21
91.4159
 31
0
  0
LINE
  5
A58
330
A02
100
AcDbEntity
  8
Sketch001
100
AcDbLine
 10
88.0289
 20
91.4159
 30
0
 11
88.0289
 21
90.4159
 31
0
  0
LINE
  5
A59
330
A02
100
AcDbEntity
  8
Sketch001
100
AcDbLine
 10
88.0289
 20
91.4159
 30
0
 11
87.0289
 21
91.4159
 31
0
  0
LINE
  5
A5A
330
A02
100
AcDbEntity
  8
Sketch001
100
AcDbLine
 10
88.0289
 20
91.4159
 30
0
 11
89.0289
 21
91.4159
 31
0
  0
LINE
  5
A5B
330
A02
100
AcDbEntity
  8
Sketch001
100
AcDbLine
 10
88.0289
 20
62.4159
 30
0
 11
88.0289
 21
61.4159
 31
0
  0
LINE
  5
A5C
330
A02
100
AcDbEntity
  8
Sketch001
100
AcDbLine
 10
88.0289
 20
61.4159
 30
0
 11
88.0289
 21
60.4159
 31
0
  0
LINE
  5
A5D
330
A02
100
AcDbEntity
  8
Sketch001
100
AcDbLine
 10
88.0289
 20
61.4159
 30
0
 11
87.0289
 21
61.4159
 31
0
  0
LINE
  5
A5E
330
A02
100
AcDbEntity
  8
Sketch001
100
AcDbLine
 10
88.0289
 20
61.4159
 30
0
 11
89.0289
 21
61.4159
 31
0
  0
LINE
  5
A5F
330
A02
100
AcDbEntity
  8
Sketch001
100
AcDbLine
 10
114.01
 20
77.4159
 30
0
 11
114.01
 21
76.4159
 31
0
  0
LINE
  5
A60
330
A02
100
AcDbEntity
  8
Sketch001
100
AcDbLine
 10
114.01
 20
76.4159
 30
0
 11
114.01
 21
75.4159
 31
0
  0
LINE
  5
A61
330
A02
100
AcDbEntity
  8
Sketch001
100
AcDbLine
 10
114.01
 20
76.4159
 30
0
 11
113.01
 21
76.4159
 31
0
  0
LINE
  5
A62
330
A02
100
AcDbEntity
  8
Sketch001
100
AcDbLine
 10
114.01
 20
76.4159
 30
0
 11
115.01
 21
76.4159
 31
0
  0
LINE
  5
A63
330
A02
100
AcDbEntity
  8
Sketch001
100
AcDbLine
 10
139.99
 20
92.4159
 30
0
 11
139.99
 21
91.4159
 31
0
  0
LINE
  5
A64
330
A02
100
AcDbEntity
  8
Sketch001
100
AcDbLine
 10
139.99
 20
91.4159
 30
0
 11
139.99
 21
90.4159
 31
0
  0
LINE
  5
A65
330
A02
100
AcDbEntity
  8
Sketch001
100
AcDbLine
 10
139.99
 20
91.4159
 30
0
 11
138.99
 21
91.4159
 31
0
  0
LINE
  5
A66
330
A02
100
AcDbEntity
  8
Sketch001
100
AcDbLine
 10
139.99
 20
91.4159
 30
0
 11
140.99
 21
91.4159
 31
0
  0
LINE
  5
A67
330
A02
100
AcDbEntity
  8
Sketch001
100
AcDbLine
 10
165.971
 20
107.416
 30
0
 11
165.971
 21
106.416
 31
0
  0
LINE
  5
A68
330
A02
100
AcDbEntity
  8
Sketch001
100
AcDbLine
 10
165.971
 20
106.416
 30
0
 11
165.971
 21
105.416
 31
0
  0
LINE
  5
A69
330
A02
100
AcDbEntity
  8
Sketch001
100
AcDbLine
 10
165.971
 20
106.416
 30
0
 11
164.971
 21
106.416
 31
0
  0
LINE
  5
A6A
330
A02
100
AcDbEntity
  8
Sketch001
100
AcDbLine
 10
165.971
 20
106.416
 30
0
 11
166.971
 21
106.416
 31
0
  0
LINE
  5
A6B
330
A02
100
AcDbEntity
  8
Sketch001
100
AcDbLine
 10
139.99
 20
62.4159
 30
0
 11
139.99
 21
61.4159
 31
0
  0
LINE
  5
A6C
330
A02
100
AcDbEntity
  8
Sketch001
100
AcDbLine
 10
139.99
 20
61.4159
 30
0
 11
139.99
 21
60.4159
 31
0
  0
LINE
  5
A6D
330
A02
100
AcDbEntity
  8
Sketch001
100
AcDbLine
 10
139.99
 20
61.4159
 30
0
 11
138.99
 21
61.4159
 31
0
  0
LINE
  5
A6E
330
A02
100
AcDbEntity
  8
Sketch001
100
AcDbLine
 10
139.99
 20
61.4159
 30
0
 11
140.99
 21
61.4159
 31
0
  0
LINE
  5
A6F
330
A02
100
AcDbEntity
  8
Sketch001
100
AcDbLine
 10
165.971
 20
77.4159
 30
0
 11
165.971
 21
76.4159
 31
0
  0
LINE
  5
A70
330
A02
100
AcDbEntity
  8
Sketch001
100
AcDbLine
 10
165.971
 20
76.4159
 30
0
 11
165.971
 21
75.4159
 31
0
  0
LINE
  5
A71
330
A02
100
AcDbEntity
  8
Sketch001
100
AcDbLine
 10
165.971
 20
76.4159
 30
0
 11
164.971
 21
76.4159
 31
0
  0
LINE
  5
A72
330
A02
100
AcDbEntity
  8
Sketch001
100
AcDbLine
 10
165.971
 20
76.4159
 30
0
 11
166.971
 21
76.4159
 31
0
  0
LINE
  5
A73
330
A02
100
AcDbEntity
  8
Sketch001
100
AcDbLine
 10
195.971
 20
107.416
 30
0
 11
195.971
 21
106.416
 31
0
  0
LINE
  5
A74
330
A02
100
AcDbEntity
  8
Sketch001
100
AcDbLine
 10
195.971
 20
106.416
 30
0
 11
195.971
 21
105.416
 31
0
  0
LINE
  5
A75
330
A02
100
AcDbEntity
  8
Sketch001
100
AcDbLine
 10
195.971
 20
106.416
 30
0
 11
194.971
 21
106.416
 31
0
  0
LINE
  5
A76
330
A02
100
AcDbEntity
  8
Sketch001
100
AcDbLine
 10
195.971
 20
106.416
 30
0
 11
196.971
 21
106.416
 31
0
  0
LINE
  5
A77
330
A02
100
AcDbEntity
  8
Sketch001
100
AcDbLine
 10
195.971
 20
77.4159
 30
0
 11
195.971
 21
76.4159
 31
0
  0
LINE
  5
A78
330
A02
100
AcDbEntity
  8
Sketch001
100
AcDbLine
 10
195.971
 20
76.4159
 30
0
 11
195.971
 21
75.4159
 31
0
  0
LINE
  5
A79
330
A02
100
AcDbEntity
  8
Sketch001
100
AcDbLine
 10
195.971
 20
76.4159
 30
0
 11
194.971
 21
76.4159
 31
0
  0
LINE
  5
A7A
330
A02
100
AcDbEntity
  8
Sketch001
100
AcDbLine
 10
195.971
 20
76.4159
 30
0
 11
196.971
 21
76.4159
 31
0
  0
LINE
  5
A7B
330
A02
100
AcDbEntity
  8
Sketch001
100
AcDbLine
 10
225.019
 20
99.9159
 30
0
 11
225.019
 21
98.9159
 31
0
  0
LINE
  5
A7C
330
A02
100
AcDbEntity
  8
Sketch001
100
AcDbLine
 10
225.019
 20
98.9159
 30
0
 11
225.019
 21
97.9159
 31
0
  0
LINE
  5
A7D
330
A02
100
AcDbEntity
  8
Sketch001
100
AcDbLine
 10
225.019
 20
98.9159
 30
0
 11
224.019
 21
98.9159
 31
0
  0
LINE
  5
A7E
330
A02
100
AcDbEntity
  8
Sketch001
100
AcDbLine
 10
225.019
 20
98.9159
 30
0
 11
226.019
 21
98.9159
 31
0
  0
LINE
  5
A7F
330
A02
100
AcDbEntity
  8
Sketch001
100
AcDbLine
 10
225.019
 20
69.9159
 30
0
 11
225.019
 21
68.9159
 31
0
  0
LINE
  5
A80
330
A02
100
AcDbEntity
  8
Sketch001
100
AcDbLine
 10
225.019
 20
68.9159
 30
0
 11
225.019
 21
67.9159
 31
0
  0
LINE
  5
A81
330
A02
100
AcDbEntity
  8
Sketch001
100
AcDbLine
 10
225.019
 20
68.9159
 30
0
 11
224.019
 21
68.9159
 31
0
  0
LINE
  5
A82
330
A02
100
AcDbEntity
  8
Sketch001
100
AcDbLine
 10
225.019
 20
68.9159
 30
0
 11
226.019
 21
68.9159
 31
0
  0
LINE
  5
A83
330
A02
100
AcDbEntity
  8
Sketch001
100
AcDbLine
 10
127
 20
24.5841
 30
0
 11
127
 21
23.5841
 31
0
  0
LINE
  5
A84
330
A02
100
AcDbEntity
  8
Sketch001
100
AcDbLine
 10
127
 20
23.5841
 30
0
 11
127
 21
22.5841
 31
0
  0
LINE
  5
A85
330
A02
100
AcDbEntity
  8
Sketch001
100
AcDbLine
 10
127
 20
23.5841
 30
0
 11
126
 21
23.5841
 31
0
  0
LINE
  5
A86
330
A02
100
AcDbEntity
  8
Sketch001
100
AcDbLine
 10
127
 20
23.5841
 30
0
 11
128
 21
23.5841
 31
0
  0
LINE
  5
A87
330
A02
100
AcDbEntity
  8
Sketch001
100
AcDbLine
 10
94.1366
 20
27.5841
 30
0
 11
94.1366
 21
26.5841
 31
0
  0
LINE
  5
A88
330
A02
100
AcDbEntity
  8
Sketch001
100
AcDbLine
 10
94.1366
 20
26.5841
 30
0
 11
94.1366
 21
25.5841
 31
0
  0
LINE
  5
A89
330
A02
100
AcDbEntity
  8
Sketch001
100
AcDbLine
 10
94.1366
 20
26.5841
 30
0
 11
95.1366
 21
26.5841
 31
0
  0
LINE
  5
A8A
330
A02
100
AcDbEntity
  8
Sketch001
100
AcDbLine
 10
94.1366
 20
26.5841
 30
0
 11
93.1366
 21
26.5841
 31
0
  0
LINE
  5
A8B
330
A02
100
AcDbEntity
  8
Sketch001
100
AcDbLine
 10
157.215
 20
37.8533
 30
0
 11
157.215
 21
36.8533
 31
0
  0
LINE
  5
A8C
330
A02
100
AcDbEntity
  8
Sketch001
100
AcDbLine
 10
157.215
 20
36.8533
 30
0
 11
158.215
 21
36.8533
 31
0
  0
LINE
  5
A8D
330
A02
100
AcDbEntity
  8
Sketch001
100
AcDbLine
 10
157.215
 20
36.8533
 30
0
 11
156.215
 21
36.8533
 31
0
  0
LINE
  5
A8E
330
A02
100
AcDbEntity
  8
Sketch001
100
AcDbLine
 10
157.215
 20
36.8533
 30
0
 11
157.215
 21
35.8533
 31
0
  0
ENDSEC
  0
SECTION
  2
OBJECTS
  0
DICTIONARY
  5
F000
330
0
100
AcDbDictionary
  3
ACAD_GROUP
350
F001
  0
DICTIONARY
  5
F001
330
F000
100
AcDbDictionary
  0
ENDSEC
  0
EOF