<?xml version="1.0" encoding="UTF-8" standalone="no"?>
<!-- Created with Inkscape (http://www.inkscape.org/) -->

<svg
   version="1.1"
   id="svg182"
   width="1056"
   height="816"
   viewBox="0 0 1056 816"
   sodipodi:docname="layers.svg"
   xml:space="preserve"
   inkscape:version="1.2.2 (732a01da63, 2022-12-09)"
   xmlns:inkscape="http://www.inkscape.org/namespaces/inkscape"
   xmlns:sodipodi="http://sodipodi.sourceforge.net/DTD/sodipodi-0.dtd"
   xmlns="http://www.w3.org/2000/svg"
   xmlns:svg="http://www.w3.org/2000/svg"><defs
     id="defs186"><marker
       id="DistanceX"
       orient="auto"
       refX="0"
       refY="0"
       style="overflow:visible"><path
         d="M 3,-3 -3,3 M 0,-5 V 5"
         style="stroke:#000000;stroke-width:0.5"
         id="path464" /></marker><pattern
       id="Hatch"
       patternUnits="userSpaceOnUse"
       width="8"
       height="8"
       x="0"
       y="0"><path
         d="M8 4 l-4,4"
         stroke="#000000"
         stroke-width="0.25"
         linecap="square"
         id="path467" /><path
         d="M6 2 l-4,4"
         stroke="#000000"
         stroke-width="0.25"
         linecap="square"
         id="path469" /><path
         d="M4 0 l-4,4"
         stroke="#000000"
         stroke-width="0.25"
         linecap="square"
         id="path471" /></pattern><symbol
       id="*Model_Space" /><symbol
       id="*Paper_Space" /><marker
       id="DistanceX-1"
       orient="auto"
       refX="0"
       refY="0"
       style="overflow:visible"><path
         d="M 3,-3 -3,3 M 0,-5 V 5"
         style="stroke:#000000;stroke-width:0.5"
         id="path641" /></marker><pattern
       id="Hatch-5"
       patternUnits="userSpaceOnUse"
       width="8"
       height="8"
       x="0"
       y="0"><path
         d="M8 4 l-4,4"
         stroke="#000000"
         stroke-width="0.25"
         linecap="square"
         id="path644" /><path
         d="M6 2 l-4,4"
         stroke="#000000"
         stroke-width="0.25"
         linecap="square"
         id="path646" /><path
         d="M4 0 l-4,4"
         stroke="#000000"
         stroke-width="0.25"
         linecap="square"
         id="path648" /></pattern><symbol
       id="*Model_Space-8" /><symbol
       id="*Paper_Space-3" /><marker
       id="DistanceX-3"
       orient="auto"
       refX="0"
       refY="0"
       style="overflow:visible"><path
         d="M 3,-3 -3,3 M 0,-5 V 5"
         style="stroke:#000000;stroke-width:0.5"
         id="path2074" /></marker><pattern
       id="Hatch-1"
       patternUnits="userSpaceOnUse"
       width="8"
       height="8"
       x="0"
       y="0"><path
         d="M8 4 l-4,4"
         stroke="#000000"
         stroke-width="0.25"
         linecap="square"
         id="path2077" /><path
         d="M6 2 l-4,4"
         stroke="#000000"
         stroke-width="0.25"
         linecap="square"
         id="path2079" /><path
         d="M4 0 l-4,4"
         stroke="#000000"
         stroke-width="0.25"
         linecap="square"
         id="path2081" /></pattern><symbol
       id="*MODEL_SPACE" /><symbol
       id="*PAPER_SPACE" /></defs><sodipodi:namedview
     id="namedview184"
     pagecolor="#ffffff"
     bordercolor="#000000"
     borderopacity="0.25"
     inkscape:showpageshadow="2"
     inkscape:pageopacity="0.0"
     inkscape:pagecheckerboard="0"
     inkscape:deskcolor="#d1d1d1"
     showgrid="false"
     inkscape:zoom="0.16951932"
     inkscape:cx="117.98065"
     inkscape:cy="-1082.4725"
     inkscape:window-width="1920"
     inkscape:window-height="1009"
     inkscape:window-x="-8"
     inkscape:window-y="540"
     inkscape:window-maximized="1"
     inkscape:current-layer="svg182" /><g
     id="g190"
     inkscape:groupmode="layer"
     inkscape:label="Page 1"
     transform="matrix(1.3333333,0,0,-1.3333333,0,816)"><g
       id="g234" /><g
       id="g256" /><g
       inkscape:label="0"
       id="g478"
       transform="matrix(0.75000002,0,0,-0.75000002,36.124981,1389.6448)" /><g
       inkscape:label="none"
       id="g570"
       transform="matrix(0.75000002,0,0,-0.75000002,36.124981,1389.6448)" /><g
       id="g5357"
       transform="translate(19.50166)"
       style="stroke-width:0.75;stroke-dasharray:none"><path
         id="path671"
         style="fill:none;stroke:#000000;stroke-width:0.75;stroke-linecap:round;stroke-dasharray:none"
         d="m 38.341782,2805.7786 c -15.655334,0 -28.346467,12.6912 -28.346467,28.3482 0,0 0,202.2036 0,303.3054 0,15.6554 12.691164,28.3464 28.346467,28.3464 221.102398,0 649.944588,-1e-4 663.307188,0 15.6552,10e-5 28.34637,-12.691 28.34637,-28.3464 v -303.3054 c 0,-15.657 -12.69114,-28.3482 -28.34637,-28.3482 z"
         sodipodi:nodetypes="sssssssss" /><path
         d="m 42.026812,3137.4323 a 3.6850396,3.6850396 0 0 1 -7.370079,0 3.6850396,3.6850396 0 0 1 7.370079,0 z"
         style="fill:none;stroke:#000000;stroke-width:0.75;stroke-linecap:round;stroke-dasharray:none"
         id="path681" /><path
         d="m 424.16257,3137.4323 a 3.68504,3.68504 0 0 1 -7.37008,0 3.68504,3.68504 0 0 1 7.37008,0 z"
         style="fill:none;stroke:#000000;stroke-width:0.75;stroke-linecap:round;stroke-dasharray:none"
         id="path683" /><path
         d="m 705.33392,3137.4323 a 3.68504,3.68504 0 0 1 -7.37008,0 3.68504,3.68504 0 0 1 7.37008,0 z"
         style="fill:none;stroke:#000000;stroke-width:0.75;stroke-linecap:round;stroke-dasharray:none"
         id="path685" /><path
         d="m 705.33392,2834.1252 a 3.68504,3.68504 0 0 1 -7.37008,0 3.68504,3.68504 0 0 1 7.37008,0 z"
         style="fill:none;stroke:#000000;stroke-width:0.75;stroke-linecap:round;stroke-dasharray:none"
         id="path687" /><path
         d="m 323.19816,2834.1252 a 3.68504,3.68504 0 0 1 -7.37008,0 3.68504,3.68504 0 0 1 7.37008,0 z"
         style="fill:none;stroke:#000000;stroke-width:0.75;stroke-linecap:round;stroke-dasharray:none"
         id="path689" /><path
         d="m 42.026812,2834.1252 a 3.6850396,3.6850396 0 0 1 -7.370079,0 3.6850396,3.6850396 0 0 1 7.370079,0 z"
         style="fill:none;stroke:#000000;stroke-width:0.75;stroke-linecap:round;stroke-dasharray:none"
         id="path691" /><path
         d="m 123.3287,3043.6506 a 31.181103,31.181103 0 0 1 -62.362202,0 31.181103,31.181103 0 0 1 62.362202,0 z"
         style="fill:none;stroke:#000000;stroke-width:0.75;stroke-linecap:round;stroke-dasharray:none"
         id="path693" /><path
         d="m 205.66779,3064.9104 a 31.181105,31.181105 0 0 1 -62.36221,0 31.181105,31.181105 0 0 1 62.36221,0 z"
         style="fill:none;stroke:#000000;stroke-width:0.75;stroke-linecap:round;stroke-dasharray:none"
         id="path695" /><path
         d="m 123.3287,2958.6112 a 31.181103,31.181103 0 0 1 -62.362202,0 31.181103,31.181103 0 0 1 62.362202,0 z"
         style="fill:none;stroke:#000000;stroke-width:0.75;stroke-linecap:round;stroke-dasharray:none"
         id="path697" /><path
         d="m 205.66779,2979.871 a 31.181105,31.181105 0 0 1 -62.36221,0 31.181105,31.181105 0 0 1 62.36221,0 z"
         style="fill:none;stroke:#000000;stroke-width:0.75;stroke-linecap:round;stroke-dasharray:none"
         id="path699" /><path
         d="m 290.70717,2979.871 a 31.181105,31.181105 0 0 1 -62.36221,0 31.181105,31.181105 0 0 1 62.36221,0 z"
         style="fill:none;stroke:#000000;stroke-width:0.75;stroke-linecap:round;stroke-dasharray:none"
         id="path701" /><path
         d="m 290.70717,3064.9104 a 31.181105,31.181105 0 0 1 -62.36221,0 31.181105,31.181105 0 0 1 62.36221,0 z"
         style="fill:none;stroke:#000000;stroke-width:0.75;stroke-linecap:round;stroke-dasharray:none"
         id="path703" /><path
         d="m 364.35438,3022.3907 a 31.181105,31.181105 0 0 1 -62.36221,0 31.181105,31.181105 0 0 1 62.36221,0 z"
         style="fill:none;stroke:#000000;stroke-width:0.75;stroke-linecap:round;stroke-dasharray:none"
         id="path705" /><path
         d="m 437.99848,3064.9104 a 31.181105,31.181105 0 0 1 -62.36221,0 31.181105,31.181105 0 0 1 62.36221,0 z"
         style="fill:none;stroke:#000000;stroke-width:0.75;stroke-linecap:round;stroke-dasharray:none"
         id="path707" /><path
         d="m 437.99848,2979.871 a 31.181105,31.181105 0 0 1 -62.36221,0 31.181105,31.181105 0 0 1 62.36221,0 z"
         style="fill:none;stroke:#000000;stroke-width:0.75;stroke-linecap:round;stroke-dasharray:none"
         id="path709" /><path
         d="m 308.02033,2881.1353 a 31.181105,31.181105 0 0 1 -62.36221,0 31.181105,31.181105 0 0 1 62.36221,0 z"
         style="fill:none;stroke:#000000;stroke-width:0.75;stroke-linecap:round;stroke-dasharray:none"
         id="path711" /><path
         d="m 486.82525,2910.2448 a 31.181105,31.181105 0 0 1 -62.36221,0 31.181105,31.181105 0 0 1 62.36221,0 z"
         style="fill:none;stroke:#000000;stroke-width:0.75;stroke-linecap:round;stroke-dasharray:none"
         id="path713" /><path
         d="m 511.64541,3107.4304 a 31.181104,31.181104 0 0 1 -62.3622,0 31.181103,31.181103 0 0 1 62.3622,0 z"
         style="fill:none;stroke:#000000;stroke-width:0.75;stroke-linecap:round;stroke-dasharray:none"
         id="path715" /><path
         d="m 511.64541,3022.3907 a 31.181104,31.181104 0 0 1 -62.3622,0 31.181103,31.181103 0 0 1 62.3622,0 z"
         style="fill:none;stroke:#000000;stroke-width:0.75;stroke-linecap:round;stroke-dasharray:none"
         id="path717" /><path
         d="m 596.68478,3022.3907 a 31.181105,31.181105 0 0 1 -62.36221,0 31.181105,31.181105 0 0 1 62.36221,0 z"
         style="fill:none;stroke:#000000;stroke-width:0.75;stroke-linecap:round;stroke-dasharray:none"
         id="path719" /><path
         d="m 596.68478,3107.4304 a 31.181105,31.181105 0 0 1 -62.36221,0 31.181105,31.181105 0 0 1 62.36221,0 z"
         style="fill:none;stroke:#000000;stroke-width:0.75;stroke-linecap:round;stroke-dasharray:none"
         id="path721" /><path
         d="m 679.02557,3086.1703 a 31.181105,31.181105 0 0 1 -62.36221,0 31.181105,31.181105 0 0 1 62.36221,0 z"
         style="fill:none;stroke:#000000;stroke-width:0.75;stroke-linecap:round;stroke-dasharray:none"
         id="path723" /><path
         d="m 679.02557,3001.1309 a 31.181105,31.181105 0 0 1 -62.36221,0 31.181105,31.181105 0 0 1 62.36221,0 z"
         style="fill:none;stroke:#000000;stroke-width:0.75;stroke-linecap:round;stroke-dasharray:none"
         id="path725" /><path
         d="m 408.26304,2872.6313 a 38.267718,38.267718 0 0 1 -76.53543,0 38.267718,38.267718 0 0 1 76.53543,0 z"
         style="fill:none;stroke:#000000;stroke-width:0.75;stroke-linecap:round;stroke-dasharray:none"
         id="path727" /></g><g
       id="g813"
       style="stroke-width:0.75;stroke-dasharray:none"
       transform="translate(-0.12501516)"><path
         d="m 63.637748,2747.945 a 5.6692918,5.6692918 0 0 1 -11.338583,0 5.6692918,5.6692918 0 0 1 11.338583,0 z"
         style="fill:none;stroke:#000000;stroke-width:0.75;stroke-linecap:round;stroke-dasharray:none"
         id="path504" /><path
         d="m 726.94485,2747.945 a 5.6692918,5.6692918 0 0 1 -11.33858,0 5.6692918,5.6692918 0 0 1 11.33858,0 z"
         style="fill:none;stroke:#000000;stroke-width:0.75;stroke-linecap:round;stroke-dasharray:none"
         id="path506" /><path
         d="m 726.94485,2444.6379 a 5.6692918,5.6692918 0 0 1 -11.33858,0 5.6692918,5.6692918 0 0 1 11.33858,0 z"
         style="fill:none;stroke:#000000;stroke-width:0.75;stroke-linecap:round;stroke-dasharray:none"
         id="path508" /><path
         d="m 63.637748,2444.6379 a 5.6692918,5.6692918 0 0 1 -11.338583,0 5.6692918,5.6692918 0 0 1 11.338583,0 z"
         style="fill:none;stroke:#000000;stroke-width:0.75;stroke-linecap:round;stroke-dasharray:none"
         id="path510" /><path
         d="m 344.8091,2444.6379 a 5.669295,5.669295 0 0 1 -11.33859,0 5.669295,5.669295 0 0 1 11.33859,0 z"
         style="fill:none;stroke:#000000;stroke-width:0.75;stroke-linecap:round;stroke-dasharray:none"
         id="path512" /><path
         d="m 445.77351,2747.945 a 5.669295,5.669295 0 0 1 -11.33859,0 5.669295,5.669295 0 0 1 11.33859,0 z"
         style="fill:none;stroke:#000000;stroke-width:0.75;stroke-linecap:round;stroke-dasharray:none"
         id="path514" /><path
         d="m 142.95539,2654.1633 a 31.181104,31.181104 0 0 1 -62.362208,0 31.181104,31.181104 0 0 1 62.362208,0 z"
         style="fill:none;stroke:#000000;stroke-width:0.75;stroke-linecap:round;stroke-dasharray:none"
         id="path532" /><path
         d="m 225.29448,2675.4231 a 31.181105,31.181105 0 0 1 -62.36221,0 31.181105,31.181105 0 0 1 62.36221,0 z"
         style="fill:none;stroke:#000000;stroke-width:0.75;stroke-linecap:round;stroke-dasharray:none"
         id="path534" /><path
         d="m 142.95539,2569.1239 a 31.181104,31.181104 0 0 1 -62.362208,0 31.181104,31.181104 0 0 1 62.362208,0 z"
         style="fill:none;stroke:#000000;stroke-width:0.75;stroke-linecap:round;stroke-dasharray:none"
         id="path536" /><path
         d="m 225.29448,2590.3837 a 31.181105,31.181105 0 0 1 -62.36221,0 31.181105,31.181105 0 0 1 62.36221,0 z"
         style="fill:none;stroke:#000000;stroke-width:0.75;stroke-linecap:round;stroke-dasharray:none"
         id="path538" /><path
         d="m 310.33385,2590.3837 a 31.181105,31.181105 0 0 1 -62.36221,0 31.181105,31.181105 0 0 1 62.36221,0 z"
         style="fill:none;stroke:#000000;stroke-width:0.75;stroke-linecap:round;stroke-dasharray:none"
         id="path540" /><path
         d="m 310.33385,2675.4231 a 31.181105,31.181105 0 0 1 -62.36221,0 31.181105,31.181105 0 0 1 62.36221,0 z"
         style="fill:none;stroke:#000000;stroke-width:0.75;stroke-linecap:round;stroke-dasharray:none"
         id="path542" /><path
         d="m 383.98107,2632.9034 a 31.181105,31.181105 0 0 1 -62.36221,0 31.181105,31.181105 0 0 1 62.36221,0 z"
         style="fill:none;stroke:#000000;stroke-width:0.75;stroke-linecap:round;stroke-dasharray:none"
         id="path544" /><path
         d="m 457.62516,2675.4231 a 31.181105,31.181105 0 0 1 -62.3622,0 31.181105,31.181105 0 0 1 62.3622,0 z"
         style="fill:none;stroke:#000000;stroke-width:0.75;stroke-linecap:round;stroke-dasharray:none"
         id="path546" /><path
         d="m 457.62516,2590.3837 a 31.181105,31.181105 0 0 1 -62.3622,0 31.181105,31.181105 0 0 1 62.3622,0 z"
         style="fill:none;stroke:#000000;stroke-width:0.75;stroke-linecap:round;stroke-dasharray:none"
         id="path548" /><path
         d="m 327.64702,2491.648 a 31.181105,31.181105 0 0 1 -62.36221,0 31.181105,31.181105 0 0 1 62.36221,0 z"
         style="fill:none;stroke:#000000;stroke-width:0.75;stroke-linecap:round;stroke-dasharray:none"
         id="path550" /><path
         d="m 506.45194,2520.7575 a 31.181105,31.181105 0 0 1 -62.36221,0 31.181105,31.181105 0 0 1 62.36221,0 z"
         style="fill:none;stroke:#000000;stroke-width:0.75;stroke-linecap:round;stroke-dasharray:none"
         id="path552" /><path
         d="m 531.27209,2717.9431 a 31.181104,31.181104 0 0 1 -62.3622,0 31.181103,31.181103 0 0 1 62.3622,0 z"
         style="fill:none;stroke:#000000;stroke-width:0.75;stroke-linecap:round;stroke-dasharray:none"
         id="path554" /><path
         d="m 531.27209,2632.9034 a 31.181104,31.181104 0 0 1 -62.3622,0 31.181103,31.181103 0 0 1 62.3622,0 z"
         style="fill:none;stroke:#000000;stroke-width:0.75;stroke-linecap:round;stroke-dasharray:none"
         id="path556" /><path
         d="m 616.31147,2632.9034 a 31.181105,31.181105 0 0 1 -62.36221,0 31.181105,31.181105 0 0 1 62.36221,0 z"
         style="fill:none;stroke:#000000;stroke-width:0.75;stroke-linecap:round;stroke-dasharray:none"
         id="path558" /><path
         d="m 616.31147,2717.9431 a 31.181105,31.181105 0 0 1 -62.36221,0 31.181105,31.181105 0 0 1 62.36221,0 z"
         style="fill:none;stroke:#000000;stroke-width:0.75;stroke-linecap:round;stroke-dasharray:none"
         id="path560" /><path
         d="m 698.65225,2696.6829 a 31.181103,31.181103 0 0 1 -62.3622,0 31.181103,31.181103 0 0 1 62.3622,0 z"
         style="fill:none;stroke:#000000;stroke-width:0.75;stroke-linecap:round;stroke-dasharray:none"
         id="path562" /><path
         d="m 698.65225,2611.6436 a 31.181103,31.181103 0 0 1 -62.3622,0 31.181103,31.181103 0 0 1 62.3622,0 z"
         style="fill:none;stroke:#000000;stroke-width:0.75;stroke-linecap:round;stroke-dasharray:none"
         id="path564" /><path
         d="m 427.88973,2483.144 a 38.26772,38.26772 0 0 1 -76.53544,0 38.26772,38.26772 0 0 1 76.53544,0 z"
         style="fill:none;stroke:#000000;stroke-width:0.75;stroke-linecap:round;stroke-dasharray:none"
         id="path566" /><path
         id="path994"
         style="fill:none;stroke:#000000;stroke-width:0.75;stroke-linecap:round;stroke-dasharray:none"
         d="m 57.968457,2416.2914 c -15.655334,0 -28.346467,12.6913 -28.346467,28.3483 0,0 0,202.2035 0,303.3053 0,15.6554 12.691164,28.3464 28.346467,28.3464 221.102403,0 649.944593,-1e-4 663.307193,0 15.6552,10e-5 28.34637,-12.691 28.34637,-28.3464 v -303.3053 c 0,-15.657 -12.69114,-28.3483 -28.34637,-28.3483 z"
         sodipodi:nodetypes="sssssssss" /></g><g
       id="g5415"
       style="stroke-width:0.75;stroke-dasharray:none"
       transform="translate(-0.12501516)"><path
         d="m 63.637739,2341.6032 a 5.6692918,5.6692918 0 0 1 -11.338583,0 5.6692918,5.6692918 0 0 1 11.338583,0 z"
         style="fill:none;stroke:#000000;stroke-width:0.75;stroke-dasharray:none;stroke-opacity:1"
         id="path2192" /><path
         d="m 726.94484,2341.6032 a 5.6692918,5.6692918 0 0 1 -11.33858,0 5.6692918,5.6692918 0 0 1 11.33858,0 z"
         style="fill:none;stroke:#000000;stroke-width:0.75;stroke-dasharray:none;stroke-opacity:1"
         id="path2194" /><path
         d="m 726.94484,2038.2961 a 5.6692918,5.6692918 0 0 1 -11.33858,0 5.6692918,5.6692918 0 0 1 11.33858,0 z"
         style="fill:none;stroke:#000000;stroke-width:0.75;stroke-dasharray:none;stroke-opacity:1"
         id="path2196" /><path
         d="m 63.637739,2038.2961 a 5.6692918,5.6692918 0 0 1 -11.338583,0 5.6692918,5.6692918 0 0 1 11.338583,0 z"
         style="fill:none;stroke:#000000;stroke-width:0.75;stroke-dasharray:none;stroke-opacity:1"
         id="path2198" /><path
         d="m 344.80909,2038.2961 a 5.669295,5.669295 0 0 1 -11.33859,0 5.669295,5.669295 0 0 1 11.33859,0 z"
         style="fill:none;stroke:#000000;stroke-width:0.75;stroke-dasharray:none;stroke-opacity:1"
         id="path2200" /><path
         d="m 445.7735,2341.6032 a 5.669295,5.669295 0 0 1 -11.33859,0 5.669295,5.669295 0 0 1 11.33859,0 z"
         style="fill:none;stroke:#000000;stroke-width:0.75;stroke-dasharray:none;stroke-opacity:1"
         id="path2202" /><path
         id="path3100"
         style="fill:none;stroke:#000000;stroke-width:0.75;stroke-linecap:round;stroke-dasharray:none;stroke-opacity:1"
         d="m 57.96846,2009.9495 c -15.65534,0 -28.34647,12.6912 -28.34647,28.3482 0,0 0,202.2036 0,303.3054 0,15.6554 12.69116,28.3464 28.34647,28.3464 221.10239,0 649.94458,-1e-4 663.30718,0 15.65521,10e-5 28.34637,-12.691 28.34637,-28.3464 v -303.3054 c 0,-15.657 -12.69114,-28.3482 -28.34637,-28.3482 z"
         sodipodi:nodetypes="sssssssss" /><path
         id="path4435"
         style="fill:none;stroke:#000000;stroke-width:0.75;stroke-linecap:round;stroke-dasharray:none;stroke-opacity:1"
         d="m 156.95996,2289.1053 v 58.4505 c -3e-5,0.7828 -0.63459,1.4173 -1.41742,1.4174 H 79.290653 c -0.782764,-10e-5 -1.417317,-0.6346 -1.417337,-1.4174 v -58.4505 c 2e-5,-0.7827 0.634573,-1.4172 1.417336,-1.4174 h 76.251888 c 0.78283,2e-4 1.41739,0.6347 1.41742,1.4174 z"
         sodipodi:nodetypes="ccccccccc" /><rect
         style="opacity:0.796791;fill:none;stroke:#000000;stroke-width:0.75;stroke-miterlimit:4.8;stroke-dasharray:none;stroke-opacity:1"
         id="rect4694"
         width="39.684975"
         height="39.6847"
         x="91.931763"
         y="-2267.6636"
         transform="scale(1,-1)" /><rect
         style="opacity:0.796791;fill:none;stroke:#000000;stroke-width:0.75;stroke-miterlimit:4.8;stroke-dasharray:none;stroke-opacity:1"
         id="rect4748"
         width="39.684975"
         height="39.6847"
         x="174.27074"
         y="-2288.9238"
         transform="scale(1,-1)" /><rect
         style="opacity:0.796791;fill:none;stroke:#000000;stroke-width:0.75;stroke-miterlimit:4.8;stroke-dasharray:none;stroke-opacity:1"
         id="rect4750"
         width="39.684975"
         height="39.6847"
         x="259.31024"
         y="-2288.9238"
         transform="scale(1,-1)" /><rect
         style="opacity:0.796791;fill:none;stroke:#000000;stroke-width:0.75;stroke-miterlimit:4.8;stroke-dasharray:none;stroke-opacity:1"
         id="rect4752"
         width="39.684975"
         height="39.6847"
         x="332.95724"
         y="-2246.4041"
         transform="scale(1,-1)" /><rect
         style="opacity:0.796791;fill:none;stroke:#000000;stroke-width:0.75;stroke-miterlimit:4.8;stroke-dasharray:none;stroke-opacity:1"
         id="rect4754"
         width="39.684975"
         height="39.6847"
         x="406.60126"
         y="-2288.9238"
         transform="scale(1,-1)" /><rect
         style="opacity:0.796791;fill:none;stroke:#000000;stroke-width:0.75;stroke-miterlimit:4.8;stroke-dasharray:none;stroke-opacity:1"
         id="rect4756"
         width="39.684975"
         height="39.6847"
         x="480.2485"
         y="-2331.4431"
         transform="scale(1,-1)" /><rect
         style="opacity:0.796791;fill:none;stroke:#000000;stroke-width:0.75;stroke-miterlimit:4.8;stroke-dasharray:none;stroke-opacity:1"
         id="rect4758"
         width="39.684975"
         height="39.6847"
         x="565.28772"
         y="-2331.4436"
         transform="scale(1,-1)" /><rect
         style="opacity:0.796791;fill:none;stroke:#000000;stroke-width:0.75;stroke-miterlimit:4.8;stroke-dasharray:none;stroke-opacity:1"
         id="rect4760"
         width="39.684975"
         height="39.6847"
         x="647.62878"
         y="-2310.1841"
         transform="scale(1,-1)" /><rect
         style="opacity:0.796791;fill:none;stroke:#000000;stroke-width:0.75;stroke-miterlimit:4.8;stroke-dasharray:none;stroke-opacity:1"
         id="rect4762"
         width="39.684975"
         height="39.6847"
         x="647.62878"
         y="-2225.1445"
         transform="scale(1,-1)" /><rect
         style="opacity:0.796791;fill:none;stroke:#000000;stroke-width:0.75;stroke-miterlimit:4.8;stroke-dasharray:none;stroke-opacity:1"
         id="rect4764"
         width="39.684975"
         height="39.6847"
         x="565.28772"
         y="-2246.4041"
         transform="scale(1,-1)" /><rect
         style="opacity:0.796791;fill:none;stroke:#000000;stroke-width:0.75;stroke-miterlimit:4.8;stroke-dasharray:none;stroke-opacity:1"
         id="rect4766"
         width="39.684975"
         height="39.6847"
         x="480.24826"
         y="-2246.4041"
         transform="scale(1,-1)" /><rect
         style="opacity:0.796791;fill:none;stroke:#000000;stroke-width:0.75;stroke-miterlimit:4.8;stroke-dasharray:none;stroke-opacity:1"
         id="rect4768"
         width="39.684975"
         height="39.6847"
         x="406.60126"
         y="-2203.8845"
         transform="scale(1,-1)" /><rect
         style="opacity:0.796791;fill:none;stroke:#000000;stroke-width:0.75;stroke-miterlimit:4.8;stroke-dasharray:none;stroke-opacity:1"
         id="rect4770"
         width="39.684975"
         height="39.6847"
         x="259.31024"
         y="-2203.8845"
         transform="scale(1,-1)" /><rect
         style="opacity:0.796791;fill:none;stroke:#000000;stroke-width:0.75;stroke-miterlimit:4.8;stroke-dasharray:none;stroke-opacity:1"
         id="rect4772"
         width="39.684975"
         height="39.6847"
         x="91.93177"
         y="-2182.625"
         transform="scale(1,-1)" /><rect
         style="opacity:0.796791;fill:none;stroke:#000000;stroke-width:0.75;stroke-miterlimit:4.8;stroke-dasharray:none;stroke-opacity:1"
         id="rect4774"
         width="39.684975"
         height="39.6847"
         x="174.27074"
         y="-2203.8845"
         transform="scale(1,-1)" /><rect
         style="opacity:0.796791;fill:none;stroke:#000000;stroke-width:0.75;stroke-miterlimit:4.8;stroke-dasharray:none;stroke-opacity:1"
         id="rect4776"
         width="39.684975"
         height="39.6847"
         x="369.77924"
         y="-2096.6418"
         transform="scale(1,-1)" /><rect
         style="opacity:0.796791;fill:none;stroke:#000000;stroke-width:0.75;stroke-miterlimit:4.8;stroke-dasharray:none;stroke-opacity:1"
         id="rect4778"
         width="39.684975"
         height="39.6847"
         x="455.4285"
         y="-2134.2581"
         transform="scale(1,-1)" /><rect
         style="opacity:0.796791;fill:none;stroke:#000000;stroke-width:0.75;stroke-miterlimit:4.8;stroke-dasharray:none;stroke-opacity:1"
         id="rect4780"
         width="39.684975"
         height="39.6847"
         x="276.62326"
         y="-2105.1484"
         transform="scale(1,-1)" /></g></g><g
     id="g1898"><path
       d="m 437.21728,-1259.2591 c 0,-20.124 16.34667,-36.4707 36.47067,-36.4707 20.124,0 36.47066,16.3467 36.47066,36.4707 0,20.124 -16.34666,36.4706 -36.47066,36.4706 -20.124,0 -36.47067,-16.3466 -36.47067,-36.4706 z"
       style="fill:none;stroke:#000000;stroke-width:1;stroke-linecap:butt;stroke-linejoin:miter;stroke-miterlimit:10;stroke-dasharray:none;stroke-opacity:1"
       id="path194" /><path
       d="m 535.40928,-1202.5671 c 0,-20.124 16.34667,-36.4707 36.47067,-36.4707 20.124,0 36.47066,16.3467 36.47066,36.4707 0,20.1239 -16.34666,36.4706 -36.47066,36.4706 -20.124,0 -36.47067,-16.3467 -36.47067,-36.4706 z"
       style="fill:none;stroke:#000000;stroke-width:1;stroke-linecap:butt;stroke-linejoin:miter;stroke-miterlimit:10;stroke-dasharray:none;stroke-opacity:1"
       id="path196" /><path
       d="m 339.02128,-1202.5671 c 0,-20.124 16.34667,-36.4707 36.47067,-36.4707 20.124,0 36.47067,16.3467 36.47067,36.4707 0,20.1239 -16.34667,36.4706 -36.47067,36.4706 -20.124,0 -36.47067,-16.3467 -36.47067,-36.4706 z"
       style="fill:none;stroke:#000000;stroke-width:1;stroke-linecap:butt;stroke-linejoin:miter;stroke-miterlimit:10;stroke-dasharray:none;stroke-opacity:1"
       id="path198" /><path
       d="m 535.40928,-1315.9525 c 0,-20.124 16.34667,-36.4706 36.47067,-36.4706 20.124,0 36.47066,16.3466 36.47066,36.4706 0,20.124 -16.34666,36.4707 -36.47066,36.4707 -20.124,0 -36.47067,-16.3467 -36.47067,-36.4707 z"
       style="fill:none;stroke:#000000;stroke-width:1;stroke-linecap:butt;stroke-linejoin:miter;stroke-miterlimit:10;stroke-dasharray:none;stroke-opacity:1"
       id="path200" /><path
       d="m 339.02128,-1315.9525 c 0,-20.124 16.34667,-36.4706 36.47067,-36.4706 20.124,0 36.47067,16.3466 36.47067,36.4706 0,20.124 -16.34667,36.4707 -36.47067,36.4707 -20.124,0 -36.47067,-16.3467 -36.47067,-36.4707 z"
       style="fill:none;stroke:#000000;stroke-width:1;stroke-linecap:butt;stroke-linejoin:miter;stroke-miterlimit:10;stroke-dasharray:none;stroke-opacity:1"
       id="path202" /><path
       d="m 856.77861,-1344.2991 c 0,-20.124 16.34666,-36.4707 36.47066,-36.4707 20.124,0 36.47067,16.3467 36.47067,36.4707 0,20.124 -16.34667,36.4706 -36.47067,36.4706 -20.124,0 -36.47066,-16.3466 -36.47066,-36.4706 z"
       style="fill:none;stroke:#000000;stroke-width:1;stroke-linecap:butt;stroke-linejoin:miter;stroke-miterlimit:10;stroke-dasharray:none;stroke-opacity:1"
       id="path204" /><path
       d="m 746.99061,-1372.6458 c 0,-20.124 16.348,-36.4707 36.472,-36.4707 20.124,0 36.47066,16.3467 36.47066,36.4707 0,20.124 -16.34666,36.4707 -36.47066,36.4707 -20.124,0 -36.472,-16.3467 -36.472,-36.4707 z"
       style="fill:none;stroke:#000000;stroke-width:1;stroke-linecap:butt;stroke-linejoin:miter;stroke-miterlimit:10;stroke-dasharray:none;stroke-opacity:1"
       id="path206" /><path
       d="m 856.77861,-1230.9138 c 0,-20.124 16.34666,-36.4707 36.47066,-36.4707 20.124,0 36.47067,16.3467 36.47067,36.4707 0,20.124 -16.34667,36.472 -36.47067,36.472 -20.124,0 -36.47066,-16.348 -36.47066,-36.472 z"
       style="fill:none;stroke:#000000;stroke-width:1;stroke-linecap:butt;stroke-linejoin:miter;stroke-miterlimit:10;stroke-dasharray:none;stroke-opacity:1"
       id="path208" /><path
       d="m 746.99061,-1259.2591 c 0,-20.124 16.348,-36.4707 36.472,-36.4707 20.124,0 36.47066,16.3467 36.47066,36.4707 0,20.124 -16.34666,36.4706 -36.47066,36.4706 -20.124,0 -36.472,-16.3466 -36.472,-36.4706 z"
       style="fill:none;stroke:#000000;stroke-width:1;stroke-linecap:butt;stroke-linejoin:miter;stroke-miterlimit:10;stroke-dasharray:none;stroke-opacity:1"
       id="path210" /><path
       d="m 633.60528,-1259.2591 c 0,-20.124 16.34666,-36.4707 36.47066,-36.4707 20.124,0 36.47067,16.3467 36.47067,36.4707 0,20.124 -16.34667,36.4706 -36.47067,36.4706 -20.124,0 -36.47066,-16.3466 -36.47066,-36.4706 z"
       style="fill:none;stroke:#000000;stroke-width:1;stroke-linecap:butt;stroke-linejoin:miter;stroke-miterlimit:10;stroke-dasharray:none;stroke-opacity:1"
       id="path212" /><path
       d="m 225.63462,-1315.9525 c 0,-20.124 16.348,-36.4706 36.472,-36.4706 20.124,0 36.47067,16.3466 36.47067,36.4706 0,20.124 -16.34667,36.4707 -36.47067,36.4707 -20.124,0 -36.472,-16.3467 -36.472,-36.4707 z"
       style="fill:none;stroke:#000000;stroke-width:1;stroke-linecap:butt;stroke-linejoin:miter;stroke-miterlimit:10;stroke-dasharray:none;stroke-opacity:1"
       id="path214" /><path
       d="m 115.8493,-1287.6058 c 0,-20.124 16.34666,-36.4707 36.47066,-36.4707 20.124,0 36.472,16.3467 36.472,36.4707 0,20.124 -16.348,36.4707 -36.472,36.4707 -20.124,0 -36.47066,-16.3467 -36.47066,-36.4707 z"
       style="fill:none;stroke:#000000;stroke-width:1;stroke-linecap:butt;stroke-linejoin:miter;stroke-miterlimit:10;stroke-dasharray:none;stroke-opacity:1"
       id="path216" /><path
       d="m 225.63462,-1202.5671 c 0,-20.124 16.348,-36.4707 36.472,-36.4707 20.124,0 36.47067,16.3467 36.47067,36.4707 0,20.1239 -16.34667,36.4706 -36.47067,36.4706 -20.124,0 -36.472,-16.3467 -36.472,-36.4706 z"
       style="fill:none;stroke:#000000;stroke-width:1;stroke-linecap:butt;stroke-linejoin:miter;stroke-miterlimit:10;stroke-dasharray:none;stroke-opacity:1"
       id="path218" /><path
       d="m 115.8493,-1174.2205 c 0,-20.124 16.34666,-36.4706 36.47066,-36.4706 20.124,0 36.472,16.3466 36.472,36.4706 0,20.124 -16.348,36.4707 -36.472,36.4707 -20.124,0 -36.47066,-16.3467 -36.47066,-36.4707 z"
       style="fill:none;stroke:#000000;stroke-width:1;stroke-linecap:butt;stroke-linejoin:miter;stroke-miterlimit:10;stroke-dasharray:none;stroke-opacity:1"
       id="path220" /><path
       d="m 486.31328,-1059.5805 c 0,-20.124 16.34667,-36.4707 36.47067,-36.4707 20.124,0 36.47066,16.3467 36.47066,36.4707 0,20.124 -16.34666,36.4707 -36.47066,36.4707 -20.124,0 -36.47067,-16.3467 -36.47067,-36.4707 z"
       style="fill:none;stroke:#000000;stroke-width:1;stroke-linecap:butt;stroke-linejoin:miter;stroke-miterlimit:10;stroke-dasharray:none;stroke-opacity:1"
       id="path222" /><path
       d="m 362.10528,-1070.9192 c 0,-20.124 16.34667,-36.4706 36.47067,-36.4706 20.124,0 36.47067,16.3466 36.47067,36.4706 0,20.124 -16.34667,36.4707 -36.47067,36.4707 -20.124,0 -36.47067,-16.3467 -36.47067,-36.4707 z"
       style="fill:none;stroke:#000000;stroke-width:1;stroke-linecap:butt;stroke-linejoin:miter;stroke-miterlimit:10;stroke-dasharray:none;stroke-opacity:1"
       id="path224" /><path
       d="m 600.51194,-1109.7312 c 0,-20.124 16.34667,-36.472 36.47067,-36.472 20.124,0 36.47067,16.348 36.47067,36.472 0,20.124 -16.34667,36.4707 -36.47067,36.4707 -20.124,0 -36.47067,-16.3467 -36.47067,-36.4707 z"
       style="fill:none;stroke:#000000;stroke-width:1;stroke-linecap:butt;stroke-linejoin:miter;stroke-miterlimit:10;stroke-dasharray:none;stroke-opacity:1"
       id="path226" /><path
       d="m 633.60528,-1372.6458 c 0,-20.124 16.34666,-36.4707 36.47066,-36.4707 20.124,0 36.47067,16.3467 36.47067,36.4707 0,20.124 -16.34667,36.4707 -36.47067,36.4707 -20.124,0 -36.47066,-16.3467 -36.47066,-36.4707 z"
       style="fill:none;stroke:#000000;stroke-width:1;stroke-linecap:butt;stroke-linejoin:miter;stroke-miterlimit:10;stroke-dasharray:none;stroke-opacity:1"
       id="path228" /><path
       d="m 524.93061,-1408.5511 c 0,-7.3 5.92934,-13.2294 13.22934,-13.2294 7.29866,0 13.228,5.9294 13.228,13.2294 0,7.2986 -5.92934,13.228 -13.228,13.228 -7.3,0 -13.22934,-5.9294 -13.22934,-13.228 z"
       style="fill:none;stroke:#000000;stroke-width:1;stroke-linecap:butt;stroke-linejoin:miter;stroke-miterlimit:10;stroke-dasharray:none;stroke-opacity:1"
       id="path230" /><path
       d="m 368.77062,-1395.6191 c 0,-3.0107 2.44533,-5.456 5.456,-5.456 3.00933,0 5.45466,2.4453 5.45466,5.456 0,3.0093 -2.44533,5.4546 -5.45466,5.4546 -3.01067,0 -5.456,-2.4453 -5.456,-5.4546 z"
       style="fill:none;stroke:#000000;stroke-width:1;stroke-linecap:butt;stroke-linejoin:miter;stroke-miterlimit:10;stroke-dasharray:none;stroke-opacity:1"
       id="path232" /><path
       d="m 84.683965,-1409.5418 c 0,-4.1707 -3.388,-7.5587 -7.56,-7.5587 -4.170667,0 -7.558667,3.388 -7.558667,7.5587 0,4.172 3.388,7.56 7.558667,7.56 4.172,0 7.56,-3.388 7.56,-7.56 z"
       style="fill:none;stroke:#000000;stroke-width:1;stroke-linecap:butt;stroke-linejoin:miter;stroke-miterlimit:10;stroke-dasharray:none;stroke-opacity:1"
       id="path238" /><path
       d="m 969.09327,-1409.5418 c 0,-4.1707 -3.388,-7.5587 -7.55867,-7.5587 -4.172,0 -7.56,3.388 -7.56,7.5587 0,4.172 3.388,7.56 7.56,7.56 4.17067,0 7.55867,-3.388 7.55867,-7.56 z"
       style="fill:none;stroke:#000000;stroke-width:1;stroke-linecap:butt;stroke-linejoin:miter;stroke-miterlimit:10;stroke-dasharray:none;stroke-opacity:1"
       id="path240" /><path
       d="m 969.09327,-1005.1312 c 0,-4.172 -3.388,-7.56 -7.55867,-7.56 -4.172,0 -7.56,3.388 -7.56,7.56 0,4.1707 3.388,7.55871 7.56,7.55871 4.17067,0 7.55867,-3.38801 7.55867,-7.55871 z"
       style="fill:none;stroke:#000000;stroke-width:1;stroke-linecap:butt;stroke-linejoin:miter;stroke-miterlimit:10;stroke-dasharray:none;stroke-opacity:1"
       id="path242" /><path
       d="m 84.683965,-1005.1312 c 0,-4.172 -3.388,-7.56 -7.56,-7.56 -4.170667,0 -7.558667,3.388 -7.558667,7.56 0,4.1707 3.388,7.55871 7.558667,7.55871 4.172,0 7.56,-3.38801 7.56,-7.55871 z"
       style="fill:none;stroke:#000000;stroke-width:1;stroke-linecap:butt;stroke-linejoin:miter;stroke-miterlimit:10;stroke-dasharray:none;stroke-opacity:1"
       id="path244" /><path
       d="m 459.57862,-1005.1312 c 0,-4.172 -3.388,-7.56 -7.55867,-7.56 -4.17067,0 -7.55867,3.388 -7.55867,7.56 0,4.1707 3.388,7.55871 7.55867,7.55871 4.17067,0 7.55867,-3.38801 7.55867,-7.55871 z"
       style="fill:none;stroke:#000000;stroke-width:1;stroke-linecap:butt;stroke-linejoin:miter;stroke-miterlimit:10;stroke-dasharray:none;stroke-opacity:1"
       id="path246" /><path
       d="m 594.19728,-1409.5418 c 0,-4.1707 -3.388,-7.5587 -7.55867,-7.5587 -4.17066,0 -7.55866,3.388 -7.55866,7.5587 0,4.172 3.388,7.56 7.55866,7.56 4.17067,0 7.55867,-3.388 7.55867,-7.56 z"
       style="fill:none;stroke:#000000;stroke-width:1;stroke-linecap:butt;stroke-linejoin:miter;stroke-miterlimit:10;stroke-dasharray:none;stroke-opacity:1"
       id="path248" /><path
       d="m 123.69596,-1335.5698 c -6.256,0 -11.33866,-5.0827 -11.33866,-11.3387 v -36.336 c 0,-6.2573 5.08266,-11.3386 11.33866,-11.3386 h 65.38533 c 6.25733,0 11.33866,5.0813 11.33866,11.3386 v 36.336 c 0,6.256 -5.08133,11.3387 -11.33866,11.3387 z"
       style="fill:none;stroke:#000000;stroke-width:1;stroke-linecap:butt;stroke-linejoin:miter;stroke-miterlimit:10;stroke-dasharray:none;stroke-opacity:1"
       id="path250" /><path
       d="m 136.57462,-1447.3365 h 39.76534"
       style="fill:none;stroke:#000000;stroke-width:1;stroke-linecap:butt;stroke-linejoin:miter;stroke-miterlimit:10;stroke-dasharray:none;stroke-opacity:1"
       id="path252" /><path
       d="m 176.33996,-1447.3365 -0.0213,13.8707 c -0.001,1.0027 0.396,1.9653 1.104,2.676 0.70934,0.7107 1.672,1.1093 2.67467,1.1093 h 24.676 c 2.08533,0 3.77733,-1.6893 3.78,-3.7733 l 0.0213,-13.8827 h 138.728 v 39.236 c 0,2.0854 1.69466,3.78 3.78,3.78 h 46.29866 c 2.08534,0 3.78,-1.6946 3.78,-3.78 v -39.236 h 50.288 c -2.11866,9.3334 -8.65866,16.2107 -12.23733,24.2494 -3.57867,8.04 -4.19467,17.2413 -1.70933,24.8946 2.484,7.6534 8.07066,13.7587 9.11333,19.312 1.04133,5.5547 -2.46133,10.5587 -3.55467,17.3147 -1.092,6.756 0.22534,15.2653 8.88,22.8613 8.656,7.5974 24.648,14.2827 31.48667,11.0974 6.83866,-3.1854 4.52266,-16.2414 7.80266,-27.4547 3.27867,-11.2133 12.152,-20.584 17.52667,-31.3293 5.37333,-10.7467 7.24667,-22.8667 1.78,-32.8934 -5.46667,-10.0266 -18.27333,-17.9586 -21.52,-28.052 H 961.5346 c 20.85467,0 37.79467,16.94 37.79467,37.7947 v 404.4106 c 0,20.85471 -16.94,37.79471 -37.79467,37.79471 H 77.123965 c -20.854666,0 -37.794666,-16.94 -37.794666,-37.79471 v -404.4106 c 0,-20.8547 16.94,-37.7947 37.794666,-37.7947 h 27.215995 l -0.0213,13.8707 c -10e-4,1.0027 0.396,1.9653 1.104,2.676 0.70933,0.7107 1.672,1.1093 2.67467,1.1093 h 24.676 c 2.08532,0 3.77732,-1.6893 3.77999,-3.7733 l 0.0213,-13.8827"
       style="fill:none;stroke:#000000;stroke-width:1;stroke-linecap:butt;stroke-linejoin:miter;stroke-miterlimit:10;stroke-dasharray:none;stroke-opacity:1"
       id="path254" /><path
       d="m 551.38928,-1408.5511 c 0,-7.3 -5.92933,-13.2293 -13.22933,-13.2293 -7.29867,0 -13.228,5.9293 -13.228,13.2293 0,7.2987 5.92933,13.228 13.228,13.228 7.3,0 13.22933,-5.9293 13.22933,-13.228 z"
       style="fill:none;stroke:#000000;stroke-width:1;stroke-linecap:butt;stroke-linejoin:miter;stroke-miterlimit:10;stroke-dasharray:none;stroke-opacity:1"
       id="path715-6" /></g><g
     id="g1987"><path
       d="m 347.30262,-872.51382 v 39.23599 c 0,2.08534 1.69466,3.78 3.78,3.78 h 46.29866 c 2.08534,0 3.78,-1.69466 3.78,-3.78 v -39.23599 H 961.5346 c 20.85467,0 37.79467,16.94 37.79467,37.79466 v 404.41066 c 0,20.85466 -16.94,37.79466 -37.79467,37.79466 H 77.123965 c -20.854666,0 -37.794666,-16.94 -37.794666,-37.79466 v -404.41066 c 0,-20.85466 16.94,-37.79466 37.794666,-37.79466 z"
       style="fill:none;stroke:#000000;stroke-width:1;stroke-linecap:butt;stroke-linejoin:miter;stroke-miterlimit:10;stroke-dasharray:none;stroke-opacity:1"
       id="path1337"
       sodipodi:nodetypes="cssssccsssssscc" /><path
       d="m 82.037338,-834.71876 a 4.9133865,4.9133865 0 0 0 -9.826773,0 4.9133865,4.9133865 0 0 0 9.826773,0 z"
       style="fill:none;stroke:#000000;stroke-width:1;stroke-linecap:round;stroke-dasharray:none"
       id="path1456" /><path
       d="m 591.55163,-834.71876 a 4.9134,4.9134 0 0 0 -9.8268,0 4.9134,4.9134 0 0 0 9.8268,0 z"
       style="fill:none;stroke:#000000;stroke-width:1;stroke-linecap:round;stroke-dasharray:none"
       id="path1458" /><path
       d="m 966.44682,-834.71876 a 4.9134,4.9134 0 0 0 -9.8268,0 4.9134,4.9134 0 0 0 9.8268,0 z"
       style="fill:none;stroke:#000000;stroke-width:1;stroke-linecap:round;stroke-dasharray:none"
       id="path1460" /><path
       d="m 966.44682,-430.30929 a 4.9134,4.9134 0 0 0 -9.8268,0 4.9134,4.9134 0 0 0 9.8268,0 z"
       style="fill:none;stroke:#000000;stroke-width:1;stroke-linecap:round;stroke-dasharray:none"
       id="path1462" /><path
       d="m 456.93243,-430.30929 a 4.9134,4.9134 0 0 0 -9.8268,0 4.9134,4.9134 0 0 0 9.8268,0 z"
       style="fill:none;stroke:#000000;stroke-width:1;stroke-linecap:round;stroke-dasharray:none"
       id="path1464" /><path
       d="m 82.037338,-430.30929 a 4.9133865,4.9133865 0 0 0 -9.826773,0 4.9133865,4.9133865 0 0 0 9.826773,0 z"
       style="fill:none;stroke:#000000;stroke-width:1;stroke-linecap:round;stroke-dasharray:none"
       id="path1466" /><path
       d="m 541.93995,-833.72842 c 0,-2.0867 -1.69333,-3.78 -3.78,-3.78 -2.08533,0 -3.77867,1.6933 -3.77867,3.78 0,2.0853 1.69334,3.7787 3.77867,3.7787 2.08667,0 3.78,-1.6934 3.78,-3.7787 z"
       style="fill:none;stroke:#000000;stroke-width:1;stroke-linecap:butt;stroke-linejoin:miter;stroke-miterlimit:10;stroke-dasharray:none;stroke-opacity:1"
       id="path1812" /></g></svg>
