<?xml version="1.0" encoding="UTF-8" standalone="no"?>
<!-- Created with Inkscape (http://www.inkscape.org/) -->

<svg
   version="1.1"
   id="svg182"
   width="1056"
   height="816"
   viewBox="0 0 1056 816"
   sodipodi:docname="layers.svg"
   xml:space="preserve"
   inkscape:version="1.2.2 (732a01da63, 2022-12-09)"
   xmlns:inkscape="http://www.inkscape.org/namespaces/inkscape"
   xmlns:sodipodi="http://sodipodi.sourceforge.net/DTD/sodipodi-0.dtd"
   xmlns="http://www.w3.org/2000/svg"
   xmlns:svg="http://www.w3.org/2000/svg"><defs
     id="defs186"><marker
       id="DistanceX"
       orient="auto"
       refX="0.0"
       refY="0.0"
       style="overflow:visible"><path
         d="M 3,-3 L -3,3 M 0,-5 L  0,5"
         style="stroke:#000000; stroke-width:0.5"
         id="path464" /></marker><pattern
       id="Hatch"
       patternUnits="userSpaceOnUse"
       width="8"
       height="8"
       x="0"
       y="0"><path
         d="M8 4 l-4,4"
         stroke="#000000"
         stroke-width="0.25"
         linecap="square"
         id="path467" /><path
         d="M6 2 l-4,4"
         stroke="#000000"
         stroke-width="0.25"
         linecap="square"
         id="path469" /><path
         d="M4 0 l-4,4"
         stroke="#000000"
         stroke-width="0.25"
         linecap="square"
         id="path471" /></pattern><symbol
       id="*Model_Space" /><symbol
       id="*Paper_Space" /><marker
       id="DistanceX-1"
       orient="auto"
       refX="0.0"
       refY="0.0"
       style="overflow:visible"><path
         d="M 3,-3 L -3,3 M 0,-5 L  0,5"
         style="stroke:#000000; stroke-width:0.5"
         id="path641" /></marker><pattern
       id="Hatch-5"
       patternUnits="userSpaceOnUse"
       width="8"
       height="8"
       x="0"
       y="0"><path
         d="M8 4 l-4,4"
         stroke="#000000"
         stroke-width="0.25"
         linecap="square"
         id="path644" /><path
         d="M6 2 l-4,4"
         stroke="#000000"
         stroke-width="0.25"
         linecap="square"
         id="path646" /><path
         d="M4 0 l-4,4"
         stroke="#000000"
         stroke-width="0.25"
         linecap="square"
         id="path648" /></pattern><symbol
       id="*Model_Space-8" /><symbol
       id="*Paper_Space-3" /><marker
       id="DistanceX-3"
       orient="auto"
       refX="0.0"
       refY="0.0"
       style="overflow:visible"><path
         d="M 3,-3 L -3,3 M 0,-5 L  0,5"
         style="stroke:#000000; stroke-width:0.5"
         id="path2074" /></marker><pattern
       id="Hatch-1"
       patternUnits="userSpaceOnUse"
       width="8"
       height="8"
       x="0"
       y="0"><path
         d="M8 4 l-4,4"
         stroke="#000000"
         stroke-width="0.25"
         linecap="square"
         id="path2077" /><path
         d="M6 2 l-4,4"
         stroke="#000000"
         stroke-width="0.25"
         linecap="square"
         id="path2079" /><path
         d="M4 0 l-4,4"
         stroke="#000000"
         stroke-width="0.25"
         linecap="square"
         id="path2081" /></pattern><symbol
       id="*MODEL_SPACE" /><symbol
       id="*PAPER_SPACE" /></defs><sodipodi:namedview
     id="namedview184"
     pagecolor="#ffffff"
     bordercolor="#000000"
     borderopacity="0.25"
     inkscape:showpageshadow="2"
     inkscape:pageopacity="0.0"
     inkscape:pagecheckerboard="0"
     inkscape:deskcolor="#d1d1d1"
     showgrid="false"
     inkscape:zoom="0.47947304"
     inkscape:cx="-748.73865"
     inkscape:cy="-2560.1022"
     inkscape:window-width="3840"
     inkscape:window-height="2065"
     inkscape:window-x="1912"
     inkscape:window-y="-8"
     inkscape:window-maximized="1"
     inkscape:current-layer="g190"><inkscape:page
       x="0"
       y="0"
       id="page188"
       width="1056"
       height="816" /></sodipodi:namedview><g
     id="g190"
     inkscape:groupmode="layer"
     inkscape:label="Page 1"
     transform="matrix(1.3333333,0,0,-1.3333333,0,816)"><g
       id="g234" /><g
       id="g5446"
       transform="translate(-6.37801)"><path
         d="m 334.416,1556.4444 c 0,15.093 12.26,27.353 27.353,27.353 15.093,0 27.353,-12.26 27.353,-27.353 0,-15.093 -12.26,-27.353 -27.353,-27.353 -15.093,0 -27.353,12.26 -27.353,27.353 z"
         style="fill:none;stroke:#000000;stroke-width:0.75;stroke-linecap:butt;stroke-linejoin:miter;stroke-miterlimit:10;stroke-dasharray:none;stroke-opacity:1"
         id="path194" /><path
         d="m 408.06,1513.9254 c 0,15.093 12.26,27.353 27.353,27.353 15.093,0 27.353,-12.26 27.353,-27.353 0,-15.093 -12.26,-27.353 -27.353,-27.353 -15.093,0 -27.353,12.26 -27.353,27.353 z"
         style="fill:none;stroke:#000000;stroke-width:0.75;stroke-linecap:butt;stroke-linejoin:miter;stroke-miterlimit:10;stroke-dasharray:none;stroke-opacity:1"
         id="path196" /><path
         d="m 260.769,1513.9254 c 0,15.093 12.26,27.353 27.353,27.353 15.093,0 27.353,-12.26 27.353,-27.353 0,-15.093 -12.26,-27.353 -27.353,-27.353 -15.093,0 -27.353,12.26 -27.353,27.353 z"
         style="fill:none;stroke:#000000;stroke-width:0.75;stroke-linecap:butt;stroke-linejoin:miter;stroke-miterlimit:10;stroke-dasharray:none;stroke-opacity:1"
         id="path198" /><path
         d="m 408.06,1598.9644 c 0,15.093 12.26,27.353 27.353,27.353 15.093,0 27.353,-12.26 27.353,-27.353 0,-15.093 -12.26,-27.353 -27.353,-27.353 -15.093,0 -27.353,12.26 -27.353,27.353 z"
         style="fill:none;stroke:#000000;stroke-width:0.75;stroke-linecap:butt;stroke-linejoin:miter;stroke-miterlimit:10;stroke-dasharray:none;stroke-opacity:1"
         id="path200" /><path
         d="m 260.769,1598.9644 c 0,15.093 12.26,27.353 27.353,27.353 15.093,0 27.353,-12.26 27.353,-27.353 0,-15.093 -12.26,-27.353 -27.353,-27.353 -15.093,0 -27.353,12.26 -27.353,27.353 z"
         style="fill:none;stroke:#000000;stroke-width:0.75;stroke-linecap:butt;stroke-linejoin:miter;stroke-miterlimit:10;stroke-dasharray:none;stroke-opacity:1"
         id="path202" /><path
         d="m 649.087,1620.2244 c 0,15.093 12.26,27.353 27.353,27.353 15.093,0 27.353,-12.26 27.353,-27.353 0,-15.093 -12.26,-27.353 -27.353,-27.353 -15.093,0 -27.353,12.26 -27.353,27.353 z"
         style="fill:none;stroke:#000000;stroke-width:0.75;stroke-linecap:butt;stroke-linejoin:miter;stroke-miterlimit:10;stroke-dasharray:none;stroke-opacity:1"
         id="path204" /><path
         d="m 566.746,1641.4844 c 0,15.093 12.261,27.353 27.354,27.353 15.093,0 27.353,-12.26 27.353,-27.353 0,-15.093 -12.26,-27.353 -27.353,-27.353 -15.093,0 -27.354,12.26 -27.354,27.353 z"
         style="fill:none;stroke:#000000;stroke-width:0.75;stroke-linecap:butt;stroke-linejoin:miter;stroke-miterlimit:10;stroke-dasharray:none;stroke-opacity:1"
         id="path206" /><path
         d="m 649.087,1535.1854 c 0,15.093 12.26,27.353 27.353,27.353 15.093,0 27.353,-12.26 27.353,-27.353 0,-15.093 -12.26,-27.354 -27.353,-27.354 -15.093,0 -27.353,12.261 -27.353,27.354 z"
         style="fill:none;stroke:#000000;stroke-width:0.75;stroke-linecap:butt;stroke-linejoin:miter;stroke-miterlimit:10;stroke-dasharray:none;stroke-opacity:1"
         id="path208" /><path
         d="m 566.746,1556.4444 c 0,15.093 12.261,27.353 27.354,27.353 15.093,0 27.353,-12.26 27.353,-27.353 0,-15.093 -12.26,-27.353 -27.353,-27.353 -15.093,0 -27.354,12.26 -27.354,27.353 z"
         style="fill:none;stroke:#000000;stroke-width:0.75;stroke-linecap:butt;stroke-linejoin:miter;stroke-miterlimit:10;stroke-dasharray:none;stroke-opacity:1"
         id="path210" /><path
         d="m 481.707,1556.4444 c 0,15.093 12.26,27.353 27.353,27.353 15.093,0 27.353,-12.26 27.353,-27.353 0,-15.093 -12.26,-27.353 -27.353,-27.353 -15.093,0 -27.353,12.26 -27.353,27.353 z"
         style="fill:none;stroke:#000000;stroke-width:0.75;stroke-linecap:butt;stroke-linejoin:miter;stroke-miterlimit:10;stroke-dasharray:none;stroke-opacity:1"
         id="path212" /><path
         d="m 175.729,1598.9644 c 0,15.093 12.261,27.353 27.354,27.353 15.093,0 27.353,-12.26 27.353,-27.353 0,-15.093 -12.26,-27.353 -27.353,-27.353 -15.093,0 -27.354,12.26 -27.354,27.353 z"
         style="fill:none;stroke:#000000;stroke-width:0.75;stroke-linecap:butt;stroke-linejoin:miter;stroke-miterlimit:10;stroke-dasharray:none;stroke-opacity:1"
         id="path214" /><path
         d="m 93.39,1577.7044 c 0,15.093 12.26,27.353 27.353,27.353 15.093,0 27.354,-12.26 27.354,-27.353 0,-15.093 -12.261,-27.353 -27.354,-27.353 -15.093,0 -27.353,12.26 -27.353,27.353 z"
         style="fill:none;stroke:#000000;stroke-width:0.75;stroke-linecap:butt;stroke-linejoin:miter;stroke-miterlimit:10;stroke-dasharray:none;stroke-opacity:1"
         id="path216" /><path
         d="m 175.729,1513.9254 c 0,15.093 12.261,27.353 27.354,27.353 15.093,0 27.353,-12.26 27.353,-27.353 0,-15.093 -12.26,-27.353 -27.353,-27.353 -15.093,0 -27.354,12.26 -27.354,27.353 z"
         style="fill:none;stroke:#000000;stroke-width:0.75;stroke-linecap:butt;stroke-linejoin:miter;stroke-miterlimit:10;stroke-dasharray:none;stroke-opacity:1"
         id="path218" /><path
         d="m 93.39,1492.6654 c 0,15.093 12.26,27.353 27.353,27.353 15.093,0 27.354,-12.26 27.354,-27.353 0,-15.093 -12.261,-27.353 -27.354,-27.353 -15.093,0 -27.353,12.26 -27.353,27.353 z"
         style="fill:none;stroke:#000000;stroke-width:0.75;stroke-linecap:butt;stroke-linejoin:miter;stroke-miterlimit:10;stroke-dasharray:none;stroke-opacity:1"
         id="path220" /><path
         d="m 371.238,1406.6854 c 0,15.093 12.26,27.353 27.353,27.353 15.093,0 27.353,-12.26 27.353,-27.353 0,-15.093 -12.26,-27.353 -27.353,-27.353 -15.093,0 -27.353,12.26 -27.353,27.353 z"
         style="fill:none;stroke:#000000;stroke-width:0.75;stroke-linecap:butt;stroke-linejoin:miter;stroke-miterlimit:10;stroke-dasharray:none;stroke-opacity:1"
         id="path222" /><path
         d="m 278.082,1415.1894 c 0,15.093 12.26,27.353 27.353,27.353 15.093,0 27.353,-12.26 27.353,-27.353 0,-15.093 -12.26,-27.353 -27.353,-27.353 -15.093,0 -27.353,12.26 -27.353,27.353 z"
         style="fill:none;stroke:#000000;stroke-width:0.75;stroke-linecap:butt;stroke-linejoin:miter;stroke-miterlimit:10;stroke-dasharray:none;stroke-opacity:1"
         id="path224" /><path
         d="m 456.887,1444.2984 c 0,15.093 12.26,27.354 27.353,27.354 15.093,0 27.353,-12.261 27.353,-27.354 0,-15.093 -12.26,-27.353 -27.353,-27.353 -15.093,0 -27.353,12.26 -27.353,27.353 z"
         style="fill:none;stroke:#000000;stroke-width:0.75;stroke-linecap:butt;stroke-linejoin:miter;stroke-miterlimit:10;stroke-dasharray:none;stroke-opacity:1"
         id="path226" /><path
         d="m 481.707,1641.4844 c 0,15.093 12.26,27.353 27.353,27.353 15.093,0 27.353,-12.26 27.353,-27.353 0,-15.093 -12.26,-27.353 -27.353,-27.353 -15.093,0 -27.353,12.26 -27.353,27.353 z"
         style="fill:none;stroke:#000000;stroke-width:0.75;stroke-linecap:butt;stroke-linejoin:miter;stroke-miterlimit:10;stroke-dasharray:none;stroke-opacity:1"
         id="path228" /><path
         d="m 400.201,1668.4134 c 0,5.475 4.447,9.922 9.922,9.922 5.474,0 9.921,-4.447 9.921,-9.922 0,-5.474 -4.447,-9.921 -9.921,-9.921 -5.475,0 -9.922,4.447 -9.922,9.921 z"
         style="fill:none;stroke:#000000;stroke-width:0.75;stroke-linecap:butt;stroke-linejoin:miter;stroke-miterlimit:10;stroke-dasharray:none;stroke-opacity:1"
         id="path230" /><path
         d="m 283.081,1658.7144 c 0,2.258 1.834,4.092 4.092,4.092 2.257,0 4.091,-1.834 4.091,-4.092 0,-2.257 -1.834,-4.091 -4.091,-4.091 -2.258,0 -4.092,1.834 -4.092,4.091 z"
         style="fill:none;stroke:#000000;stroke-width:0.75;stroke-linecap:butt;stroke-linejoin:miter;stroke-miterlimit:10;stroke-dasharray:none;stroke-opacity:1"
         id="path232" /><path
         d="m 70.016,1669.1564 c 0,3.128 -2.541,5.669 -5.67,5.669 -3.128,0 -5.669,-2.541 -5.669,-5.669 0,-3.129 2.541,-5.67 5.669,-5.67 3.129,0 5.67,2.541 5.67,5.67 z"
         style="fill:none;stroke:#000000;stroke-width:0.75;stroke-linecap:butt;stroke-linejoin:miter;stroke-miterlimit:10;stroke-dasharray:none;stroke-opacity:1"
         id="path238" /><path
         d="m 733.323,1669.1564 c 0,3.128 -2.541,5.669 -5.669,5.669 -3.129,0 -5.67,-2.541 -5.67,-5.669 0,-3.129 2.541,-5.67 5.67,-5.67 3.128,0 5.669,2.541 5.669,5.67 z"
         style="fill:none;stroke:#000000;stroke-width:0.75;stroke-linecap:butt;stroke-linejoin:miter;stroke-miterlimit:10;stroke-dasharray:none;stroke-opacity:1"
         id="path240" /><path
         d="m 733.323,1365.8484 c 0,3.129 -2.541,5.67 -5.669,5.67 -3.129,0 -5.67,-2.541 -5.67,-5.67 0,-3.128 2.541,-5.669 5.67,-5.669 3.128,0 5.669,2.541 5.669,5.669 z"
         style="fill:none;stroke:#000000;stroke-width:0.75;stroke-linecap:butt;stroke-linejoin:miter;stroke-miterlimit:10;stroke-dasharray:none;stroke-opacity:1"
         id="path242" /><path
         d="m 70.016,1365.8484 c 0,3.129 -2.541,5.67 -5.67,5.67 -3.128,0 -5.669,-2.541 -5.669,-5.67 0,-3.128 2.541,-5.669 5.669,-5.669 3.129,0 5.67,2.541 5.67,5.669 z"
         style="fill:none;stroke:#000000;stroke-width:0.75;stroke-linecap:butt;stroke-linejoin:miter;stroke-miterlimit:10;stroke-dasharray:none;stroke-opacity:1"
         id="path244" /><path
         d="m 351.187,1365.8484 c 0,3.129 -2.541,5.67 -5.669,5.67 -3.128,0 -5.669,-2.541 -5.669,-5.67 0,-3.128 2.541,-5.669 5.669,-5.669 3.128,0 5.669,2.541 5.669,5.669 z"
         style="fill:none;stroke:#000000;stroke-width:0.75;stroke-linecap:butt;stroke-linejoin:miter;stroke-miterlimit:10;stroke-dasharray:none;stroke-opacity:1"
         id="path246" /><path
         d="m 452.151,1669.1564 c 0,3.128 -2.541,5.669 -5.669,5.669 -3.128,0 -5.669,-2.541 -5.669,-5.669 0,-3.129 2.541,-5.67 5.669,-5.67 3.128,0 5.669,2.541 5.669,5.67 z"
         style="fill:none;stroke:#000000;stroke-width:0.75;stroke-linecap:butt;stroke-linejoin:miter;stroke-miterlimit:10;stroke-dasharray:none;stroke-opacity:1"
         id="path248" /><path
         d="m 99.275,1613.6774 c -4.692,0 -8.504,3.812 -8.504,8.504 v 27.252 c 0,4.693 3.812,8.504 8.504,8.504 h 49.039 c 4.693,0 8.504,-3.811 8.504,-8.504 v -27.252 c 0,-4.692 -3.811,-8.504 -8.504,-8.504 z"
         style="fill:none;stroke:#000000;stroke-width:0.75;stroke-linecap:butt;stroke-linejoin:miter;stroke-miterlimit:10;stroke-dasharray:none;stroke-opacity:1"
         id="path250" /><path
         d="m 108.934,1697.5024 h 29.824"
         style="fill:none;stroke:#000000;stroke-width:0.75;stroke-linecap:butt;stroke-linejoin:miter;stroke-miterlimit:10;stroke-dasharray:none;stroke-opacity:1"
         id="path252" /><path
         d="m 138.758,1697.5024 -0.016,-10.403 c -10e-4,-0.752 0.297,-1.474 0.828,-2.007 0.532,-0.533 1.254,-0.832 2.006,-0.832 h 18.507 c 1.564,0 2.833,1.267 2.835,2.83 l 0.016,10.412 H 266.98 v -29.427 c 0,-1.564 1.271,-2.835 2.835,-2.835 h 34.724 c 1.564,0 2.835,1.271 2.835,2.835 v 29.427 h 37.716 c -1.589,-7 -6.494,-12.158 -9.178,-18.187 -2.684,-6.03 -3.146,-12.931 -1.282,-18.671 1.863,-5.74 6.053,-10.319 6.835,-14.484 0.781,-4.166 -1.846,-7.919 -2.666,-12.986 -0.819,-5.067 0.169,-11.449 6.66,-17.146 6.492,-5.698 18.486,-10.712 23.615,-8.323 5.129,2.389 3.392,12.181 5.852,20.591 2.459,8.41 9.114,15.438 13.145,23.497 4.03,8.06 5.435,17.15 1.335,24.67 -4.1,7.52 -13.705,13.469 -16.14,21.039 h 354.388 c 15.641,0 28.346,-12.705 28.346,-28.346 v -303.308 c 0,-15.641 -12.705,-28.346 -28.346,-28.346 H 64.346 c -15.641,0 -28.346,12.705 -28.346,28.346 v 303.308 c 0,15.641 12.705,28.346 28.346,28.346 h 20.412 l -0.016,-10.403 c -0.001,-0.752 0.297,-1.474 0.828,-2.007 0.532,-0.533 1.254,-0.832 2.006,-0.832 h 18.507 c 1.564,0 2.833,1.267 2.835,2.83 l 0.016,10.412"
         style="fill:none;stroke:#000000;stroke-width:0.75;stroke-linecap:butt;stroke-linejoin:miter;stroke-miterlimit:10;stroke-dasharray:none;stroke-opacity:1"
         id="path254" /></g><g
       id="g256" /><g
       inkscape:label="0"
       id="g478"
       transform="matrix(0.75000002,0,0,-0.75000002,36.124981,1389.6448)" /><g
       inkscape:label="none"
       id="g570"
       transform="matrix(0.75000002,0,0,-0.75000002,36.124981,1389.6448)" /><g
       id="g5357"
       transform="translate(19.626675)"><path
         id="path671"
         style="fill:none;stroke:#000000;stroke-width:0.75;stroke-linecap:round;stroke-dasharray:none"
         d="m 38.341782,2805.7786 c -15.655334,0 -28.346467,12.6912 -28.346467,28.3482 0,0 0,202.2036 0,303.3054 0,15.6554 12.691164,28.3464 28.346467,28.3464 221.102398,0 649.944588,-1e-4 663.307188,0 15.6552,10e-5 28.34637,-12.691 28.34637,-28.3464 v -303.3054 c 0,-15.657 -12.69114,-28.3482 -28.34637,-28.3482 z"
         sodipodi:nodetypes="sssssssss" /><path
         d="m 42.026812,3137.4323 a 3.6850396,3.6850396 0 0 1 -7.370079,0 3.6850396,3.6850396 0 0 1 7.370079,0 z"
         style="fill:none;stroke:#000000;stroke-width:0.75;stroke-linecap:round;stroke-dasharray:none"
         id="path681" /><path
         d="m 424.16257,3137.4323 a 3.68504,3.68504 0 0 1 -7.37008,0 3.68504,3.68504 0 0 1 7.37008,0 z"
         style="fill:none;stroke:#000000;stroke-width:0.75;stroke-linecap:round;stroke-dasharray:none"
         id="path683" /><path
         d="m 705.33392,3137.4323 a 3.68504,3.68504 0 0 1 -7.37008,0 3.68504,3.68504 0 0 1 7.37008,0 z"
         style="fill:none;stroke:#000000;stroke-width:0.75;stroke-linecap:round;stroke-dasharray:none"
         id="path685" /><path
         d="m 705.33392,2834.1252 a 3.68504,3.68504 0 0 1 -7.37008,0 3.68504,3.68504 0 0 1 7.37008,0 z"
         style="fill:none;stroke:#000000;stroke-width:0.75;stroke-linecap:round;stroke-dasharray:none"
         id="path687" /><path
         d="m 323.19816,2834.1252 a 3.68504,3.68504 0 0 1 -7.37008,0 3.68504,3.68504 0 0 1 7.37008,0 z"
         style="fill:none;stroke:#000000;stroke-width:0.75;stroke-linecap:round;stroke-dasharray:none"
         id="path689" /><path
         d="m 42.026812,2834.1252 a 3.6850396,3.6850396 0 0 1 -7.370079,0 3.6850396,3.6850396 0 0 1 7.370079,0 z"
         style="fill:none;stroke:#000000;stroke-width:0.75;stroke-linecap:round;stroke-dasharray:none"
         id="path691" /><path
         d="m 123.3287,3043.6506 a 31.181103,31.181103 0 0 1 -62.362202,0 31.181103,31.181103 0 0 1 62.362202,0 z"
         style="fill:none;stroke:#000000;stroke-width:0.75;stroke-linecap:round;stroke-dasharray:none"
         id="path693" /><path
         d="m 205.66779,3064.9104 a 31.181105,31.181105 0 0 1 -62.36221,0 31.181105,31.181105 0 0 1 62.36221,0 z"
         style="fill:none;stroke:#000000;stroke-width:0.75;stroke-linecap:round;stroke-dasharray:none"
         id="path695" /><path
         d="m 123.3287,2958.6112 a 31.181103,31.181103 0 0 1 -62.362202,0 31.181103,31.181103 0 0 1 62.362202,0 z"
         style="fill:none;stroke:#000000;stroke-width:0.75;stroke-linecap:round;stroke-dasharray:none"
         id="path697" /><path
         d="m 205.66779,2979.871 a 31.181105,31.181105 0 0 1 -62.36221,0 31.181105,31.181105 0 0 1 62.36221,0 z"
         style="fill:none;stroke:#000000;stroke-width:0.75;stroke-linecap:round;stroke-dasharray:none"
         id="path699" /><path
         d="m 290.70717,2979.871 a 31.181105,31.181105 0 0 1 -62.36221,0 31.181105,31.181105 0 0 1 62.36221,0 z"
         style="fill:none;stroke:#000000;stroke-width:0.75;stroke-linecap:round;stroke-dasharray:none"
         id="path701" /><path
         d="m 290.70717,3064.9104 a 31.181105,31.181105 0 0 1 -62.36221,0 31.181105,31.181105 0 0 1 62.36221,0 z"
         style="fill:none;stroke:#000000;stroke-width:0.75;stroke-linecap:round;stroke-dasharray:none"
         id="path703" /><path
         d="m 364.35438,3022.3907 a 31.181105,31.181105 0 0 1 -62.36221,0 31.181105,31.181105 0 0 1 62.36221,0 z"
         style="fill:none;stroke:#000000;stroke-width:0.75;stroke-linecap:round;stroke-dasharray:none"
         id="path705" /><path
         d="m 437.99848,3064.9104 a 31.181105,31.181105 0 0 1 -62.36221,0 31.181105,31.181105 0 0 1 62.36221,0 z"
         style="fill:none;stroke:#000000;stroke-width:0.75;stroke-linecap:round;stroke-dasharray:none"
         id="path707" /><path
         d="m 437.99848,2979.871 a 31.181105,31.181105 0 0 1 -62.36221,0 31.181105,31.181105 0 0 1 62.36221,0 z"
         style="fill:none;stroke:#000000;stroke-width:0.75;stroke-linecap:round;stroke-dasharray:none"
         id="path709" /><path
         d="m 308.02033,2881.1353 a 31.181105,31.181105 0 0 1 -62.36221,0 31.181105,31.181105 0 0 1 62.36221,0 z"
         style="fill:none;stroke:#000000;stroke-width:0.75;stroke-linecap:round;stroke-dasharray:none"
         id="path711" /><path
         d="m 486.82525,2910.2448 a 31.181105,31.181105 0 0 1 -62.36221,0 31.181105,31.181105 0 0 1 62.36221,0 z"
         style="fill:none;stroke:#000000;stroke-width:0.75;stroke-linecap:round;stroke-dasharray:none"
         id="path713" /><path
         d="m 511.64541,3107.4304 a 31.181104,31.181104 0 0 1 -62.3622,0 31.181103,31.181103 0 0 1 62.3622,0 z"
         style="fill:none;stroke:#000000;stroke-width:0.75;stroke-linecap:round;stroke-dasharray:none"
         id="path715" /><path
         d="m 511.64541,3022.3907 a 31.181104,31.181104 0 0 1 -62.3622,0 31.181103,31.181103 0 0 1 62.3622,0 z"
         style="fill:none;stroke:#000000;stroke-width:0.75;stroke-linecap:round;stroke-dasharray:none"
         id="path717" /><path
         d="m 596.68478,3022.3907 a 31.181105,31.181105 0 0 1 -62.36221,0 31.181105,31.181105 0 0 1 62.36221,0 z"
         style="fill:none;stroke:#000000;stroke-width:0.75;stroke-linecap:round;stroke-dasharray:none"
         id="path719" /><path
         d="m 596.68478,3107.4304 a 31.181105,31.181105 0 0 1 -62.36221,0 31.181105,31.181105 0 0 1 62.36221,0 z"
         style="fill:none;stroke:#000000;stroke-width:0.75;stroke-linecap:round;stroke-dasharray:none"
         id="path721" /><path
         d="m 679.02557,3086.1703 a 31.181105,31.181105 0 0 1 -62.36221,0 31.181105,31.181105 0 0 1 62.36221,0 z"
         style="fill:none;stroke:#000000;stroke-width:0.75;stroke-linecap:round;stroke-dasharray:none"
         id="path723" /><path
         d="m 679.02557,3001.1309 a 31.181105,31.181105 0 0 1 -62.36221,0 31.181105,31.181105 0 0 1 62.36221,0 z"
         style="fill:none;stroke:#000000;stroke-width:0.75;stroke-linecap:round;stroke-dasharray:none"
         id="path725" /><path
         d="m 408.26304,2872.6313 a 38.267718,38.267718 0 0 1 -76.53543,0 38.267718,38.267718 0 0 1 76.53543,0 z"
         style="fill:none;stroke:#000000;stroke-width:0.75;stroke-linecap:round;stroke-dasharray:none"
         id="path727" /></g><g
       id="g813"><path
         d="m 63.637748,2747.945 a 5.6692918,5.6692918 0 0 1 -11.338583,0 5.6692918,5.6692918 0 0 1 11.338583,0 z"
         style="fill:none;stroke:#000000;stroke-width:0.75;stroke-linecap:round;stroke-dasharray:none"
         id="path504" /><path
         d="m 726.94485,2747.945 a 5.6692918,5.6692918 0 0 1 -11.33858,0 5.6692918,5.6692918 0 0 1 11.33858,0 z"
         style="fill:none;stroke:#000000;stroke-width:0.75;stroke-linecap:round;stroke-dasharray:none"
         id="path506" /><path
         d="m 726.94485,2444.6379 a 5.6692918,5.6692918 0 0 1 -11.33858,0 5.6692918,5.6692918 0 0 1 11.33858,0 z"
         style="fill:none;stroke:#000000;stroke-width:0.75;stroke-linecap:round;stroke-dasharray:none"
         id="path508" /><path
         d="m 63.637748,2444.6379 a 5.6692918,5.6692918 0 0 1 -11.338583,0 5.6692918,5.6692918 0 0 1 11.338583,0 z"
         style="fill:none;stroke:#000000;stroke-width:0.75;stroke-linecap:round;stroke-dasharray:none"
         id="path510" /><path
         d="m 344.8091,2444.6379 a 5.669295,5.669295 0 0 1 -11.33859,0 5.669295,5.669295 0 0 1 11.33859,0 z"
         style="fill:none;stroke:#000000;stroke-width:0.75;stroke-linecap:round;stroke-dasharray:none"
         id="path512" /><path
         d="m 445.77351,2747.945 a 5.669295,5.669295 0 0 1 -11.33859,0 5.669295,5.669295 0 0 1 11.33859,0 z"
         style="fill:none;stroke:#000000;stroke-width:0.75;stroke-linecap:round;stroke-dasharray:none"
         id="path514" /><path
         d="m 142.95539,2654.1633 a 31.181104,31.181104 0 0 1 -62.362208,0 31.181103,31.181103 0 0 1 62.362208,0 z"
         style="fill:none;stroke:#000000;stroke-width:0.75;stroke-linecap:round;stroke-dasharray:none"
         id="path532" /><path
         d="m 225.29448,2675.4231 a 31.181105,31.181105 0 0 1 -62.36221,0 31.181105,31.181105 0 0 1 62.36221,0 z"
         style="fill:none;stroke:#000000;stroke-width:0.75;stroke-linecap:round;stroke-dasharray:none"
         id="path534" /><path
         d="m 142.95539,2569.1239 a 31.181104,31.181104 0 0 1 -62.362208,0 31.181103,31.181103 0 0 1 62.362208,0 z"
         style="fill:none;stroke:#000000;stroke-width:0.75;stroke-linecap:round;stroke-dasharray:none"
         id="path536" /><path
         d="m 225.29448,2590.3837 a 31.181105,31.181105 0 0 1 -62.36221,0 31.181105,31.181105 0 0 1 62.36221,0 z"
         style="fill:none;stroke:#000000;stroke-width:0.75;stroke-linecap:round;stroke-dasharray:none"
         id="path538" /><path
         d="m 310.33385,2590.3837 a 31.181105,31.181105 0 0 1 -62.36221,0 31.181105,31.181105 0 0 1 62.36221,0 z"
         style="fill:none;stroke:#000000;stroke-width:0.75;stroke-linecap:round;stroke-dasharray:none"
         id="path540" /><path
         d="m 310.33385,2675.4231 a 31.181105,31.181105 0 0 1 -62.36221,0 31.181105,31.181105 0 0 1 62.36221,0 z"
         style="fill:none;stroke:#000000;stroke-width:0.75;stroke-linecap:round;stroke-dasharray:none"
         id="path542" /><path
         d="m 383.98107,2632.9034 a 31.181105,31.181105 0 0 1 -62.36221,0 31.181105,31.181105 0 0 1 62.36221,0 z"
         style="fill:none;stroke:#000000;stroke-width:0.75;stroke-linecap:round;stroke-dasharray:none"
         id="path544" /><path
         d="m 457.62516,2675.4231 a 31.181105,31.181105 0 0 1 -62.3622,0 31.181105,31.181105 0 0 1 62.3622,0 z"
         style="fill:none;stroke:#000000;stroke-width:0.75;stroke-linecap:round;stroke-dasharray:none"
         id="path546" /><path
         d="m 457.62516,2590.3837 a 31.181105,31.181105 0 0 1 -62.3622,0 31.181105,31.181105 0 0 1 62.3622,0 z"
         style="fill:none;stroke:#000000;stroke-width:0.75;stroke-linecap:round;stroke-dasharray:none"
         id="path548" /><path
         d="m 327.64702,2491.648 a 31.181105,31.181105 0 0 1 -62.36221,0 31.181105,31.181105 0 0 1 62.36221,0 z"
         style="fill:none;stroke:#000000;stroke-width:0.75;stroke-linecap:round;stroke-dasharray:none"
         id="path550" /><path
         d="m 506.45194,2520.7575 a 31.181105,31.181105 0 0 1 -62.36221,0 31.181105,31.181105 0 0 1 62.36221,0 z"
         style="fill:none;stroke:#000000;stroke-width:0.75;stroke-linecap:round;stroke-dasharray:none"
         id="path552" /><path
         d="m 531.27209,2717.9431 a 31.181104,31.181104 0 0 1 -62.3622,0 31.181103,31.181103 0 0 1 62.3622,0 z"
         style="fill:none;stroke:#000000;stroke-width:0.75;stroke-linecap:round;stroke-dasharray:none"
         id="path554" /><path
         d="m 531.27209,2632.9034 a 31.181104,31.181104 0 0 1 -62.3622,0 31.181103,31.181103 0 0 1 62.3622,0 z"
         style="fill:none;stroke:#000000;stroke-width:0.75;stroke-linecap:round;stroke-dasharray:none"
         id="path556" /><path
         d="m 616.31147,2632.9034 a 31.181105,31.181105 0 0 1 -62.36221,0 31.181105,31.181105 0 0 1 62.36221,0 z"
         style="fill:none;stroke:#000000;stroke-width:0.75;stroke-linecap:round;stroke-dasharray:none"
         id="path558" /><path
         d="m 616.31147,2717.9431 a 31.181105,31.181105 0 0 1 -62.36221,0 31.181105,31.181105 0 0 1 62.36221,0 z"
         style="fill:none;stroke:#000000;stroke-width:0.75;stroke-linecap:round;stroke-dasharray:none"
         id="path560" /><path
         d="m 698.65225,2696.6829 a 31.181103,31.181103 0 0 1 -62.3622,0 31.181103,31.181103 0 0 1 62.3622,0 z"
         style="fill:none;stroke:#000000;stroke-width:0.75;stroke-linecap:round;stroke-dasharray:none"
         id="path562" /><path
         d="m 698.65225,2611.6436 a 31.181103,31.181103 0 0 1 -62.3622,0 31.181103,31.181103 0 0 1 62.3622,0 z"
         style="fill:none;stroke:#000000;stroke-width:0.75;stroke-linecap:round;stroke-dasharray:none"
         id="path564" /><path
         d="m 427.88973,2483.144 a 38.26772,38.26772 0 0 1 -76.53544,0 38.26772,38.26772 0 0 1 76.53544,0 z"
         style="fill:none;stroke:#000000;stroke-width:0.75;stroke-linecap:round;stroke-dasharray:none"
         id="path566" /><path
         id="path994"
         style="fill:none;stroke:#000000;stroke-width:0.75;stroke-linecap:round;stroke-dasharray:none"
         d="m 57.968457,2416.2914 c -15.655334,0 -28.346467,12.6913 -28.346467,28.3483 0,0 0,202.2035 0,303.3053 0,15.6554 12.691164,28.3464 28.346467,28.3464 221.102403,0 649.944593,-1e-4 663.307193,0 15.6552,10e-5 28.34637,-12.691 28.34637,-28.3464 v -303.3053 c 0,-15.657 -12.69114,-28.3483 -28.34637,-28.3483 z"
         sodipodi:nodetypes="sssssssss" /></g><g
       id="g5455"
       transform="translate(-6.37801)"><path
         d="m 266.98,1266.3854 v -29.427 c 0,-1.564 1.271,-2.835 2.835,-2.835 h 34.724 c 1.564,0 2.835,1.271 2.835,2.835 v 29.427 h 420.28 c 15.641,0 28.346,-12.705 28.346,-28.346 v -303.308 c 0,-15.641 -12.705,-28.346 -28.346,-28.346 H 64.346 c -15.641,0 -28.346,12.705 -28.346,28.346 v 303.308 c 0,15.641 12.705,28.346 28.346,28.346 z"
         style="fill:none;stroke:#000000;stroke-width:0.75;stroke-linecap:butt;stroke-linejoin:miter;stroke-miterlimit:10;stroke-dasharray:none;stroke-opacity:1"
         id="path1337"
         sodipodi:nodetypes="cssssccsssssscc" /><path
         d="m 68.03103,1238.0391 a 3.68504,3.68504 0 0 1 -7.37008,0 3.68504,3.68504 0 0 1 7.37008,0 z"
         style="fill:none;stroke:#000000;stroke-width:0.75;stroke-linecap:round;stroke-dasharray:none"
         id="path1456" /><path
         d="m 450.16676,1238.0391 a 3.68505,3.68505 0 0 1 -7.3701,0 3.68505,3.68505 0 0 1 7.3701,0 z"
         style="fill:none;stroke:#000000;stroke-width:0.75;stroke-linecap:round;stroke-dasharray:none"
         id="path1458" /><path
         d="m 731.33816,1238.0391 a 3.68505,3.68505 0 0 1 -7.3701,0 3.68505,3.68505 0 0 1 7.3701,0 z"
         style="fill:none;stroke:#000000;stroke-width:0.75;stroke-linecap:round;stroke-dasharray:none"
         id="path1460" /><path
         d="m 731.33816,934.73199 a 3.68505,3.68505 0 0 1 -7.3701,0 3.68505,3.68505 0 0 1 7.3701,0 z"
         style="fill:none;stroke:#000000;stroke-width:0.75;stroke-linecap:round;stroke-dasharray:none"
         id="path1462" /><path
         d="m 349.20236,934.73199 a 3.68505,3.68505 0 0 1 -7.3701,0 3.68505,3.68505 0 0 1 7.3701,0 z"
         style="fill:none;stroke:#000000;stroke-width:0.75;stroke-linecap:round;stroke-dasharray:none"
         id="path1464" /><path
         d="m 68.03103,934.73199 a 3.68504,3.68504 0 0 1 -7.37008,0 3.68504,3.68504 0 0 1 7.37008,0 z"
         style="fill:none;stroke:#000000;stroke-width:0.75;stroke-linecap:round;stroke-dasharray:none"
         id="path1466" /></g><g
       id="g5415"><path
         d="m 63.637739,2341.6032 a 5.6692918,5.6692918 0 0 1 -11.338583,0 5.6692918,5.6692918 0 0 1 11.338583,0 z"
         style="fill:none;stroke:#000000;stroke-width:0.75000002;stroke-dasharray:none;stroke-opacity:1"
         id="path2192" /><path
         d="m 726.94484,2341.6032 a 5.6692918,5.6692918 0 0 1 -11.33858,0 5.6692918,5.6692918 0 0 1 11.33858,0 z"
         style="fill:none;stroke:#000000;stroke-width:0.75000002;stroke-dasharray:none;stroke-opacity:1"
         id="path2194" /><path
         d="m 726.94484,2038.2961 a 5.6692918,5.6692918 0 0 1 -11.33858,0 5.6692918,5.6692918 0 0 1 11.33858,0 z"
         style="fill:none;stroke:#000000;stroke-width:0.75000002;stroke-dasharray:none;stroke-opacity:1"
         id="path2196" /><path
         d="m 63.637739,2038.2961 a 5.6692918,5.6692918 0 0 1 -11.338583,0 5.6692918,5.6692918 0 0 1 11.338583,0 z"
         style="fill:none;stroke:#000000;stroke-width:0.75000002;stroke-dasharray:none;stroke-opacity:1"
         id="path2198" /><path
         d="m 344.80909,2038.2961 a 5.669295,5.669295 0 0 1 -11.33859,0 5.669295,5.669295 0 0 1 11.33859,0 z"
         style="fill:none;stroke:#000000;stroke-width:0.75000002;stroke-dasharray:none;stroke-opacity:1"
         id="path2200" /><path
         d="m 445.7735,2341.6032 a 5.669295,5.669295 0 0 1 -11.33859,0 5.669295,5.669295 0 0 1 11.33859,0 z"
         style="fill:none;stroke:#000000;stroke-width:0.75000002;stroke-dasharray:none;stroke-opacity:1"
         id="path2202" /><path
         id="path3100"
         style="fill:none;stroke:#000000;stroke-width:0.75000002;stroke-linecap:round;stroke-dasharray:none;stroke-opacity:1"
         d="m 57.96846,2009.9495 c -15.65534,0 -28.34647,12.6912 -28.34647,28.3482 0,0 0,202.2036 0,303.3054 0,15.6554 12.69116,28.3464 28.34647,28.3464 221.10239,0 649.94458,-1e-4 663.30718,0 15.65521,10e-5 28.34637,-12.691 28.34637,-28.3464 v -303.3054 c 0,-15.657 -12.69114,-28.3482 -28.34637,-28.3482 z"
         sodipodi:nodetypes="sssssssss" /><path
         id="path4435"
         style="fill:none;stroke:#000000;stroke-width:0.75;stroke-linecap:round;stroke-dasharray:none;stroke-opacity:1"
         d="m 156.95996,2289.1053 v 58.4505 c -3e-5,0.7828 -0.63459,1.4173 -1.41742,1.4174 H 79.290653 c -0.782764,-10e-5 -1.417317,-0.6346 -1.417337,-1.4174 v -58.4505 c 2e-5,-0.7827 0.634573,-1.4172 1.417336,-1.4174 h 76.251888 c 0.78283,2e-4 1.41739,0.6347 1.41742,1.4174 z"
         sodipodi:nodetypes="ccccccccc" /><rect
         style="opacity:0.796791;fill:none;stroke-width:0.75;stroke-miterlimit:4.8;stroke-dasharray:none;stroke:#000000;stroke-opacity:1"
         id="rect4694"
         width="39.684975"
         height="39.6847"
         x="91.931763"
         y="-2267.6636"
         transform="scale(1,-1)" /><rect
         style="opacity:0.796791;fill:none;stroke-width:0.75;stroke-miterlimit:4.8;stroke-dasharray:none;stroke:#000000;stroke-opacity:1"
         id="rect4748"
         width="39.684975"
         height="39.6847"
         x="174.27074"
         y="-2288.9238"
         transform="scale(1,-1)" /><rect
         style="opacity:0.796791;fill:none;stroke-width:0.75;stroke-miterlimit:4.8;stroke-dasharray:none;stroke:#000000;stroke-opacity:1"
         id="rect4750"
         width="39.684975"
         height="39.6847"
         x="259.31024"
         y="-2288.9238"
         transform="scale(1,-1)" /><rect
         style="opacity:0.796791;fill:none;stroke-width:0.75;stroke-miterlimit:4.8;stroke-dasharray:none;stroke:#000000;stroke-opacity:1"
         id="rect4752"
         width="39.684975"
         height="39.6847"
         x="332.95724"
         y="-2246.4041"
         transform="scale(1,-1)" /><rect
         style="opacity:0.796791;fill:none;stroke-width:0.75;stroke-miterlimit:4.8;stroke-dasharray:none;stroke:#000000;stroke-opacity:1"
         id="rect4754"
         width="39.684975"
         height="39.6847"
         x="406.60126"
         y="-2288.9238"
         transform="scale(1,-1)" /><rect
         style="opacity:0.796791;fill:none;stroke-width:0.75;stroke-miterlimit:4.8;stroke-dasharray:none;stroke:#000000;stroke-opacity:1"
         id="rect4756"
         width="39.684975"
         height="39.6847"
         x="480.2485"
         y="-2331.4431"
         transform="scale(1,-1)" /><rect
         style="opacity:0.796791;fill:none;stroke-width:0.75;stroke-miterlimit:4.8;stroke-dasharray:none;stroke:#000000;stroke-opacity:1"
         id="rect4758"
         width="39.684975"
         height="39.6847"
         x="565.28772"
         y="-2331.4436"
         transform="scale(1,-1)" /><rect
         style="opacity:0.796791;fill:none;stroke-width:0.75;stroke-miterlimit:4.8;stroke-dasharray:none;stroke:#000000;stroke-opacity:1"
         id="rect4760"
         width="39.684975"
         height="39.6847"
         x="647.62878"
         y="-2310.1841"
         transform="scale(1,-1)" /><rect
         style="opacity:0.796791;fill:none;stroke-width:0.75;stroke-miterlimit:4.8;stroke-dasharray:none;stroke:#000000;stroke-opacity:1"
         id="rect4762"
         width="39.684975"
         height="39.6847"
         x="647.62878"
         y="-2225.1445"
         transform="scale(1,-1)" /><rect
         style="opacity:0.796791;fill:none;stroke-width:0.75;stroke-miterlimit:4.8;stroke-dasharray:none;stroke:#000000;stroke-opacity:1"
         id="rect4764"
         width="39.684975"
         height="39.6847"
         x="565.28772"
         y="-2246.4041"
         transform="scale(1,-1)" /><rect
         style="opacity:0.796791;fill:none;stroke-width:0.75;stroke-miterlimit:4.8;stroke-dasharray:none;stroke:#000000;stroke-opacity:1"
         id="rect4766"
         width="39.684975"
         height="39.6847"
         x="480.24826"
         y="-2246.4041"
         transform="scale(1,-1)" /><rect
         style="opacity:0.796791;fill:none;stroke-width:0.75;stroke-miterlimit:4.8;stroke-dasharray:none;stroke:#000000;stroke-opacity:1"
         id="rect4768"
         width="39.684975"
         height="39.6847"
         x="406.60126"
         y="-2203.8845"
         transform="scale(1,-1)" /><rect
         style="opacity:0.796791;fill:none;stroke-width:0.75;stroke-miterlimit:4.8;stroke-dasharray:none;stroke:#000000;stroke-opacity:1"
         id="rect4770"
         width="39.684975"
         height="39.6847"
         x="259.31024"
         y="-2203.8845"
         transform="scale(1,-1)" /><rect
         style="opacity:0.796791;fill:none;stroke-width:0.75;stroke-miterlimit:4.8;stroke-dasharray:none;stroke:#000000;stroke-opacity:1"
         id="rect4772"
         width="39.684975"
         height="39.6847"
         x="91.93177"
         y="-2182.625"
         transform="scale(1,-1)" /><rect
         style="opacity:0.796791;fill:none;stroke-width:0.75;stroke-miterlimit:4.8;stroke-dasharray:none;stroke:#000000;stroke-opacity:1"
         id="rect4774"
         width="39.684975"
         height="39.6847"
         x="174.27074"
         y="-2203.8845"
         transform="scale(1,-1)" /><rect
         style="opacity:0.796791;fill:none;stroke-width:0.75;stroke-miterlimit:4.8;stroke-dasharray:none;stroke:#000000;stroke-opacity:1"
         id="rect4776"
         width="39.684975"
         height="39.6847"
         x="369.77924"
         y="-2096.6418"
         transform="scale(1,-1)" /><rect
         style="opacity:0.796791;fill:none;stroke-width:0.75;stroke-miterlimit:4.8;stroke-dasharray:none;stroke:#000000;stroke-opacity:1"
         id="rect4778"
         width="39.684975"
         height="39.6847"
         x="455.4285"
         y="-2134.2581"
         transform="scale(1,-1)" /><rect
         style="opacity:0.796791;fill:none;stroke-width:0.75;stroke-miterlimit:4.8;stroke-dasharray:none;stroke:#000000;stroke-opacity:1"
         id="rect4780"
         width="39.684975"
         height="39.6847"
         x="276.62326"
         y="-2105.1484"
         transform="scale(1,-1)" /></g></g></svg>
