999
FreeCAD v0.20 29177 +426 (Git)
  0
SECTION
  2
HEADER
  9
$ACADVER
  1
AC1014
  9
$ACADMAINTVER
 70
     9
  9
$DWGCODEPAGE
  3
ANSI_1252
  9
$TEXTSTYLE
  7
STANDARD
  9
$DIMSTYLE
  2
STANDARD
  9
$DIMTXSTY
  7
STANDARD
  9
$CMLSTYLE
  2
STANDARD
  9
$LUNITS
 70
2
  9
$INSUNITS
 70
4
  9
$PEXTMAX
 10
50
 20
50
 30
50
  9
$PEXTMIN
 10
0
 20
0
 30
0
  9
$HANDSEED
  5
FFFF
  0
ENDSEC
  0
SECTION
  2
CLASSES
  0
CLASS
  1
ACDBDICTIONARYWDFLT
  2
AcDbDictionaryWithDefault
  3
ObjectDBX Classes
 90
        0
280
     0
281
     0
  0
CLASS
  1
XRECORD
  2
AcDbXrecord
  3
ObjectDBX Classes
 90
        0
280
     0
281
     0
  0
CLASS
  1
LWPOLYLINE
  2
AcDbPolyline
  3
ObjectDBX Classes
 90
        0
280
     0
281
     1
  0
ENDSEC
  0
SECTION
  2
TABLES
  0
TABLE
  2
VPORT
  5
20
330
0
100
AcDbSymbolTable
 70
     1
  0
VPORT
  5
21
330
20
100
AcDbSymbolTableRecord
100
AcDbViewportTableRecord
  2
*ACTIVE
 70
     0
  0
ENDTAB
  0
TABLE
  2
LTYPE
  5
22
330
0
100
AcDbSymbolTable
 70
     1
  0
LTYPE
  5
23
330
21
100
AcDbSymbolTableRecord
100
AcDbLinetypeTableRecord
  2
BYBLOCK
 70
     0
  3

 72
    65
 73
     0
 40
0.0
  0
LTYPE
  5
24
330
21
100
AcDbSymbolTableRecord
100
AcDbLinetypeTableRecord
  2
BYLAYER
 70
     0
  3

 72
    65
 73
     0
 40
0.0
  0
LTYPE
  5
25
330
21
100
AcDbSymbolTableRecord
100
AcDbLinetypeTableRecord
  2
CONTINUOUS
 70
     0
  3
Solid line
 72
    65
 73
     0
 40
0.0
  0
ENDTAB
  0
TABLE
  2
LAYER
  5
AAF
330
0
100
AcDbSymbolTable
 70
3
  0
LAYER
  5
AB0
330
AAF
100
AcDbSymbolTableRecord
100
AcDbLayerTableRecord
  2
0
 70
   0
 62
   7
  6
CONTINUOUS
  0
LAYER
  5
AB1
330
AAF
100
AcDbSymbolTableRecord
100
AcDbLayerTableRecord
  2
none
 70
    0
 62
    7
  6
CONTINUOUS
  0
LAYER
  5
AB2
330
AAF
100
AcDbSymbolTableRecord
100
AcDbLayerTableRecord
  2
Sketch
 70
    0
 62
    7
  6
CONTINUOUS
  0
ENDTAB
  0
TABLE
  2
STYLE
  5
70
330
0
100
AcDbSymbolTable
 70
     2
  0
STYLE
  5
71
330
70
100
AcDbSymbolTableRecord
100
AcDbTextStyleTableRecord
  2
STANDARD
 70
     0
 40
0.0
 41
1.0
 50
0.0
 71
     0
 42
2.5
  3
arial.ttf
  4

  0
STYLE
  5
72
330
70
100
AcDbSymbolTableRecord
100
AcDbTextStyleTableRecord
  2
ANNOTATIVE
 70
     0
 40
0.0
 41
1.0
 50
0.0
 71
     0
 42
2.5
  3
arial.ttf
  4

  0
ENDTAB
  0
TABLE
  2
VIEW
  5
73
330
0
100
AcDbSymbolTable
 70
     0
  0
ENDTAB
  0
TABLE
  2
UCS
  5
74
330
0
100
AcDbSymbolTable
 70
     0
  0
ENDTAB
  0
TABLE
  2
APPID
  5
75
330
0
100
AcDbSymbolTable
 70
     2
  0
APPID
  5
76
330
75
100
AcDbSymbolTableRecord
100
AcDbRegAppTableRecord
  2
ACAD
 70
     0
  0
APPID
  5
77
330
75
100
AcDbSymbolTableRecord
100
AcDbRegAppTableRecord
  2
ACADANNOTATIVE
 70
     0
  0
ENDTAB
  0
TABLE
  2
DIMSTYLE
  5
78
330
0
100
AcDbSymbolTable
 70
     2
  0
DIMSTYLE
105
79
330
78
100
AcDbSymbolTableRecord
100
AcDbDimStyleTableRecord
  2
STANDARD
 70
     0
  3

  4

  5

  6

  7

 40
0.0
 41
2.5
 42
0.625
 43
3.75
 44
1.25
 45
0.0
 46
0.0
 47
0.0
 48
0.0
140
2.5
141
2.5
142
0.0
143
0.03937007874016
144
1.0
145
0.0
146
1.0
147
0.625
 71
     0
 72
     0
 73
     0
 74
     0
 75
     0
 76
     0
 77
     1
 78
     8
170
     0
171
     3
172
     1
173
     0
174
     0
175
     0
176
     0
177
     0
178
     0
270
     2
271
     2
272
     2
273
     2
274
     3
340
71
275
     0
280
     0
281
     0
282
     0
283
     0
284
     8
285
     0
286
     0
287
     3
288
     0
  0
ENDTAB
  0
TABLE
  2
BLOCK_RECORD
  5
A01
330
0
100
AcDbSymbolTable
  70
5
  0
BLOCK_RECORD
  5
A02
330
A01
100
AcDbSymbolTableRecord
100
AcDbBlockTableRecord
  2
*MODEL_SPACE
  0
BLOCK_RECORD
  5
A03
330
A01
100
AcDbSymbolTableRecord
100
AcDbBlockTableRecord
  2
*PAPER_SPACE
  0
ENDTAB
  0
ENDSEC
  0
SECTION
  2
BLOCKS
  0
BLOCK
  5
A04
330
A02
100
AcDbEntity
  8
0
100
AcDbBlockBegin
  2
*MODEL_SPACE
 70
   0
 10
0
 20
0
 30
0
  3
*MODEL_SPACE
  1
 
  0
ENDBLK
  5
A05
330
A02
100
AcDbEntity
  8
0
100
AcDbBlockEnd
  0
BLOCK
  5
A06
330
A03
100
AcDbEntity
 67
1
  8
0
100
AcDbBlockBegin
  2
*PAPER_SPACE
 70
   0
 10
0
 20
0
 30
0
  3
*PAPER_SPACE
  1
 
  0
ENDBLK
  5
A07
330
A03
100
AcDbEntity
 67
    1
  8
0
100
AcDbBlockEnd
  0
ENDSEC
  0
SECTION
  2
ENTITIES
  0
CIRCLE
  5
A08
330
A02
100
AcDbEntity
  8
Sketch
100
AcDbCircle
 10
165.971
 20
76.4159
 40
12
  0
CIRCLE
  5
A09
330
A02
100
AcDbEntity
  8
Sketch
100
AcDbCircle
 10
195.971
 20
76.4159
 40
12
  0
CIRCLE
  5
A0A
330
A02
100
AcDbEntity
  8
Sketch
100
AcDbCircle
 10
165.971
 20
106.416
 40
12
  0
CIRCLE
  5
A0B
330
A02
100
AcDbEntity
  8
Sketch
100
AcDbCircle
 10
195.971
 20
106.416
 40
12
  0
CIRCLE
  5
A0C
330
A02
100
AcDbEntity
  8
Sketch
100
AcDbCircle
 10
225.019
 20
98.9159
 40
12
  0
CIRCLE
  5
A0D
330
A02
100
AcDbEntity
  8
Sketch
100
AcDbCircle
 10
225.019
 20
68.9159
 40
12
  0
CIRCLE
  5
A0E
330
A02
100
AcDbEntity
  8
Sketch
100
AcDbCircle
 10
139.99
 20
91.4159
 40
12
  0
CIRCLE
  5
A0F
330
A02
100
AcDbEntity
  8
Sketch
100
AcDbCircle
 10
139.99
 20
61.4159
 40
12
  0
CIRCLE
  5
A10
330
A02
100
AcDbEntity
  8
Sketch
100
AcDbCircle
 10
114.01
 20
76.4159
 40
12
  0
CIRCLE
  5
A11
330
A02
100
AcDbEntity
  8
Sketch
100
AcDbCircle
 10
88.0289
 20
91.4159
 40
12
  0
CIRCLE
  5
A12
330
A02
100
AcDbEntity
  8
Sketch
100
AcDbCircle
 10
58.0289
 20
91.4159
 40
12
  0
CIRCLE
  5
A13
330
A02
100
AcDbEntity
  8
Sketch
100
AcDbCircle
 10
127
 20
23.5841
 40
15
  0
LINE
  5
A14
330
A02
100
AcDbEntity
  8
Sketch
100
AcDbLine
 10
0
 20
10
 30
0
 11
0
 21
117
 31
0
  0
ARC
  5
A15
330
A02
100
AcDbEntity
  8
Sketch
100
AcDbCircle
 10
10
 20
117
 30
0
 40
10
100
AcDbArc
 50
90
 51
180
  0
LINE
  5
A16
330
A02
100
AcDbEntity
  8
Sketch
100
AcDbLine
 10
10
 20
127
 30
0
 11
244
 21
127
 31
0
  0
ARC
  5
A17
330
A02
100
AcDbEntity
  8
Sketch
100
AcDbCircle
 10
244
 20
117
 30
0
 40
10
100
AcDbArc
 50
0
 51
90
  0
LINE
  5
A18
330
A02
100
AcDbEntity
  8
Sketch
100
AcDbLine
 10
254
 20
117
 30
0
 11
254
 21
10
 31
0
  0
ARC
  5
A19
330
A02
100
AcDbEntity
  8
Sketch
100
AcDbCircle
 10
244
 20
10
 30
0
 40
10
100
AcDbArc
 50
-90
 51
-1.01778e-14
  0
LINE
  5
A1A
330
A02
100
AcDbEntity
  8
Sketch
100
AcDbLine
 10
244
 20
0
 30
0
 11
10
 21
0
 31
0
  0
ARC
  5
A1B
330
A02
100
AcDbEntity
  8
Sketch
100
AcDbCircle
 10
10
 20
10
 30
0
 40
10
100
AcDbArc
 50
180
 51
-90
  0
CIRCLE
  5
A1C
330
A02
100
AcDbEntity
  8
Sketch
100
AcDbCircle
 10
28.9815
 20
83.9159
 40
12
  0
CIRCLE
  5
A1D
330
A02
100
AcDbEntity
  8
Sketch
100
AcDbCircle
 10
28.9815
 20
53.9159
 40
12
  0
CIRCLE
  5
A1E
330
A02
100
AcDbEntity
  8
Sketch
100
AcDbCircle
 10
58.0289
 20
61.4159
 40
12
  0
CIRCLE
  5
A1F
330
A02
100
AcDbEntity
  8
Sketch
100
AcDbCircle
 10
88.0289
 20
61.4159
 40
12
  0
LINE
  5
A20
330
A02
100
AcDbEntity
  8
Sketch
100
AcDbLine
 10
17.522
 20
119.1
 30
0
 11
44.422
 21
119.1
 31
0
  0
LINE
  5
A21
330
A02
100
AcDbEntity
  8
Sketch
100
AcDbLine
 10
44.422
 20
119.1
 30
0
 11
44.422
 21
99.64
 31
0
  0
LINE
  5
A22
330
A02
100
AcDbEntity
  8
Sketch
100
AcDbLine
 10
44.422
 20
99.64
 30
0
 11
17.522
 21
99.64
 31
0
  0
LINE
  5
A23
330
A02
100
AcDbEntity
  8
Sketch
100
AcDbLine
 10
17.522
 20
99.64
 30
0
 11
17.522
 21
119.1
 31
0
  0
CIRCLE
  5
A24
330
A02
100
AcDbEntity
  8
Sketch
100
AcDbCircle
 10
157.215
 20
36.8533
 40
12
  0
CIRCLE
  5
A25
330
A02
100
AcDbEntity
  8
Sketch
100
AcDbCircle
 10
94.1366
 20
26.5841
 40
12
  0
LINE
  5
A26
330
A02
100
AcDbEntity
  8
Sketch
100
AcDbLine
 10
109.54
 20
127
 30
0
 11
118.48
 21
127
 31
0
  0
LINE
  5
A27
330
A02
100
AcDbEntity
  8
Sketch
100
AcDbLine
 10
118.48
 20
127
 30
0
 11
118.48
 21
119.41
 31
0
  0
LINE
  5
A28
330
A02
100
AcDbEntity
  8
Sketch
100
AcDbLine
 10
118.48
 20
119.41
 30
0
 11
109.54
 21
119.41
 31
0
  0
LINE
  5
A29
330
A02
100
AcDbEntity
  8
Sketch
100
AcDbLine
 10
109.54
 20
119.41
 30
0
 11
109.54
 21
127
 31
0
  0
LINE
  5
A2A
330
A02
100
AcDbEntity
  8
Sketch
100
AcDbLine
 10
81.9846
 20
127
 30
0
 11
95.2346
 21
127
 31
0
  0
LINE
  5
A2B
330
A02
100
AcDbEntity
  8
Sketch
100
AcDbLine
 10
95.2346
 20
127
 30
0
 11
95.2346
 21
118.4
 31
0
  0
LINE
  5
A2C
330
A02
100
AcDbEntity
  8
Sketch
100
AcDbLine
 10
95.2346
 20
118.4
 30
0
 11
81.9846
 21
118.4
 31
0
  0
LINE
  5
A2D
330
A02
100
AcDbEntity
  8
Sketch
100
AcDbLine
 10
81.9846
 20
118.4
 30
0
 11
81.9846
 21
127
 31
0
  0
LINE
  5
A2E
330
A02
100
AcDbEntity
  8
Sketch
100
AcDbLine
 10
17.522
 20
127
 30
0
 11
25.372
 21
127
 31
0
  0
LINE
  5
A2F
330
A02
100
AcDbEntity
  8
Sketch
100
AcDbLine
 10
25.372
 20
127
 30
0
 11
25.372
 21
123.25
 31
0
  0
LINE
  5
A30
330
A02
100
AcDbEntity
  8
Sketch
100
AcDbLine
 10
25.372
 20
123.25
 30
0
 11
17.522
 21
123.25
 31
0
  0
LINE
  5
A31
330
A02
100
AcDbEntity
  8
Sketch
100
AcDbLine
 10
17.522
 20
123.25
 30
0
 11
17.522
 21
127
 31
0
  0
LINE
  5
A32
330
A02
100
AcDbEntity
  8
Sketch
100
AcDbLine
 10
20
 20
117
 30
0
 11
41.744
 21
117
 31
0
  0
LINE
  5
A33
330
A02
100
AcDbEntity
  8
Sketch
100
AcDbLine
 10
41.744
 20
117
 30
0
 11
41.744
 21
106.136
 31
0
  0
LINE
  5
A34
330
A02
100
AcDbEntity
  8
Sketch
100
AcDbLine
 10
41.744
 20
106.136
 30
0
 11
20
 21
106.136
 31
0
  0
LINE
  5
A35
330
A02
100
AcDbEntity
  8
Sketch
100
AcDbLine
 10
20
 20
106.136
 30
0
 11
20
 21
117
 31
0
  0
LINE
  5
A36
330
A02
100
AcDbEntity
  8
Sketch
100
AcDbLine
 10
36.572
 20
127
 30
0
 11
44.422
 21
127
 31
0
  0
LINE
  5
A37
330
A02
100
AcDbEntity
  8
Sketch
100
AcDbLine
 10
44.422
 20
127
 30
0
 11
44.422
 21
123.25
 31
0
  0
LINE
  5
A38
330
A02
100
AcDbEntity
  8
Sketch
100
AcDbLine
 10
44.422
 20
123.25
 30
0
 11
36.572
 21
123.25
 31
0
  0
LINE
  5
A39
330
A02
100
AcDbEntity
  8
Sketch
100
AcDbLine
 10
36.572
 20
123.25
 30
0
 11
36.572
 21
127
 31
0
  0
CIRCLE
  5
A3A
330
A02
100
AcDbEntity
  8
Sketch
100
AcDbCircle
 10
10
 20
117
 40
2
  0
CIRCLE
  5
A3B
330
A02
100
AcDbEntity
  8
Sketch
100
AcDbCircle
 10
244
 20
117
 40
2
  0
CIRCLE
  5
A3C
330
A02
100
AcDbEntity
  8
Sketch
100
AcDbCircle
 10
244
 20
10
 40
2
  0
CIRCLE
  5
A3D
330
A02
100
AcDbEntity
  8
Sketch
100
AcDbCircle
 10
10
 20
10
 40
2
  0
CIRCLE
  5
A3E
330
A02
100
AcDbEntity
  8
Sketch
100
AcDbCircle
 10
109.191
 20
10
 40
2
  0
CIRCLE
  5
A3F
330
A02
100
AcDbEntity
  8
Sketch
100
AcDbCircle
 10
144.809
 20
117
 40
2
  0
LINE
  5
A40
330
A02
100
AcDbEntity
  8
Sketch
100
AcDbLine
 10
23.172
 20
98.48
 30
0
 11
23.172
 21
108.71
 31
0
  0
LINE
  5
A41
330
A02
100
AcDbEntity
  8
Sketch
100
AcDbLine
 10
23.172
 20
108.71
 30
0
 11
38.772
 21
108.71
 31
0
  0
LINE
  5
A42
330
A02
100
AcDbEntity
  8
Sketch
100
AcDbLine
 10
38.772
 20
108.71
 30
0
 11
38.772
 21
98.48
 31
0
  0
ARC
  5
A43
330
A02
100
AcDbEntity
  8
Sketch
100
AcDbCircle
 10
23.172
 20
98.48
 30
0
 40
0.5
100
AcDbArc
 50
90
 51
-90
  0
LINE
  5
A44
330
A02
100
AcDbEntity
  8
Sketch
100
AcDbLine
 10
23.172
 20
97.98
 30
0
 11
38.772
 21
97.98
 31
0
  0
ARC
  5
A45
330
A02
100
AcDbEntity
  8
Sketch
100
AcDbCircle
 10
38.772
 20
98.48
 30
0
 40
0.5
100
AcDbArc
 50
-90
 51
90
  0
LINE
  5
A46
330
A02
100
AcDbEntity
  8
Sketch
100
AcDbLine
 10
23.172
 20
98.98
 30
0
 11
38.772
 21
98.98
 31
0
  0
CIRCLE
  5
A47
330
A02
100
AcDbEntity
  8
Sketch
100
AcDbCircle
 10
10
 20
117
 40
1.3
  0
CIRCLE
  5
A48
330
A02
100
AcDbEntity
  8
Sketch
100
AcDbCircle
 10
144.809
 20
117
 40
1.3
  0
CIRCLE
  5
A49
330
A02
100
AcDbEntity
  8
Sketch
100
AcDbCircle
 10
244
 20
117
 40
1.3
  0
CIRCLE
  5
A4A
330
A02
100
AcDbEntity
  8
Sketch
100
AcDbCircle
 10
244
 20
10
 40
1.3
  0
CIRCLE
  5
A4B
330
A02
100
AcDbEntity
  8
Sketch
100
AcDbCircle
 10
109.191
 20
10
 40
1.3
  0
CIRCLE
  5
A4C
330
A02
100
AcDbEntity
  8
Sketch
100
AcDbCircle
 10
10
 20
10
 40
1.3
  0
LINE
  5
A4D
330
A02
100
AcDbEntity
  8
Sketch
100
AcDbLine
 10
17.522
 20
119.6
 30
0
 11
44.422
 21
119.6
 31
0
  0
ARC
  5
A4E
330
A02
100
AcDbEntity
  8
Sketch
100
AcDbCircle
 10
44.422
 20
119.1
 30
0
 40
0.5
100
AcDbArc
 50
0
 51
90
  0
LINE
  5
A4F
330
A02
100
AcDbEntity
  8
Sketch
100
AcDbLine
 10
44.922
 20
119.1
 30
0
 11
44.922
 21
98.48
 31
0
  0
ARC
  5
A50
330
A02
100
AcDbEntity
  8
Sketch
100
AcDbCircle
 10
44.422
 20
98.48
 30
0
 40
0.5
100
AcDbArc
 50
-90
 51
0
  0
LINE
  5
A51
330
A02
100
AcDbEntity
  8
Sketch
100
AcDbLine
 10
44.422
 20
97.98
 30
0
 11
17.522
 21
97.98
 31
0
  0
ARC
  5
A52
330
A02
100
AcDbEntity
  8
Sketch
100
AcDbCircle
 10
17.522
 20
98.48
 30
0
 40
0.5
100
AcDbArc
 50
180
 51
-90
  0
LINE
  5
A53
330
A02
100
AcDbEntity
  8
Sketch
100
AcDbLine
 10
17.022
 20
98.48
 30
0
 11
17.022
 21
119.1
 31
0
  0
ARC
  5
A54
330
A02
100
AcDbEntity
  8
Sketch
100
AcDbCircle
 10
17.522
 20
119.1
 30
0
 40
0.5
100
AcDbArc
 50
90
 51
180
  0
CIRCLE
  5
A55
330
A02
100
AcDbEntity
  8
Sketch
100
AcDbCircle
 10
28.9815
 20
83.9159
 40
11
  0
CIRCLE
  5
A56
330
A02
100
AcDbEntity
  8
Sketch
100
AcDbCircle
 10
58.0289
 20
91.4159
 40
11
  0
CIRCLE
  5
A57
330
A02
100
AcDbEntity
  8
Sketch
100
AcDbCircle
 10
28.9815
 20
53.9159
 40
11
  0
CIRCLE
  5
A58
330
A02
100
AcDbEntity
  8
Sketch
100
AcDbCircle
 10
58.0289
 20
61.4159
 40
11
  0
CIRCLE
  5
A59
330
A02
100
AcDbEntity
  8
Sketch
100
AcDbCircle
 10
88.0289
 20
61.4159
 40
11
  0
CIRCLE
  5
A5A
330
A02
100
AcDbEntity
  8
Sketch
100
AcDbCircle
 10
88.0289
 20
91.4159
 40
11
  0
CIRCLE
  5
A5B
330
A02
100
AcDbEntity
  8
Sketch
100
AcDbCircle
 10
114.01
 20
76.4159
 40
11
  0
CIRCLE
  5
A5C
330
A02
100
AcDbEntity
  8
Sketch
100
AcDbCircle
 10
139.99
 20
91.4159
 40
11
  0
CIRCLE
  5
A5D
330
A02
100
AcDbEntity
  8
Sketch
100
AcDbCircle
 10
139.99
 20
61.4159
 40
11
  0
CIRCLE
  5
A5E
330
A02
100
AcDbEntity
  8
Sketch
100
AcDbCircle
 10
94.1366
 20
26.5841
 40
11
  0
CIRCLE
  5
A5F
330
A02
100
AcDbEntity
  8
Sketch
100
AcDbCircle
 10
157.215
 20
36.8533
 40
11
  0
CIRCLE
  5
A60
330
A02
100
AcDbEntity
  8
Sketch
100
AcDbCircle
 10
165.971
 20
106.416
 40
11
  0
CIRCLE
  5
A61
330
A02
100
AcDbEntity
  8
Sketch
100
AcDbCircle
 10
165.971
 20
76.4159
 40
11
  0
CIRCLE
  5
A62
330
A02
100
AcDbEntity
  8
Sketch
100
AcDbCircle
 10
195.971
 20
76.4159
 40
11
  0
CIRCLE
  5
A63
330
A02
100
AcDbEntity
  8
Sketch
100
AcDbCircle
 10
195.971
 20
106.416
 40
11
  0
CIRCLE
  5
A64
330
A02
100
AcDbEntity
  8
Sketch
100
AcDbCircle
 10
225.019
 20
98.9159
 40
11
  0
CIRCLE
  5
A65
330
A02
100
AcDbEntity
  8
Sketch
100
AcDbCircle
 10
225.019
 20
68.9159
 40
11
  0
CIRCLE
  5
A66
330
A02
100
AcDbEntity
  8
Sketch
100
AcDbCircle
 10
127
 20
23.5841
 40
13.5
  0
LINE
  5
A67
330
A02
100
AcDbEntity
  8
Sketch
100
AcDbLine
 10
132.99
 20
98.4159
 30
0
 11
146.99
 21
98.4159
 31
0
  0
LINE
  5
A68
330
A02
100
AcDbEntity
  8
Sketch
100
AcDbLine
 10
146.99
 20
98.4159
 30
0
 11
146.99
 21
84.4159
 31
0
  0
LINE
  5
A69
330
A02
100
AcDbEntity
  8
Sketch
100
AcDbLine
 10
146.99
 20
84.4159
 30
0
 11
132.99
 21
84.4159
 31
0
  0
LINE
  5
A6A
330
A02
100
AcDbEntity
  8
Sketch
100
AcDbLine
 10
132.99
 20
84.4159
 30
0
 11
132.99
 21
98.4159
 31
0
  0
LINE
  5
A6B
330
A02
100
AcDbEntity
  8
Sketch
100
AcDbLine
 10
132.99
 20
68.4159
 30
0
 11
146.99
 21
68.4159
 31
0
  0
LINE
  5
A6C
330
A02
100
AcDbEntity
  8
Sketch
100
AcDbLine
 10
146.99
 20
68.4159
 30
0
 11
146.99
 21
54.4159
 31
0
  0
LINE
  5
A6D
330
A02
100
AcDbEntity
  8
Sketch
100
AcDbLine
 10
146.99
 20
54.4159
 30
0
 11
132.99
 21
54.4159
 31
0
  0
LINE
  5
A6E
330
A02
100
AcDbEntity
  8
Sketch
100
AcDbLine
 10
132.99
 20
54.4159
 30
0
 11
132.99
 21
68.4159
 31
0
  0
LINE
  5
A6F
330
A02
100
AcDbEntity
  8
Sketch
100
AcDbLine
 10
158.971
 20
99.4159
 30
0
 11
158.971
 21
113.416
 31
0
  0
LINE
  5
A70
330
A02
100
AcDbEntity
  8
Sketch
100
AcDbLine
 10
158.971
 20
113.416
 30
0
 11
172.971
 21
113.416
 31
0
  0
LINE
  5
A71
330
A02
100
AcDbEntity
  8
Sketch
100
AcDbLine
 10
172.971
 20
113.416
 30
0
 11
172.971
 21
99.4159
 31
0
  0
LINE
  5
A72
330
A02
100
AcDbEntity
  8
Sketch
100
AcDbLine
 10
172.971
 20
99.4159
 30
0
 11
158.971
 21
99.4159
 31
0
  0
LINE
  5
A73
330
A02
100
AcDbEntity
  8
Sketch
100
AcDbLine
 10
202.971
 20
99.4159
 30
0
 11
188.971
 21
99.4159
 31
0
  0
LINE
  5
A74
330
A02
100
AcDbEntity
  8
Sketch
100
AcDbLine
 10
188.971
 20
99.4159
 30
0
 11
188.971
 21
113.416
 31
0
  0
LINE
  5
A75
330
A02
100
AcDbEntity
  8
Sketch
100
AcDbLine
 10
188.971
 20
113.416
 30
0
 11
202.971
 21
113.416
 31
0
  0
LINE
  5
A76
330
A02
100
AcDbEntity
  8
Sketch
100
AcDbLine
 10
202.971
 20
113.416
 30
0
 11
202.971
 21
99.4159
 31
0
  0
LINE
  5
A77
330
A02
100
AcDbEntity
  8
Sketch
100
AcDbLine
 10
158.971
 20
69.4159
 30
0
 11
158.971
 21
83.4159
 31
0
  0
LINE
  5
A78
330
A02
100
AcDbEntity
  8
Sketch
100
AcDbLine
 10
158.971
 20
83.4159
 30
0
 11
172.971
 21
83.4159
 31
0
  0
LINE
  5
A79
330
A02
100
AcDbEntity
  8
Sketch
100
AcDbLine
 10
172.971
 20
83.4159
 30
0
 11
172.971
 21
69.4159
 31
0
  0
LINE
  5
A7A
330
A02
100
AcDbEntity
  8
Sketch
100
AcDbLine
 10
172.971
 20
69.4159
 30
0
 11
158.971
 21
69.4159
 31
0
  0
LINE
  5
A7B
330
A02
100
AcDbEntity
  8
Sketch
100
AcDbLine
 10
188.971
 20
69.4159
 30
0
 11
188.971
 21
83.4159
 31
0
  0
LINE
  5
A7C
330
A02
100
AcDbEntity
  8
Sketch
100
AcDbLine
 10
188.971
 20
83.4159
 30
0
 11
202.971
 21
83.4159
 31
0
  0
LINE
  5
A7D
330
A02
100
AcDbEntity
  8
Sketch
100
AcDbLine
 10
202.971
 20
83.4159
 30
0
 11
202.971
 21
69.4159
 31
0
  0
LINE
  5
A7E
330
A02
100
AcDbEntity
  8
Sketch
100
AcDbLine
 10
202.971
 20
69.4159
 30
0
 11
188.971
 21
69.4159
 31
0
  0
LINE
  5
A7F
330
A02
100
AcDbEntity
  8
Sketch
100
AcDbLine
 10
218.019
 20
91.9159
 30
0
 11
218.019
 21
105.916
 31
0
  0
LINE
  5
A80
330
A02
100
AcDbEntity
  8
Sketch
100
AcDbLine
 10
218.019
 20
105.916
 30
0
 11
232.019
 21
105.916
 31
0
  0
LINE
  5
A81
330
A02
100
AcDbEntity
  8
Sketch
100
AcDbLine
 10
232.019
 20
105.916
 30
0
 11
232.019
 21
91.9159
 31
0
  0
LINE
  5
A82
330
A02
100
AcDbEntity
  8
Sketch
100
AcDbLine
 10
232.019
 20
91.9159
 30
0
 11
218.019
 21
91.9159
 31
0
  0
LINE
  5
A83
330
A02
100
AcDbEntity
  8
Sketch
100
AcDbLine
 10
218.019
 20
61.9159
 30
0
 11
218.019
 21
75.9159
 31
0
  0
LINE
  5
A84
330
A02
100
AcDbEntity
  8
Sketch
100
AcDbLine
 10
218.019
 20
75.9159
 30
0
 11
232.019
 21
75.9159
 31
0
  0
LINE
  5
A85
330
A02
100
AcDbEntity
  8
Sketch
100
AcDbLine
 10
232.019
 20
75.9159
 30
0
 11
232.019
 21
61.9159
 31
0
  0
LINE
  5
A86
330
A02
100
AcDbEntity
  8
Sketch
100
AcDbLine
 10
232.019
 20
61.9159
 30
0
 11
218.019
 21
61.9159
 31
0
  0
LINE
  5
A87
330
A02
100
AcDbEntity
  8
Sketch
100
AcDbLine
 10
150.215
 20
29.8533
 30
0
 11
150.215
 21
43.8533
 31
0
  0
LINE
  5
A88
330
A02
100
AcDbEntity
  8
Sketch
100
AcDbLine
 10
150.215
 20
43.8533
 30
0
 11
164.215
 21
43.8533
 31
0
  0
LINE
  5
A89
330
A02
100
AcDbEntity
  8
Sketch
100
AcDbLine
 10
164.215
 20
43.8533
 30
0
 11
164.215
 21
29.8533
 31
0
  0
LINE
  5
A8A
330
A02
100
AcDbEntity
  8
Sketch
100
AcDbLine
 10
164.215
 20
29.8533
 30
0
 11
150.215
 21
29.8533
 31
0
  0
LINE
  5
A8B
330
A02
100
AcDbEntity
  8
Sketch
100
AcDbLine
 10
107.01
 20
69.4159
 30
0
 11
107.01
 21
83.4159
 31
0
  0
LINE
  5
A8C
330
A02
100
AcDbEntity
  8
Sketch
100
AcDbLine
 10
107.01
 20
83.4159
 30
0
 11
121.01
 21
83.4159
 31
0
  0
LINE
  5
A8D
330
A02
100
AcDbEntity
  8
Sketch
100
AcDbLine
 10
121.01
 20
83.4159
 30
0
 11
121.01
 21
69.4159
 31
0
  0
LINE
  5
A8E
330
A02
100
AcDbEntity
  8
Sketch
100
AcDbLine
 10
121.01
 20
69.4159
 30
0
 11
107.01
 21
69.4159
 31
0
  0
LINE
  5
A8F
330
A02
100
AcDbEntity
  8
Sketch
100
AcDbLine
 10
120
 20
16.5841
 30
0
 11
120
 21
30.5841
 31
0
  0
LINE
  5
A90
330
A02
100
AcDbEntity
  8
Sketch
100
AcDbLine
 10
120
 20
30.5841
 30
0
 11
134
 21
30.5841
 31
0
  0
LINE
  5
A91
330
A02
100
AcDbEntity
  8
Sketch
100
AcDbLine
 10
134
 20
30.5841
 30
0
 11
134
 21
16.5841
 31
0
  0
LINE
  5
A92
330
A02
100
AcDbEntity
  8
Sketch
100
AcDbLine
 10
134
 20
16.5841
 30
0
 11
120
 21
16.5841
 31
0
  0
LINE
  5
A93
330
A02
100
AcDbEntity
  8
Sketch
100
AcDbLine
 10
81.0289
 20
84.4159
 30
0
 11
81.0289
 21
98.4159
 31
0
  0
LINE
  5
A94
330
A02
100
AcDbEntity
  8
Sketch
100
AcDbLine
 10
81.0289
 20
98.4159
 30
0
 11
95.0289
 21
98.4159
 31
0
  0
LINE
  5
A95
330
A02
100
AcDbEntity
  8
Sketch
100
AcDbLine
 10
95.0289
 20
98.4159
 30
0
 11
95.0289
 21
84.4159
 31
0
  0
LINE
  5
A96
330
A02
100
AcDbEntity
  8
Sketch
100
AcDbLine
 10
95.0289
 20
84.4159
 30
0
 11
81.0289
 21
84.4159
 31
0
  0
LINE
  5
A97
330
A02
100
AcDbEntity
  8
Sketch
100
AcDbLine
 10
81.0289
 20
54.4159
 30
0
 11
81.0289
 21
68.4159
 31
0
  0
LINE
  5
A98
330
A02
100
AcDbEntity
  8
Sketch
100
AcDbLine
 10
81.0289
 20
68.4159
 30
0
 11
95.0289
 21
68.4159
 31
0
  0
LINE
  5
A99
330
A02
100
AcDbEntity
  8
Sketch
100
AcDbLine
 10
95.0289
 20
68.4159
 30
0
 11
95.0289
 21
54.4159
 31
0
  0
LINE
  5
A9A
330
A02
100
AcDbEntity
  8
Sketch
100
AcDbLine
 10
95.0289
 20
54.4159
 30
0
 11
81.0289
 21
54.4159
 31
0
  0
LINE
  5
A9B
330
A02
100
AcDbEntity
  8
Sketch
100
AcDbLine
 10
87.1366
 20
19.5841
 30
0
 11
87.1366
 21
33.5841
 31
0
  0
LINE
  5
A9C
330
A02
100
AcDbEntity
  8
Sketch
100
AcDbLine
 10
87.1366
 20
33.5841
 30
0
 11
101.137
 21
33.5841
 31
0
  0
LINE
  5
A9D
330
A02
100
AcDbEntity
  8
Sketch
100
AcDbLine
 10
101.137
 20
33.5841
 30
0
 11
101.137
 21
19.5841
 31
0
  0
LINE
  5
A9E
330
A02
100
AcDbEntity
  8
Sketch
100
AcDbLine
 10
101.137
 20
19.5841
 30
0
 11
87.1366
 21
19.5841
 31
0
  0
LINE
  5
A9F
330
A02
100
AcDbEntity
  8
Sketch
100
AcDbLine
 10
51.0289
 20
84.4159
 30
0
 11
51.0289
 21
98.4159
 31
0
  0
LINE
  5
AA0
330
A02
100
AcDbEntity
  8
Sketch
100
AcDbLine
 10
51.0289
 20
98.4159
 30
0
 11
65.0289
 21
98.4159
 31
0
  0
LINE
  5
AA1
330
A02
100
AcDbEntity
  8
Sketch
100
AcDbLine
 10
65.0289
 20
98.4159
 30
0
 11
65.0289
 21
84.4159
 31
0
  0
LINE
  5
AA2
330
A02
100
AcDbEntity
  8
Sketch
100
AcDbLine
 10
65.0289
 20
84.4159
 30
0
 11
51.0289
 21
84.4159
 31
0
  0
LINE
  5
AA3
330
A02
100
AcDbEntity
  8
Sketch
100
AcDbLine
 10
51.0289
 20
54.4159
 30
0
 11
51.0289
 21
68.4159
 31
0
  0
LINE
  5
AA4
330
A02
100
AcDbEntity
  8
Sketch
100
AcDbLine
 10
51.0289
 20
68.4159
 30
0
 11
65.0289
 21
68.4159
 31
0
  0
LINE
  5
AA5
330
A02
100
AcDbEntity
  8
Sketch
100
AcDbLine
 10
65.0289
 20
68.4159
 30
0
 11
65.0289
 21
54.4159
 31
0
  0
LINE
  5
AA6
330
A02
100
AcDbEntity
  8
Sketch
100
AcDbLine
 10
65.0289
 20
54.4159
 30
0
 11
51.0289
 21
54.4159
 31
0
  0
LINE
  5
AA7
330
A02
100
AcDbEntity
  8
Sketch
100
AcDbLine
 10
21.9815
 20
76.9159
 30
0
 11
21.9815
 21
90.9159
 31
0
  0
LINE
  5
AA8
330
A02
100
AcDbEntity
  8
Sketch
100
AcDbLine
 10
21.9815
 20
90.9159
 30
0
 11
35.9815
 21
90.9159
 31
0
  0
LINE
  5
AA9
330
A02
100
AcDbEntity
  8
Sketch
100
AcDbLine
 10
35.9815
 20
90.9159
 30
0
 11
35.9815
 21
76.9159
 31
0
  0
LINE
  5
AAA
330
A02
100
AcDbEntity
  8
Sketch
100
AcDbLine
 10
35.9815
 20
76.9159
 30
0
 11
21.9815
 21
76.9159
 31
0
  0
LINE
  5
AAB
330
A02
100
AcDbEntity
  8
Sketch
100
AcDbLine
 10
21.9815
 20
46.9159
 30
0
 11
21.9815
 21
60.9159
 31
0
  0
LINE
  5
AAC
330
A02
100
AcDbEntity
  8
Sketch
100
AcDbLine
 10
21.9815
 20
60.9159
 30
0
 11
35.9815
 21
60.9159
 31
0
  0
LINE
  5
AAD
330
A02
100
AcDbEntity
  8
Sketch
100
AcDbLine
 10
35.9815
 20
60.9159
 30
0
 11
35.9815
 21
46.9159
 31
0
  0
LINE
  5
AAE
330
A02
100
AcDbEntity
  8
Sketch
100
AcDbLine
 10
35.9815
 20
46.9159
 30
0
 11
21.9815
 21
46.9159
 31
0
  0
ENDSEC
  0
SECTION
  2
OBJECTS
  0
DICTIONARY
  5
F000
330
0
100
AcDbDictionary
  3
ACAD_GROUP
350
F001
  0
DICTIONARY
  5
F001
330
F000
100
AcDbDictionary
  0
ENDSEC
  0
EOF