%TF.GenerationSoftware,KiCad,Pcbnew,8.0.1*%
%TF.CreationDate,2024-03-30T21:55:53-07:00*%
%TF.ProjectId,proj,70726f6a-2e6b-4696-9361-645f70636258,rev?*%
%TF.SameCoordinates,Original*%
%TF.FileFunction,Drillmap*%
%TF.FilePolarity,Positive*%
%FSLAX45Y45*%
G04 Gerber Fmt 4.5, Leading zero omitted, Abs format (unit mm)*
G04 Created by KiCad (PCBNEW 8.0.1) date 2024-03-30 21:55:53*
%MOMM*%
%LPD*%
G01*
G04 APERTURE LIST*
%ADD10C,0.200000*%
%ADD11C,0.000000*%
%ADD12C,0.100000*%
G04 APERTURE END LIST*
D10*
X16979600Y-14548100D02*
G75*
G02*
X16579600Y-14548100I-200000J0D01*
G01*
X16579600Y-14548100D02*
G75*
G02*
X16979600Y-14548100I200000J0D01*
G01*
X27700000Y-14549120D02*
G75*
G02*
X26700000Y-15549120I-1000000J0D01*
G01*
X3300000Y-2849120D02*
X26700000Y-2849120D01*
X3500000Y-14549120D02*
G75*
G02*
X3100000Y-14549120I-200000J0D01*
G01*
X3100000Y-14549120D02*
G75*
G02*
X3500000Y-14549120I200000J0D01*
G01*
X26700000Y-2849120D02*
G75*
G02*
X27700000Y-3849120I0J-1000000D01*
G01*
X26700000Y-15549120D02*
X3300000Y-15549120D01*
X25381500Y-5650100D02*
G75*
G02*
X25381500Y-5750100I0J-50000D01*
G01*
X13417800Y-3848100D02*
G75*
G02*
X13017800Y-3848100I-200000J0D01*
G01*
X13017800Y-3848100D02*
G75*
G02*
X13417800Y-3848100I200000J0D01*
G01*
X3300000Y-15549120D02*
G75*
G02*
X2300000Y-14549120I0J1000000D01*
G01*
X23821500Y-5750100D02*
G75*
G02*
X23821500Y-5650100I0J50000D01*
G01*
X27700000Y-3849120D02*
X27700000Y-14549120D01*
X2300000Y-3849120D02*
G75*
G02*
X3300000Y-2849120I1000000J0D01*
G01*
X3500000Y-3849120D02*
G75*
G02*
X3100000Y-3849120I-200000J0D01*
G01*
X3100000Y-3849120D02*
G75*
G02*
X3500000Y-3849120I200000J0D01*
G01*
X23821500Y-5750100D02*
X25381500Y-5750100D01*
X26900000Y-3849120D02*
G75*
G02*
X26500000Y-3849120I-200000J0D01*
G01*
X26500000Y-3849120D02*
G75*
G02*
X26900000Y-3849120I200000J0D01*
G01*
X26900000Y-14549120D02*
G75*
G02*
X26500000Y-14549120I-200000J0D01*
G01*
X26500000Y-14549120D02*
G75*
G02*
X26900000Y-14549120I200000J0D01*
G01*
X2300000Y-14549120D02*
X2300000Y-3849120D01*
X23821500Y-5650100D02*
X25381500Y-5650100D01*
D11*
G36*
X25424771Y-3004898D02*
G01*
X25436743Y-3012592D01*
X25446063Y-3023348D01*
X25451975Y-3036293D01*
X25454000Y-3050380D01*
X25451975Y-3064467D01*
X25446063Y-3077412D01*
X25436743Y-3088167D01*
X25424771Y-3095862D01*
X25411116Y-3099871D01*
X25396884Y-3099871D01*
X25383229Y-3095862D01*
X25371257Y-3088167D01*
X25361937Y-3077412D01*
X25356025Y-3064467D01*
X25354000Y-3050380D01*
X25356025Y-3036293D01*
X25361937Y-3023348D01*
X25371257Y-3012592D01*
X25383229Y-3004898D01*
X25396884Y-3000889D01*
X25411116Y-3000889D01*
X25424771Y-3004898D01*
G37*
G36*
X25724771Y-3004898D02*
G01*
X25736743Y-3012592D01*
X25746063Y-3023348D01*
X25751975Y-3036293D01*
X25754000Y-3050380D01*
X25751975Y-3064467D01*
X25746063Y-3077412D01*
X25736743Y-3088167D01*
X25724771Y-3095862D01*
X25711116Y-3099871D01*
X25696884Y-3099871D01*
X25683229Y-3095862D01*
X25671257Y-3088167D01*
X25661937Y-3077412D01*
X25656025Y-3064467D01*
X25654000Y-3050380D01*
X25656025Y-3036293D01*
X25661937Y-3023348D01*
X25671257Y-3012592D01*
X25683229Y-3004898D01*
X25696884Y-3000889D01*
X25711116Y-3000889D01*
X25724771Y-3004898D01*
G37*
G36*
X23519771Y-3004898D02*
G01*
X23531743Y-3012592D01*
X23541063Y-3023348D01*
X23546975Y-3036293D01*
X23549000Y-3050380D01*
X23546975Y-3064467D01*
X23541063Y-3077412D01*
X23531743Y-3088167D01*
X23519771Y-3095862D01*
X23506116Y-3099871D01*
X23491884Y-3099871D01*
X23478229Y-3095862D01*
X23466257Y-3088167D01*
X23456937Y-3077412D01*
X23451025Y-3064467D01*
X23449000Y-3050380D01*
X23451025Y-3036293D01*
X23456937Y-3023348D01*
X23466257Y-3012592D01*
X23478229Y-3004898D01*
X23491884Y-3000889D01*
X23506116Y-3000889D01*
X23519771Y-3004898D01*
G37*
G36*
X23819771Y-3004898D02*
G01*
X23831743Y-3012592D01*
X23841063Y-3023348D01*
X23846975Y-3036293D01*
X23849000Y-3050380D01*
X23846975Y-3064467D01*
X23841063Y-3077412D01*
X23831743Y-3088167D01*
X23819771Y-3095862D01*
X23806116Y-3099871D01*
X23791884Y-3099871D01*
X23778229Y-3095862D01*
X23766257Y-3088167D01*
X23756937Y-3077412D01*
X23751025Y-3064467D01*
X23749000Y-3050380D01*
X23751025Y-3036293D01*
X23756937Y-3023348D01*
X23766257Y-3012592D01*
X23778229Y-3004898D01*
X23791884Y-3000889D01*
X23806116Y-3000889D01*
X23819771Y-3004898D01*
G37*
D10*
D12*
X4330980Y-5446040D02*
X4365980Y-5481040D01*
X4365980Y-5446040D02*
X4330980Y-5481040D01*
X4330980Y-8445490D02*
X4365980Y-8480490D01*
X4365980Y-8445490D02*
X4330980Y-8480490D01*
X7234580Y-4696450D02*
X7269580Y-4731450D01*
X7269580Y-4696450D02*
X7234580Y-4731450D01*
X7234580Y-7696190D02*
X7269580Y-7731190D01*
X7269580Y-7696190D02*
X7234580Y-7731190D01*
X10236860Y-4696450D02*
X10271860Y-4731450D01*
X10271860Y-4696450D02*
X10236860Y-4731450D01*
X10236860Y-7701270D02*
X10271860Y-7736270D01*
X10271860Y-7701270D02*
X10236860Y-7736270D01*
X11112780Y-11651260D02*
X11147780Y-11686260D01*
X11147780Y-11651260D02*
X11112780Y-11686260D01*
X12832740Y-6195050D02*
X12867740Y-6230050D01*
X12867740Y-6195050D02*
X12832740Y-6230050D01*
X12832740Y-9194790D02*
X12867740Y-9229790D01*
X12867740Y-9194790D02*
X12832740Y-9229790D01*
X14130680Y-12979390D02*
X14165680Y-13014390D01*
X14165680Y-12979390D02*
X14130680Y-13014390D01*
X14455420Y-3645180D02*
X14490420Y-3680180D01*
X14490420Y-3645180D02*
X14455420Y-3680180D01*
X15377440Y-4242080D02*
X15412440Y-4277080D01*
X15412440Y-4242080D02*
X15377440Y-4277080D01*
X15431160Y-7693650D02*
X15466160Y-7728650D01*
X15466160Y-7693650D02*
X15431160Y-7728650D01*
X15524760Y-3292120D02*
X15559760Y-3327120D01*
X15559760Y-3292120D02*
X15524760Y-3327120D01*
X15560320Y-4475760D02*
X15595320Y-4510760D01*
X15595320Y-4475760D02*
X15560320Y-4510760D01*
X15565400Y-4857580D02*
X15600400Y-4892580D01*
X15600400Y-4857580D02*
X15565400Y-4892580D01*
X15710180Y-3787420D02*
X15745180Y-3822420D01*
X15745180Y-3787420D02*
X15710180Y-3822420D01*
X15821940Y-4430040D02*
X15856940Y-4465040D01*
X15856940Y-4430040D02*
X15821940Y-4465040D01*
X15906140Y-5443460D02*
X15941140Y-5478460D01*
X15941140Y-5443460D02*
X15906140Y-5478460D01*
X15906140Y-5670580D02*
X15941140Y-5705580D01*
X15941140Y-5670580D02*
X15906140Y-5705580D01*
X15962020Y-3663780D02*
X15997020Y-3698780D01*
X15997020Y-3663780D02*
X15962020Y-3698780D01*
X16073615Y-5239085D02*
X16108615Y-5274085D01*
X16108615Y-5239085D02*
X16073615Y-5274085D01*
X16083940Y-4013480D02*
X16118940Y-4048480D01*
X16118940Y-4013480D02*
X16083940Y-4048480D01*
X16125443Y-4245917D02*
X16160443Y-4280917D01*
X16160443Y-4245917D02*
X16125443Y-4280917D01*
X16131820Y-3881400D02*
X16166820Y-3916400D01*
X16166820Y-3881400D02*
X16131820Y-3916400D01*
X16172675Y-5884245D02*
X16207675Y-5919245D01*
X16207675Y-5884245D02*
X16172675Y-5919245D01*
X16182620Y-4013480D02*
X16217620Y-4048480D01*
X16217620Y-4013480D02*
X16182620Y-4048480D01*
X16271145Y-4962445D02*
X16306145Y-4997445D01*
X16306145Y-4962445D02*
X16271145Y-4997445D01*
X16331610Y-3993980D02*
X16366610Y-4028980D01*
X16366610Y-3993980D02*
X16331610Y-4028980D01*
X16332860Y-3803480D02*
X16367860Y-3838480D01*
X16367860Y-3803480D02*
X16332860Y-3838480D01*
X16337560Y-4506240D02*
X16372560Y-4541240D01*
X16372560Y-4506240D02*
X16337560Y-4541240D01*
X16346688Y-5189944D02*
X16381688Y-5224944D01*
X16381688Y-5189944D02*
X16346688Y-5224944D01*
X16447160Y-5443460D02*
X16482160Y-5478460D01*
X16482160Y-5443460D02*
X16447160Y-5478460D01*
X16447160Y-5670580D02*
X16482160Y-5705580D01*
X16482160Y-5670580D02*
X16447160Y-5705580D01*
X16456940Y-5001540D02*
X16491940Y-5036540D01*
X16491940Y-5001540D02*
X16456940Y-5036540D01*
X16511396Y-4014596D02*
X16546396Y-4049596D01*
X16546396Y-4014596D02*
X16511396Y-4049596D01*
X16548380Y-5092980D02*
X16583380Y-5127980D01*
X16583380Y-5092980D02*
X16548380Y-5127980D01*
X16581400Y-4016020D02*
X16616400Y-4051020D01*
X16616400Y-4016020D02*
X16581400Y-4051020D01*
X16589020Y-3085580D02*
X16624020Y-3120580D01*
X16624020Y-3085580D02*
X16589020Y-3120580D01*
X16602100Y-3663780D02*
X16637100Y-3698780D01*
X16637100Y-3663780D02*
X16602100Y-3698780D01*
X16657980Y-3783160D02*
X16692980Y-3818160D01*
X16692980Y-3783160D02*
X16657980Y-3818160D01*
X16789680Y-3675660D02*
X16824680Y-3710660D01*
X16824680Y-3675660D02*
X16789680Y-3710660D01*
X16855720Y-5010540D02*
X16890720Y-5045540D01*
X16890720Y-5010540D02*
X16855720Y-5045540D01*
X16855720Y-5146320D02*
X16890720Y-5181320D01*
X16890720Y-5146320D02*
X16855720Y-5181320D01*
X16858260Y-4874540D02*
X16893260Y-4909540D01*
X16893260Y-4874540D02*
X16858260Y-4909540D01*
X16863340Y-4468140D02*
X16898340Y-4503140D01*
X16898340Y-4468140D02*
X16863340Y-4503140D01*
X16911600Y-4366540D02*
X16946600Y-4401540D01*
X16946600Y-4366540D02*
X16911600Y-4401540D01*
X16926840Y-3281960D02*
X16961840Y-3316960D01*
X16961840Y-3281960D02*
X16926840Y-3316960D01*
X17417440Y-12677130D02*
X17452440Y-12712130D01*
X17452440Y-12677130D02*
X17417440Y-12712130D01*
X18027040Y-9194790D02*
X18062040Y-9229790D01*
X18062040Y-9194790D02*
X18027040Y-9229790D01*
X18473700Y-4043960D02*
X18508700Y-4078960D01*
X18508700Y-4043960D02*
X18473700Y-4078960D01*
X18821680Y-4020678D02*
X18856680Y-4055678D01*
X18856680Y-4020678D02*
X18821680Y-4055678D01*
X19231000Y-5979150D02*
X19266000Y-6014150D01*
X19266000Y-5979150D02*
X19231000Y-6014150D01*
X21029320Y-9194790D02*
X21064320Y-9229790D01*
X21064320Y-9194790D02*
X21029320Y-9229790D01*
X22230740Y-5976610D02*
X22265740Y-6011610D01*
X22265740Y-5976610D02*
X22230740Y-6011610D01*
X23406380Y-3348000D02*
X23441380Y-3383000D01*
X23441380Y-3348000D02*
X23406380Y-3383000D01*
X23886440Y-4303040D02*
X23921440Y-4338040D01*
X23921440Y-4303040D02*
X23886440Y-4338040D01*
X23903400Y-4708681D02*
X23938400Y-4743681D01*
X23938400Y-4708681D02*
X23903400Y-4743681D01*
X23935080Y-9949170D02*
X23970080Y-9984170D01*
X23970080Y-9949170D02*
X23935080Y-9984170D01*
X24094720Y-4303040D02*
X24129720Y-4338040D01*
X24129720Y-4303040D02*
X24094720Y-4338040D01*
X24249660Y-4457980D02*
X24284660Y-4492980D01*
X24284660Y-4457980D02*
X24249660Y-4492980D01*
X24308080Y-4709440D02*
X24343080Y-4744440D01*
X24343080Y-4709440D02*
X24308080Y-4744440D01*
X24559540Y-4709440D02*
X24594540Y-4744440D01*
X24594540Y-4709440D02*
X24559540Y-4744440D01*
X24760200Y-4709440D02*
X24795200Y-4744440D01*
X24795200Y-4709440D02*
X24760200Y-4744440D01*
X24849100Y-4701820D02*
X24884100Y-4736820D01*
X24884100Y-4701820D02*
X24849100Y-4736820D01*
X24932920Y-4457980D02*
X24967920Y-4492980D01*
X24967920Y-4457980D02*
X24932920Y-4492980D01*
X24965733Y-4707049D02*
X25000733Y-4742049D01*
X25000733Y-4707049D02*
X24965733Y-4742049D01*
X25034520Y-4457980D02*
X25069520Y-4492980D01*
X25069520Y-4457980D02*
X25034520Y-4492980D01*
X25133960Y-6725910D02*
X25168960Y-6760910D01*
X25168960Y-6725910D02*
X25133960Y-6760910D01*
X25311380Y-3350540D02*
X25346380Y-3385540D01*
X25346380Y-3350540D02*
X25311380Y-3385540D01*
X16119965Y-4647445D02*
G75*
G02*
X16084965Y-4647445I-17500J0D01*
G01*
X16084965Y-4647445D02*
G75*
G02*
X16119965Y-4647445I17500J0D01*
G01*
X16119965Y-4774945D02*
G75*
G02*
X16084965Y-4774945I-17500J0D01*
G01*
X16084965Y-4774945D02*
G75*
G02*
X16119965Y-4774945I17500J0D01*
G01*
X16119965Y-4902445D02*
G75*
G02*
X16084965Y-4902445I-17500J0D01*
G01*
X16084965Y-4902445D02*
G75*
G02*
X16119965Y-4902445I17500J0D01*
G01*
X16247465Y-4647445D02*
G75*
G02*
X16212465Y-4647445I-17500J0D01*
G01*
X16212465Y-4647445D02*
G75*
G02*
X16247465Y-4647445I17500J0D01*
G01*
X16247465Y-4774945D02*
G75*
G02*
X16212465Y-4774945I-17500J0D01*
G01*
X16212465Y-4774945D02*
G75*
G02*
X16247465Y-4774945I17500J0D01*
G01*
X16247465Y-4902445D02*
G75*
G02*
X16212465Y-4902445I-17500J0D01*
G01*
X16212465Y-4902445D02*
G75*
G02*
X16247465Y-4902445I17500J0D01*
G01*
X16374965Y-4647445D02*
G75*
G02*
X16339965Y-4647445I-17500J0D01*
G01*
X16339965Y-4647445D02*
G75*
G02*
X16374965Y-4647445I17500J0D01*
G01*
X16374965Y-4774945D02*
G75*
G02*
X16339965Y-4774945I-17500J0D01*
G01*
X16339965Y-4774945D02*
G75*
G02*
X16374965Y-4774945I17500J0D01*
G01*
X16374965Y-4902445D02*
G75*
G02*
X16339965Y-4902445I-17500J0D01*
G01*
X16339965Y-4902445D02*
G75*
G02*
X16374965Y-4902445I17500J0D01*
G01*
X15867380Y-3073880D02*
X15867380Y-3133880D01*
X15837380Y-3103880D02*
X15897380Y-3103880D01*
X15897380Y-3133880D02*
X15897380Y-3073880D01*
X15837380Y-3073880D02*
G75*
G02*
X15897380Y-3073880I30000J0D01*
G01*
X15837380Y-3073880D02*
X15837380Y-3133880D01*
X15837380Y-3133880D02*
G75*
G03*
X15897380Y-3133880I30000J0D01*
G01*
X15867380Y-3491880D02*
X15867380Y-3551880D01*
X15837380Y-3521880D02*
X15897380Y-3521880D01*
X15897380Y-3576880D02*
X15897380Y-3466880D01*
X15837380Y-3466880D02*
G75*
G02*
X15897380Y-3466880I30000J0D01*
G01*
X15837380Y-3466880D02*
X15837380Y-3576880D01*
X15837380Y-3576880D02*
G75*
G03*
X15897380Y-3576880I30000J0D01*
G01*
X16731380Y-3073880D02*
X16731380Y-3133880D01*
X16701380Y-3103880D02*
X16761380Y-3103880D01*
X16761380Y-3133880D02*
X16761380Y-3073880D01*
X16701380Y-3073880D02*
G75*
G02*
X16761380Y-3073880I30000J0D01*
G01*
X16701380Y-3073880D02*
X16701380Y-3133880D01*
X16701380Y-3133880D02*
G75*
G03*
X16761380Y-3133880I30000J0D01*
G01*
X16731380Y-3491880D02*
X16731380Y-3551880D01*
X16701380Y-3521880D02*
X16761380Y-3521880D01*
X16761380Y-3576880D02*
X16761380Y-3466880D01*
X16701380Y-3466880D02*
G75*
G02*
X16761380Y-3466880I30000J0D01*
G01*
X16701380Y-3466880D02*
X16701380Y-3576880D01*
X16701380Y-3576880D02*
G75*
G03*
X16761380Y-3576880I30000J0D01*
G01*
X18224869Y-3142677D02*
X18224869Y-3093179D01*
X18175371Y-3093179D01*
X18175371Y-3142677D01*
X18224869Y-3142677D01*
X18165120Y-3062928D02*
X18165120Y-3172928D01*
X18235120Y-3172928D02*
G75*
G02*
X18165120Y-3172928I-35000J0D01*
G01*
X18235120Y-3172928D02*
X18235120Y-3062928D01*
X18235120Y-3062928D02*
G75*
G03*
X18165120Y-3062928I-35000J0D01*
G01*
X18224869Y-3737827D02*
X18224869Y-3688329D01*
X18175371Y-3688329D01*
X18175371Y-3737827D01*
X18224869Y-3737827D01*
X18165120Y-3658078D02*
X18165120Y-3768078D01*
X18235120Y-3768078D02*
G75*
G02*
X18165120Y-3768078I-35000J0D01*
G01*
X18235120Y-3768078D02*
X18235120Y-3658078D01*
X18235120Y-3658078D02*
G75*
G03*
X18165120Y-3658078I-35000J0D01*
G01*
X19505069Y-3137627D02*
X19505069Y-3088129D01*
X19455571Y-3088129D01*
X19455571Y-3137627D01*
X19505069Y-3137627D01*
X19515320Y-3167878D02*
X19515320Y-3057878D01*
X19445320Y-3057878D02*
G75*
G02*
X19515320Y-3057878I35000J0D01*
G01*
X19445320Y-3057878D02*
X19445320Y-3167878D01*
X19445320Y-3167878D02*
G75*
G03*
X19515320Y-3167878I35000J0D01*
G01*
X19505069Y-3737827D02*
X19505069Y-3688329D01*
X19455571Y-3688329D01*
X19455571Y-3737827D01*
X19505069Y-3737827D01*
X19515320Y-3768078D02*
X19515320Y-3658078D01*
X19445320Y-3658078D02*
G75*
G02*
X19515320Y-3658078I35000J0D01*
G01*
X19445320Y-3658078D02*
X19445320Y-3768078D01*
X19445320Y-3768078D02*
G75*
G03*
X19515320Y-3768078I35000J0D01*
G01*
D10*
X2550777Y-15870604D02*
X2550777Y-15670604D01*
X2550777Y-15670604D02*
X2598396Y-15670604D01*
X2598396Y-15670604D02*
X2626967Y-15680128D01*
X2626967Y-15680128D02*
X2646015Y-15699175D01*
X2646015Y-15699175D02*
X2655539Y-15718223D01*
X2655539Y-15718223D02*
X2665063Y-15756318D01*
X2665063Y-15756318D02*
X2665063Y-15784889D01*
X2665063Y-15784889D02*
X2655539Y-15822985D01*
X2655539Y-15822985D02*
X2646015Y-15842032D01*
X2646015Y-15842032D02*
X2626967Y-15861080D01*
X2626967Y-15861080D02*
X2598396Y-15870604D01*
X2598396Y-15870604D02*
X2550777Y-15870604D01*
X2750777Y-15870604D02*
X2750777Y-15737270D01*
X2750777Y-15775366D02*
X2760301Y-15756318D01*
X2760301Y-15756318D02*
X2769824Y-15746794D01*
X2769824Y-15746794D02*
X2788872Y-15737270D01*
X2788872Y-15737270D02*
X2807920Y-15737270D01*
X2874586Y-15870604D02*
X2874586Y-15737270D01*
X2874586Y-15670604D02*
X2865062Y-15680128D01*
X2865062Y-15680128D02*
X2874586Y-15689651D01*
X2874586Y-15689651D02*
X2884110Y-15680128D01*
X2884110Y-15680128D02*
X2874586Y-15670604D01*
X2874586Y-15670604D02*
X2874586Y-15689651D01*
X2998396Y-15870604D02*
X2979348Y-15861080D01*
X2979348Y-15861080D02*
X2969824Y-15842032D01*
X2969824Y-15842032D02*
X2969824Y-15670604D01*
X3103158Y-15870604D02*
X3084110Y-15861080D01*
X3084110Y-15861080D02*
X3074586Y-15842032D01*
X3074586Y-15842032D02*
X3074586Y-15670604D01*
X3331729Y-15870604D02*
X3331729Y-15670604D01*
X3331729Y-15670604D02*
X3398396Y-15813461D01*
X3398396Y-15813461D02*
X3465062Y-15670604D01*
X3465062Y-15670604D02*
X3465062Y-15870604D01*
X3646015Y-15870604D02*
X3646015Y-15765842D01*
X3646015Y-15765842D02*
X3636491Y-15746794D01*
X3636491Y-15746794D02*
X3617443Y-15737270D01*
X3617443Y-15737270D02*
X3579348Y-15737270D01*
X3579348Y-15737270D02*
X3560301Y-15746794D01*
X3646015Y-15861080D02*
X3626967Y-15870604D01*
X3626967Y-15870604D02*
X3579348Y-15870604D01*
X3579348Y-15870604D02*
X3560301Y-15861080D01*
X3560301Y-15861080D02*
X3550777Y-15842032D01*
X3550777Y-15842032D02*
X3550777Y-15822985D01*
X3550777Y-15822985D02*
X3560301Y-15803937D01*
X3560301Y-15803937D02*
X3579348Y-15794413D01*
X3579348Y-15794413D02*
X3626967Y-15794413D01*
X3626967Y-15794413D02*
X3646015Y-15784889D01*
X3741253Y-15737270D02*
X3741253Y-15937270D01*
X3741253Y-15746794D02*
X3760301Y-15737270D01*
X3760301Y-15737270D02*
X3798396Y-15737270D01*
X3798396Y-15737270D02*
X3817443Y-15746794D01*
X3817443Y-15746794D02*
X3826967Y-15756318D01*
X3826967Y-15756318D02*
X3836491Y-15775366D01*
X3836491Y-15775366D02*
X3836491Y-15832508D01*
X3836491Y-15832508D02*
X3826967Y-15851556D01*
X3826967Y-15851556D02*
X3817443Y-15861080D01*
X3817443Y-15861080D02*
X3798396Y-15870604D01*
X3798396Y-15870604D02*
X3760301Y-15870604D01*
X3760301Y-15870604D02*
X3741253Y-15861080D01*
X3922205Y-15851556D02*
X3931729Y-15861080D01*
X3931729Y-15861080D02*
X3922205Y-15870604D01*
X3922205Y-15870604D02*
X3912682Y-15861080D01*
X3912682Y-15861080D02*
X3922205Y-15851556D01*
X3922205Y-15851556D02*
X3922205Y-15870604D01*
X3922205Y-15746794D02*
X3931729Y-15756318D01*
X3931729Y-15756318D02*
X3922205Y-15765842D01*
X3922205Y-15765842D02*
X3912682Y-15756318D01*
X3912682Y-15756318D02*
X3922205Y-15746794D01*
X3922205Y-15746794D02*
X3922205Y-15765842D01*
D12*
X2255000Y-16181620D02*
X2290000Y-16216620D01*
X2290000Y-16181620D02*
X2255000Y-16216620D01*
D10*
X2588872Y-16090604D02*
X2607920Y-16090604D01*
X2607920Y-16090604D02*
X2626967Y-16100128D01*
X2626967Y-16100128D02*
X2636491Y-16109651D01*
X2636491Y-16109651D02*
X2646015Y-16128699D01*
X2646015Y-16128699D02*
X2655539Y-16166794D01*
X2655539Y-16166794D02*
X2655539Y-16214413D01*
X2655539Y-16214413D02*
X2646015Y-16252508D01*
X2646015Y-16252508D02*
X2636491Y-16271556D01*
X2636491Y-16271556D02*
X2626967Y-16281080D01*
X2626967Y-16281080D02*
X2607920Y-16290604D01*
X2607920Y-16290604D02*
X2588872Y-16290604D01*
X2588872Y-16290604D02*
X2569824Y-16281080D01*
X2569824Y-16281080D02*
X2560301Y-16271556D01*
X2560301Y-16271556D02*
X2550777Y-16252508D01*
X2550777Y-16252508D02*
X2541253Y-16214413D01*
X2541253Y-16214413D02*
X2541253Y-16166794D01*
X2541253Y-16166794D02*
X2550777Y-16128699D01*
X2550777Y-16128699D02*
X2560301Y-16109651D01*
X2560301Y-16109651D02*
X2569824Y-16100128D01*
X2569824Y-16100128D02*
X2588872Y-16090604D01*
X2741253Y-16271556D02*
X2750777Y-16281080D01*
X2750777Y-16281080D02*
X2741253Y-16290604D01*
X2741253Y-16290604D02*
X2731729Y-16281080D01*
X2731729Y-16281080D02*
X2741253Y-16271556D01*
X2741253Y-16271556D02*
X2741253Y-16290604D01*
X2817443Y-16090604D02*
X2941253Y-16090604D01*
X2941253Y-16090604D02*
X2874586Y-16166794D01*
X2874586Y-16166794D02*
X2903158Y-16166794D01*
X2903158Y-16166794D02*
X2922205Y-16176318D01*
X2922205Y-16176318D02*
X2931729Y-16185842D01*
X2931729Y-16185842D02*
X2941253Y-16204889D01*
X2941253Y-16204889D02*
X2941253Y-16252508D01*
X2941253Y-16252508D02*
X2931729Y-16271556D01*
X2931729Y-16271556D02*
X2922205Y-16281080D01*
X2922205Y-16281080D02*
X2903158Y-16290604D01*
X2903158Y-16290604D02*
X2846015Y-16290604D01*
X2846015Y-16290604D02*
X2826967Y-16281080D01*
X2826967Y-16281080D02*
X2817443Y-16271556D01*
X3122205Y-16090604D02*
X3026967Y-16090604D01*
X3026967Y-16090604D02*
X3017443Y-16185842D01*
X3017443Y-16185842D02*
X3026967Y-16176318D01*
X3026967Y-16176318D02*
X3046015Y-16166794D01*
X3046015Y-16166794D02*
X3093634Y-16166794D01*
X3093634Y-16166794D02*
X3112682Y-16176318D01*
X3112682Y-16176318D02*
X3122205Y-16185842D01*
X3122205Y-16185842D02*
X3131729Y-16204889D01*
X3131729Y-16204889D02*
X3131729Y-16252508D01*
X3131729Y-16252508D02*
X3122205Y-16271556D01*
X3122205Y-16271556D02*
X3112682Y-16281080D01*
X3112682Y-16281080D02*
X3093634Y-16290604D01*
X3093634Y-16290604D02*
X3046015Y-16290604D01*
X3046015Y-16290604D02*
X3026967Y-16281080D01*
X3026967Y-16281080D02*
X3017443Y-16271556D01*
X3255539Y-16090604D02*
X3274586Y-16090604D01*
X3274586Y-16090604D02*
X3293634Y-16100128D01*
X3293634Y-16100128D02*
X3303158Y-16109651D01*
X3303158Y-16109651D02*
X3312682Y-16128699D01*
X3312682Y-16128699D02*
X3322205Y-16166794D01*
X3322205Y-16166794D02*
X3322205Y-16214413D01*
X3322205Y-16214413D02*
X3312682Y-16252508D01*
X3312682Y-16252508D02*
X3303158Y-16271556D01*
X3303158Y-16271556D02*
X3293634Y-16281080D01*
X3293634Y-16281080D02*
X3274586Y-16290604D01*
X3274586Y-16290604D02*
X3255539Y-16290604D01*
X3255539Y-16290604D02*
X3236491Y-16281080D01*
X3236491Y-16281080D02*
X3226967Y-16271556D01*
X3226967Y-16271556D02*
X3217443Y-16252508D01*
X3217443Y-16252508D02*
X3207920Y-16214413D01*
X3207920Y-16214413D02*
X3207920Y-16166794D01*
X3207920Y-16166794D02*
X3217443Y-16128699D01*
X3217443Y-16128699D02*
X3226967Y-16109651D01*
X3226967Y-16109651D02*
X3236491Y-16100128D01*
X3236491Y-16100128D02*
X3255539Y-16090604D01*
X3407920Y-16290604D02*
X3407920Y-16157270D01*
X3407920Y-16176318D02*
X3417443Y-16166794D01*
X3417443Y-16166794D02*
X3436491Y-16157270D01*
X3436491Y-16157270D02*
X3465063Y-16157270D01*
X3465063Y-16157270D02*
X3484110Y-16166794D01*
X3484110Y-16166794D02*
X3493634Y-16185842D01*
X3493634Y-16185842D02*
X3493634Y-16290604D01*
X3493634Y-16185842D02*
X3503158Y-16166794D01*
X3503158Y-16166794D02*
X3522205Y-16157270D01*
X3522205Y-16157270D02*
X3550777Y-16157270D01*
X3550777Y-16157270D02*
X3569824Y-16166794D01*
X3569824Y-16166794D02*
X3579348Y-16185842D01*
X3579348Y-16185842D02*
X3579348Y-16290604D01*
X3674586Y-16290604D02*
X3674586Y-16157270D01*
X3674586Y-16176318D02*
X3684110Y-16166794D01*
X3684110Y-16166794D02*
X3703158Y-16157270D01*
X3703158Y-16157270D02*
X3731729Y-16157270D01*
X3731729Y-16157270D02*
X3750777Y-16166794D01*
X3750777Y-16166794D02*
X3760301Y-16185842D01*
X3760301Y-16185842D02*
X3760301Y-16290604D01*
X3760301Y-16185842D02*
X3769824Y-16166794D01*
X3769824Y-16166794D02*
X3788872Y-16157270D01*
X3788872Y-16157270D02*
X3817443Y-16157270D01*
X3817443Y-16157270D02*
X3836491Y-16166794D01*
X3836491Y-16166794D02*
X3846015Y-16185842D01*
X3846015Y-16185842D02*
X3846015Y-16290604D01*
X4236491Y-16081080D02*
X4065063Y-16338223D01*
X4493634Y-16090604D02*
X4512682Y-16090604D01*
X4512682Y-16090604D02*
X4531729Y-16100128D01*
X4531729Y-16100128D02*
X4541253Y-16109651D01*
X4541253Y-16109651D02*
X4550777Y-16128699D01*
X4550777Y-16128699D02*
X4560301Y-16166794D01*
X4560301Y-16166794D02*
X4560301Y-16214413D01*
X4560301Y-16214413D02*
X4550777Y-16252508D01*
X4550777Y-16252508D02*
X4541253Y-16271556D01*
X4541253Y-16271556D02*
X4531729Y-16281080D01*
X4531729Y-16281080D02*
X4512682Y-16290604D01*
X4512682Y-16290604D02*
X4493634Y-16290604D01*
X4493634Y-16290604D02*
X4474587Y-16281080D01*
X4474587Y-16281080D02*
X4465063Y-16271556D01*
X4465063Y-16271556D02*
X4455539Y-16252508D01*
X4455539Y-16252508D02*
X4446015Y-16214413D01*
X4446015Y-16214413D02*
X4446015Y-16166794D01*
X4446015Y-16166794D02*
X4455539Y-16128699D01*
X4455539Y-16128699D02*
X4465063Y-16109651D01*
X4465063Y-16109651D02*
X4474587Y-16100128D01*
X4474587Y-16100128D02*
X4493634Y-16090604D01*
X4646015Y-16271556D02*
X4655539Y-16281080D01*
X4655539Y-16281080D02*
X4646015Y-16290604D01*
X4646015Y-16290604D02*
X4636491Y-16281080D01*
X4636491Y-16281080D02*
X4646015Y-16271556D01*
X4646015Y-16271556D02*
X4646015Y-16290604D01*
X4779348Y-16090604D02*
X4798396Y-16090604D01*
X4798396Y-16090604D02*
X4817444Y-16100128D01*
X4817444Y-16100128D02*
X4826968Y-16109651D01*
X4826968Y-16109651D02*
X4836491Y-16128699D01*
X4836491Y-16128699D02*
X4846015Y-16166794D01*
X4846015Y-16166794D02*
X4846015Y-16214413D01*
X4846015Y-16214413D02*
X4836491Y-16252508D01*
X4836491Y-16252508D02*
X4826968Y-16271556D01*
X4826968Y-16271556D02*
X4817444Y-16281080D01*
X4817444Y-16281080D02*
X4798396Y-16290604D01*
X4798396Y-16290604D02*
X4779348Y-16290604D01*
X4779348Y-16290604D02*
X4760301Y-16281080D01*
X4760301Y-16281080D02*
X4750777Y-16271556D01*
X4750777Y-16271556D02*
X4741253Y-16252508D01*
X4741253Y-16252508D02*
X4731729Y-16214413D01*
X4731729Y-16214413D02*
X4731729Y-16166794D01*
X4731729Y-16166794D02*
X4741253Y-16128699D01*
X4741253Y-16128699D02*
X4750777Y-16109651D01*
X4750777Y-16109651D02*
X4760301Y-16100128D01*
X4760301Y-16100128D02*
X4779348Y-16090604D01*
X5036491Y-16290604D02*
X4922206Y-16290604D01*
X4979348Y-16290604D02*
X4979348Y-16090604D01*
X4979348Y-16090604D02*
X4960301Y-16119175D01*
X4960301Y-16119175D02*
X4941253Y-16138223D01*
X4941253Y-16138223D02*
X4922206Y-16147747D01*
X5103158Y-16090604D02*
X5226968Y-16090604D01*
X5226968Y-16090604D02*
X5160301Y-16166794D01*
X5160301Y-16166794D02*
X5188872Y-16166794D01*
X5188872Y-16166794D02*
X5207920Y-16176318D01*
X5207920Y-16176318D02*
X5217444Y-16185842D01*
X5217444Y-16185842D02*
X5226968Y-16204889D01*
X5226968Y-16204889D02*
X5226968Y-16252508D01*
X5226968Y-16252508D02*
X5217444Y-16271556D01*
X5217444Y-16271556D02*
X5207920Y-16281080D01*
X5207920Y-16281080D02*
X5188872Y-16290604D01*
X5188872Y-16290604D02*
X5131729Y-16290604D01*
X5131729Y-16290604D02*
X5112682Y-16281080D01*
X5112682Y-16281080D02*
X5103158Y-16271556D01*
X5341253Y-16176318D02*
X5322206Y-16166794D01*
X5322206Y-16166794D02*
X5312682Y-16157270D01*
X5312682Y-16157270D02*
X5303158Y-16138223D01*
X5303158Y-16138223D02*
X5303158Y-16128699D01*
X5303158Y-16128699D02*
X5312682Y-16109651D01*
X5312682Y-16109651D02*
X5322206Y-16100128D01*
X5322206Y-16100128D02*
X5341253Y-16090604D01*
X5341253Y-16090604D02*
X5379349Y-16090604D01*
X5379349Y-16090604D02*
X5398396Y-16100128D01*
X5398396Y-16100128D02*
X5407920Y-16109651D01*
X5407920Y-16109651D02*
X5417444Y-16128699D01*
X5417444Y-16128699D02*
X5417444Y-16138223D01*
X5417444Y-16138223D02*
X5407920Y-16157270D01*
X5407920Y-16157270D02*
X5398396Y-16166794D01*
X5398396Y-16166794D02*
X5379349Y-16176318D01*
X5379349Y-16176318D02*
X5341253Y-16176318D01*
X5341253Y-16176318D02*
X5322206Y-16185842D01*
X5322206Y-16185842D02*
X5312682Y-16195366D01*
X5312682Y-16195366D02*
X5303158Y-16214413D01*
X5303158Y-16214413D02*
X5303158Y-16252508D01*
X5303158Y-16252508D02*
X5312682Y-16271556D01*
X5312682Y-16271556D02*
X5322206Y-16281080D01*
X5322206Y-16281080D02*
X5341253Y-16290604D01*
X5341253Y-16290604D02*
X5379349Y-16290604D01*
X5379349Y-16290604D02*
X5398396Y-16281080D01*
X5398396Y-16281080D02*
X5407920Y-16271556D01*
X5407920Y-16271556D02*
X5417444Y-16252508D01*
X5417444Y-16252508D02*
X5417444Y-16214413D01*
X5417444Y-16214413D02*
X5407920Y-16195366D01*
X5407920Y-16195366D02*
X5398396Y-16185842D01*
X5398396Y-16185842D02*
X5379349Y-16176318D01*
X5493634Y-16090604D02*
X5493634Y-16128699D01*
X5569825Y-16090604D02*
X5569825Y-16128699D01*
X5865063Y-16366794D02*
X5855539Y-16357270D01*
X5855539Y-16357270D02*
X5836491Y-16328699D01*
X5836491Y-16328699D02*
X5826968Y-16309651D01*
X5826968Y-16309651D02*
X5817444Y-16281080D01*
X5817444Y-16281080D02*
X5807920Y-16233461D01*
X5807920Y-16233461D02*
X5807920Y-16195366D01*
X5807920Y-16195366D02*
X5817444Y-16147747D01*
X5817444Y-16147747D02*
X5826968Y-16119175D01*
X5826968Y-16119175D02*
X5836491Y-16100128D01*
X5836491Y-16100128D02*
X5855539Y-16071556D01*
X5855539Y-16071556D02*
X5865063Y-16062032D01*
X5922206Y-16090604D02*
X6055539Y-16090604D01*
X6055539Y-16090604D02*
X5969825Y-16290604D01*
X6169825Y-16090604D02*
X6188872Y-16090604D01*
X6188872Y-16090604D02*
X6207920Y-16100128D01*
X6207920Y-16100128D02*
X6217444Y-16109651D01*
X6217444Y-16109651D02*
X6226968Y-16128699D01*
X6226968Y-16128699D02*
X6236491Y-16166794D01*
X6236491Y-16166794D02*
X6236491Y-16214413D01*
X6236491Y-16214413D02*
X6226968Y-16252508D01*
X6226968Y-16252508D02*
X6217444Y-16271556D01*
X6217444Y-16271556D02*
X6207920Y-16281080D01*
X6207920Y-16281080D02*
X6188872Y-16290604D01*
X6188872Y-16290604D02*
X6169825Y-16290604D01*
X6169825Y-16290604D02*
X6150777Y-16281080D01*
X6150777Y-16281080D02*
X6141253Y-16271556D01*
X6141253Y-16271556D02*
X6131729Y-16252508D01*
X6131729Y-16252508D02*
X6122206Y-16214413D01*
X6122206Y-16214413D02*
X6122206Y-16166794D01*
X6122206Y-16166794D02*
X6131729Y-16128699D01*
X6131729Y-16128699D02*
X6141253Y-16109651D01*
X6141253Y-16109651D02*
X6150777Y-16100128D01*
X6150777Y-16100128D02*
X6169825Y-16090604D01*
X6474587Y-16290604D02*
X6474587Y-16090604D01*
X6560301Y-16290604D02*
X6560301Y-16185842D01*
X6560301Y-16185842D02*
X6550777Y-16166794D01*
X6550777Y-16166794D02*
X6531730Y-16157270D01*
X6531730Y-16157270D02*
X6503158Y-16157270D01*
X6503158Y-16157270D02*
X6484110Y-16166794D01*
X6484110Y-16166794D02*
X6474587Y-16176318D01*
X6684110Y-16290604D02*
X6665063Y-16281080D01*
X6665063Y-16281080D02*
X6655539Y-16271556D01*
X6655539Y-16271556D02*
X6646015Y-16252508D01*
X6646015Y-16252508D02*
X6646015Y-16195366D01*
X6646015Y-16195366D02*
X6655539Y-16176318D01*
X6655539Y-16176318D02*
X6665063Y-16166794D01*
X6665063Y-16166794D02*
X6684110Y-16157270D01*
X6684110Y-16157270D02*
X6712682Y-16157270D01*
X6712682Y-16157270D02*
X6731730Y-16166794D01*
X6731730Y-16166794D02*
X6741253Y-16176318D01*
X6741253Y-16176318D02*
X6750777Y-16195366D01*
X6750777Y-16195366D02*
X6750777Y-16252508D01*
X6750777Y-16252508D02*
X6741253Y-16271556D01*
X6741253Y-16271556D02*
X6731730Y-16281080D01*
X6731730Y-16281080D02*
X6712682Y-16290604D01*
X6712682Y-16290604D02*
X6684110Y-16290604D01*
X6865063Y-16290604D02*
X6846015Y-16281080D01*
X6846015Y-16281080D02*
X6836491Y-16262032D01*
X6836491Y-16262032D02*
X6836491Y-16090604D01*
X7017444Y-16281080D02*
X6998396Y-16290604D01*
X6998396Y-16290604D02*
X6960301Y-16290604D01*
X6960301Y-16290604D02*
X6941253Y-16281080D01*
X6941253Y-16281080D02*
X6931730Y-16262032D01*
X6931730Y-16262032D02*
X6931730Y-16185842D01*
X6931730Y-16185842D02*
X6941253Y-16166794D01*
X6941253Y-16166794D02*
X6960301Y-16157270D01*
X6960301Y-16157270D02*
X6998396Y-16157270D01*
X6998396Y-16157270D02*
X7017444Y-16166794D01*
X7017444Y-16166794D02*
X7026968Y-16185842D01*
X7026968Y-16185842D02*
X7026968Y-16204889D01*
X7026968Y-16204889D02*
X6931730Y-16223937D01*
X7103158Y-16281080D02*
X7122206Y-16290604D01*
X7122206Y-16290604D02*
X7160301Y-16290604D01*
X7160301Y-16290604D02*
X7179349Y-16281080D01*
X7179349Y-16281080D02*
X7188872Y-16262032D01*
X7188872Y-16262032D02*
X7188872Y-16252508D01*
X7188872Y-16252508D02*
X7179349Y-16233461D01*
X7179349Y-16233461D02*
X7160301Y-16223937D01*
X7160301Y-16223937D02*
X7131730Y-16223937D01*
X7131730Y-16223937D02*
X7112682Y-16214413D01*
X7112682Y-16214413D02*
X7103158Y-16195366D01*
X7103158Y-16195366D02*
X7103158Y-16185842D01*
X7103158Y-16185842D02*
X7112682Y-16166794D01*
X7112682Y-16166794D02*
X7131730Y-16157270D01*
X7131730Y-16157270D02*
X7160301Y-16157270D01*
X7160301Y-16157270D02*
X7179349Y-16166794D01*
X7255539Y-16366794D02*
X7265063Y-16357270D01*
X7265063Y-16357270D02*
X7284111Y-16328699D01*
X7284111Y-16328699D02*
X7293634Y-16309651D01*
X7293634Y-16309651D02*
X7303158Y-16281080D01*
X7303158Y-16281080D02*
X7312682Y-16233461D01*
X7312682Y-16233461D02*
X7312682Y-16195366D01*
X7312682Y-16195366D02*
X7303158Y-16147747D01*
X7303158Y-16147747D02*
X7293634Y-16119175D01*
X7293634Y-16119175D02*
X7284111Y-16100128D01*
X7284111Y-16100128D02*
X7265063Y-16071556D01*
X7265063Y-16071556D02*
X7255539Y-16062032D01*
D12*
X2290000Y-16463120D02*
G75*
G02*
X2255000Y-16463120I-17500J0D01*
G01*
X2255000Y-16463120D02*
G75*
G02*
X2290000Y-16463120I17500J0D01*
G01*
D10*
X2588872Y-16354604D02*
X2607920Y-16354604D01*
X2607920Y-16354604D02*
X2626967Y-16364128D01*
X2626967Y-16364128D02*
X2636491Y-16373651D01*
X2636491Y-16373651D02*
X2646015Y-16392699D01*
X2646015Y-16392699D02*
X2655539Y-16430794D01*
X2655539Y-16430794D02*
X2655539Y-16478413D01*
X2655539Y-16478413D02*
X2646015Y-16516508D01*
X2646015Y-16516508D02*
X2636491Y-16535556D01*
X2636491Y-16535556D02*
X2626967Y-16545080D01*
X2626967Y-16545080D02*
X2607920Y-16554604D01*
X2607920Y-16554604D02*
X2588872Y-16554604D01*
X2588872Y-16554604D02*
X2569824Y-16545080D01*
X2569824Y-16545080D02*
X2560301Y-16535556D01*
X2560301Y-16535556D02*
X2550777Y-16516508D01*
X2550777Y-16516508D02*
X2541253Y-16478413D01*
X2541253Y-16478413D02*
X2541253Y-16430794D01*
X2541253Y-16430794D02*
X2550777Y-16392699D01*
X2550777Y-16392699D02*
X2560301Y-16373651D01*
X2560301Y-16373651D02*
X2569824Y-16364128D01*
X2569824Y-16364128D02*
X2588872Y-16354604D01*
X2741253Y-16535556D02*
X2750777Y-16545080D01*
X2750777Y-16545080D02*
X2741253Y-16554604D01*
X2741253Y-16554604D02*
X2731729Y-16545080D01*
X2731729Y-16545080D02*
X2741253Y-16535556D01*
X2741253Y-16535556D02*
X2741253Y-16554604D01*
X2817443Y-16354604D02*
X2941253Y-16354604D01*
X2941253Y-16354604D02*
X2874586Y-16430794D01*
X2874586Y-16430794D02*
X2903158Y-16430794D01*
X2903158Y-16430794D02*
X2922205Y-16440318D01*
X2922205Y-16440318D02*
X2931729Y-16449842D01*
X2931729Y-16449842D02*
X2941253Y-16468889D01*
X2941253Y-16468889D02*
X2941253Y-16516508D01*
X2941253Y-16516508D02*
X2931729Y-16535556D01*
X2931729Y-16535556D02*
X2922205Y-16545080D01*
X2922205Y-16545080D02*
X2903158Y-16554604D01*
X2903158Y-16554604D02*
X2846015Y-16554604D01*
X2846015Y-16554604D02*
X2826967Y-16545080D01*
X2826967Y-16545080D02*
X2817443Y-16535556D01*
X3122205Y-16354604D02*
X3026967Y-16354604D01*
X3026967Y-16354604D02*
X3017443Y-16449842D01*
X3017443Y-16449842D02*
X3026967Y-16440318D01*
X3026967Y-16440318D02*
X3046015Y-16430794D01*
X3046015Y-16430794D02*
X3093634Y-16430794D01*
X3093634Y-16430794D02*
X3112682Y-16440318D01*
X3112682Y-16440318D02*
X3122205Y-16449842D01*
X3122205Y-16449842D02*
X3131729Y-16468889D01*
X3131729Y-16468889D02*
X3131729Y-16516508D01*
X3131729Y-16516508D02*
X3122205Y-16535556D01*
X3122205Y-16535556D02*
X3112682Y-16545080D01*
X3112682Y-16545080D02*
X3093634Y-16554604D01*
X3093634Y-16554604D02*
X3046015Y-16554604D01*
X3046015Y-16554604D02*
X3026967Y-16545080D01*
X3026967Y-16545080D02*
X3017443Y-16535556D01*
X3255539Y-16354604D02*
X3274586Y-16354604D01*
X3274586Y-16354604D02*
X3293634Y-16364128D01*
X3293634Y-16364128D02*
X3303158Y-16373651D01*
X3303158Y-16373651D02*
X3312682Y-16392699D01*
X3312682Y-16392699D02*
X3322205Y-16430794D01*
X3322205Y-16430794D02*
X3322205Y-16478413D01*
X3322205Y-16478413D02*
X3312682Y-16516508D01*
X3312682Y-16516508D02*
X3303158Y-16535556D01*
X3303158Y-16535556D02*
X3293634Y-16545080D01*
X3293634Y-16545080D02*
X3274586Y-16554604D01*
X3274586Y-16554604D02*
X3255539Y-16554604D01*
X3255539Y-16554604D02*
X3236491Y-16545080D01*
X3236491Y-16545080D02*
X3226967Y-16535556D01*
X3226967Y-16535556D02*
X3217443Y-16516508D01*
X3217443Y-16516508D02*
X3207920Y-16478413D01*
X3207920Y-16478413D02*
X3207920Y-16430794D01*
X3207920Y-16430794D02*
X3217443Y-16392699D01*
X3217443Y-16392699D02*
X3226967Y-16373651D01*
X3226967Y-16373651D02*
X3236491Y-16364128D01*
X3236491Y-16364128D02*
X3255539Y-16354604D01*
X3407920Y-16554604D02*
X3407920Y-16421270D01*
X3407920Y-16440318D02*
X3417443Y-16430794D01*
X3417443Y-16430794D02*
X3436491Y-16421270D01*
X3436491Y-16421270D02*
X3465063Y-16421270D01*
X3465063Y-16421270D02*
X3484110Y-16430794D01*
X3484110Y-16430794D02*
X3493634Y-16449842D01*
X3493634Y-16449842D02*
X3493634Y-16554604D01*
X3493634Y-16449842D02*
X3503158Y-16430794D01*
X3503158Y-16430794D02*
X3522205Y-16421270D01*
X3522205Y-16421270D02*
X3550777Y-16421270D01*
X3550777Y-16421270D02*
X3569824Y-16430794D01*
X3569824Y-16430794D02*
X3579348Y-16449842D01*
X3579348Y-16449842D02*
X3579348Y-16554604D01*
X3674586Y-16554604D02*
X3674586Y-16421270D01*
X3674586Y-16440318D02*
X3684110Y-16430794D01*
X3684110Y-16430794D02*
X3703158Y-16421270D01*
X3703158Y-16421270D02*
X3731729Y-16421270D01*
X3731729Y-16421270D02*
X3750777Y-16430794D01*
X3750777Y-16430794D02*
X3760301Y-16449842D01*
X3760301Y-16449842D02*
X3760301Y-16554604D01*
X3760301Y-16449842D02*
X3769824Y-16430794D01*
X3769824Y-16430794D02*
X3788872Y-16421270D01*
X3788872Y-16421270D02*
X3817443Y-16421270D01*
X3817443Y-16421270D02*
X3836491Y-16430794D01*
X3836491Y-16430794D02*
X3846015Y-16449842D01*
X3846015Y-16449842D02*
X3846015Y-16554604D01*
X4236491Y-16345080D02*
X4065063Y-16602223D01*
X4493634Y-16354604D02*
X4512682Y-16354604D01*
X4512682Y-16354604D02*
X4531729Y-16364128D01*
X4531729Y-16364128D02*
X4541253Y-16373651D01*
X4541253Y-16373651D02*
X4550777Y-16392699D01*
X4550777Y-16392699D02*
X4560301Y-16430794D01*
X4560301Y-16430794D02*
X4560301Y-16478413D01*
X4560301Y-16478413D02*
X4550777Y-16516508D01*
X4550777Y-16516508D02*
X4541253Y-16535556D01*
X4541253Y-16535556D02*
X4531729Y-16545080D01*
X4531729Y-16545080D02*
X4512682Y-16554604D01*
X4512682Y-16554604D02*
X4493634Y-16554604D01*
X4493634Y-16554604D02*
X4474587Y-16545080D01*
X4474587Y-16545080D02*
X4465063Y-16535556D01*
X4465063Y-16535556D02*
X4455539Y-16516508D01*
X4455539Y-16516508D02*
X4446015Y-16478413D01*
X4446015Y-16478413D02*
X4446015Y-16430794D01*
X4446015Y-16430794D02*
X4455539Y-16392699D01*
X4455539Y-16392699D02*
X4465063Y-16373651D01*
X4465063Y-16373651D02*
X4474587Y-16364128D01*
X4474587Y-16364128D02*
X4493634Y-16354604D01*
X4646015Y-16535556D02*
X4655539Y-16545080D01*
X4655539Y-16545080D02*
X4646015Y-16554604D01*
X4646015Y-16554604D02*
X4636491Y-16545080D01*
X4636491Y-16545080D02*
X4646015Y-16535556D01*
X4646015Y-16535556D02*
X4646015Y-16554604D01*
X4779348Y-16354604D02*
X4798396Y-16354604D01*
X4798396Y-16354604D02*
X4817444Y-16364128D01*
X4817444Y-16364128D02*
X4826968Y-16373651D01*
X4826968Y-16373651D02*
X4836491Y-16392699D01*
X4836491Y-16392699D02*
X4846015Y-16430794D01*
X4846015Y-16430794D02*
X4846015Y-16478413D01*
X4846015Y-16478413D02*
X4836491Y-16516508D01*
X4836491Y-16516508D02*
X4826968Y-16535556D01*
X4826968Y-16535556D02*
X4817444Y-16545080D01*
X4817444Y-16545080D02*
X4798396Y-16554604D01*
X4798396Y-16554604D02*
X4779348Y-16554604D01*
X4779348Y-16554604D02*
X4760301Y-16545080D01*
X4760301Y-16545080D02*
X4750777Y-16535556D01*
X4750777Y-16535556D02*
X4741253Y-16516508D01*
X4741253Y-16516508D02*
X4731729Y-16478413D01*
X4731729Y-16478413D02*
X4731729Y-16430794D01*
X4731729Y-16430794D02*
X4741253Y-16392699D01*
X4741253Y-16392699D02*
X4750777Y-16373651D01*
X4750777Y-16373651D02*
X4760301Y-16364128D01*
X4760301Y-16364128D02*
X4779348Y-16354604D01*
X5036491Y-16554604D02*
X4922206Y-16554604D01*
X4979348Y-16554604D02*
X4979348Y-16354604D01*
X4979348Y-16354604D02*
X4960301Y-16383175D01*
X4960301Y-16383175D02*
X4941253Y-16402223D01*
X4941253Y-16402223D02*
X4922206Y-16411747D01*
X5103158Y-16354604D02*
X5226968Y-16354604D01*
X5226968Y-16354604D02*
X5160301Y-16430794D01*
X5160301Y-16430794D02*
X5188872Y-16430794D01*
X5188872Y-16430794D02*
X5207920Y-16440318D01*
X5207920Y-16440318D02*
X5217444Y-16449842D01*
X5217444Y-16449842D02*
X5226968Y-16468889D01*
X5226968Y-16468889D02*
X5226968Y-16516508D01*
X5226968Y-16516508D02*
X5217444Y-16535556D01*
X5217444Y-16535556D02*
X5207920Y-16545080D01*
X5207920Y-16545080D02*
X5188872Y-16554604D01*
X5188872Y-16554604D02*
X5131729Y-16554604D01*
X5131729Y-16554604D02*
X5112682Y-16545080D01*
X5112682Y-16545080D02*
X5103158Y-16535556D01*
X5341253Y-16440318D02*
X5322206Y-16430794D01*
X5322206Y-16430794D02*
X5312682Y-16421270D01*
X5312682Y-16421270D02*
X5303158Y-16402223D01*
X5303158Y-16402223D02*
X5303158Y-16392699D01*
X5303158Y-16392699D02*
X5312682Y-16373651D01*
X5312682Y-16373651D02*
X5322206Y-16364128D01*
X5322206Y-16364128D02*
X5341253Y-16354604D01*
X5341253Y-16354604D02*
X5379349Y-16354604D01*
X5379349Y-16354604D02*
X5398396Y-16364128D01*
X5398396Y-16364128D02*
X5407920Y-16373651D01*
X5407920Y-16373651D02*
X5417444Y-16392699D01*
X5417444Y-16392699D02*
X5417444Y-16402223D01*
X5417444Y-16402223D02*
X5407920Y-16421270D01*
X5407920Y-16421270D02*
X5398396Y-16430794D01*
X5398396Y-16430794D02*
X5379349Y-16440318D01*
X5379349Y-16440318D02*
X5341253Y-16440318D01*
X5341253Y-16440318D02*
X5322206Y-16449842D01*
X5322206Y-16449842D02*
X5312682Y-16459366D01*
X5312682Y-16459366D02*
X5303158Y-16478413D01*
X5303158Y-16478413D02*
X5303158Y-16516508D01*
X5303158Y-16516508D02*
X5312682Y-16535556D01*
X5312682Y-16535556D02*
X5322206Y-16545080D01*
X5322206Y-16545080D02*
X5341253Y-16554604D01*
X5341253Y-16554604D02*
X5379349Y-16554604D01*
X5379349Y-16554604D02*
X5398396Y-16545080D01*
X5398396Y-16545080D02*
X5407920Y-16535556D01*
X5407920Y-16535556D02*
X5417444Y-16516508D01*
X5417444Y-16516508D02*
X5417444Y-16478413D01*
X5417444Y-16478413D02*
X5407920Y-16459366D01*
X5407920Y-16459366D02*
X5398396Y-16449842D01*
X5398396Y-16449842D02*
X5379349Y-16440318D01*
X5493634Y-16354604D02*
X5493634Y-16392699D01*
X5569825Y-16354604D02*
X5569825Y-16392699D01*
X5865063Y-16630794D02*
X5855539Y-16621270D01*
X5855539Y-16621270D02*
X5836491Y-16592699D01*
X5836491Y-16592699D02*
X5826968Y-16573651D01*
X5826968Y-16573651D02*
X5817444Y-16545080D01*
X5817444Y-16545080D02*
X5807920Y-16497461D01*
X5807920Y-16497461D02*
X5807920Y-16459366D01*
X5807920Y-16459366D02*
X5817444Y-16411747D01*
X5817444Y-16411747D02*
X5826968Y-16383175D01*
X5826968Y-16383175D02*
X5836491Y-16364128D01*
X5836491Y-16364128D02*
X5855539Y-16335556D01*
X5855539Y-16335556D02*
X5865063Y-16326032D01*
X5950777Y-16554604D02*
X5988872Y-16554604D01*
X5988872Y-16554604D02*
X6007920Y-16545080D01*
X6007920Y-16545080D02*
X6017444Y-16535556D01*
X6017444Y-16535556D02*
X6036491Y-16506985D01*
X6036491Y-16506985D02*
X6046015Y-16468889D01*
X6046015Y-16468889D02*
X6046015Y-16392699D01*
X6046015Y-16392699D02*
X6036491Y-16373651D01*
X6036491Y-16373651D02*
X6026968Y-16364128D01*
X6026968Y-16364128D02*
X6007920Y-16354604D01*
X6007920Y-16354604D02*
X5969825Y-16354604D01*
X5969825Y-16354604D02*
X5950777Y-16364128D01*
X5950777Y-16364128D02*
X5941253Y-16373651D01*
X5941253Y-16373651D02*
X5931729Y-16392699D01*
X5931729Y-16392699D02*
X5931729Y-16440318D01*
X5931729Y-16440318D02*
X5941253Y-16459366D01*
X5941253Y-16459366D02*
X5950777Y-16468889D01*
X5950777Y-16468889D02*
X5969825Y-16478413D01*
X5969825Y-16478413D02*
X6007920Y-16478413D01*
X6007920Y-16478413D02*
X6026968Y-16468889D01*
X6026968Y-16468889D02*
X6036491Y-16459366D01*
X6036491Y-16459366D02*
X6046015Y-16440318D01*
X6284110Y-16554604D02*
X6284110Y-16354604D01*
X6369825Y-16554604D02*
X6369825Y-16449842D01*
X6369825Y-16449842D02*
X6360301Y-16430794D01*
X6360301Y-16430794D02*
X6341253Y-16421270D01*
X6341253Y-16421270D02*
X6312682Y-16421270D01*
X6312682Y-16421270D02*
X6293634Y-16430794D01*
X6293634Y-16430794D02*
X6284110Y-16440318D01*
X6493634Y-16554604D02*
X6474587Y-16545080D01*
X6474587Y-16545080D02*
X6465063Y-16535556D01*
X6465063Y-16535556D02*
X6455539Y-16516508D01*
X6455539Y-16516508D02*
X6455539Y-16459366D01*
X6455539Y-16459366D02*
X6465063Y-16440318D01*
X6465063Y-16440318D02*
X6474587Y-16430794D01*
X6474587Y-16430794D02*
X6493634Y-16421270D01*
X6493634Y-16421270D02*
X6522206Y-16421270D01*
X6522206Y-16421270D02*
X6541253Y-16430794D01*
X6541253Y-16430794D02*
X6550777Y-16440318D01*
X6550777Y-16440318D02*
X6560301Y-16459366D01*
X6560301Y-16459366D02*
X6560301Y-16516508D01*
X6560301Y-16516508D02*
X6550777Y-16535556D01*
X6550777Y-16535556D02*
X6541253Y-16545080D01*
X6541253Y-16545080D02*
X6522206Y-16554604D01*
X6522206Y-16554604D02*
X6493634Y-16554604D01*
X6674587Y-16554604D02*
X6655539Y-16545080D01*
X6655539Y-16545080D02*
X6646015Y-16526032D01*
X6646015Y-16526032D02*
X6646015Y-16354604D01*
X6826968Y-16545080D02*
X6807920Y-16554604D01*
X6807920Y-16554604D02*
X6769825Y-16554604D01*
X6769825Y-16554604D02*
X6750777Y-16545080D01*
X6750777Y-16545080D02*
X6741253Y-16526032D01*
X6741253Y-16526032D02*
X6741253Y-16449842D01*
X6741253Y-16449842D02*
X6750777Y-16430794D01*
X6750777Y-16430794D02*
X6769825Y-16421270D01*
X6769825Y-16421270D02*
X6807920Y-16421270D01*
X6807920Y-16421270D02*
X6826968Y-16430794D01*
X6826968Y-16430794D02*
X6836491Y-16449842D01*
X6836491Y-16449842D02*
X6836491Y-16468889D01*
X6836491Y-16468889D02*
X6741253Y-16487937D01*
X6912682Y-16545080D02*
X6931730Y-16554604D01*
X6931730Y-16554604D02*
X6969825Y-16554604D01*
X6969825Y-16554604D02*
X6988872Y-16545080D01*
X6988872Y-16545080D02*
X6998396Y-16526032D01*
X6998396Y-16526032D02*
X6998396Y-16516508D01*
X6998396Y-16516508D02*
X6988872Y-16497461D01*
X6988872Y-16497461D02*
X6969825Y-16487937D01*
X6969825Y-16487937D02*
X6941253Y-16487937D01*
X6941253Y-16487937D02*
X6922206Y-16478413D01*
X6922206Y-16478413D02*
X6912682Y-16459366D01*
X6912682Y-16459366D02*
X6912682Y-16449842D01*
X6912682Y-16449842D02*
X6922206Y-16430794D01*
X6922206Y-16430794D02*
X6941253Y-16421270D01*
X6941253Y-16421270D02*
X6969825Y-16421270D01*
X6969825Y-16421270D02*
X6988872Y-16430794D01*
X7065063Y-16630794D02*
X7074587Y-16621270D01*
X7074587Y-16621270D02*
X7093634Y-16592699D01*
X7093634Y-16592699D02*
X7103158Y-16573651D01*
X7103158Y-16573651D02*
X7112682Y-16545080D01*
X7112682Y-16545080D02*
X7122206Y-16497461D01*
X7122206Y-16497461D02*
X7122206Y-16459366D01*
X7122206Y-16459366D02*
X7112682Y-16411747D01*
X7112682Y-16411747D02*
X7103158Y-16383175D01*
X7103158Y-16383175D02*
X7093634Y-16364128D01*
X7093634Y-16364128D02*
X7074587Y-16335556D01*
X7074587Y-16335556D02*
X7065063Y-16326032D01*
D12*
X2260000Y-16697120D02*
X2260000Y-16757120D01*
X2230000Y-16727120D02*
X2290000Y-16727120D01*
D10*
X2588872Y-16618604D02*
X2607920Y-16618604D01*
X2607920Y-16618604D02*
X2626967Y-16628128D01*
X2626967Y-16628128D02*
X2636491Y-16637651D01*
X2636491Y-16637651D02*
X2646015Y-16656699D01*
X2646015Y-16656699D02*
X2655539Y-16694794D01*
X2655539Y-16694794D02*
X2655539Y-16742413D01*
X2655539Y-16742413D02*
X2646015Y-16780509D01*
X2646015Y-16780509D02*
X2636491Y-16799556D01*
X2636491Y-16799556D02*
X2626967Y-16809080D01*
X2626967Y-16809080D02*
X2607920Y-16818604D01*
X2607920Y-16818604D02*
X2588872Y-16818604D01*
X2588872Y-16818604D02*
X2569824Y-16809080D01*
X2569824Y-16809080D02*
X2560301Y-16799556D01*
X2560301Y-16799556D02*
X2550777Y-16780509D01*
X2550777Y-16780509D02*
X2541253Y-16742413D01*
X2541253Y-16742413D02*
X2541253Y-16694794D01*
X2541253Y-16694794D02*
X2550777Y-16656699D01*
X2550777Y-16656699D02*
X2560301Y-16637651D01*
X2560301Y-16637651D02*
X2569824Y-16628128D01*
X2569824Y-16628128D02*
X2588872Y-16618604D01*
X2741253Y-16799556D02*
X2750777Y-16809080D01*
X2750777Y-16809080D02*
X2741253Y-16818604D01*
X2741253Y-16818604D02*
X2731729Y-16809080D01*
X2731729Y-16809080D02*
X2741253Y-16799556D01*
X2741253Y-16799556D02*
X2741253Y-16818604D01*
X2922205Y-16618604D02*
X2884110Y-16618604D01*
X2884110Y-16618604D02*
X2865062Y-16628128D01*
X2865062Y-16628128D02*
X2855539Y-16637651D01*
X2855539Y-16637651D02*
X2836491Y-16666223D01*
X2836491Y-16666223D02*
X2826967Y-16704318D01*
X2826967Y-16704318D02*
X2826967Y-16780509D01*
X2826967Y-16780509D02*
X2836491Y-16799556D01*
X2836491Y-16799556D02*
X2846015Y-16809080D01*
X2846015Y-16809080D02*
X2865062Y-16818604D01*
X2865062Y-16818604D02*
X2903158Y-16818604D01*
X2903158Y-16818604D02*
X2922205Y-16809080D01*
X2922205Y-16809080D02*
X2931729Y-16799556D01*
X2931729Y-16799556D02*
X2941253Y-16780509D01*
X2941253Y-16780509D02*
X2941253Y-16732889D01*
X2941253Y-16732889D02*
X2931729Y-16713842D01*
X2931729Y-16713842D02*
X2922205Y-16704318D01*
X2922205Y-16704318D02*
X2903158Y-16694794D01*
X2903158Y-16694794D02*
X2865062Y-16694794D01*
X2865062Y-16694794D02*
X2846015Y-16704318D01*
X2846015Y-16704318D02*
X2836491Y-16713842D01*
X2836491Y-16713842D02*
X2826967Y-16732889D01*
X3065062Y-16618604D02*
X3084110Y-16618604D01*
X3084110Y-16618604D02*
X3103158Y-16628128D01*
X3103158Y-16628128D02*
X3112682Y-16637651D01*
X3112682Y-16637651D02*
X3122205Y-16656699D01*
X3122205Y-16656699D02*
X3131729Y-16694794D01*
X3131729Y-16694794D02*
X3131729Y-16742413D01*
X3131729Y-16742413D02*
X3122205Y-16780509D01*
X3122205Y-16780509D02*
X3112682Y-16799556D01*
X3112682Y-16799556D02*
X3103158Y-16809080D01*
X3103158Y-16809080D02*
X3084110Y-16818604D01*
X3084110Y-16818604D02*
X3065062Y-16818604D01*
X3065062Y-16818604D02*
X3046015Y-16809080D01*
X3046015Y-16809080D02*
X3036491Y-16799556D01*
X3036491Y-16799556D02*
X3026967Y-16780509D01*
X3026967Y-16780509D02*
X3017443Y-16742413D01*
X3017443Y-16742413D02*
X3017443Y-16694794D01*
X3017443Y-16694794D02*
X3026967Y-16656699D01*
X3026967Y-16656699D02*
X3036491Y-16637651D01*
X3036491Y-16637651D02*
X3046015Y-16628128D01*
X3046015Y-16628128D02*
X3065062Y-16618604D01*
X3255539Y-16618604D02*
X3274586Y-16618604D01*
X3274586Y-16618604D02*
X3293634Y-16628128D01*
X3293634Y-16628128D02*
X3303158Y-16637651D01*
X3303158Y-16637651D02*
X3312682Y-16656699D01*
X3312682Y-16656699D02*
X3322205Y-16694794D01*
X3322205Y-16694794D02*
X3322205Y-16742413D01*
X3322205Y-16742413D02*
X3312682Y-16780509D01*
X3312682Y-16780509D02*
X3303158Y-16799556D01*
X3303158Y-16799556D02*
X3293634Y-16809080D01*
X3293634Y-16809080D02*
X3274586Y-16818604D01*
X3274586Y-16818604D02*
X3255539Y-16818604D01*
X3255539Y-16818604D02*
X3236491Y-16809080D01*
X3236491Y-16809080D02*
X3226967Y-16799556D01*
X3226967Y-16799556D02*
X3217443Y-16780509D01*
X3217443Y-16780509D02*
X3207920Y-16742413D01*
X3207920Y-16742413D02*
X3207920Y-16694794D01*
X3207920Y-16694794D02*
X3217443Y-16656699D01*
X3217443Y-16656699D02*
X3226967Y-16637651D01*
X3226967Y-16637651D02*
X3236491Y-16628128D01*
X3236491Y-16628128D02*
X3255539Y-16618604D01*
X3407920Y-16818604D02*
X3407920Y-16685270D01*
X3407920Y-16704318D02*
X3417443Y-16694794D01*
X3417443Y-16694794D02*
X3436491Y-16685270D01*
X3436491Y-16685270D02*
X3465063Y-16685270D01*
X3465063Y-16685270D02*
X3484110Y-16694794D01*
X3484110Y-16694794D02*
X3493634Y-16713842D01*
X3493634Y-16713842D02*
X3493634Y-16818604D01*
X3493634Y-16713842D02*
X3503158Y-16694794D01*
X3503158Y-16694794D02*
X3522205Y-16685270D01*
X3522205Y-16685270D02*
X3550777Y-16685270D01*
X3550777Y-16685270D02*
X3569824Y-16694794D01*
X3569824Y-16694794D02*
X3579348Y-16713842D01*
X3579348Y-16713842D02*
X3579348Y-16818604D01*
X3674586Y-16818604D02*
X3674586Y-16685270D01*
X3674586Y-16704318D02*
X3684110Y-16694794D01*
X3684110Y-16694794D02*
X3703158Y-16685270D01*
X3703158Y-16685270D02*
X3731729Y-16685270D01*
X3731729Y-16685270D02*
X3750777Y-16694794D01*
X3750777Y-16694794D02*
X3760301Y-16713842D01*
X3760301Y-16713842D02*
X3760301Y-16818604D01*
X3760301Y-16713842D02*
X3769824Y-16694794D01*
X3769824Y-16694794D02*
X3788872Y-16685270D01*
X3788872Y-16685270D02*
X3817443Y-16685270D01*
X3817443Y-16685270D02*
X3836491Y-16694794D01*
X3836491Y-16694794D02*
X3846015Y-16713842D01*
X3846015Y-16713842D02*
X3846015Y-16818604D01*
X4236491Y-16609080D02*
X4065063Y-16866223D01*
X4493634Y-16618604D02*
X4512682Y-16618604D01*
X4512682Y-16618604D02*
X4531729Y-16628128D01*
X4531729Y-16628128D02*
X4541253Y-16637651D01*
X4541253Y-16637651D02*
X4550777Y-16656699D01*
X4550777Y-16656699D02*
X4560301Y-16694794D01*
X4560301Y-16694794D02*
X4560301Y-16742413D01*
X4560301Y-16742413D02*
X4550777Y-16780509D01*
X4550777Y-16780509D02*
X4541253Y-16799556D01*
X4541253Y-16799556D02*
X4531729Y-16809080D01*
X4531729Y-16809080D02*
X4512682Y-16818604D01*
X4512682Y-16818604D02*
X4493634Y-16818604D01*
X4493634Y-16818604D02*
X4474587Y-16809080D01*
X4474587Y-16809080D02*
X4465063Y-16799556D01*
X4465063Y-16799556D02*
X4455539Y-16780509D01*
X4455539Y-16780509D02*
X4446015Y-16742413D01*
X4446015Y-16742413D02*
X4446015Y-16694794D01*
X4446015Y-16694794D02*
X4455539Y-16656699D01*
X4455539Y-16656699D02*
X4465063Y-16637651D01*
X4465063Y-16637651D02*
X4474587Y-16628128D01*
X4474587Y-16628128D02*
X4493634Y-16618604D01*
X4646015Y-16799556D02*
X4655539Y-16809080D01*
X4655539Y-16809080D02*
X4646015Y-16818604D01*
X4646015Y-16818604D02*
X4636491Y-16809080D01*
X4636491Y-16809080D02*
X4646015Y-16799556D01*
X4646015Y-16799556D02*
X4646015Y-16818604D01*
X4779348Y-16618604D02*
X4798396Y-16618604D01*
X4798396Y-16618604D02*
X4817444Y-16628128D01*
X4817444Y-16628128D02*
X4826968Y-16637651D01*
X4826968Y-16637651D02*
X4836491Y-16656699D01*
X4836491Y-16656699D02*
X4846015Y-16694794D01*
X4846015Y-16694794D02*
X4846015Y-16742413D01*
X4846015Y-16742413D02*
X4836491Y-16780509D01*
X4836491Y-16780509D02*
X4826968Y-16799556D01*
X4826968Y-16799556D02*
X4817444Y-16809080D01*
X4817444Y-16809080D02*
X4798396Y-16818604D01*
X4798396Y-16818604D02*
X4779348Y-16818604D01*
X4779348Y-16818604D02*
X4760301Y-16809080D01*
X4760301Y-16809080D02*
X4750777Y-16799556D01*
X4750777Y-16799556D02*
X4741253Y-16780509D01*
X4741253Y-16780509D02*
X4731729Y-16742413D01*
X4731729Y-16742413D02*
X4731729Y-16694794D01*
X4731729Y-16694794D02*
X4741253Y-16656699D01*
X4741253Y-16656699D02*
X4750777Y-16637651D01*
X4750777Y-16637651D02*
X4760301Y-16628128D01*
X4760301Y-16628128D02*
X4779348Y-16618604D01*
X4922206Y-16637651D02*
X4931729Y-16628128D01*
X4931729Y-16628128D02*
X4950777Y-16618604D01*
X4950777Y-16618604D02*
X4998396Y-16618604D01*
X4998396Y-16618604D02*
X5017444Y-16628128D01*
X5017444Y-16628128D02*
X5026968Y-16637651D01*
X5026968Y-16637651D02*
X5036491Y-16656699D01*
X5036491Y-16656699D02*
X5036491Y-16675747D01*
X5036491Y-16675747D02*
X5026968Y-16704318D01*
X5026968Y-16704318D02*
X4912682Y-16818604D01*
X4912682Y-16818604D02*
X5036491Y-16818604D01*
X5103158Y-16618604D02*
X5226968Y-16618604D01*
X5226968Y-16618604D02*
X5160301Y-16694794D01*
X5160301Y-16694794D02*
X5188872Y-16694794D01*
X5188872Y-16694794D02*
X5207920Y-16704318D01*
X5207920Y-16704318D02*
X5217444Y-16713842D01*
X5217444Y-16713842D02*
X5226968Y-16732889D01*
X5226968Y-16732889D02*
X5226968Y-16780509D01*
X5226968Y-16780509D02*
X5217444Y-16799556D01*
X5217444Y-16799556D02*
X5207920Y-16809080D01*
X5207920Y-16809080D02*
X5188872Y-16818604D01*
X5188872Y-16818604D02*
X5131729Y-16818604D01*
X5131729Y-16818604D02*
X5112682Y-16809080D01*
X5112682Y-16809080D02*
X5103158Y-16799556D01*
X5398396Y-16618604D02*
X5360301Y-16618604D01*
X5360301Y-16618604D02*
X5341253Y-16628128D01*
X5341253Y-16628128D02*
X5331729Y-16637651D01*
X5331729Y-16637651D02*
X5312682Y-16666223D01*
X5312682Y-16666223D02*
X5303158Y-16704318D01*
X5303158Y-16704318D02*
X5303158Y-16780509D01*
X5303158Y-16780509D02*
X5312682Y-16799556D01*
X5312682Y-16799556D02*
X5322206Y-16809080D01*
X5322206Y-16809080D02*
X5341253Y-16818604D01*
X5341253Y-16818604D02*
X5379349Y-16818604D01*
X5379349Y-16818604D02*
X5398396Y-16809080D01*
X5398396Y-16809080D02*
X5407920Y-16799556D01*
X5407920Y-16799556D02*
X5417444Y-16780509D01*
X5417444Y-16780509D02*
X5417444Y-16732889D01*
X5417444Y-16732889D02*
X5407920Y-16713842D01*
X5407920Y-16713842D02*
X5398396Y-16704318D01*
X5398396Y-16704318D02*
X5379349Y-16694794D01*
X5379349Y-16694794D02*
X5341253Y-16694794D01*
X5341253Y-16694794D02*
X5322206Y-16704318D01*
X5322206Y-16704318D02*
X5312682Y-16713842D01*
X5312682Y-16713842D02*
X5303158Y-16732889D01*
X5493634Y-16618604D02*
X5493634Y-16656699D01*
X5569825Y-16618604D02*
X5569825Y-16656699D01*
X5865063Y-16894794D02*
X5855539Y-16885270D01*
X5855539Y-16885270D02*
X5836491Y-16856699D01*
X5836491Y-16856699D02*
X5826968Y-16837651D01*
X5826968Y-16837651D02*
X5817444Y-16809080D01*
X5817444Y-16809080D02*
X5807920Y-16761461D01*
X5807920Y-16761461D02*
X5807920Y-16723366D01*
X5807920Y-16723366D02*
X5817444Y-16675747D01*
X5817444Y-16675747D02*
X5826968Y-16647175D01*
X5826968Y-16647175D02*
X5836491Y-16628128D01*
X5836491Y-16628128D02*
X5855539Y-16599556D01*
X5855539Y-16599556D02*
X5865063Y-16590032D01*
X5979348Y-16618604D02*
X5998396Y-16618604D01*
X5998396Y-16618604D02*
X6017444Y-16628128D01*
X6017444Y-16628128D02*
X6026968Y-16637651D01*
X6026968Y-16637651D02*
X6036491Y-16656699D01*
X6036491Y-16656699D02*
X6046015Y-16694794D01*
X6046015Y-16694794D02*
X6046015Y-16742413D01*
X6046015Y-16742413D02*
X6036491Y-16780509D01*
X6036491Y-16780509D02*
X6026968Y-16799556D01*
X6026968Y-16799556D02*
X6017444Y-16809080D01*
X6017444Y-16809080D02*
X5998396Y-16818604D01*
X5998396Y-16818604D02*
X5979348Y-16818604D01*
X5979348Y-16818604D02*
X5960301Y-16809080D01*
X5960301Y-16809080D02*
X5950777Y-16799556D01*
X5950777Y-16799556D02*
X5941253Y-16780509D01*
X5941253Y-16780509D02*
X5931729Y-16742413D01*
X5931729Y-16742413D02*
X5931729Y-16694794D01*
X5931729Y-16694794D02*
X5941253Y-16656699D01*
X5941253Y-16656699D02*
X5950777Y-16637651D01*
X5950777Y-16637651D02*
X5960301Y-16628128D01*
X5960301Y-16628128D02*
X5979348Y-16618604D01*
X6284110Y-16818604D02*
X6284110Y-16618604D01*
X6369825Y-16818604D02*
X6369825Y-16713842D01*
X6369825Y-16713842D02*
X6360301Y-16694794D01*
X6360301Y-16694794D02*
X6341253Y-16685270D01*
X6341253Y-16685270D02*
X6312682Y-16685270D01*
X6312682Y-16685270D02*
X6293634Y-16694794D01*
X6293634Y-16694794D02*
X6284110Y-16704318D01*
X6493634Y-16818604D02*
X6474587Y-16809080D01*
X6474587Y-16809080D02*
X6465063Y-16799556D01*
X6465063Y-16799556D02*
X6455539Y-16780509D01*
X6455539Y-16780509D02*
X6455539Y-16723366D01*
X6455539Y-16723366D02*
X6465063Y-16704318D01*
X6465063Y-16704318D02*
X6474587Y-16694794D01*
X6474587Y-16694794D02*
X6493634Y-16685270D01*
X6493634Y-16685270D02*
X6522206Y-16685270D01*
X6522206Y-16685270D02*
X6541253Y-16694794D01*
X6541253Y-16694794D02*
X6550777Y-16704318D01*
X6550777Y-16704318D02*
X6560301Y-16723366D01*
X6560301Y-16723366D02*
X6560301Y-16780509D01*
X6560301Y-16780509D02*
X6550777Y-16799556D01*
X6550777Y-16799556D02*
X6541253Y-16809080D01*
X6541253Y-16809080D02*
X6522206Y-16818604D01*
X6522206Y-16818604D02*
X6493634Y-16818604D01*
X6674587Y-16818604D02*
X6655539Y-16809080D01*
X6655539Y-16809080D02*
X6646015Y-16790032D01*
X6646015Y-16790032D02*
X6646015Y-16618604D01*
X6826968Y-16809080D02*
X6807920Y-16818604D01*
X6807920Y-16818604D02*
X6769825Y-16818604D01*
X6769825Y-16818604D02*
X6750777Y-16809080D01*
X6750777Y-16809080D02*
X6741253Y-16790032D01*
X6741253Y-16790032D02*
X6741253Y-16713842D01*
X6741253Y-16713842D02*
X6750777Y-16694794D01*
X6750777Y-16694794D02*
X6769825Y-16685270D01*
X6769825Y-16685270D02*
X6807920Y-16685270D01*
X6807920Y-16685270D02*
X6826968Y-16694794D01*
X6826968Y-16694794D02*
X6836491Y-16713842D01*
X6836491Y-16713842D02*
X6836491Y-16732889D01*
X6836491Y-16732889D02*
X6741253Y-16751937D01*
X6912682Y-16809080D02*
X6931730Y-16818604D01*
X6931730Y-16818604D02*
X6969825Y-16818604D01*
X6969825Y-16818604D02*
X6988872Y-16809080D01*
X6988872Y-16809080D02*
X6998396Y-16790032D01*
X6998396Y-16790032D02*
X6998396Y-16780509D01*
X6998396Y-16780509D02*
X6988872Y-16761461D01*
X6988872Y-16761461D02*
X6969825Y-16751937D01*
X6969825Y-16751937D02*
X6941253Y-16751937D01*
X6941253Y-16751937D02*
X6922206Y-16742413D01*
X6922206Y-16742413D02*
X6912682Y-16723366D01*
X6912682Y-16723366D02*
X6912682Y-16713842D01*
X6912682Y-16713842D02*
X6922206Y-16694794D01*
X6922206Y-16694794D02*
X6941253Y-16685270D01*
X6941253Y-16685270D02*
X6969825Y-16685270D01*
X6969825Y-16685270D02*
X6988872Y-16694794D01*
X7236492Y-16742413D02*
X7388873Y-16742413D01*
X7312682Y-16818604D02*
X7312682Y-16666223D01*
X7722206Y-16685270D02*
X7722206Y-16818604D01*
X7674587Y-16609080D02*
X7626968Y-16751937D01*
X7626968Y-16751937D02*
X7750777Y-16751937D01*
X7969825Y-16809080D02*
X7988873Y-16818604D01*
X7988873Y-16818604D02*
X8026968Y-16818604D01*
X8026968Y-16818604D02*
X8046015Y-16809080D01*
X8046015Y-16809080D02*
X8055539Y-16790032D01*
X8055539Y-16790032D02*
X8055539Y-16780509D01*
X8055539Y-16780509D02*
X8046015Y-16761461D01*
X8046015Y-16761461D02*
X8026968Y-16751937D01*
X8026968Y-16751937D02*
X7998396Y-16751937D01*
X7998396Y-16751937D02*
X7979349Y-16742413D01*
X7979349Y-16742413D02*
X7969825Y-16723366D01*
X7969825Y-16723366D02*
X7969825Y-16713842D01*
X7969825Y-16713842D02*
X7979349Y-16694794D01*
X7979349Y-16694794D02*
X7998396Y-16685270D01*
X7998396Y-16685270D02*
X8026968Y-16685270D01*
X8026968Y-16685270D02*
X8046015Y-16694794D01*
X8169825Y-16818604D02*
X8150777Y-16809080D01*
X8150777Y-16809080D02*
X8141254Y-16790032D01*
X8141254Y-16790032D02*
X8141254Y-16618604D01*
X8274587Y-16818604D02*
X8255539Y-16809080D01*
X8255539Y-16809080D02*
X8246015Y-16799556D01*
X8246015Y-16799556D02*
X8236492Y-16780509D01*
X8236492Y-16780509D02*
X8236492Y-16723366D01*
X8236492Y-16723366D02*
X8246015Y-16704318D01*
X8246015Y-16704318D02*
X8255539Y-16694794D01*
X8255539Y-16694794D02*
X8274587Y-16685270D01*
X8274587Y-16685270D02*
X8303158Y-16685270D01*
X8303158Y-16685270D02*
X8322206Y-16694794D01*
X8322206Y-16694794D02*
X8331730Y-16704318D01*
X8331730Y-16704318D02*
X8341254Y-16723366D01*
X8341254Y-16723366D02*
X8341254Y-16780509D01*
X8341254Y-16780509D02*
X8331730Y-16799556D01*
X8331730Y-16799556D02*
X8322206Y-16809080D01*
X8322206Y-16809080D02*
X8303158Y-16818604D01*
X8303158Y-16818604D02*
X8274587Y-16818604D01*
X8398397Y-16685270D02*
X8474587Y-16685270D01*
X8426968Y-16618604D02*
X8426968Y-16790032D01*
X8426968Y-16790032D02*
X8436492Y-16809080D01*
X8436492Y-16809080D02*
X8455539Y-16818604D01*
X8455539Y-16818604D02*
X8474587Y-16818604D01*
X8531730Y-16809080D02*
X8550777Y-16818604D01*
X8550777Y-16818604D02*
X8588873Y-16818604D01*
X8588873Y-16818604D02*
X8607920Y-16809080D01*
X8607920Y-16809080D02*
X8617444Y-16790032D01*
X8617444Y-16790032D02*
X8617444Y-16780509D01*
X8617444Y-16780509D02*
X8607920Y-16761461D01*
X8607920Y-16761461D02*
X8588873Y-16751937D01*
X8588873Y-16751937D02*
X8560301Y-16751937D01*
X8560301Y-16751937D02*
X8541254Y-16742413D01*
X8541254Y-16742413D02*
X8531730Y-16723366D01*
X8531730Y-16723366D02*
X8531730Y-16713842D01*
X8531730Y-16713842D02*
X8541254Y-16694794D01*
X8541254Y-16694794D02*
X8560301Y-16685270D01*
X8560301Y-16685270D02*
X8588873Y-16685270D01*
X8588873Y-16685270D02*
X8607920Y-16694794D01*
X8684111Y-16894794D02*
X8693635Y-16885270D01*
X8693635Y-16885270D02*
X8712682Y-16856699D01*
X8712682Y-16856699D02*
X8722206Y-16837651D01*
X8722206Y-16837651D02*
X8731730Y-16809080D01*
X8731730Y-16809080D02*
X8741254Y-16761461D01*
X8741254Y-16761461D02*
X8741254Y-16723366D01*
X8741254Y-16723366D02*
X8731730Y-16675747D01*
X8731730Y-16675747D02*
X8722206Y-16647175D01*
X8722206Y-16647175D02*
X8712682Y-16628128D01*
X8712682Y-16628128D02*
X8693635Y-16599556D01*
X8693635Y-16599556D02*
X8684111Y-16590032D01*
D12*
X2279749Y-17015869D02*
X2279749Y-16966371D01*
X2230251Y-16966371D01*
X2230251Y-17015869D01*
X2279749Y-17015869D01*
D10*
X2588872Y-16882604D02*
X2607920Y-16882604D01*
X2607920Y-16882604D02*
X2626967Y-16892128D01*
X2626967Y-16892128D02*
X2636491Y-16901651D01*
X2636491Y-16901651D02*
X2646015Y-16920699D01*
X2646015Y-16920699D02*
X2655539Y-16958794D01*
X2655539Y-16958794D02*
X2655539Y-17006413D01*
X2655539Y-17006413D02*
X2646015Y-17044509D01*
X2646015Y-17044509D02*
X2636491Y-17063556D01*
X2636491Y-17063556D02*
X2626967Y-17073080D01*
X2626967Y-17073080D02*
X2607920Y-17082604D01*
X2607920Y-17082604D02*
X2588872Y-17082604D01*
X2588872Y-17082604D02*
X2569824Y-17073080D01*
X2569824Y-17073080D02*
X2560301Y-17063556D01*
X2560301Y-17063556D02*
X2550777Y-17044509D01*
X2550777Y-17044509D02*
X2541253Y-17006413D01*
X2541253Y-17006413D02*
X2541253Y-16958794D01*
X2541253Y-16958794D02*
X2550777Y-16920699D01*
X2550777Y-16920699D02*
X2560301Y-16901651D01*
X2560301Y-16901651D02*
X2569824Y-16892128D01*
X2569824Y-16892128D02*
X2588872Y-16882604D01*
X2741253Y-17063556D02*
X2750777Y-17073080D01*
X2750777Y-17073080D02*
X2741253Y-17082604D01*
X2741253Y-17082604D02*
X2731729Y-17073080D01*
X2731729Y-17073080D02*
X2741253Y-17063556D01*
X2741253Y-17063556D02*
X2741253Y-17082604D01*
X2817443Y-16882604D02*
X2950777Y-16882604D01*
X2950777Y-16882604D02*
X2865062Y-17082604D01*
X3065062Y-16882604D02*
X3084110Y-16882604D01*
X3084110Y-16882604D02*
X3103158Y-16892128D01*
X3103158Y-16892128D02*
X3112682Y-16901651D01*
X3112682Y-16901651D02*
X3122205Y-16920699D01*
X3122205Y-16920699D02*
X3131729Y-16958794D01*
X3131729Y-16958794D02*
X3131729Y-17006413D01*
X3131729Y-17006413D02*
X3122205Y-17044509D01*
X3122205Y-17044509D02*
X3112682Y-17063556D01*
X3112682Y-17063556D02*
X3103158Y-17073080D01*
X3103158Y-17073080D02*
X3084110Y-17082604D01*
X3084110Y-17082604D02*
X3065062Y-17082604D01*
X3065062Y-17082604D02*
X3046015Y-17073080D01*
X3046015Y-17073080D02*
X3036491Y-17063556D01*
X3036491Y-17063556D02*
X3026967Y-17044509D01*
X3026967Y-17044509D02*
X3017443Y-17006413D01*
X3017443Y-17006413D02*
X3017443Y-16958794D01*
X3017443Y-16958794D02*
X3026967Y-16920699D01*
X3026967Y-16920699D02*
X3036491Y-16901651D01*
X3036491Y-16901651D02*
X3046015Y-16892128D01*
X3046015Y-16892128D02*
X3065062Y-16882604D01*
X3255539Y-16882604D02*
X3274586Y-16882604D01*
X3274586Y-16882604D02*
X3293634Y-16892128D01*
X3293634Y-16892128D02*
X3303158Y-16901651D01*
X3303158Y-16901651D02*
X3312682Y-16920699D01*
X3312682Y-16920699D02*
X3322205Y-16958794D01*
X3322205Y-16958794D02*
X3322205Y-17006413D01*
X3322205Y-17006413D02*
X3312682Y-17044509D01*
X3312682Y-17044509D02*
X3303158Y-17063556D01*
X3303158Y-17063556D02*
X3293634Y-17073080D01*
X3293634Y-17073080D02*
X3274586Y-17082604D01*
X3274586Y-17082604D02*
X3255539Y-17082604D01*
X3255539Y-17082604D02*
X3236491Y-17073080D01*
X3236491Y-17073080D02*
X3226967Y-17063556D01*
X3226967Y-17063556D02*
X3217443Y-17044509D01*
X3217443Y-17044509D02*
X3207920Y-17006413D01*
X3207920Y-17006413D02*
X3207920Y-16958794D01*
X3207920Y-16958794D02*
X3217443Y-16920699D01*
X3217443Y-16920699D02*
X3226967Y-16901651D01*
X3226967Y-16901651D02*
X3236491Y-16892128D01*
X3236491Y-16892128D02*
X3255539Y-16882604D01*
X3407920Y-17082604D02*
X3407920Y-16949270D01*
X3407920Y-16968318D02*
X3417443Y-16958794D01*
X3417443Y-16958794D02*
X3436491Y-16949270D01*
X3436491Y-16949270D02*
X3465063Y-16949270D01*
X3465063Y-16949270D02*
X3484110Y-16958794D01*
X3484110Y-16958794D02*
X3493634Y-16977842D01*
X3493634Y-16977842D02*
X3493634Y-17082604D01*
X3493634Y-16977842D02*
X3503158Y-16958794D01*
X3503158Y-16958794D02*
X3522205Y-16949270D01*
X3522205Y-16949270D02*
X3550777Y-16949270D01*
X3550777Y-16949270D02*
X3569824Y-16958794D01*
X3569824Y-16958794D02*
X3579348Y-16977842D01*
X3579348Y-16977842D02*
X3579348Y-17082604D01*
X3674586Y-17082604D02*
X3674586Y-16949270D01*
X3674586Y-16968318D02*
X3684110Y-16958794D01*
X3684110Y-16958794D02*
X3703158Y-16949270D01*
X3703158Y-16949270D02*
X3731729Y-16949270D01*
X3731729Y-16949270D02*
X3750777Y-16958794D01*
X3750777Y-16958794D02*
X3760301Y-16977842D01*
X3760301Y-16977842D02*
X3760301Y-17082604D01*
X3760301Y-16977842D02*
X3769824Y-16958794D01*
X3769824Y-16958794D02*
X3788872Y-16949270D01*
X3788872Y-16949270D02*
X3817443Y-16949270D01*
X3817443Y-16949270D02*
X3836491Y-16958794D01*
X3836491Y-16958794D02*
X3846015Y-16977842D01*
X3846015Y-16977842D02*
X3846015Y-17082604D01*
X4236491Y-16873080D02*
X4065063Y-17130223D01*
X4493634Y-16882604D02*
X4512682Y-16882604D01*
X4512682Y-16882604D02*
X4531729Y-16892128D01*
X4531729Y-16892128D02*
X4541253Y-16901651D01*
X4541253Y-16901651D02*
X4550777Y-16920699D01*
X4550777Y-16920699D02*
X4560301Y-16958794D01*
X4560301Y-16958794D02*
X4560301Y-17006413D01*
X4560301Y-17006413D02*
X4550777Y-17044509D01*
X4550777Y-17044509D02*
X4541253Y-17063556D01*
X4541253Y-17063556D02*
X4531729Y-17073080D01*
X4531729Y-17073080D02*
X4512682Y-17082604D01*
X4512682Y-17082604D02*
X4493634Y-17082604D01*
X4493634Y-17082604D02*
X4474587Y-17073080D01*
X4474587Y-17073080D02*
X4465063Y-17063556D01*
X4465063Y-17063556D02*
X4455539Y-17044509D01*
X4455539Y-17044509D02*
X4446015Y-17006413D01*
X4446015Y-17006413D02*
X4446015Y-16958794D01*
X4446015Y-16958794D02*
X4455539Y-16920699D01*
X4455539Y-16920699D02*
X4465063Y-16901651D01*
X4465063Y-16901651D02*
X4474587Y-16892128D01*
X4474587Y-16892128D02*
X4493634Y-16882604D01*
X4646015Y-17063556D02*
X4655539Y-17073080D01*
X4655539Y-17073080D02*
X4646015Y-17082604D01*
X4646015Y-17082604D02*
X4636491Y-17073080D01*
X4636491Y-17073080D02*
X4646015Y-17063556D01*
X4646015Y-17063556D02*
X4646015Y-17082604D01*
X4779348Y-16882604D02*
X4798396Y-16882604D01*
X4798396Y-16882604D02*
X4817444Y-16892128D01*
X4817444Y-16892128D02*
X4826968Y-16901651D01*
X4826968Y-16901651D02*
X4836491Y-16920699D01*
X4836491Y-16920699D02*
X4846015Y-16958794D01*
X4846015Y-16958794D02*
X4846015Y-17006413D01*
X4846015Y-17006413D02*
X4836491Y-17044509D01*
X4836491Y-17044509D02*
X4826968Y-17063556D01*
X4826968Y-17063556D02*
X4817444Y-17073080D01*
X4817444Y-17073080D02*
X4798396Y-17082604D01*
X4798396Y-17082604D02*
X4779348Y-17082604D01*
X4779348Y-17082604D02*
X4760301Y-17073080D01*
X4760301Y-17073080D02*
X4750777Y-17063556D01*
X4750777Y-17063556D02*
X4741253Y-17044509D01*
X4741253Y-17044509D02*
X4731729Y-17006413D01*
X4731729Y-17006413D02*
X4731729Y-16958794D01*
X4731729Y-16958794D02*
X4741253Y-16920699D01*
X4741253Y-16920699D02*
X4750777Y-16901651D01*
X4750777Y-16901651D02*
X4760301Y-16892128D01*
X4760301Y-16892128D02*
X4779348Y-16882604D01*
X4922206Y-16901651D02*
X4931729Y-16892128D01*
X4931729Y-16892128D02*
X4950777Y-16882604D01*
X4950777Y-16882604D02*
X4998396Y-16882604D01*
X4998396Y-16882604D02*
X5017444Y-16892128D01*
X5017444Y-16892128D02*
X5026968Y-16901651D01*
X5026968Y-16901651D02*
X5036491Y-16920699D01*
X5036491Y-16920699D02*
X5036491Y-16939747D01*
X5036491Y-16939747D02*
X5026968Y-16968318D01*
X5026968Y-16968318D02*
X4912682Y-17082604D01*
X4912682Y-17082604D02*
X5036491Y-17082604D01*
X5103158Y-16882604D02*
X5236491Y-16882604D01*
X5236491Y-16882604D02*
X5150777Y-17082604D01*
X5398396Y-16882604D02*
X5360301Y-16882604D01*
X5360301Y-16882604D02*
X5341253Y-16892128D01*
X5341253Y-16892128D02*
X5331729Y-16901651D01*
X5331729Y-16901651D02*
X5312682Y-16930223D01*
X5312682Y-16930223D02*
X5303158Y-16968318D01*
X5303158Y-16968318D02*
X5303158Y-17044509D01*
X5303158Y-17044509D02*
X5312682Y-17063556D01*
X5312682Y-17063556D02*
X5322206Y-17073080D01*
X5322206Y-17073080D02*
X5341253Y-17082604D01*
X5341253Y-17082604D02*
X5379349Y-17082604D01*
X5379349Y-17082604D02*
X5398396Y-17073080D01*
X5398396Y-17073080D02*
X5407920Y-17063556D01*
X5407920Y-17063556D02*
X5417444Y-17044509D01*
X5417444Y-17044509D02*
X5417444Y-16996890D01*
X5417444Y-16996890D02*
X5407920Y-16977842D01*
X5407920Y-16977842D02*
X5398396Y-16968318D01*
X5398396Y-16968318D02*
X5379349Y-16958794D01*
X5379349Y-16958794D02*
X5341253Y-16958794D01*
X5341253Y-16958794D02*
X5322206Y-16968318D01*
X5322206Y-16968318D02*
X5312682Y-16977842D01*
X5312682Y-16977842D02*
X5303158Y-16996890D01*
X5493634Y-16882604D02*
X5493634Y-16920699D01*
X5569825Y-16882604D02*
X5569825Y-16920699D01*
X5865063Y-17158794D02*
X5855539Y-17149270D01*
X5855539Y-17149270D02*
X5836491Y-17120699D01*
X5836491Y-17120699D02*
X5826968Y-17101651D01*
X5826968Y-17101651D02*
X5817444Y-17073080D01*
X5817444Y-17073080D02*
X5807920Y-17025461D01*
X5807920Y-17025461D02*
X5807920Y-16987366D01*
X5807920Y-16987366D02*
X5817444Y-16939747D01*
X5817444Y-16939747D02*
X5826968Y-16911175D01*
X5826968Y-16911175D02*
X5836491Y-16892128D01*
X5836491Y-16892128D02*
X5855539Y-16863556D01*
X5855539Y-16863556D02*
X5865063Y-16854032D01*
X5979348Y-16882604D02*
X5998396Y-16882604D01*
X5998396Y-16882604D02*
X6017444Y-16892128D01*
X6017444Y-16892128D02*
X6026968Y-16901651D01*
X6026968Y-16901651D02*
X6036491Y-16920699D01*
X6036491Y-16920699D02*
X6046015Y-16958794D01*
X6046015Y-16958794D02*
X6046015Y-17006413D01*
X6046015Y-17006413D02*
X6036491Y-17044509D01*
X6036491Y-17044509D02*
X6026968Y-17063556D01*
X6026968Y-17063556D02*
X6017444Y-17073080D01*
X6017444Y-17073080D02*
X5998396Y-17082604D01*
X5998396Y-17082604D02*
X5979348Y-17082604D01*
X5979348Y-17082604D02*
X5960301Y-17073080D01*
X5960301Y-17073080D02*
X5950777Y-17063556D01*
X5950777Y-17063556D02*
X5941253Y-17044509D01*
X5941253Y-17044509D02*
X5931729Y-17006413D01*
X5931729Y-17006413D02*
X5931729Y-16958794D01*
X5931729Y-16958794D02*
X5941253Y-16920699D01*
X5941253Y-16920699D02*
X5950777Y-16901651D01*
X5950777Y-16901651D02*
X5960301Y-16892128D01*
X5960301Y-16892128D02*
X5979348Y-16882604D01*
X6284110Y-17082604D02*
X6284110Y-16882604D01*
X6369825Y-17082604D02*
X6369825Y-16977842D01*
X6369825Y-16977842D02*
X6360301Y-16958794D01*
X6360301Y-16958794D02*
X6341253Y-16949270D01*
X6341253Y-16949270D02*
X6312682Y-16949270D01*
X6312682Y-16949270D02*
X6293634Y-16958794D01*
X6293634Y-16958794D02*
X6284110Y-16968318D01*
X6493634Y-17082604D02*
X6474587Y-17073080D01*
X6474587Y-17073080D02*
X6465063Y-17063556D01*
X6465063Y-17063556D02*
X6455539Y-17044509D01*
X6455539Y-17044509D02*
X6455539Y-16987366D01*
X6455539Y-16987366D02*
X6465063Y-16968318D01*
X6465063Y-16968318D02*
X6474587Y-16958794D01*
X6474587Y-16958794D02*
X6493634Y-16949270D01*
X6493634Y-16949270D02*
X6522206Y-16949270D01*
X6522206Y-16949270D02*
X6541253Y-16958794D01*
X6541253Y-16958794D02*
X6550777Y-16968318D01*
X6550777Y-16968318D02*
X6560301Y-16987366D01*
X6560301Y-16987366D02*
X6560301Y-17044509D01*
X6560301Y-17044509D02*
X6550777Y-17063556D01*
X6550777Y-17063556D02*
X6541253Y-17073080D01*
X6541253Y-17073080D02*
X6522206Y-17082604D01*
X6522206Y-17082604D02*
X6493634Y-17082604D01*
X6674587Y-17082604D02*
X6655539Y-17073080D01*
X6655539Y-17073080D02*
X6646015Y-17054032D01*
X6646015Y-17054032D02*
X6646015Y-16882604D01*
X6826968Y-17073080D02*
X6807920Y-17082604D01*
X6807920Y-17082604D02*
X6769825Y-17082604D01*
X6769825Y-17082604D02*
X6750777Y-17073080D01*
X6750777Y-17073080D02*
X6741253Y-17054032D01*
X6741253Y-17054032D02*
X6741253Y-16977842D01*
X6741253Y-16977842D02*
X6750777Y-16958794D01*
X6750777Y-16958794D02*
X6769825Y-16949270D01*
X6769825Y-16949270D02*
X6807920Y-16949270D01*
X6807920Y-16949270D02*
X6826968Y-16958794D01*
X6826968Y-16958794D02*
X6836491Y-16977842D01*
X6836491Y-16977842D02*
X6836491Y-16996890D01*
X6836491Y-16996890D02*
X6741253Y-17015937D01*
X6912682Y-17073080D02*
X6931730Y-17082604D01*
X6931730Y-17082604D02*
X6969825Y-17082604D01*
X6969825Y-17082604D02*
X6988872Y-17073080D01*
X6988872Y-17073080D02*
X6998396Y-17054032D01*
X6998396Y-17054032D02*
X6998396Y-17044509D01*
X6998396Y-17044509D02*
X6988872Y-17025461D01*
X6988872Y-17025461D02*
X6969825Y-17015937D01*
X6969825Y-17015937D02*
X6941253Y-17015937D01*
X6941253Y-17015937D02*
X6922206Y-17006413D01*
X6922206Y-17006413D02*
X6912682Y-16987366D01*
X6912682Y-16987366D02*
X6912682Y-16977842D01*
X6912682Y-16977842D02*
X6922206Y-16958794D01*
X6922206Y-16958794D02*
X6941253Y-16949270D01*
X6941253Y-16949270D02*
X6969825Y-16949270D01*
X6969825Y-16949270D02*
X6988872Y-16958794D01*
X7236492Y-17006413D02*
X7388873Y-17006413D01*
X7312682Y-17082604D02*
X7312682Y-16930223D01*
X7722206Y-16949270D02*
X7722206Y-17082604D01*
X7674587Y-16873080D02*
X7626968Y-17015937D01*
X7626968Y-17015937D02*
X7750777Y-17015937D01*
X7969825Y-17073080D02*
X7988873Y-17082604D01*
X7988873Y-17082604D02*
X8026968Y-17082604D01*
X8026968Y-17082604D02*
X8046015Y-17073080D01*
X8046015Y-17073080D02*
X8055539Y-17054032D01*
X8055539Y-17054032D02*
X8055539Y-17044509D01*
X8055539Y-17044509D02*
X8046015Y-17025461D01*
X8046015Y-17025461D02*
X8026968Y-17015937D01*
X8026968Y-17015937D02*
X7998396Y-17015937D01*
X7998396Y-17015937D02*
X7979349Y-17006413D01*
X7979349Y-17006413D02*
X7969825Y-16987366D01*
X7969825Y-16987366D02*
X7969825Y-16977842D01*
X7969825Y-16977842D02*
X7979349Y-16958794D01*
X7979349Y-16958794D02*
X7998396Y-16949270D01*
X7998396Y-16949270D02*
X8026968Y-16949270D01*
X8026968Y-16949270D02*
X8046015Y-16958794D01*
X8169825Y-17082604D02*
X8150777Y-17073080D01*
X8150777Y-17073080D02*
X8141254Y-17054032D01*
X8141254Y-17054032D02*
X8141254Y-16882604D01*
X8274587Y-17082604D02*
X8255539Y-17073080D01*
X8255539Y-17073080D02*
X8246015Y-17063556D01*
X8246015Y-17063556D02*
X8236492Y-17044509D01*
X8236492Y-17044509D02*
X8236492Y-16987366D01*
X8236492Y-16987366D02*
X8246015Y-16968318D01*
X8246015Y-16968318D02*
X8255539Y-16958794D01*
X8255539Y-16958794D02*
X8274587Y-16949270D01*
X8274587Y-16949270D02*
X8303158Y-16949270D01*
X8303158Y-16949270D02*
X8322206Y-16958794D01*
X8322206Y-16958794D02*
X8331730Y-16968318D01*
X8331730Y-16968318D02*
X8341254Y-16987366D01*
X8341254Y-16987366D02*
X8341254Y-17044509D01*
X8341254Y-17044509D02*
X8331730Y-17063556D01*
X8331730Y-17063556D02*
X8322206Y-17073080D01*
X8322206Y-17073080D02*
X8303158Y-17082604D01*
X8303158Y-17082604D02*
X8274587Y-17082604D01*
X8398397Y-16949270D02*
X8474587Y-16949270D01*
X8426968Y-16882604D02*
X8426968Y-17054032D01*
X8426968Y-17054032D02*
X8436492Y-17073080D01*
X8436492Y-17073080D02*
X8455539Y-17082604D01*
X8455539Y-17082604D02*
X8474587Y-17082604D01*
X8531730Y-17073080D02*
X8550777Y-17082604D01*
X8550777Y-17082604D02*
X8588873Y-17082604D01*
X8588873Y-17082604D02*
X8607920Y-17073080D01*
X8607920Y-17073080D02*
X8617444Y-17054032D01*
X8617444Y-17054032D02*
X8617444Y-17044509D01*
X8617444Y-17044509D02*
X8607920Y-17025461D01*
X8607920Y-17025461D02*
X8588873Y-17015937D01*
X8588873Y-17015937D02*
X8560301Y-17015937D01*
X8560301Y-17015937D02*
X8541254Y-17006413D01*
X8541254Y-17006413D02*
X8531730Y-16987366D01*
X8531730Y-16987366D02*
X8531730Y-16977842D01*
X8531730Y-16977842D02*
X8541254Y-16958794D01*
X8541254Y-16958794D02*
X8560301Y-16949270D01*
X8560301Y-16949270D02*
X8588873Y-16949270D01*
X8588873Y-16949270D02*
X8607920Y-16958794D01*
X8684111Y-17158794D02*
X8693635Y-17149270D01*
X8693635Y-17149270D02*
X8712682Y-17120699D01*
X8712682Y-17120699D02*
X8722206Y-17101651D01*
X8722206Y-17101651D02*
X8731730Y-17073080D01*
X8731730Y-17073080D02*
X8741254Y-17025461D01*
X8741254Y-17025461D02*
X8741254Y-16987366D01*
X8741254Y-16987366D02*
X8731730Y-16939747D01*
X8731730Y-16939747D02*
X8722206Y-16911175D01*
X8722206Y-16911175D02*
X8712682Y-16892128D01*
X8712682Y-16892128D02*
X8693635Y-16863556D01*
X8693635Y-16863556D02*
X8684111Y-16854032D01*
M02*
