G04 #@! TF.GenerationSoftware,KiCad,Pcbnew,8.0.1*
G04 #@! TF.CreationDate,2024-03-30T21:55:46-07:00*
G04 #@! TF.ProjectId,proj,70726f6a-2e6b-4696-9361-645f70636258,rev?*
G04 #@! TF.SameCoordinates,Original*
G04 #@! TF.FileFunction,Soldermask,Top*
G04 #@! TF.FilePolarity,Negative*
%FSLAX46Y46*%
G04 Gerber Fmt 4.6, Leading zero omitted, Abs format (unit mm)*
G04 Created by KiCad (PCBNEW 8.0.1) date 2024-03-30 21:55:46*
%MOMM*%
%LPD*%
G01*
G04 APERTURE LIST*
G04 Aperture macros list*
%AMRoundRect*
0 Rectangle with rounded corners*
0 $1 Rounding radius*
0 $2 $3 $4 $5 $6 $7 $8 $9 X,Y pos of 4 corners*
0 Add a 4 corners polygon primitive as box body*
4,1,4,$2,$3,$4,$5,$6,$7,$8,$9,$2,$3,0*
0 Add four circle primitives for the rounded corners*
1,1,$1+$1,$2,$3*
1,1,$1+$1,$4,$5*
1,1,$1+$1,$6,$7*
1,1,$1+$1,$8,$9*
0 Add four rect primitives between the rounded corners*
20,1,$1+$1,$2,$3,$4,$5,0*
20,1,$1+$1,$4,$5,$6,$7,0*
20,1,$1+$1,$6,$7,$8,$9,0*
20,1,$1+$1,$8,$9,$2,$3,0*%
G04 Aperture macros list end*
%ADD10RoundRect,0.140000X0.140000X0.170000X-0.140000X0.170000X-0.140000X-0.170000X0.140000X-0.170000X0*%
%ADD11RoundRect,0.135000X0.185000X-0.135000X0.185000X0.135000X-0.185000X0.135000X-0.185000X-0.135000X0*%
%ADD12R,1.400000X2.800000*%
%ADD13O,1.400000X2.500000*%
%ADD14RoundRect,0.135000X-0.135000X-0.185000X0.135000X-0.185000X0.135000X0.185000X-0.135000X0.185000X0*%
%ADD15RoundRect,0.093750X-0.093750X0.156250X-0.093750X-0.156250X0.093750X-0.156250X0.093750X0.156250X0*%
%ADD16RoundRect,0.075000X-0.075000X0.250000X-0.075000X-0.250000X0.075000X-0.250000X0.075000X0.250000X0*%
%ADD17RoundRect,0.140000X0.170000X-0.140000X0.170000X0.140000X-0.170000X0.140000X-0.170000X-0.140000X0*%
%ADD18RoundRect,0.140000X-0.170000X0.140000X-0.170000X-0.140000X0.170000X-0.140000X0.170000X0.140000X0*%
%ADD19RoundRect,0.150000X-0.825000X-0.150000X0.825000X-0.150000X0.825000X0.150000X-0.825000X0.150000X0*%
%ADD20RoundRect,0.250000X-0.475000X0.250000X-0.475000X-0.250000X0.475000X-0.250000X0.475000X0.250000X0*%
%ADD21R,1.050000X0.700000*%
%ADD22RoundRect,0.050000X-0.387500X-0.050000X0.387500X-0.050000X0.387500X0.050000X-0.387500X0.050000X0*%
%ADD23RoundRect,0.050000X-0.050000X-0.387500X0.050000X-0.387500X0.050000X0.387500X-0.050000X0.387500X0*%
%ADD24RoundRect,0.144000X-1.456000X-1.456000X1.456000X-1.456000X1.456000X1.456000X-1.456000X1.456000X0*%
%ADD25RoundRect,0.250000X-0.250000X-0.475000X0.250000X-0.475000X0.250000X0.475000X-0.250000X0.475000X0*%
%ADD26R,1.400000X1.200000*%
%ADD27R,0.700000X1.800000*%
%ADD28R,1.000000X0.800000*%
%ADD29RoundRect,0.140000X-0.140000X-0.170000X0.140000X-0.170000X0.140000X0.170000X-0.140000X0.170000X0*%
%ADD30C,0.650000*%
%ADD31R,0.300000X1.150000*%
%ADD32O,1.000000X2.100000*%
%ADD33O,1.000000X1.600000*%
%ADD34RoundRect,0.135000X-0.185000X0.135000X-0.185000X-0.135000X0.185000X-0.135000X0.185000X0.135000X0*%
%ADD35RoundRect,0.135000X0.135000X0.185000X-0.135000X0.185000X-0.135000X-0.185000X0.135000X-0.185000X0*%
%ADD36R,0.300000X1.200000*%
%ADD37R,3.000000X2.500000*%
%ADD38RoundRect,0.250000X0.475000X-0.250000X0.475000X0.250000X-0.475000X0.250000X-0.475000X-0.250000X0*%
%ADD39RoundRect,0.150000X-0.150000X0.512500X-0.150000X-0.512500X0.150000X-0.512500X0.150000X0.512500X0*%
%ADD40C,1.900000*%
%ADD41C,1.600000*%
%ADD42C,5.050000*%
%ADD43C,3.050000*%
%ADD44RoundRect,0.250000X1.025000X1.000000X-1.025000X1.000000X-1.025000X-1.000000X1.025000X-1.000000X0*%
G04 APERTURE END LIST*
D10*
X163577200Y-54623250D03*
X162617200Y-54623250D03*
D11*
X162054150Y-53660050D03*
X162054150Y-52640050D03*
D12*
X191902200Y-38603784D03*
X189403200Y-38603784D03*
X187401200Y-38603784D03*
X184902200Y-38603784D03*
D13*
X194803200Y-37130784D03*
X194803200Y-31128784D03*
X182001200Y-31179284D03*
X182001200Y-37130784D03*
D14*
X152909800Y-36660400D03*
X153929800Y-36660400D03*
D15*
X164041100Y-37624400D03*
D16*
X163503600Y-37549400D03*
D15*
X162966100Y-37624400D03*
X162966100Y-39324400D03*
D16*
X163503600Y-39399400D03*
D15*
X164041100Y-39324400D03*
D17*
X161014400Y-42019200D03*
X161014400Y-41059200D03*
D14*
X167714200Y-52527200D03*
X168734200Y-52527200D03*
D18*
X251688600Y-45505200D03*
X251688600Y-46465200D03*
D19*
X153930800Y-38032000D03*
X153930800Y-39302000D03*
X153930800Y-40572000D03*
X153930800Y-41842000D03*
X158880800Y-41842000D03*
X158880800Y-40572000D03*
X158880800Y-39302000D03*
X158880800Y-38032000D03*
D20*
X241122200Y-44273200D03*
X241122200Y-46173200D03*
D10*
X157532000Y-44940800D03*
X156572000Y-44940800D03*
D21*
X146011200Y-36652200D03*
X150211200Y-36652200D03*
X146011200Y-38802200D03*
X150211200Y-38802200D03*
D18*
X252831600Y-45530600D03*
X252831600Y-46490600D03*
D17*
X162005000Y-42019200D03*
X162005000Y-41059200D03*
D22*
X158862150Y-45149450D03*
X158862150Y-45549450D03*
X158862150Y-45949450D03*
X158862150Y-46349450D03*
X158862150Y-46749450D03*
X158862150Y-47149450D03*
X158862150Y-47549450D03*
X158862150Y-47949450D03*
X158862150Y-48349450D03*
X158862150Y-48749450D03*
X158862150Y-49149450D03*
X158862150Y-49549450D03*
X158862150Y-49949450D03*
X158862150Y-50349450D03*
D23*
X159699650Y-51186950D03*
X160099650Y-51186950D03*
X160499650Y-51186950D03*
X160899650Y-51186950D03*
X161299650Y-51186950D03*
X161699650Y-51186950D03*
X162099650Y-51186950D03*
X162499650Y-51186950D03*
X162899650Y-51186950D03*
X163299650Y-51186950D03*
X163699650Y-51186950D03*
X164099650Y-51186950D03*
X164499650Y-51186950D03*
X164899650Y-51186950D03*
D22*
X165737150Y-50349450D03*
X165737150Y-49949450D03*
X165737150Y-49549450D03*
X165737150Y-49149450D03*
X165737150Y-48749450D03*
X165737150Y-48349450D03*
X165737150Y-47949450D03*
X165737150Y-47549450D03*
X165737150Y-47149450D03*
X165737150Y-46749450D03*
X165737150Y-46349450D03*
X165737150Y-45949450D03*
X165737150Y-45549450D03*
X165737150Y-45149450D03*
D23*
X164899650Y-44311950D03*
X164499650Y-44311950D03*
X164099650Y-44311950D03*
X163699650Y-44311950D03*
X163299650Y-44311950D03*
X162899650Y-44311950D03*
X162499650Y-44311950D03*
X162099650Y-44311950D03*
X161699650Y-44311950D03*
X161299650Y-44311950D03*
X160899650Y-44311950D03*
X160499650Y-44311950D03*
X160099650Y-44311950D03*
X159699650Y-44311950D03*
D24*
X162299650Y-47749450D03*
D25*
X167405000Y-42324600D03*
X169305000Y-42324600D03*
D26*
X160815100Y-57716000D03*
X163015100Y-57716000D03*
X163015100Y-56016000D03*
X160815100Y-56016000D03*
D14*
X166952200Y-51460400D03*
X167972200Y-51460400D03*
D27*
X253290000Y-32253800D03*
X254790000Y-32253800D03*
X257790000Y-32253800D03*
D28*
X251890000Y-31603800D03*
X251890000Y-29403800D03*
X259190000Y-31603800D03*
X259190000Y-29403800D03*
D29*
X167033000Y-48920400D03*
X167993000Y-48920400D03*
X167113000Y-43874000D03*
X168073000Y-43874000D03*
D27*
X234240000Y-32253800D03*
X235740000Y-32253800D03*
X238740000Y-32253800D03*
D28*
X232840000Y-31603800D03*
X232840000Y-29403800D03*
X240140000Y-31603800D03*
X240140000Y-29403800D03*
D29*
X167113000Y-44864600D03*
X168073000Y-44864600D03*
D14*
X154840200Y-36660400D03*
X155860200Y-36660400D03*
D17*
X160709600Y-38996600D03*
X160709600Y-38036600D03*
D30*
X165883800Y-34718800D03*
X160103800Y-34718800D03*
D31*
X166343800Y-35783800D03*
X165543800Y-35783800D03*
X164243800Y-35783800D03*
X163243800Y-35783800D03*
X162743800Y-35783800D03*
X161743800Y-35783800D03*
X160443800Y-35783800D03*
X159643800Y-35783800D03*
X159943800Y-35783800D03*
X160743800Y-35783800D03*
X161243800Y-35783800D03*
X162243800Y-35783800D03*
X163743800Y-35783800D03*
X164743800Y-35783800D03*
X165243800Y-35783800D03*
X166043800Y-35783800D03*
D32*
X167313800Y-35218800D03*
D33*
X167313800Y-31038800D03*
D32*
X158673800Y-35218800D03*
D33*
X158673800Y-31038800D03*
D34*
X164011600Y-41027200D03*
X164011600Y-42047200D03*
D35*
X157155600Y-33587000D03*
X156135600Y-33587000D03*
D34*
X162995600Y-41027200D03*
X162995600Y-42047200D03*
D35*
X168046400Y-47879000D03*
X167026400Y-47879000D03*
D18*
X250520200Y-45505200D03*
X250520200Y-46465200D03*
X163095550Y-52670050D03*
X163095550Y-53630050D03*
D17*
X165002200Y-42019200D03*
X165002200Y-41059200D03*
D34*
X242671600Y-45475200D03*
X242671600Y-46495200D03*
D36*
X253259000Y-48200000D03*
X252759000Y-48200000D03*
X252259000Y-48200000D03*
X251759000Y-48200000D03*
X251259000Y-48200000D03*
X250759000Y-48200000D03*
X250259500Y-48200000D03*
X249759000Y-48200000D03*
X249259500Y-48200000D03*
X248759000Y-48200000D03*
X248259500Y-48200000D03*
X247759000Y-48200000D03*
X247259500Y-48200000D03*
X246759000Y-48200000D03*
X246259500Y-48200000D03*
X245759000Y-48200000D03*
X245259500Y-48200000D03*
X244759000Y-48200000D03*
X244259500Y-48200000D03*
X243759000Y-48200000D03*
X243259500Y-48200000D03*
X242759000Y-48200000D03*
X242259500Y-48200000D03*
X241759000Y-48200000D03*
X241259500Y-48200000D03*
X240759000Y-48200000D03*
X240259500Y-48200000D03*
X239759000Y-48200000D03*
X239259500Y-48200000D03*
X238759000Y-48200000D03*
D37*
X236759000Y-49880000D03*
X255259000Y-49880000D03*
D20*
X239039400Y-44273200D03*
X239039400Y-46173200D03*
D29*
X160255000Y-54620200D03*
X161215000Y-54620200D03*
D35*
X168046400Y-46812200D03*
X167026400Y-46812200D03*
D18*
X249504200Y-45505200D03*
X249504200Y-46465200D03*
D38*
X169447200Y-36111800D03*
X169447200Y-34211800D03*
D35*
X157155600Y-32545600D03*
X156135600Y-32545600D03*
D18*
X164111550Y-52670050D03*
X164111550Y-53630050D03*
D17*
X165992800Y-42019200D03*
X165992800Y-41059200D03*
D10*
X157532000Y-48750800D03*
X156572000Y-48750800D03*
D39*
X169319100Y-38037500D03*
X168369100Y-38037500D03*
X167419100Y-38037500D03*
X167419100Y-40312500D03*
X169319100Y-40312500D03*
D15*
X188929300Y-41324584D03*
D16*
X188391800Y-41249584D03*
D15*
X187854300Y-41324584D03*
X187854300Y-43024584D03*
D16*
X188391800Y-43099584D03*
D15*
X188929300Y-43024584D03*
D40*
X116529000Y-79084100D03*
D41*
X116029000Y-84234100D03*
D42*
X111029000Y-79084100D03*
D43*
X111029000Y-73184100D03*
X106029000Y-75284100D03*
D40*
X105529000Y-79084100D03*
D44*
X114529000Y-73084100D03*
X102529000Y-75284100D03*
D40*
X86529000Y-49084000D03*
D41*
X86029000Y-54234000D03*
D42*
X81029000Y-49084000D03*
D43*
X81029000Y-43184000D03*
X76029000Y-45284000D03*
D40*
X75529000Y-49084000D03*
D44*
X84529000Y-43084000D03*
X72529000Y-45284000D03*
D40*
X116529000Y-49084000D03*
D41*
X116029000Y-54234000D03*
D42*
X111029000Y-49084000D03*
D43*
X111029000Y-43184000D03*
X106029000Y-45284000D03*
D40*
X105529000Y-49084000D03*
D44*
X114529000Y-43084000D03*
X102529000Y-45284000D03*
D40*
X155500000Y-131915900D03*
D41*
X155000000Y-137065900D03*
D42*
X150000000Y-131915900D03*
D43*
X150000000Y-126015900D03*
X145000000Y-128115900D03*
D40*
X144500000Y-131915900D03*
D44*
X153500000Y-125915900D03*
X141500000Y-128115900D03*
D40*
X168477000Y-79065100D03*
D41*
X167977000Y-84215100D03*
D42*
X162977000Y-79065100D03*
D43*
X162977000Y-73165100D03*
X157977000Y-75265100D03*
D40*
X157477000Y-79065100D03*
D44*
X166477000Y-73065100D03*
X154477000Y-75265100D03*
D40*
X253518500Y-71584100D03*
D41*
X253018500Y-76734100D03*
D42*
X248018500Y-71584100D03*
D43*
X248018500Y-65684100D03*
X243018500Y-67784100D03*
D40*
X242518500Y-71584100D03*
D44*
X251518500Y-65584100D03*
X239518500Y-67784100D03*
D40*
X253518500Y-101584100D03*
D41*
X253018500Y-106734100D03*
D42*
X248018500Y-101584100D03*
D43*
X248018500Y-95684100D03*
X243018500Y-97784100D03*
D40*
X242518500Y-101584100D03*
D44*
X251518500Y-95584100D03*
X239518500Y-97784100D03*
D40*
X57481000Y-86584100D03*
D41*
X56981000Y-91734100D03*
D42*
X51981000Y-86584100D03*
D43*
X51981000Y-80684100D03*
X46981000Y-82784100D03*
D40*
X46481000Y-86584100D03*
D44*
X55481000Y-80584100D03*
X43481000Y-82784100D03*
D40*
X224471100Y-64084100D03*
D41*
X223971100Y-69234100D03*
D42*
X218971100Y-64084100D03*
D43*
X218971100Y-58184100D03*
X213971100Y-60284100D03*
D40*
X213471100Y-64084100D03*
D44*
X222471100Y-58084100D03*
X210471100Y-60284100D03*
D40*
X142510000Y-64084100D03*
D41*
X142010000Y-69234100D03*
D42*
X137010000Y-64084100D03*
D43*
X137010000Y-58184100D03*
X132010000Y-60284100D03*
D40*
X131510000Y-64084100D03*
D44*
X140510000Y-58084100D03*
X128510000Y-60284100D03*
D40*
X86529000Y-79084100D03*
D41*
X86029000Y-84234100D03*
D42*
X81029000Y-79084100D03*
D43*
X81029000Y-73184100D03*
X76029000Y-75284100D03*
D40*
X75529000Y-79084100D03*
D44*
X84529000Y-73084100D03*
X72529000Y-75284100D03*
D40*
X188350400Y-128896900D03*
D41*
X187850400Y-134046900D03*
D42*
X182850400Y-128896900D03*
D43*
X182850400Y-122996900D03*
X177850400Y-125096900D03*
D40*
X177350400Y-128896900D03*
D44*
X186350400Y-122896900D03*
X174350400Y-125096900D03*
D40*
X142497000Y-94065100D03*
D41*
X141997000Y-99215100D03*
D42*
X136997000Y-94065100D03*
D43*
X136997000Y-88165100D03*
X131997000Y-90265100D03*
D40*
X131497000Y-94065100D03*
D44*
X140497000Y-88065100D03*
X128497000Y-90265100D03*
D40*
X57481000Y-56584100D03*
D41*
X56981000Y-61734100D03*
D42*
X51981000Y-56584100D03*
D43*
X51981000Y-50684100D03*
X46981000Y-52784100D03*
D40*
X46481000Y-56584100D03*
D44*
X55481000Y-50584100D03*
X43481000Y-52784100D03*
D40*
X194471100Y-64084100D03*
D41*
X193971100Y-69234100D03*
D42*
X188971100Y-64084100D03*
D43*
X188971100Y-58184100D03*
X183971100Y-60284100D03*
D40*
X183471100Y-64084100D03*
D44*
X192471100Y-58084100D03*
X180471100Y-60284100D03*
D40*
X224458100Y-94065100D03*
D41*
X223958100Y-99215100D03*
D42*
X218958100Y-94065100D03*
D43*
X218958100Y-88165100D03*
X213958100Y-90265100D03*
D40*
X213458100Y-94065100D03*
D44*
X222458100Y-88065100D03*
X210458100Y-90265100D03*
D40*
X194458100Y-94065100D03*
D41*
X193958100Y-99215100D03*
D42*
X188958100Y-94065100D03*
D43*
X188958100Y-88165100D03*
X183958100Y-90265100D03*
D40*
X183458100Y-94065100D03*
D44*
X192458100Y-88065100D03*
X180458100Y-90265100D03*
D40*
X125272000Y-118627700D03*
D41*
X124772000Y-123777700D03*
D42*
X119772000Y-118627700D03*
D43*
X119772000Y-112727700D03*
X114772000Y-114827700D03*
D40*
X114272000Y-118627700D03*
D44*
X123272000Y-112627700D03*
X111272000Y-114827700D03*
M02*
