G04 #@! TF.GenerationSoftware,KiCad,Pcbnew,8.0.1*
G04 #@! TF.CreationDate,2024-03-30T21:55:45-07:00*
G04 #@! TF.ProjectId,proj,70726f6a-2e6b-4696-9361-645f70636258,rev?*
G04 #@! TF.SameCoordinates,Original*
G04 #@! TF.FileFunction,Legend,Top*
G04 #@! TF.FilePolarity,Positive*
%FSLAX46Y46*%
G04 Gerber Fmt 4.6, Leading zero omitted, Abs format (unit mm)*
G04 Created by KiCad (PCBNEW 8.0.1) date 2024-03-30 21:55:45*
%MOMM*%
%LPD*%
G01*
G04 APERTURE LIST*
G04 Aperture macros list*
%AMRoundRect*
0 Rectangle with rounded corners*
0 $1 Rounding radius*
0 $2 $3 $4 $5 $6 $7 $8 $9 X,Y pos of 4 corners*
0 Add a 4 corners polygon primitive as box body*
4,1,4,$2,$3,$4,$5,$6,$7,$8,$9,$2,$3,0*
0 Add four circle primitives for the rounded corners*
1,1,$1+$1,$2,$3*
1,1,$1+$1,$4,$5*
1,1,$1+$1,$6,$7*
1,1,$1+$1,$8,$9*
0 Add four rect primitives between the rounded corners*
20,1,$1+$1,$2,$3,$4,$5,0*
20,1,$1+$1,$4,$5,$6,$7,0*
20,1,$1+$1,$6,$7,$8,$9,0*
20,1,$1+$1,$8,$9,$2,$3,0*%
G04 Aperture macros list end*
%ADD10C,0.000000*%
%ADD11C,0.150000*%
%ADD12C,0.120000*%
%ADD13C,0.254000*%
%ADD14RoundRect,0.140000X0.140000X0.170000X-0.140000X0.170000X-0.140000X-0.170000X0.140000X-0.170000X0*%
%ADD15RoundRect,0.135000X0.185000X-0.135000X0.185000X0.135000X-0.185000X0.135000X-0.185000X-0.135000X0*%
%ADD16R,1.400000X2.800000*%
%ADD17O,1.400000X2.500000*%
%ADD18RoundRect,0.135000X-0.135000X-0.185000X0.135000X-0.185000X0.135000X0.185000X-0.135000X0.185000X0*%
%ADD19RoundRect,0.093750X-0.093750X0.156250X-0.093750X-0.156250X0.093750X-0.156250X0.093750X0.156250X0*%
%ADD20RoundRect,0.075000X-0.075000X0.250000X-0.075000X-0.250000X0.075000X-0.250000X0.075000X0.250000X0*%
%ADD21RoundRect,0.140000X0.170000X-0.140000X0.170000X0.140000X-0.170000X0.140000X-0.170000X-0.140000X0*%
%ADD22RoundRect,0.140000X-0.170000X0.140000X-0.170000X-0.140000X0.170000X-0.140000X0.170000X0.140000X0*%
%ADD23RoundRect,0.150000X-0.825000X-0.150000X0.825000X-0.150000X0.825000X0.150000X-0.825000X0.150000X0*%
%ADD24RoundRect,0.250000X-0.475000X0.250000X-0.475000X-0.250000X0.475000X-0.250000X0.475000X0.250000X0*%
%ADD25R,1.050000X0.700000*%
%ADD26RoundRect,0.050000X-0.387500X-0.050000X0.387500X-0.050000X0.387500X0.050000X-0.387500X0.050000X0*%
%ADD27RoundRect,0.050000X-0.050000X-0.387500X0.050000X-0.387500X0.050000X0.387500X-0.050000X0.387500X0*%
%ADD28RoundRect,0.144000X-1.456000X-1.456000X1.456000X-1.456000X1.456000X1.456000X-1.456000X1.456000X0*%
%ADD29RoundRect,0.250000X-0.250000X-0.475000X0.250000X-0.475000X0.250000X0.475000X-0.250000X0.475000X0*%
%ADD30R,1.400000X1.200000*%
%ADD31R,0.700000X1.800000*%
%ADD32R,1.000000X0.800000*%
%ADD33RoundRect,0.140000X-0.140000X-0.170000X0.140000X-0.170000X0.140000X0.170000X-0.140000X0.170000X0*%
%ADD34C,0.650000*%
%ADD35R,0.300000X1.150000*%
%ADD36O,1.000000X2.100000*%
%ADD37O,1.000000X1.600000*%
%ADD38RoundRect,0.135000X-0.185000X0.135000X-0.185000X-0.135000X0.185000X-0.135000X0.185000X0.135000X0*%
%ADD39RoundRect,0.135000X0.135000X0.185000X-0.135000X0.185000X-0.135000X-0.185000X0.135000X-0.185000X0*%
%ADD40R,0.300000X1.200000*%
%ADD41R,3.000000X2.500000*%
%ADD42RoundRect,0.250000X0.475000X-0.250000X0.475000X0.250000X-0.475000X0.250000X-0.475000X-0.250000X0*%
%ADD43RoundRect,0.150000X-0.150000X0.512500X-0.150000X-0.512500X0.150000X-0.512500X0.150000X0.512500X0*%
%ADD44C,1.900000*%
%ADD45C,1.600000*%
%ADD46C,5.050000*%
%ADD47C,3.050000*%
%ADD48RoundRect,0.250000X1.025000X1.000000X-1.025000X1.000000X-1.025000X-1.000000X1.025000X-1.000000X0*%
G04 APERTURE END LIST*
D10*
G36*
X89060914Y-141321823D02*
G01*
X89039369Y-141557297D01*
X88999600Y-141786629D01*
X88942290Y-142009646D01*
X88868121Y-142226175D01*
X88777775Y-142436041D01*
X88671936Y-142639074D01*
X88551286Y-142835098D01*
X88416506Y-143023942D01*
X88268279Y-143205432D01*
X88107289Y-143379395D01*
X87934216Y-143545659D01*
X87749744Y-143704049D01*
X87554555Y-143854393D01*
X87349332Y-143996518D01*
X87134756Y-144130251D01*
X86680279Y-144371847D01*
X86196581Y-144577797D01*
X85689124Y-144746717D01*
X85163367Y-144877222D01*
X84624767Y-144967927D01*
X84078787Y-145017447D01*
X83530883Y-145024399D01*
X82967845Y-144998061D01*
X82397361Y-144948694D01*
X81825919Y-144875570D01*
X81260009Y-144777963D01*
X80706120Y-144655144D01*
X80435710Y-144584053D01*
X80170738Y-144506386D01*
X79912016Y-144422052D01*
X79660354Y-144330961D01*
X79416563Y-144233021D01*
X79181455Y-144128141D01*
X78955841Y-144016232D01*
X78740531Y-143897200D01*
X78536336Y-143770957D01*
X78344069Y-143637410D01*
X78164539Y-143496468D01*
X77998558Y-143348042D01*
X77846937Y-143192039D01*
X77710488Y-143028370D01*
X77590020Y-142856942D01*
X77486345Y-142677665D01*
X77400275Y-142490449D01*
X77332620Y-142295201D01*
X77284191Y-142091832D01*
X77255800Y-141880250D01*
X77248257Y-141660364D01*
X77262374Y-141432083D01*
X77272249Y-141359326D01*
X79833847Y-141359326D01*
X79845299Y-141470071D01*
X79868728Y-141579073D01*
X79903682Y-141686206D01*
X79949710Y-141791341D01*
X80006362Y-141894352D01*
X80073186Y-141995111D01*
X80149730Y-142093492D01*
X80235544Y-142189366D01*
X80433176Y-142373086D01*
X80662473Y-142545254D01*
X80919824Y-142704851D01*
X81201621Y-142850859D01*
X81504254Y-142982260D01*
X81824113Y-143098036D01*
X82157590Y-143197168D01*
X82501075Y-143278637D01*
X82850957Y-143341427D01*
X83203629Y-143384517D01*
X83555480Y-143406891D01*
X83725252Y-143410502D01*
X83891727Y-143409901D01*
X84054793Y-143405082D01*
X84214337Y-143396035D01*
X84370247Y-143382753D01*
X84522411Y-143365227D01*
X84670717Y-143343449D01*
X84815051Y-143317411D01*
X84955302Y-143287105D01*
X85091357Y-143252523D01*
X85223103Y-143213656D01*
X85350429Y-143170497D01*
X85473223Y-143123036D01*
X85591370Y-143071267D01*
X85704760Y-143015181D01*
X85813280Y-142954769D01*
X85916817Y-142890024D01*
X86015259Y-142820937D01*
X86108493Y-142747501D01*
X86196408Y-142669706D01*
X86278891Y-142587546D01*
X86355829Y-142501011D01*
X86427110Y-142410093D01*
X86492622Y-142314786D01*
X86552252Y-142215079D01*
X86605887Y-142110965D01*
X86653417Y-142002436D01*
X86694727Y-141889484D01*
X86729706Y-141772101D01*
X86758242Y-141650278D01*
X86780221Y-141524007D01*
X86795532Y-141393280D01*
X86797600Y-141280974D01*
X86783815Y-141171491D01*
X86754836Y-141064721D01*
X86711322Y-140960558D01*
X86653933Y-140858892D01*
X86583330Y-140759616D01*
X86500170Y-140662622D01*
X86405115Y-140567801D01*
X86181955Y-140384249D01*
X85919127Y-140208094D01*
X85621908Y-140038472D01*
X85295576Y-139874517D01*
X84945406Y-139715367D01*
X84576677Y-139560155D01*
X83804648Y-139258089D01*
X83021705Y-138961403D01*
X82270065Y-138663178D01*
X82143552Y-138712883D01*
X82019803Y-138765784D01*
X81780803Y-138880601D01*
X81553478Y-139006490D01*
X81338242Y-139142316D01*
X81135507Y-139286939D01*
X80945687Y-139439222D01*
X80769194Y-139598029D01*
X80606443Y-139762220D01*
X80457845Y-139930660D01*
X80323815Y-140102209D01*
X80204765Y-140275732D01*
X80101108Y-140450089D01*
X80013258Y-140624144D01*
X79941628Y-140796758D01*
X79886630Y-140966796D01*
X79865497Y-141050492D01*
X79848678Y-141133118D01*
X79834823Y-141246966D01*
X79833847Y-141359326D01*
X77272249Y-141359326D01*
X77288756Y-141237703D01*
X77324751Y-141049679D01*
X77369934Y-140867904D01*
X77423876Y-140692267D01*
X77486152Y-140522660D01*
X77556332Y-140358973D01*
X77633992Y-140201098D01*
X77718702Y-140048925D01*
X77810037Y-139902346D01*
X77907570Y-139761252D01*
X78010872Y-139625533D01*
X78119516Y-139495080D01*
X78233077Y-139369784D01*
X78351126Y-139249537D01*
X78598981Y-139023750D01*
X78859665Y-138816848D01*
X79129761Y-138627958D01*
X79405851Y-138456206D01*
X79684519Y-138300722D01*
X79962346Y-138160632D01*
X80235918Y-138035065D01*
X80501815Y-137923146D01*
X80756622Y-137824005D01*
X80727157Y-137796760D01*
X80698696Y-137769365D01*
X80671308Y-137741811D01*
X80645063Y-137714090D01*
X80620030Y-137686193D01*
X80596279Y-137658109D01*
X80584906Y-137643995D01*
X80573880Y-137629831D01*
X80563209Y-137615616D01*
X80552902Y-137601349D01*
X80471048Y-137472256D01*
X80406678Y-137341799D01*
X80358914Y-137210279D01*
X80326882Y-137077999D01*
X80309707Y-136945260D01*
X80306513Y-136812364D01*
X80316426Y-136679614D01*
X80338570Y-136547312D01*
X80372069Y-136415759D01*
X80416049Y-136285258D01*
X80469634Y-136156110D01*
X80531950Y-136028619D01*
X80602120Y-135903084D01*
X80679270Y-135779810D01*
X80762525Y-135659097D01*
X80851009Y-135541248D01*
X81040163Y-135315350D01*
X81239732Y-135104531D01*
X81442714Y-134911208D01*
X81642106Y-134737797D01*
X81830907Y-134586714D01*
X82002116Y-134460375D01*
X82148730Y-134361197D01*
X82263748Y-134291595D01*
X82295169Y-134101184D01*
X82321400Y-133908867D01*
X82342389Y-133714786D01*
X82358088Y-133519083D01*
X82368445Y-133321900D01*
X82373411Y-133123377D01*
X82372935Y-132923658D01*
X82366968Y-132722883D01*
X82355459Y-132521195D01*
X82338358Y-132318735D01*
X82315616Y-132115645D01*
X82287182Y-131912066D01*
X82253005Y-131708141D01*
X82213037Y-131504011D01*
X82167227Y-131299818D01*
X82115524Y-131095703D01*
X82053271Y-130876541D01*
X81984965Y-130660772D01*
X81910766Y-130448509D01*
X81830837Y-130239868D01*
X81745338Y-130034964D01*
X81654433Y-129833910D01*
X81558281Y-129636823D01*
X81457046Y-129443817D01*
X81521451Y-129285803D01*
X81590536Y-129132829D01*
X81742279Y-128841969D01*
X81911341Y-128571170D01*
X82096785Y-128320361D01*
X82297675Y-128089474D01*
X82513077Y-127878441D01*
X82742055Y-127687192D01*
X82983673Y-127515659D01*
X83236995Y-127363774D01*
X83501086Y-127231466D01*
X83775010Y-127118668D01*
X84057832Y-127025310D01*
X84348616Y-126951324D01*
X84646426Y-126896641D01*
X84950327Y-126861193D01*
X85259384Y-126844910D01*
X85307106Y-126844080D01*
X85354919Y-126843685D01*
X85402824Y-126843742D01*
X85450820Y-126844269D01*
X85619483Y-126849675D01*
X85789054Y-126860550D01*
X85959386Y-126876880D01*
X86130331Y-126898647D01*
X86301741Y-126925838D01*
X86473469Y-126958437D01*
X86645369Y-126996427D01*
X86817291Y-127039795D01*
X86900675Y-127064289D01*
X86983606Y-127092885D01*
X87065942Y-127125430D01*
X87147543Y-127161768D01*
X87307971Y-127245211D01*
X87463758Y-127341982D01*
X87613773Y-127450849D01*
X87756884Y-127570581D01*
X87891960Y-127699945D01*
X88017869Y-127837709D01*
X88133481Y-127982642D01*
X88237663Y-128133512D01*
X88329284Y-128289086D01*
X88407212Y-128448133D01*
X88440688Y-128528573D01*
X88470316Y-128609420D01*
X88495956Y-128690519D01*
X88517465Y-128771716D01*
X88534703Y-128852857D01*
X88547528Y-128933789D01*
X88555798Y-129014356D01*
X88559371Y-129094406D01*
X86963623Y-130590485D01*
X86957380Y-130518270D01*
X86948706Y-130448077D01*
X86937697Y-130379905D01*
X86924451Y-130313749D01*
X86909066Y-130249608D01*
X86891638Y-130187480D01*
X86872264Y-130127362D01*
X86851043Y-130069251D01*
X86828072Y-130013146D01*
X86803448Y-129959044D01*
X86777268Y-129906942D01*
X86749629Y-129856838D01*
X86720630Y-129808730D01*
X86690367Y-129762616D01*
X86658938Y-129718492D01*
X86626440Y-129676357D01*
X86592970Y-129636208D01*
X86558626Y-129598043D01*
X86523505Y-129561860D01*
X86487705Y-129527655D01*
X86451323Y-129495427D01*
X86414456Y-129465173D01*
X86377202Y-129436891D01*
X86339657Y-129410579D01*
X86264087Y-129363852D01*
X86188526Y-129324975D01*
X86113751Y-129293928D01*
X86040542Y-129270691D01*
X85934691Y-129244591D01*
X85829672Y-129223197D01*
X85725595Y-129206468D01*
X85622567Y-129194362D01*
X85520697Y-129186840D01*
X85420094Y-129183861D01*
X85320866Y-129185383D01*
X85223122Y-129191366D01*
X85126970Y-129201770D01*
X85032520Y-129216553D01*
X84939879Y-129235676D01*
X84849156Y-129259097D01*
X84760459Y-129286775D01*
X84673898Y-129318670D01*
X84589581Y-129354742D01*
X84507616Y-129394949D01*
X84428111Y-129439251D01*
X84351177Y-129487607D01*
X84276920Y-129539976D01*
X84205450Y-129596318D01*
X84136875Y-129656592D01*
X84071303Y-129720757D01*
X84008844Y-129788773D01*
X83949606Y-129860599D01*
X83893697Y-129936194D01*
X83841226Y-130015517D01*
X83792301Y-130098528D01*
X83747031Y-130185186D01*
X83705525Y-130275450D01*
X83667892Y-130369280D01*
X83634239Y-130466635D01*
X83604675Y-130567474D01*
X83571140Y-130703061D01*
X83543689Y-130836537D01*
X83522239Y-130967823D01*
X83506707Y-131096842D01*
X83497009Y-131223516D01*
X83493062Y-131347767D01*
X83494782Y-131469516D01*
X83502085Y-131588686D01*
X83514889Y-131705199D01*
X83533109Y-131818977D01*
X83556663Y-131929942D01*
X83585467Y-132038016D01*
X83619437Y-132143120D01*
X83658490Y-132245178D01*
X83702542Y-132344111D01*
X83751510Y-132439840D01*
X83805311Y-132532289D01*
X83863860Y-132621379D01*
X83927075Y-132707032D01*
X83994872Y-132789170D01*
X84067168Y-132867716D01*
X84143879Y-132942590D01*
X84224921Y-133013716D01*
X84310212Y-133081015D01*
X84399667Y-133144410D01*
X84493203Y-133203822D01*
X84590737Y-133259173D01*
X84692185Y-133310385D01*
X84797465Y-133357381D01*
X84906491Y-133400083D01*
X85019181Y-133438412D01*
X85135452Y-133472290D01*
X85253328Y-133501580D01*
X85370807Y-133526142D01*
X85487758Y-133545893D01*
X85604052Y-133560749D01*
X85719557Y-133570625D01*
X85834145Y-133575439D01*
X85947683Y-133575105D01*
X86060044Y-133569540D01*
X86171095Y-133558660D01*
X86280708Y-133542382D01*
X86388751Y-133520621D01*
X86495095Y-133493293D01*
X86599609Y-133460315D01*
X86702163Y-133421602D01*
X86802627Y-133377071D01*
X86900871Y-133326637D01*
X86996764Y-133270218D01*
X87090177Y-133207728D01*
X87180978Y-133139085D01*
X87269039Y-133064203D01*
X87354228Y-132983000D01*
X87436416Y-132895391D01*
X87515471Y-132801293D01*
X87591265Y-132700621D01*
X87663667Y-132593291D01*
X87732546Y-132479221D01*
X87797773Y-132358324D01*
X87859217Y-132230519D01*
X87916747Y-132095721D01*
X87970235Y-131953846D01*
X88019549Y-131804810D01*
X88064559Y-131648529D01*
X88177544Y-131239053D01*
X88292753Y-130848166D01*
X88410720Y-130476528D01*
X88531977Y-130124799D01*
X88657055Y-129793640D01*
X88786487Y-129483711D01*
X88920806Y-129195673D01*
X88989964Y-129060069D01*
X89060543Y-128930185D01*
X89132609Y-128806104D01*
X89206230Y-128687909D01*
X89281471Y-128575681D01*
X89358400Y-128469503D01*
X89437083Y-128369458D01*
X89517585Y-128275629D01*
X89599975Y-128188098D01*
X89684318Y-128106947D01*
X89770680Y-128032259D01*
X89859129Y-127964117D01*
X89949731Y-127902602D01*
X90042552Y-127847799D01*
X90137660Y-127799789D01*
X90235119Y-127758654D01*
X90334998Y-127724478D01*
X90437362Y-127697342D01*
X91369583Y-130069824D01*
X91285067Y-130124558D01*
X91206497Y-130192072D01*
X91133314Y-130271949D01*
X91064961Y-130363768D01*
X91000882Y-130467109D01*
X90940520Y-130581553D01*
X90883317Y-130706679D01*
X90828716Y-130842068D01*
X90776160Y-130987300D01*
X90725093Y-131141955D01*
X90625194Y-131477855D01*
X90418746Y-132244263D01*
X90334100Y-132538219D01*
X90240704Y-132819736D01*
X90138783Y-133088899D01*
X90028562Y-133345794D01*
X89910264Y-133590506D01*
X89784115Y-133823122D01*
X89650338Y-134043726D01*
X89509159Y-134252405D01*
X89360800Y-134449244D01*
X89205488Y-134634329D01*
X89043445Y-134807745D01*
X88874897Y-134969578D01*
X88700068Y-135119913D01*
X88519181Y-135258837D01*
X88332463Y-135386434D01*
X88140136Y-135502791D01*
X87942426Y-135607992D01*
X87739556Y-135702124D01*
X87531751Y-135785273D01*
X87319236Y-135857523D01*
X87102234Y-135918961D01*
X86880971Y-135969672D01*
X86655669Y-136009742D01*
X86426555Y-136039256D01*
X86193852Y-136058300D01*
X85957785Y-136066960D01*
X85476454Y-136053468D01*
X84984358Y-135999467D01*
X84483291Y-135905640D01*
X84385256Y-135882527D01*
X84288510Y-135857599D01*
X84193027Y-135830914D01*
X84098781Y-135802532D01*
X84005747Y-135772512D01*
X83913899Y-135740913D01*
X83823211Y-135707796D01*
X83733657Y-135673218D01*
X83517705Y-135872439D01*
X83357110Y-136059211D01*
X83248793Y-136234482D01*
X83189677Y-136399202D01*
X83176681Y-136554320D01*
X83206727Y-136700784D01*
X83276737Y-136839544D01*
X83383630Y-136971549D01*
X83524330Y-137097747D01*
X83695756Y-137219087D01*
X84118473Y-137450991D01*
X84627150Y-137674851D01*
X85197156Y-137898260D01*
X86422636Y-138374091D01*
X87028847Y-138641695D01*
X87597864Y-138939215D01*
X87860728Y-139101565D01*
X88105058Y-139274241D01*
X88327773Y-139458192D01*
X88525796Y-139654366D01*
X88696047Y-139863713D01*
X88835448Y-140087180D01*
X88940920Y-140325719D01*
X89009384Y-140580277D01*
X89046604Y-140833139D01*
X89063553Y-141080379D01*
X89061360Y-141280974D01*
X89060914Y-141321823D01*
G37*
G36*
X75495357Y-117295378D02*
G01*
X75564418Y-117376317D01*
X75627691Y-117462932D01*
X75685291Y-117555124D01*
X75737332Y-117652792D01*
X75783927Y-117755837D01*
X75825191Y-117864160D01*
X75861237Y-117977660D01*
X75892180Y-118096239D01*
X75918134Y-118219796D01*
X75939213Y-118348233D01*
X75955530Y-118481449D01*
X75974339Y-118761819D01*
X75975471Y-119060112D01*
X75959840Y-119375529D01*
X75928358Y-119707274D01*
X75881937Y-120054550D01*
X75821490Y-120416558D01*
X75747929Y-120792504D01*
X75662166Y-121181588D01*
X75565115Y-121583015D01*
X75457687Y-121995987D01*
X74807413Y-124449764D01*
X74379338Y-126051238D01*
X73915451Y-127751709D01*
X73247189Y-130187981D01*
X72943071Y-131337402D01*
X72676321Y-132400177D01*
X72459958Y-133345679D01*
X72307003Y-134143280D01*
X72258371Y-134477047D01*
X72230474Y-134762353D01*
X72224939Y-134995371D01*
X72243392Y-135172272D01*
X72262202Y-135242452D01*
X72287043Y-135304246D01*
X72317481Y-135358057D01*
X72353082Y-135404289D01*
X72393411Y-135443346D01*
X72438033Y-135475632D01*
X72486513Y-135501551D01*
X72538417Y-135521506D01*
X72593310Y-135535902D01*
X72650756Y-135545143D01*
X72710323Y-135549632D01*
X72771573Y-135549773D01*
X72834074Y-135545970D01*
X72897390Y-135538627D01*
X73024728Y-135514936D01*
X73150111Y-135481933D01*
X73270059Y-135442846D01*
X73381096Y-135400909D01*
X73479743Y-135359350D01*
X73625956Y-135290297D01*
X73680877Y-135261536D01*
X74706832Y-137243759D01*
X74521211Y-137342174D01*
X74306246Y-137446125D01*
X74025012Y-137569625D01*
X73688885Y-137699961D01*
X73309239Y-137824423D01*
X72897450Y-137930299D01*
X72683057Y-137972296D01*
X72464893Y-138004879D01*
X72244381Y-138026460D01*
X72022942Y-138035451D01*
X71801999Y-138030261D01*
X71582974Y-138009303D01*
X71367288Y-137970988D01*
X71156363Y-137913726D01*
X70951621Y-137835928D01*
X70754484Y-137736007D01*
X70566374Y-137612372D01*
X70388712Y-137463435D01*
X70222922Y-137287607D01*
X70070424Y-137083300D01*
X69932640Y-136848924D01*
X69810993Y-136582890D01*
X69706904Y-136283609D01*
X69621795Y-135949493D01*
X69581754Y-135662062D01*
X69570971Y-135320477D01*
X69587529Y-134928410D01*
X69629507Y-134489529D01*
X69694990Y-134007506D01*
X69782058Y-133486011D01*
X69888794Y-132928713D01*
X70013278Y-132339283D01*
X70307823Y-131078708D01*
X70650347Y-129733648D01*
X71417953Y-126907517D01*
X71830754Y-125391641D01*
X72225334Y-123907700D01*
X72922439Y-121281509D01*
X72922424Y-121281509D01*
X73134421Y-120488682D01*
X73222611Y-120121033D01*
X73259439Y-119946425D01*
X73290349Y-119778732D01*
X73314539Y-119618533D01*
X73331202Y-119466406D01*
X73339536Y-119322930D01*
X73338735Y-119188683D01*
X73327995Y-119064243D01*
X73306513Y-118950189D01*
X73273484Y-118847100D01*
X73252388Y-118799848D01*
X73228103Y-118755554D01*
X75420394Y-117220215D01*
X75495357Y-117295378D01*
G37*
G36*
X50845148Y-133731113D02*
G01*
X51156545Y-134402199D01*
X51472046Y-134945809D01*
X51632081Y-135162366D01*
X51794036Y-135338120D01*
X51870448Y-135403088D01*
X51950056Y-135456942D01*
X52032492Y-135500276D01*
X52117388Y-135533683D01*
X52204375Y-135557758D01*
X52293084Y-135573092D01*
X52383146Y-135580281D01*
X52474193Y-135579917D01*
X52565856Y-135572595D01*
X52657765Y-135558907D01*
X52749553Y-135539448D01*
X52840851Y-135514810D01*
X53020500Y-135452376D01*
X53193763Y-135376352D01*
X53357690Y-135291488D01*
X53509330Y-135202533D01*
X53645735Y-135114234D01*
X53763954Y-135031341D01*
X53934034Y-134900767D01*
X53995971Y-134848801D01*
X55382369Y-136642960D01*
X55242926Y-136746516D01*
X55077926Y-136861367D01*
X54857677Y-137005293D01*
X54588381Y-137168563D01*
X54276242Y-137341449D01*
X53927460Y-137514219D01*
X53548240Y-137677143D01*
X53349154Y-137751873D01*
X53144784Y-137820492D01*
X52935905Y-137881785D01*
X52723293Y-137934536D01*
X52507723Y-137977527D01*
X52289971Y-138009544D01*
X52070812Y-138029368D01*
X51851020Y-138035786D01*
X51631372Y-138027579D01*
X51412643Y-138003532D01*
X51195608Y-137962429D01*
X50981042Y-137903053D01*
X50769721Y-137824188D01*
X50562420Y-137724617D01*
X50359914Y-137603126D01*
X50162979Y-137458496D01*
X50064566Y-137375479D01*
X49967628Y-137286726D01*
X49872140Y-137192408D01*
X49778082Y-137092696D01*
X49685429Y-136987763D01*
X49594159Y-136877780D01*
X49504249Y-136762918D01*
X49415676Y-136643349D01*
X49328417Y-136519244D01*
X49242450Y-136390776D01*
X49157751Y-136258116D01*
X49074298Y-136121434D01*
X48992068Y-135980904D01*
X48911038Y-135836696D01*
X48831185Y-135688982D01*
X48752487Y-135537933D01*
X48613579Y-135718359D01*
X48368956Y-135959926D01*
X48031084Y-136245403D01*
X47612428Y-136557560D01*
X47125455Y-136879169D01*
X46582631Y-137192998D01*
X45996423Y-137481818D01*
X45690946Y-137611465D01*
X45379297Y-137728399D01*
X45063035Y-137830466D01*
X44743718Y-137915512D01*
X44422905Y-137981383D01*
X44102154Y-138025926D01*
X43783023Y-138046987D01*
X43467071Y-138042412D01*
X43155855Y-138010047D01*
X42850934Y-137947739D01*
X42553866Y-137853334D01*
X42266210Y-137724679D01*
X41989524Y-137559619D01*
X41725365Y-137356000D01*
X41475294Y-137111670D01*
X41240867Y-136824474D01*
X41023642Y-136492258D01*
X40825180Y-136112869D01*
X40749499Y-135930508D01*
X40686585Y-135735037D01*
X40636788Y-135527558D01*
X40600461Y-135309171D01*
X40577956Y-135080976D01*
X40569626Y-134844075D01*
X40575822Y-134599569D01*
X40588829Y-134444653D01*
X43239807Y-134444653D01*
X43244733Y-134557053D01*
X43259220Y-134662401D01*
X43283204Y-134759913D01*
X43316619Y-134848801D01*
X43389353Y-134985794D01*
X43474335Y-135103665D01*
X43570766Y-135203108D01*
X43677851Y-135284814D01*
X43794791Y-135349476D01*
X43920790Y-135397787D01*
X44055050Y-135430439D01*
X44196773Y-135448124D01*
X44345163Y-135451536D01*
X44499422Y-135441367D01*
X44658753Y-135418309D01*
X44822358Y-135383054D01*
X44989441Y-135336296D01*
X45159203Y-135278727D01*
X45330848Y-135211040D01*
X45503578Y-135133926D01*
X45676595Y-135048079D01*
X45849104Y-134954192D01*
X46189403Y-134745063D01*
X46518097Y-134512082D01*
X46828807Y-134260788D01*
X47115154Y-133996721D01*
X47370760Y-133725422D01*
X47485042Y-133588792D01*
X47589247Y-133452431D01*
X47682578Y-133317032D01*
X47764236Y-133183289D01*
X47622333Y-132777291D01*
X47498201Y-132403994D01*
X47248474Y-131625900D01*
X46959214Y-131616611D01*
X46681342Y-131622278D01*
X46414790Y-131642117D01*
X46159495Y-131675342D01*
X45915391Y-131721165D01*
X45682413Y-131778802D01*
X45460496Y-131847466D01*
X45249574Y-131926371D01*
X45049582Y-132014731D01*
X44860456Y-132111761D01*
X44682129Y-132216673D01*
X44514537Y-132328683D01*
X44357615Y-132447004D01*
X44211297Y-132570849D01*
X44075518Y-132699434D01*
X43950214Y-132831972D01*
X43835318Y-132967677D01*
X43730766Y-133105763D01*
X43636492Y-133245444D01*
X43552432Y-133385934D01*
X43478520Y-133526447D01*
X43414691Y-133666196D01*
X43317020Y-133940263D01*
X43283049Y-134073007D01*
X43258899Y-134201844D01*
X43244507Y-134325988D01*
X43239807Y-134444653D01*
X40588829Y-134444653D01*
X40596897Y-134348559D01*
X40633203Y-134092144D01*
X40685093Y-133831427D01*
X40752917Y-133567508D01*
X40837030Y-133301487D01*
X40937783Y-133034466D01*
X41055527Y-132767545D01*
X41190617Y-132501826D01*
X41343402Y-132238409D01*
X41514237Y-131978395D01*
X41703473Y-131722885D01*
X41911462Y-131472979D01*
X42138556Y-131229779D01*
X42385109Y-130994385D01*
X42651471Y-130767898D01*
X42937995Y-130551419D01*
X43245034Y-130346049D01*
X43572940Y-130152889D01*
X43922064Y-129973039D01*
X44292760Y-129807600D01*
X44685378Y-129657674D01*
X45100273Y-129524361D01*
X45537795Y-129408761D01*
X45998297Y-129311977D01*
X46482131Y-129235107D01*
X46337926Y-128834673D01*
X46187346Y-128443992D01*
X46032531Y-128072918D01*
X45875619Y-127731308D01*
X45797046Y-127574632D01*
X45718752Y-127429017D01*
X45641003Y-127295696D01*
X45564067Y-127175900D01*
X45488212Y-127070863D01*
X45413705Y-126981814D01*
X45340814Y-126909987D01*
X45269805Y-126856613D01*
X46085342Y-124246918D01*
X46326390Y-124302763D01*
X46560414Y-124407147D01*
X46787714Y-124557093D01*
X47008586Y-124749621D01*
X47223330Y-124981754D01*
X47432242Y-125250514D01*
X47635622Y-125552923D01*
X47833768Y-125886002D01*
X48215547Y-126632261D01*
X48579967Y-127465465D01*
X48929410Y-128361791D01*
X49266263Y-129297413D01*
X49911738Y-131191249D01*
X50535472Y-132956377D01*
X50626173Y-133183289D01*
X50845148Y-133731113D01*
G37*
G36*
X57081692Y-117320373D02*
G01*
X57150754Y-117401311D01*
X57271627Y-117580113D01*
X57370260Y-117780817D01*
X57447566Y-118002627D01*
X57504457Y-118244748D01*
X57541847Y-118506382D01*
X57560648Y-118786733D01*
X57561773Y-119085005D01*
X57546134Y-119400401D01*
X57514644Y-119732126D01*
X57468216Y-120079382D01*
X57407762Y-120441374D01*
X57334195Y-120817305D01*
X57248428Y-121206378D01*
X57043945Y-122020767D01*
X56393718Y-124474545D01*
X55501815Y-127776489D01*
X55202529Y-128867020D01*
X55682801Y-128496576D01*
X56165823Y-128161793D01*
X56649083Y-127863189D01*
X57130069Y-127601281D01*
X57606271Y-127376588D01*
X58075176Y-127189628D01*
X58306107Y-127110460D01*
X58534273Y-127040919D01*
X58759358Y-126981071D01*
X58981050Y-126930981D01*
X59199034Y-126890712D01*
X59412996Y-126860330D01*
X59622622Y-126839899D01*
X59827598Y-126829485D01*
X60027611Y-126829152D01*
X60222347Y-126838965D01*
X60411490Y-126858989D01*
X60594729Y-126889287D01*
X60771748Y-126929927D01*
X60942233Y-126980971D01*
X61105871Y-127042485D01*
X61262348Y-127114533D01*
X61411349Y-127197181D01*
X61552562Y-127290493D01*
X61685671Y-127394534D01*
X61810363Y-127509369D01*
X61941651Y-127653271D01*
X62058585Y-127807920D01*
X62161305Y-127972840D01*
X62249952Y-128147555D01*
X62324665Y-128331588D01*
X62385584Y-128524463D01*
X62432849Y-128725702D01*
X62466599Y-128934830D01*
X62486975Y-129151371D01*
X62494116Y-129374847D01*
X62488161Y-129604782D01*
X62469252Y-129840699D01*
X62393127Y-130328576D01*
X62266859Y-130834665D01*
X62091566Y-131355155D01*
X61868367Y-131886233D01*
X61598381Y-132424088D01*
X61282726Y-132964907D01*
X60922520Y-133504879D01*
X60518882Y-134040191D01*
X60072931Y-134567031D01*
X59585784Y-135081589D01*
X59294613Y-135362726D01*
X58996926Y-135631000D01*
X58693575Y-135886207D01*
X58385408Y-136128144D01*
X58073276Y-136356608D01*
X57758030Y-136571396D01*
X57440519Y-136772305D01*
X57121595Y-136959131D01*
X56802107Y-137131672D01*
X56482905Y-137289724D01*
X56164840Y-137433084D01*
X55848761Y-137561549D01*
X55535520Y-137674915D01*
X55225966Y-137772980D01*
X54920950Y-137855541D01*
X54621322Y-137922394D01*
X54609816Y-137924544D01*
X54598167Y-137926501D01*
X54574611Y-137930077D01*
X54550992Y-137933595D01*
X54539265Y-137935481D01*
X54527648Y-137937531D01*
X54665743Y-137864429D01*
X54797600Y-137791743D01*
X54922850Y-137720065D01*
X55041125Y-137649989D01*
X55152055Y-137582108D01*
X55255273Y-137517015D01*
X55350410Y-137455306D01*
X55437097Y-137397572D01*
X55583648Y-137296405D01*
X55691978Y-137218265D01*
X55782180Y-137150055D01*
X56284545Y-136753967D01*
X55200332Y-135350906D01*
X55346905Y-135283947D01*
X55497972Y-135208630D01*
X55653172Y-135125138D01*
X55812149Y-135033654D01*
X55974542Y-134934363D01*
X56139993Y-134827446D01*
X56308143Y-134713089D01*
X56478633Y-134591473D01*
X56651106Y-134462782D01*
X56825201Y-134327199D01*
X57000560Y-134184908D01*
X57176824Y-134036092D01*
X57353635Y-133880934D01*
X57530633Y-133719617D01*
X57707461Y-133552326D01*
X57883758Y-133379242D01*
X58186355Y-133066614D01*
X58470362Y-132753165D01*
X58734753Y-132440897D01*
X58978506Y-132131809D01*
X59200597Y-131827902D01*
X59400001Y-131531177D01*
X59575695Y-131243634D01*
X59726654Y-130967274D01*
X59851854Y-130704097D01*
X59904475Y-130578077D01*
X59950272Y-130456104D01*
X59989117Y-130338426D01*
X60020883Y-130225295D01*
X60045442Y-130116959D01*
X60062664Y-130013670D01*
X60072424Y-129915678D01*
X60074591Y-129823232D01*
X60069039Y-129736582D01*
X60055639Y-129655979D01*
X60034264Y-129581672D01*
X60004785Y-129513912D01*
X59967075Y-129452949D01*
X59921005Y-129399033D01*
X59904104Y-129383011D01*
X59886354Y-129367864D01*
X59867759Y-129353596D01*
X59848325Y-129340208D01*
X59828055Y-129327702D01*
X59806956Y-129316080D01*
X59785031Y-129305344D01*
X59762287Y-129295496D01*
X59738727Y-129286538D01*
X59714357Y-129278472D01*
X59689183Y-129271299D01*
X59663208Y-129265023D01*
X59636438Y-129259645D01*
X59608878Y-129255166D01*
X59580532Y-129251589D01*
X59551406Y-129248917D01*
X59396824Y-129248879D01*
X59227156Y-129270470D01*
X59043603Y-129312962D01*
X58847367Y-129375628D01*
X58639649Y-129457741D01*
X58421650Y-129558571D01*
X58194571Y-129677392D01*
X57959613Y-129813477D01*
X57717979Y-129966096D01*
X57470868Y-130134523D01*
X57219482Y-130318030D01*
X56965023Y-130515889D01*
X56708691Y-130727373D01*
X56451689Y-130951754D01*
X56195216Y-131188303D01*
X55940475Y-131436295D01*
X55781015Y-131598499D01*
X55626503Y-131761153D01*
X55477072Y-131923979D01*
X55332858Y-132086701D01*
X55193997Y-132249045D01*
X55060623Y-132410733D01*
X54932871Y-132571489D01*
X54810876Y-132731037D01*
X54694774Y-132889102D01*
X54584700Y-133045407D01*
X54480788Y-133199675D01*
X54383174Y-133351632D01*
X54291992Y-133501001D01*
X54207378Y-133647505D01*
X54129468Y-133790869D01*
X54058395Y-133930817D01*
X53568008Y-134365387D01*
X53515237Y-134408654D01*
X53453733Y-134456566D01*
X53372779Y-134516508D01*
X53275349Y-134584366D01*
X53164415Y-134656025D01*
X53104813Y-134691993D01*
X53042949Y-134727368D01*
X52979196Y-134761636D01*
X52913925Y-134794281D01*
X52880959Y-134809723D01*
X52848031Y-134824369D01*
X52815237Y-134838200D01*
X52782678Y-134851196D01*
X52750451Y-134863338D01*
X52718657Y-134874606D01*
X52687394Y-134884981D01*
X52656761Y-134894444D01*
X52626856Y-134902973D01*
X52597780Y-134910552D01*
X52569630Y-134917158D01*
X52542505Y-134922774D01*
X52516505Y-134927379D01*
X52491729Y-134930954D01*
X52468275Y-134933480D01*
X52446243Y-134934937D01*
X52425922Y-134935694D01*
X52407412Y-134936088D01*
X52390534Y-134936058D01*
X52375109Y-134935542D01*
X52360958Y-134934481D01*
X52354304Y-134933727D01*
X52347901Y-134932813D01*
X52341727Y-134931732D01*
X52335759Y-134930477D01*
X52329976Y-134929039D01*
X52324354Y-134927412D01*
X52318871Y-134925587D01*
X52313505Y-134923557D01*
X52308234Y-134921315D01*
X52303034Y-134918852D01*
X52297885Y-134916161D01*
X52292762Y-134913235D01*
X52287645Y-134910065D01*
X52282510Y-134906645D01*
X52272098Y-134899021D01*
X52261347Y-134890303D01*
X52250079Y-134880429D01*
X52238113Y-134869339D01*
X52199791Y-134829988D01*
X52158755Y-134782013D01*
X52115180Y-134725695D01*
X52069239Y-134661315D01*
X51970955Y-134509499D01*
X51865295Y-134328819D01*
X51753649Y-134121529D01*
X51637410Y-133889882D01*
X51517967Y-133636132D01*
X51396713Y-133362534D01*
X51534797Y-132669502D01*
X51697658Y-131931762D01*
X51881887Y-131155847D01*
X52084072Y-130348288D01*
X52528661Y-128664366D01*
X53004135Y-126932251D01*
X53416948Y-125416411D01*
X53811569Y-123932549D01*
X54508728Y-121306473D01*
X54618523Y-120902008D01*
X54720725Y-120513626D01*
X54808903Y-120145959D01*
X54845723Y-119971340D01*
X54876625Y-119803637D01*
X54900804Y-119643427D01*
X54917458Y-119491290D01*
X54925782Y-119347804D01*
X54924972Y-119213549D01*
X54914224Y-119089104D01*
X54904873Y-119030740D01*
X54892735Y-118975046D01*
X54877711Y-118922094D01*
X54859700Y-118871956D01*
X54838602Y-118824704D01*
X54814315Y-118780411D01*
X57006729Y-117245209D01*
X57081692Y-117320373D01*
G37*
G36*
X81719001Y-133252304D02*
G01*
X81711287Y-133416877D01*
X81699439Y-133580744D01*
X81683451Y-133743794D01*
X81663314Y-133905914D01*
X81515334Y-134009795D01*
X81358318Y-134128368D01*
X81194356Y-134261507D01*
X81110423Y-134333498D01*
X81025537Y-134409082D01*
X80939960Y-134488244D01*
X80853952Y-134570967D01*
X80767776Y-134657235D01*
X80681692Y-134747031D01*
X80595962Y-134840341D01*
X80510847Y-134937149D01*
X80426607Y-135037437D01*
X80343505Y-135141190D01*
X80239706Y-135278880D01*
X80189314Y-135349824D01*
X80140151Y-135422202D01*
X80092384Y-135496038D01*
X80046182Y-135571358D01*
X80001712Y-135648188D01*
X79959142Y-135726553D01*
X79918640Y-135806478D01*
X79880373Y-135887990D01*
X79844509Y-135971113D01*
X79811216Y-136055872D01*
X79780661Y-136142294D01*
X79753013Y-136230404D01*
X79728439Y-136320227D01*
X79707107Y-136411789D01*
X79696289Y-136466893D01*
X79687130Y-136522675D01*
X79679640Y-136579079D01*
X79673830Y-136636049D01*
X79669707Y-136693529D01*
X79667284Y-136751462D01*
X79666569Y-136809793D01*
X79667572Y-136868465D01*
X79670303Y-136927423D01*
X79674771Y-136986609D01*
X79680988Y-137045967D01*
X79688962Y-137105443D01*
X79698704Y-137164978D01*
X79710223Y-137224517D01*
X79723529Y-137284005D01*
X79738632Y-137343384D01*
X79669917Y-137391282D01*
X79600399Y-137437554D01*
X79530095Y-137482191D01*
X79459024Y-137525185D01*
X79387204Y-137566526D01*
X79314652Y-137606206D01*
X79241387Y-137644217D01*
X79167427Y-137680550D01*
X79092789Y-137715196D01*
X79017491Y-137748147D01*
X78941553Y-137779394D01*
X78864991Y-137808929D01*
X78787824Y-137836744D01*
X78710070Y-137862828D01*
X78631746Y-137887175D01*
X78552871Y-137909775D01*
X78369890Y-137953771D01*
X78185286Y-137988291D01*
X77999298Y-138013366D01*
X77812165Y-138029031D01*
X77624128Y-138035318D01*
X77435426Y-138032261D01*
X77246297Y-138019893D01*
X77056982Y-137998247D01*
X76867719Y-137967357D01*
X76678748Y-137927256D01*
X76490310Y-137877976D01*
X76302642Y-137819552D01*
X76115984Y-137752016D01*
X75930576Y-137675402D01*
X75746658Y-137589743D01*
X75564468Y-137495071D01*
X73948547Y-134373901D01*
X73733547Y-134500860D01*
X73639834Y-134554218D01*
X73543203Y-134607556D01*
X73450188Y-134656541D01*
X73367324Y-134696838D01*
X73338471Y-134709868D01*
X73310997Y-134721916D01*
X73284527Y-134733055D01*
X73258682Y-134743357D01*
X73233086Y-134752892D01*
X73207362Y-134761733D01*
X73181133Y-134769951D01*
X73154022Y-134777618D01*
X73123136Y-134784261D01*
X73093886Y-134787136D01*
X73079914Y-134787122D01*
X73066400Y-134786118D01*
X73053360Y-134784109D01*
X73040809Y-134781079D01*
X73028764Y-134777012D01*
X73017242Y-134771892D01*
X73006258Y-134765703D01*
X72995828Y-134758429D01*
X72985970Y-134750055D01*
X72976698Y-134740564D01*
X72968030Y-134729940D01*
X72959981Y-134718168D01*
X72952568Y-134705232D01*
X72945807Y-134691116D01*
X72939714Y-134675803D01*
X72934305Y-134659279D01*
X72929596Y-134641526D01*
X72925604Y-134622530D01*
X72919835Y-134580742D01*
X72917127Y-134533788D01*
X72917609Y-134481541D01*
X72921412Y-134423873D01*
X72928665Y-134360657D01*
X72935846Y-134306084D01*
X72939722Y-134278143D01*
X72944412Y-134247757D01*
X72974385Y-134073424D01*
X73009071Y-133887045D01*
X73091730Y-133480715D01*
X73190688Y-133033899D01*
X73304244Y-132551727D01*
X73508340Y-131738668D01*
X74776221Y-131738668D01*
X74782024Y-132049507D01*
X74810512Y-132367728D01*
X74862338Y-132691449D01*
X74938156Y-133018784D01*
X74984691Y-133181296D01*
X75036158Y-133340190D01*
X75092368Y-133495302D01*
X75153132Y-133646470D01*
X75218263Y-133793529D01*
X75287571Y-133936318D01*
X75360867Y-134074673D01*
X75437964Y-134208430D01*
X75518673Y-134337426D01*
X75602805Y-134461499D01*
X75690172Y-134580486D01*
X75780585Y-134694222D01*
X75873856Y-134802545D01*
X75969796Y-134905291D01*
X76068217Y-135002298D01*
X76168930Y-135093403D01*
X76271746Y-135178442D01*
X76376477Y-135257251D01*
X76482935Y-135329669D01*
X76590931Y-135395531D01*
X76700276Y-135454675D01*
X76810782Y-135506937D01*
X76922261Y-135552154D01*
X77034523Y-135590164D01*
X77147381Y-135620802D01*
X77260645Y-135643906D01*
X77374128Y-135659313D01*
X77487640Y-135666859D01*
X77600994Y-135666381D01*
X77714000Y-135657716D01*
X77826471Y-135640701D01*
X77938217Y-135615173D01*
X78047735Y-135581388D01*
X78153624Y-135539870D01*
X78255802Y-135490855D01*
X78354188Y-135434579D01*
X78448700Y-135371276D01*
X78539257Y-135301182D01*
X78625776Y-135224534D01*
X78708177Y-135141566D01*
X78786377Y-135052514D01*
X78860295Y-134957613D01*
X78994958Y-134751208D01*
X79111512Y-134524234D01*
X79209304Y-134278576D01*
X79287682Y-134016118D01*
X79345991Y-133738743D01*
X79383579Y-133448336D01*
X79399793Y-133146781D01*
X79393979Y-132835962D01*
X79365484Y-132517763D01*
X79313655Y-132194068D01*
X79237838Y-131866760D01*
X79197170Y-131723703D01*
X79152589Y-131583252D01*
X79104221Y-131445536D01*
X79052195Y-131310682D01*
X78937670Y-131050078D01*
X78810029Y-130802466D01*
X78670286Y-130568875D01*
X78519455Y-130350333D01*
X78440198Y-130247026D01*
X78358550Y-130147866D01*
X78274636Y-130052983D01*
X78188585Y-129962503D01*
X78100522Y-129876557D01*
X78010574Y-129795272D01*
X77918868Y-129718776D01*
X77825532Y-129647199D01*
X77730691Y-129580668D01*
X77634472Y-129519312D01*
X77537002Y-129463260D01*
X77438409Y-129412640D01*
X77338818Y-129367580D01*
X77238356Y-129328209D01*
X77137151Y-129294656D01*
X77035328Y-129267048D01*
X76933016Y-129245514D01*
X76830340Y-129230183D01*
X76727427Y-129221183D01*
X76624404Y-129218643D01*
X76575079Y-129219754D01*
X76526014Y-129222400D01*
X76477228Y-129226577D01*
X76428737Y-129232285D01*
X76380560Y-129239520D01*
X76332713Y-129248281D01*
X76285215Y-129258565D01*
X76238082Y-129270371D01*
X76128550Y-129304137D01*
X76022647Y-129345637D01*
X75920454Y-129394636D01*
X75822053Y-129450898D01*
X75727527Y-129514187D01*
X75636956Y-129584269D01*
X75550422Y-129660907D01*
X75468008Y-129743867D01*
X75389794Y-129832911D01*
X75315863Y-129927806D01*
X75181174Y-130134202D01*
X75064595Y-130361172D01*
X74966779Y-130606831D01*
X74888380Y-130869294D01*
X74830052Y-131146677D01*
X74792448Y-131437097D01*
X74776221Y-131738668D01*
X73508340Y-131738668D01*
X73568383Y-131499476D01*
X73870822Y-130356325D01*
X74537948Y-127923767D01*
X74683654Y-127384796D01*
X74795391Y-127319240D01*
X74908895Y-127257746D01*
X75024097Y-127200345D01*
X75140926Y-127147066D01*
X75259313Y-127097939D01*
X75379188Y-127052994D01*
X75500481Y-127012261D01*
X75623123Y-126975769D01*
X75768151Y-126940042D01*
X75914478Y-126910242D01*
X76061984Y-126886380D01*
X76210548Y-126868469D01*
X76360051Y-126856521D01*
X76510372Y-126850546D01*
X76661391Y-126850558D01*
X76812988Y-126856567D01*
X77009010Y-126873157D01*
X77203794Y-126899420D01*
X77397140Y-126935169D01*
X77588852Y-126980218D01*
X77778732Y-127034383D01*
X77966584Y-127097476D01*
X78152208Y-127169312D01*
X78335409Y-127249705D01*
X78515988Y-127338469D01*
X78693749Y-127435419D01*
X79040023Y-127653129D01*
X79372654Y-127901349D01*
X79690061Y-128178591D01*
X79990665Y-128483367D01*
X80272887Y-128814191D01*
X80535147Y-129169575D01*
X80775866Y-129548031D01*
X80993464Y-129948072D01*
X81186363Y-130368211D01*
X81352983Y-130806961D01*
X81491744Y-131262833D01*
X81533076Y-131427204D01*
X81570360Y-131592203D01*
X81603589Y-131757721D01*
X81632756Y-131923644D01*
X81657854Y-132089862D01*
X81678876Y-132256264D01*
X81695814Y-132422739D01*
X81708662Y-132589174D01*
X81717411Y-132755460D01*
X81722055Y-132921484D01*
X81722588Y-133087136D01*
X81721292Y-133146781D01*
X81719001Y-133252304D01*
G37*
G36*
X69140745Y-133362828D02*
G01*
X69046341Y-133895234D01*
X69007416Y-134149422D01*
X68974637Y-134395655D01*
X68948477Y-134633974D01*
X68929406Y-134864422D01*
X68917897Y-135087039D01*
X68914419Y-135301867D01*
X68919446Y-135508948D01*
X68933448Y-135708323D01*
X68956897Y-135900034D01*
X68990264Y-136084122D01*
X69017732Y-136205178D01*
X69047822Y-136323397D01*
X69080482Y-136438771D01*
X69115658Y-136551292D01*
X69153297Y-136660953D01*
X69193346Y-136767744D01*
X69235751Y-136871658D01*
X69280460Y-136972687D01*
X69327418Y-137070823D01*
X69376573Y-137166057D01*
X69427871Y-137258382D01*
X69481259Y-137347790D01*
X69536684Y-137434272D01*
X69594092Y-137517821D01*
X69653430Y-137598429D01*
X69714645Y-137676086D01*
X69674142Y-137651918D01*
X69633807Y-137627020D01*
X69593661Y-137601324D01*
X69553724Y-137574762D01*
X69514014Y-137547265D01*
X69474553Y-137518765D01*
X69435359Y-137489193D01*
X69396453Y-137458481D01*
X69298039Y-137375466D01*
X69201096Y-137286715D01*
X69105602Y-137192398D01*
X69011535Y-137092687D01*
X68918872Y-136987755D01*
X68827590Y-136877771D01*
X68737667Y-136762909D01*
X68649082Y-136643339D01*
X68561810Y-136519234D01*
X68475830Y-136390765D01*
X68391120Y-136258103D01*
X68307657Y-136121421D01*
X68144381Y-135836681D01*
X67985824Y-135537918D01*
X67846917Y-135718346D01*
X67602293Y-135959914D01*
X67264420Y-136245390D01*
X66845763Y-136557547D01*
X66358789Y-136879153D01*
X65815965Y-137192979D01*
X65229756Y-137481797D01*
X64612628Y-137728375D01*
X64296366Y-137830440D01*
X63977049Y-137915484D01*
X63656236Y-137981353D01*
X63335485Y-138025894D01*
X63016354Y-138046953D01*
X62700401Y-138042376D01*
X62389185Y-138010010D01*
X62084265Y-137947701D01*
X61787197Y-137853294D01*
X61499542Y-137724637D01*
X61222856Y-137559576D01*
X60958699Y-137355956D01*
X60708628Y-137111625D01*
X60474201Y-136824428D01*
X60256978Y-136492212D01*
X60058517Y-136112824D01*
X60035484Y-136061630D01*
X60013607Y-136009197D01*
X59992856Y-135955577D01*
X59973199Y-135900827D01*
X59954608Y-135845003D01*
X59937051Y-135788158D01*
X59920500Y-135730349D01*
X59904922Y-135671631D01*
X59973855Y-135605425D01*
X60008260Y-135572211D01*
X60042434Y-135538544D01*
X60303601Y-135270303D01*
X60554343Y-134998267D01*
X60794510Y-134722840D01*
X61011851Y-134459109D01*
X62473169Y-134459109D01*
X62478954Y-134567288D01*
X62493706Y-134668780D01*
X62517368Y-134762871D01*
X62549880Y-134848846D01*
X62622614Y-134985840D01*
X62707595Y-135103712D01*
X62804027Y-135203156D01*
X62911111Y-135284863D01*
X63028051Y-135349527D01*
X63154049Y-135397840D01*
X63288307Y-135430494D01*
X63430030Y-135448182D01*
X63578419Y-135451597D01*
X63732676Y-135441430D01*
X63892006Y-135418375D01*
X64055610Y-135383124D01*
X64222691Y-135336370D01*
X64392452Y-135278804D01*
X64564095Y-135211120D01*
X64736824Y-135134010D01*
X65082347Y-134954283D01*
X65422643Y-134745161D01*
X65751335Y-134512186D01*
X66062042Y-134260898D01*
X66348388Y-133996836D01*
X66603992Y-133725541D01*
X66718274Y-133588912D01*
X66822478Y-133452552D01*
X66915808Y-133317154D01*
X66997467Y-133183411D01*
X66855587Y-132777382D01*
X66731508Y-132404017D01*
X66481857Y-131625824D01*
X66408480Y-131622078D01*
X66335832Y-131619331D01*
X66263896Y-131617546D01*
X66192657Y-131616684D01*
X65923297Y-131621955D01*
X65664563Y-131640549D01*
X65416395Y-131671751D01*
X65178734Y-131714846D01*
X64951522Y-131769119D01*
X64734698Y-131833856D01*
X64528204Y-131908343D01*
X64331981Y-131991865D01*
X64145969Y-132083706D01*
X63970109Y-132183154D01*
X63804342Y-132289492D01*
X63648609Y-132402006D01*
X63502850Y-132519983D01*
X63367007Y-132642706D01*
X63241020Y-132769462D01*
X63124830Y-132899536D01*
X63018377Y-133032213D01*
X62921604Y-133166780D01*
X62834450Y-133302520D01*
X62756856Y-133438720D01*
X62688763Y-133574664D01*
X62630111Y-133709639D01*
X62580843Y-133842930D01*
X62540898Y-133973822D01*
X62510217Y-134101601D01*
X62488742Y-134225551D01*
X62476412Y-134344959D01*
X62473169Y-134459109D01*
X61011851Y-134459109D01*
X61023953Y-134444424D01*
X61242523Y-134163421D01*
X61450069Y-133880235D01*
X61646443Y-133595267D01*
X61831495Y-133308922D01*
X62005075Y-133021601D01*
X62167035Y-132733706D01*
X62317224Y-132445642D01*
X62455493Y-132157810D01*
X62581693Y-131870614D01*
X62695674Y-131584455D01*
X62797287Y-131299736D01*
X62886383Y-131016861D01*
X62922538Y-130889163D01*
X62955949Y-130761589D01*
X62986606Y-130634203D01*
X63014503Y-130507069D01*
X63039630Y-130380251D01*
X63061979Y-130253813D01*
X63081543Y-130127820D01*
X63098312Y-130002335D01*
X63379191Y-129871648D01*
X63672903Y-129749848D01*
X63979642Y-129637459D01*
X64299602Y-129535006D01*
X64632976Y-129443013D01*
X64979957Y-129362006D01*
X65340738Y-129292508D01*
X65715515Y-129235046D01*
X65571316Y-128834613D01*
X65420745Y-128443933D01*
X65343738Y-128255330D01*
X65265940Y-128072862D01*
X65187618Y-127897759D01*
X65109039Y-127731255D01*
X65030471Y-127574580D01*
X64952181Y-127428966D01*
X64874436Y-127295647D01*
X64797504Y-127175852D01*
X64721652Y-127070815D01*
X64647147Y-126981768D01*
X64610484Y-126943625D01*
X64574257Y-126909941D01*
X64538502Y-126880871D01*
X64503250Y-126856567D01*
X65318786Y-124246933D01*
X65483770Y-124279556D01*
X65645449Y-124335133D01*
X65803917Y-124412723D01*
X65959270Y-124511386D01*
X66111600Y-124630180D01*
X66261004Y-124768166D01*
X66551406Y-125097948D01*
X66831231Y-125493207D01*
X67101233Y-125946417D01*
X67362167Y-126450053D01*
X67614788Y-126996590D01*
X67859850Y-127578501D01*
X68098109Y-128188263D01*
X68557234Y-129461233D01*
X69427047Y-132010254D01*
X69382568Y-132200729D01*
X69254078Y-132798103D01*
X69176752Y-133183411D01*
X69140745Y-133362828D01*
G37*
D11*
X164920142Y-54977780D02*
X164872523Y-55025400D01*
X164872523Y-55025400D02*
X164729666Y-55073019D01*
X164729666Y-55073019D02*
X164634428Y-55073019D01*
X164634428Y-55073019D02*
X164491571Y-55025400D01*
X164491571Y-55025400D02*
X164396333Y-54930161D01*
X164396333Y-54930161D02*
X164348714Y-54834923D01*
X164348714Y-54834923D02*
X164301095Y-54644447D01*
X164301095Y-54644447D02*
X164301095Y-54501590D01*
X164301095Y-54501590D02*
X164348714Y-54311114D01*
X164348714Y-54311114D02*
X164396333Y-54215876D01*
X164396333Y-54215876D02*
X164491571Y-54120638D01*
X164491571Y-54120638D02*
X164634428Y-54073019D01*
X164634428Y-54073019D02*
X164729666Y-54073019D01*
X164729666Y-54073019D02*
X164872523Y-54120638D01*
X164872523Y-54120638D02*
X164920142Y-54168257D01*
X165872523Y-55073019D02*
X165301095Y-55073019D01*
X165586809Y-55073019D02*
X165586809Y-54073019D01*
X165586809Y-54073019D02*
X165491571Y-54215876D01*
X165491571Y-54215876D02*
X165396333Y-54311114D01*
X165396333Y-54311114D02*
X165301095Y-54358733D01*
X166729666Y-54073019D02*
X166539190Y-54073019D01*
X166539190Y-54073019D02*
X166443952Y-54120638D01*
X166443952Y-54120638D02*
X166396333Y-54168257D01*
X166396333Y-54168257D02*
X166301095Y-54311114D01*
X166301095Y-54311114D02*
X166253476Y-54501590D01*
X166253476Y-54501590D02*
X166253476Y-54882542D01*
X166253476Y-54882542D02*
X166301095Y-54977780D01*
X166301095Y-54977780D02*
X166348714Y-55025400D01*
X166348714Y-55025400D02*
X166443952Y-55073019D01*
X166443952Y-55073019D02*
X166634428Y-55073019D01*
X166634428Y-55073019D02*
X166729666Y-55025400D01*
X166729666Y-55025400D02*
X166777285Y-54977780D01*
X166777285Y-54977780D02*
X166824904Y-54882542D01*
X166824904Y-54882542D02*
X166824904Y-54644447D01*
X166824904Y-54644447D02*
X166777285Y-54549209D01*
X166777285Y-54549209D02*
X166729666Y-54501590D01*
X166729666Y-54501590D02*
X166634428Y-54453971D01*
X166634428Y-54453971D02*
X166443952Y-54453971D01*
X166443952Y-54453971D02*
X166348714Y-54501590D01*
X166348714Y-54501590D02*
X166301095Y-54549209D01*
X166301095Y-54549209D02*
X166253476Y-54644447D01*
X161338969Y-53316716D02*
X160862778Y-53650049D01*
X161338969Y-53888144D02*
X160338969Y-53888144D01*
X160338969Y-53888144D02*
X160338969Y-53507192D01*
X160338969Y-53507192D02*
X160386588Y-53411954D01*
X160386588Y-53411954D02*
X160434207Y-53364335D01*
X160434207Y-53364335D02*
X160529445Y-53316716D01*
X160529445Y-53316716D02*
X160672302Y-53316716D01*
X160672302Y-53316716D02*
X160767540Y-53364335D01*
X160767540Y-53364335D02*
X160815159Y-53411954D01*
X160815159Y-53411954D02*
X160862778Y-53507192D01*
X160862778Y-53507192D02*
X160862778Y-53888144D01*
X161338969Y-52364335D02*
X161338969Y-52935763D01*
X161338969Y-52650049D02*
X160338969Y-52650049D01*
X160338969Y-52650049D02*
X160481826Y-52745287D01*
X160481826Y-52745287D02*
X160577064Y-52840525D01*
X160577064Y-52840525D02*
X160624683Y-52935763D01*
X188735533Y-41248964D02*
X188735533Y-40534679D01*
X188735533Y-40534679D02*
X188783152Y-40391822D01*
X188783152Y-40391822D02*
X188878390Y-40296584D01*
X188878390Y-40296584D02*
X189021247Y-40248964D01*
X189021247Y-40248964D02*
X189116485Y-40248964D01*
X188354580Y-41248964D02*
X187735533Y-41248964D01*
X187735533Y-41248964D02*
X188068866Y-40868012D01*
X188068866Y-40868012D02*
X187926009Y-40868012D01*
X187926009Y-40868012D02*
X187830771Y-40820393D01*
X187830771Y-40820393D02*
X187783152Y-40772774D01*
X187783152Y-40772774D02*
X187735533Y-40677536D01*
X187735533Y-40677536D02*
X187735533Y-40439441D01*
X187735533Y-40439441D02*
X187783152Y-40344203D01*
X187783152Y-40344203D02*
X187830771Y-40296584D01*
X187830771Y-40296584D02*
X187926009Y-40248964D01*
X187926009Y-40248964D02*
X188211723Y-40248964D01*
X188211723Y-40248964D02*
X188306961Y-40296584D01*
X188306961Y-40296584D02*
X188354580Y-40344203D01*
X153253133Y-35945219D02*
X152919800Y-35469028D01*
X152681705Y-35945219D02*
X152681705Y-34945219D01*
X152681705Y-34945219D02*
X153062657Y-34945219D01*
X153062657Y-34945219D02*
X153157895Y-34992838D01*
X153157895Y-34992838D02*
X153205514Y-35040457D01*
X153205514Y-35040457D02*
X153253133Y-35135695D01*
X153253133Y-35135695D02*
X153253133Y-35278552D01*
X153253133Y-35278552D02*
X153205514Y-35373790D01*
X153205514Y-35373790D02*
X153157895Y-35421409D01*
X153157895Y-35421409D02*
X153062657Y-35469028D01*
X153062657Y-35469028D02*
X152681705Y-35469028D01*
X153634086Y-35040457D02*
X153681705Y-34992838D01*
X153681705Y-34992838D02*
X153776943Y-34945219D01*
X153776943Y-34945219D02*
X154015038Y-34945219D01*
X154015038Y-34945219D02*
X154110276Y-34992838D01*
X154110276Y-34992838D02*
X154157895Y-35040457D01*
X154157895Y-35040457D02*
X154205514Y-35135695D01*
X154205514Y-35135695D02*
X154205514Y-35230933D01*
X154205514Y-35230933D02*
X154157895Y-35373790D01*
X154157895Y-35373790D02*
X153586467Y-35945219D01*
X153586467Y-35945219D02*
X154205514Y-35945219D01*
X165004295Y-37309019D02*
X165004295Y-38118542D01*
X165004295Y-38118542D02*
X165051914Y-38213780D01*
X165051914Y-38213780D02*
X165099533Y-38261400D01*
X165099533Y-38261400D02*
X165194771Y-38309019D01*
X165194771Y-38309019D02*
X165385247Y-38309019D01*
X165385247Y-38309019D02*
X165480485Y-38261400D01*
X165480485Y-38261400D02*
X165528104Y-38213780D01*
X165528104Y-38213780D02*
X165575723Y-38118542D01*
X165575723Y-38118542D02*
X165575723Y-37309019D01*
X166480485Y-37642352D02*
X166480485Y-38309019D01*
X166242390Y-37261400D02*
X166004295Y-37975685D01*
X166004295Y-37975685D02*
X166623342Y-37975685D01*
X160742333Y-43420780D02*
X160694714Y-43468400D01*
X160694714Y-43468400D02*
X160551857Y-43516019D01*
X160551857Y-43516019D02*
X160456619Y-43516019D01*
X160456619Y-43516019D02*
X160313762Y-43468400D01*
X160313762Y-43468400D02*
X160218524Y-43373161D01*
X160218524Y-43373161D02*
X160170905Y-43277923D01*
X160170905Y-43277923D02*
X160123286Y-43087447D01*
X160123286Y-43087447D02*
X160123286Y-42944590D01*
X160123286Y-42944590D02*
X160170905Y-42754114D01*
X160170905Y-42754114D02*
X160218524Y-42658876D01*
X160218524Y-42658876D02*
X160313762Y-42563638D01*
X160313762Y-42563638D02*
X160456619Y-42516019D01*
X160456619Y-42516019D02*
X160551857Y-42516019D01*
X160551857Y-42516019D02*
X160694714Y-42563638D01*
X160694714Y-42563638D02*
X160742333Y-42611257D01*
X161694714Y-43516019D02*
X161123286Y-43516019D01*
X161409000Y-43516019D02*
X161409000Y-42516019D01*
X161409000Y-42516019D02*
X161313762Y-42658876D01*
X161313762Y-42658876D02*
X161218524Y-42754114D01*
X161218524Y-42754114D02*
X161123286Y-42801733D01*
X168108333Y-54175819D02*
X167775000Y-53699628D01*
X167536905Y-54175819D02*
X167536905Y-53175819D01*
X167536905Y-53175819D02*
X167917857Y-53175819D01*
X167917857Y-53175819D02*
X168013095Y-53223438D01*
X168013095Y-53223438D02*
X168060714Y-53271057D01*
X168060714Y-53271057D02*
X168108333Y-53366295D01*
X168108333Y-53366295D02*
X168108333Y-53509152D01*
X168108333Y-53509152D02*
X168060714Y-53604390D01*
X168060714Y-53604390D02*
X168013095Y-53652009D01*
X168013095Y-53652009D02*
X167917857Y-53699628D01*
X167917857Y-53699628D02*
X167536905Y-53699628D01*
X168679762Y-53604390D02*
X168584524Y-53556771D01*
X168584524Y-53556771D02*
X168536905Y-53509152D01*
X168536905Y-53509152D02*
X168489286Y-53413914D01*
X168489286Y-53413914D02*
X168489286Y-53366295D01*
X168489286Y-53366295D02*
X168536905Y-53271057D01*
X168536905Y-53271057D02*
X168584524Y-53223438D01*
X168584524Y-53223438D02*
X168679762Y-53175819D01*
X168679762Y-53175819D02*
X168870238Y-53175819D01*
X168870238Y-53175819D02*
X168965476Y-53223438D01*
X168965476Y-53223438D02*
X169013095Y-53271057D01*
X169013095Y-53271057D02*
X169060714Y-53366295D01*
X169060714Y-53366295D02*
X169060714Y-53413914D01*
X169060714Y-53413914D02*
X169013095Y-53509152D01*
X169013095Y-53509152D02*
X168965476Y-53556771D01*
X168965476Y-53556771D02*
X168870238Y-53604390D01*
X168870238Y-53604390D02*
X168679762Y-53604390D01*
X168679762Y-53604390D02*
X168584524Y-53652009D01*
X168584524Y-53652009D02*
X168536905Y-53699628D01*
X168536905Y-53699628D02*
X168489286Y-53794866D01*
X168489286Y-53794866D02*
X168489286Y-53985342D01*
X168489286Y-53985342D02*
X168536905Y-54080580D01*
X168536905Y-54080580D02*
X168584524Y-54128200D01*
X168584524Y-54128200D02*
X168679762Y-54175819D01*
X168679762Y-54175819D02*
X168870238Y-54175819D01*
X168870238Y-54175819D02*
X168965476Y-54128200D01*
X168965476Y-54128200D02*
X169013095Y-54080580D01*
X169013095Y-54080580D02*
X169060714Y-53985342D01*
X169060714Y-53985342D02*
X169060714Y-53794866D01*
X169060714Y-53794866D02*
X169013095Y-53699628D01*
X169013095Y-53699628D02*
X168965476Y-53652009D01*
X168965476Y-53652009D02*
X168870238Y-53604390D01*
X252098980Y-44280057D02*
X252146600Y-44327676D01*
X252146600Y-44327676D02*
X252194219Y-44470533D01*
X252194219Y-44470533D02*
X252194219Y-44565771D01*
X252194219Y-44565771D02*
X252146600Y-44708628D01*
X252146600Y-44708628D02*
X252051361Y-44803866D01*
X252051361Y-44803866D02*
X251956123Y-44851485D01*
X251956123Y-44851485D02*
X251765647Y-44899104D01*
X251765647Y-44899104D02*
X251622790Y-44899104D01*
X251622790Y-44899104D02*
X251432314Y-44851485D01*
X251432314Y-44851485D02*
X251337076Y-44803866D01*
X251337076Y-44803866D02*
X251241838Y-44708628D01*
X251241838Y-44708628D02*
X251194219Y-44565771D01*
X251194219Y-44565771D02*
X251194219Y-44470533D01*
X251194219Y-44470533D02*
X251241838Y-44327676D01*
X251241838Y-44327676D02*
X251289457Y-44280057D01*
X252194219Y-43327676D02*
X252194219Y-43899104D01*
X252194219Y-43613390D02*
X251194219Y-43613390D01*
X251194219Y-43613390D02*
X251337076Y-43708628D01*
X251337076Y-43708628D02*
X251432314Y-43803866D01*
X251432314Y-43803866D02*
X251479933Y-43899104D01*
X252194219Y-42851485D02*
X252194219Y-42661009D01*
X252194219Y-42661009D02*
X252146600Y-42565771D01*
X252146600Y-42565771D02*
X252098980Y-42518152D01*
X252098980Y-42518152D02*
X251956123Y-42422914D01*
X251956123Y-42422914D02*
X251765647Y-42375295D01*
X251765647Y-42375295D02*
X251384695Y-42375295D01*
X251384695Y-42375295D02*
X251289457Y-42422914D01*
X251289457Y-42422914D02*
X251241838Y-42470533D01*
X251241838Y-42470533D02*
X251194219Y-42565771D01*
X251194219Y-42565771D02*
X251194219Y-42756247D01*
X251194219Y-42756247D02*
X251241838Y-42851485D01*
X251241838Y-42851485D02*
X251289457Y-42899104D01*
X251289457Y-42899104D02*
X251384695Y-42946723D01*
X251384695Y-42946723D02*
X251622790Y-42946723D01*
X251622790Y-42946723D02*
X251718028Y-42899104D01*
X251718028Y-42899104D02*
X251765647Y-42851485D01*
X251765647Y-42851485D02*
X251813266Y-42756247D01*
X251813266Y-42756247D02*
X251813266Y-42565771D01*
X251813266Y-42565771D02*
X251765647Y-42470533D01*
X251765647Y-42470533D02*
X251718028Y-42422914D01*
X251718028Y-42422914D02*
X251622790Y-42375295D01*
X155643895Y-42820819D02*
X155643895Y-43630342D01*
X155643895Y-43630342D02*
X155691514Y-43725580D01*
X155691514Y-43725580D02*
X155739133Y-43773200D01*
X155739133Y-43773200D02*
X155834371Y-43820819D01*
X155834371Y-43820819D02*
X156024847Y-43820819D01*
X156024847Y-43820819D02*
X156120085Y-43773200D01*
X156120085Y-43773200D02*
X156167704Y-43725580D01*
X156167704Y-43725580D02*
X156215323Y-43630342D01*
X156215323Y-43630342D02*
X156215323Y-42820819D01*
X156596276Y-42820819D02*
X157215323Y-42820819D01*
X157215323Y-42820819D02*
X156881990Y-43201771D01*
X156881990Y-43201771D02*
X157024847Y-43201771D01*
X157024847Y-43201771D02*
X157120085Y-43249390D01*
X157120085Y-43249390D02*
X157167704Y-43297009D01*
X157167704Y-43297009D02*
X157215323Y-43392247D01*
X157215323Y-43392247D02*
X157215323Y-43630342D01*
X157215323Y-43630342D02*
X157167704Y-43725580D01*
X157167704Y-43725580D02*
X157120085Y-43773200D01*
X157120085Y-43773200D02*
X157024847Y-43820819D01*
X157024847Y-43820819D02*
X156739133Y-43820819D01*
X156739133Y-43820819D02*
X156643895Y-43773200D01*
X156643895Y-43773200D02*
X156596276Y-43725580D01*
X241481780Y-42756057D02*
X241529400Y-42803676D01*
X241529400Y-42803676D02*
X241577019Y-42946533D01*
X241577019Y-42946533D02*
X241577019Y-43041771D01*
X241577019Y-43041771D02*
X241529400Y-43184628D01*
X241529400Y-43184628D02*
X241434161Y-43279866D01*
X241434161Y-43279866D02*
X241338923Y-43327485D01*
X241338923Y-43327485D02*
X241148447Y-43375104D01*
X241148447Y-43375104D02*
X241005590Y-43375104D01*
X241005590Y-43375104D02*
X240815114Y-43327485D01*
X240815114Y-43327485D02*
X240719876Y-43279866D01*
X240719876Y-43279866D02*
X240624638Y-43184628D01*
X240624638Y-43184628D02*
X240577019Y-43041771D01*
X240577019Y-43041771D02*
X240577019Y-42946533D01*
X240577019Y-42946533D02*
X240624638Y-42803676D01*
X240624638Y-42803676D02*
X240672257Y-42756057D01*
X240672257Y-42375104D02*
X240624638Y-42327485D01*
X240624638Y-42327485D02*
X240577019Y-42232247D01*
X240577019Y-42232247D02*
X240577019Y-41994152D01*
X240577019Y-41994152D02*
X240624638Y-41898914D01*
X240624638Y-41898914D02*
X240672257Y-41851295D01*
X240672257Y-41851295D02*
X240767495Y-41803676D01*
X240767495Y-41803676D02*
X240862733Y-41803676D01*
X240862733Y-41803676D02*
X241005590Y-41851295D01*
X241005590Y-41851295D02*
X241577019Y-42422723D01*
X241577019Y-42422723D02*
X241577019Y-41803676D01*
X240672257Y-41422723D02*
X240624638Y-41375104D01*
X240624638Y-41375104D02*
X240577019Y-41279866D01*
X240577019Y-41279866D02*
X240577019Y-41041771D01*
X240577019Y-41041771D02*
X240624638Y-40946533D01*
X240624638Y-40946533D02*
X240672257Y-40898914D01*
X240672257Y-40898914D02*
X240767495Y-40851295D01*
X240767495Y-40851295D02*
X240862733Y-40851295D01*
X240862733Y-40851295D02*
X241005590Y-40898914D01*
X241005590Y-40898914D02*
X241577019Y-41470342D01*
X241577019Y-41470342D02*
X241577019Y-40851295D01*
X156885333Y-46460380D02*
X156837714Y-46508000D01*
X156837714Y-46508000D02*
X156694857Y-46555619D01*
X156694857Y-46555619D02*
X156599619Y-46555619D01*
X156599619Y-46555619D02*
X156456762Y-46508000D01*
X156456762Y-46508000D02*
X156361524Y-46412761D01*
X156361524Y-46412761D02*
X156313905Y-46317523D01*
X156313905Y-46317523D02*
X156266286Y-46127047D01*
X156266286Y-46127047D02*
X156266286Y-45984190D01*
X156266286Y-45984190D02*
X156313905Y-45793714D01*
X156313905Y-45793714D02*
X156361524Y-45698476D01*
X156361524Y-45698476D02*
X156456762Y-45603238D01*
X156456762Y-45603238D02*
X156599619Y-45555619D01*
X156599619Y-45555619D02*
X156694857Y-45555619D01*
X156694857Y-45555619D02*
X156837714Y-45603238D01*
X156837714Y-45603238D02*
X156885333Y-45650857D01*
X157742476Y-45555619D02*
X157552000Y-45555619D01*
X157552000Y-45555619D02*
X157456762Y-45603238D01*
X157456762Y-45603238D02*
X157409143Y-45650857D01*
X157409143Y-45650857D02*
X157313905Y-45793714D01*
X157313905Y-45793714D02*
X157266286Y-45984190D01*
X157266286Y-45984190D02*
X157266286Y-46365142D01*
X157266286Y-46365142D02*
X157313905Y-46460380D01*
X157313905Y-46460380D02*
X157361524Y-46508000D01*
X157361524Y-46508000D02*
X157456762Y-46555619D01*
X157456762Y-46555619D02*
X157647238Y-46555619D01*
X157647238Y-46555619D02*
X157742476Y-46508000D01*
X157742476Y-46508000D02*
X157790095Y-46460380D01*
X157790095Y-46460380D02*
X157837714Y-46365142D01*
X157837714Y-46365142D02*
X157837714Y-46127047D01*
X157837714Y-46127047D02*
X157790095Y-46031809D01*
X157790095Y-46031809D02*
X157742476Y-45984190D01*
X157742476Y-45984190D02*
X157647238Y-45936571D01*
X157647238Y-45936571D02*
X157456762Y-45936571D01*
X157456762Y-45936571D02*
X157361524Y-45984190D01*
X157361524Y-45984190D02*
X157313905Y-46031809D01*
X157313905Y-46031809D02*
X157266286Y-46127047D01*
X146301676Y-35774400D02*
X146444533Y-35822019D01*
X146444533Y-35822019D02*
X146682628Y-35822019D01*
X146682628Y-35822019D02*
X146777866Y-35774400D01*
X146777866Y-35774400D02*
X146825485Y-35726780D01*
X146825485Y-35726780D02*
X146873104Y-35631542D01*
X146873104Y-35631542D02*
X146873104Y-35536304D01*
X146873104Y-35536304D02*
X146825485Y-35441066D01*
X146825485Y-35441066D02*
X146777866Y-35393447D01*
X146777866Y-35393447D02*
X146682628Y-35345828D01*
X146682628Y-35345828D02*
X146492152Y-35298209D01*
X146492152Y-35298209D02*
X146396914Y-35250590D01*
X146396914Y-35250590D02*
X146349295Y-35202971D01*
X146349295Y-35202971D02*
X146301676Y-35107733D01*
X146301676Y-35107733D02*
X146301676Y-35012495D01*
X146301676Y-35012495D02*
X146349295Y-34917257D01*
X146349295Y-34917257D02*
X146396914Y-34869638D01*
X146396914Y-34869638D02*
X146492152Y-34822019D01*
X146492152Y-34822019D02*
X146730247Y-34822019D01*
X146730247Y-34822019D02*
X146873104Y-34869638D01*
X147206438Y-34822019D02*
X147444533Y-35822019D01*
X147444533Y-35822019D02*
X147635009Y-35107733D01*
X147635009Y-35107733D02*
X147825485Y-35822019D01*
X147825485Y-35822019D02*
X148063581Y-34822019D01*
X148396914Y-34917257D02*
X148444533Y-34869638D01*
X148444533Y-34869638D02*
X148539771Y-34822019D01*
X148539771Y-34822019D02*
X148777866Y-34822019D01*
X148777866Y-34822019D02*
X148873104Y-34869638D01*
X148873104Y-34869638D02*
X148920723Y-34917257D01*
X148920723Y-34917257D02*
X148968342Y-35012495D01*
X148968342Y-35012495D02*
X148968342Y-35107733D01*
X148968342Y-35107733D02*
X148920723Y-35250590D01*
X148920723Y-35250590D02*
X148349295Y-35822019D01*
X148349295Y-35822019D02*
X148968342Y-35822019D01*
X149920723Y-35822019D02*
X149349295Y-35822019D01*
X149635009Y-35822019D02*
X149635009Y-34822019D01*
X149635009Y-34822019D02*
X149539771Y-34964876D01*
X149539771Y-34964876D02*
X149444533Y-35060114D01*
X149444533Y-35060114D02*
X149349295Y-35107733D01*
X253343580Y-44330857D02*
X253391200Y-44378476D01*
X253391200Y-44378476D02*
X253438819Y-44521333D01*
X253438819Y-44521333D02*
X253438819Y-44616571D01*
X253438819Y-44616571D02*
X253391200Y-44759428D01*
X253391200Y-44759428D02*
X253295961Y-44854666D01*
X253295961Y-44854666D02*
X253200723Y-44902285D01*
X253200723Y-44902285D02*
X253010247Y-44949904D01*
X253010247Y-44949904D02*
X252867390Y-44949904D01*
X252867390Y-44949904D02*
X252676914Y-44902285D01*
X252676914Y-44902285D02*
X252581676Y-44854666D01*
X252581676Y-44854666D02*
X252486438Y-44759428D01*
X252486438Y-44759428D02*
X252438819Y-44616571D01*
X252438819Y-44616571D02*
X252438819Y-44521333D01*
X252438819Y-44521333D02*
X252486438Y-44378476D01*
X252486438Y-44378476D02*
X252534057Y-44330857D01*
X253438819Y-43378476D02*
X253438819Y-43949904D01*
X253438819Y-43664190D02*
X252438819Y-43664190D01*
X252438819Y-43664190D02*
X252581676Y-43759428D01*
X252581676Y-43759428D02*
X252676914Y-43854666D01*
X252676914Y-43854666D02*
X252724533Y-43949904D01*
X252867390Y-42807047D02*
X252819771Y-42902285D01*
X252819771Y-42902285D02*
X252772152Y-42949904D01*
X252772152Y-42949904D02*
X252676914Y-42997523D01*
X252676914Y-42997523D02*
X252629295Y-42997523D01*
X252629295Y-42997523D02*
X252534057Y-42949904D01*
X252534057Y-42949904D02*
X252486438Y-42902285D01*
X252486438Y-42902285D02*
X252438819Y-42807047D01*
X252438819Y-42807047D02*
X252438819Y-42616571D01*
X252438819Y-42616571D02*
X252486438Y-42521333D01*
X252486438Y-42521333D02*
X252534057Y-42473714D01*
X252534057Y-42473714D02*
X252629295Y-42426095D01*
X252629295Y-42426095D02*
X252676914Y-42426095D01*
X252676914Y-42426095D02*
X252772152Y-42473714D01*
X252772152Y-42473714D02*
X252819771Y-42521333D01*
X252819771Y-42521333D02*
X252867390Y-42616571D01*
X252867390Y-42616571D02*
X252867390Y-42807047D01*
X252867390Y-42807047D02*
X252915009Y-42902285D01*
X252915009Y-42902285D02*
X252962628Y-42949904D01*
X252962628Y-42949904D02*
X253057866Y-42997523D01*
X253057866Y-42997523D02*
X253248342Y-42997523D01*
X253248342Y-42997523D02*
X253343580Y-42949904D01*
X253343580Y-42949904D02*
X253391200Y-42902285D01*
X253391200Y-42902285D02*
X253438819Y-42807047D01*
X253438819Y-42807047D02*
X253438819Y-42616571D01*
X253438819Y-42616571D02*
X253391200Y-42521333D01*
X253391200Y-42521333D02*
X253343580Y-42473714D01*
X253343580Y-42473714D02*
X253248342Y-42426095D01*
X253248342Y-42426095D02*
X253057866Y-42426095D01*
X253057866Y-42426095D02*
X252962628Y-42473714D01*
X252962628Y-42473714D02*
X252915009Y-42521333D01*
X252915009Y-42521333D02*
X252867390Y-42616571D01*
X161783733Y-40491580D02*
X161736114Y-40539200D01*
X161736114Y-40539200D02*
X161593257Y-40586819D01*
X161593257Y-40586819D02*
X161498019Y-40586819D01*
X161498019Y-40586819D02*
X161355162Y-40539200D01*
X161355162Y-40539200D02*
X161259924Y-40443961D01*
X161259924Y-40443961D02*
X161212305Y-40348723D01*
X161212305Y-40348723D02*
X161164686Y-40158247D01*
X161164686Y-40158247D02*
X161164686Y-40015390D01*
X161164686Y-40015390D02*
X161212305Y-39824914D01*
X161212305Y-39824914D02*
X161259924Y-39729676D01*
X161259924Y-39729676D02*
X161355162Y-39634438D01*
X161355162Y-39634438D02*
X161498019Y-39586819D01*
X161498019Y-39586819D02*
X161593257Y-39586819D01*
X161593257Y-39586819D02*
X161736114Y-39634438D01*
X161736114Y-39634438D02*
X161783733Y-39682057D01*
X162688495Y-39586819D02*
X162212305Y-39586819D01*
X162212305Y-39586819D02*
X162164686Y-40063009D01*
X162164686Y-40063009D02*
X162212305Y-40015390D01*
X162212305Y-40015390D02*
X162307543Y-39967771D01*
X162307543Y-39967771D02*
X162545638Y-39967771D01*
X162545638Y-39967771D02*
X162640876Y-40015390D01*
X162640876Y-40015390D02*
X162688495Y-40063009D01*
X162688495Y-40063009D02*
X162736114Y-40158247D01*
X162736114Y-40158247D02*
X162736114Y-40396342D01*
X162736114Y-40396342D02*
X162688495Y-40491580D01*
X162688495Y-40491580D02*
X162640876Y-40539200D01*
X162640876Y-40539200D02*
X162545638Y-40586819D01*
X162545638Y-40586819D02*
X162307543Y-40586819D01*
X162307543Y-40586819D02*
X162212305Y-40539200D01*
X162212305Y-40539200D02*
X162164686Y-40491580D01*
X156997495Y-50864419D02*
X156997495Y-51673942D01*
X156997495Y-51673942D02*
X157045114Y-51769180D01*
X157045114Y-51769180D02*
X157092733Y-51816800D01*
X157092733Y-51816800D02*
X157187971Y-51864419D01*
X157187971Y-51864419D02*
X157378447Y-51864419D01*
X157378447Y-51864419D02*
X157473685Y-51816800D01*
X157473685Y-51816800D02*
X157521304Y-51769180D01*
X157521304Y-51769180D02*
X157568923Y-51673942D01*
X157568923Y-51673942D02*
X157568923Y-50864419D01*
X158568923Y-51864419D02*
X157997495Y-51864419D01*
X158283209Y-51864419D02*
X158283209Y-50864419D01*
X158283209Y-50864419D02*
X158187971Y-51007276D01*
X158187971Y-51007276D02*
X158092733Y-51102514D01*
X158092733Y-51102514D02*
X157997495Y-51150133D01*
X170863742Y-42684180D02*
X170816123Y-42731800D01*
X170816123Y-42731800D02*
X170673266Y-42779419D01*
X170673266Y-42779419D02*
X170578028Y-42779419D01*
X170578028Y-42779419D02*
X170435171Y-42731800D01*
X170435171Y-42731800D02*
X170339933Y-42636561D01*
X170339933Y-42636561D02*
X170292314Y-42541323D01*
X170292314Y-42541323D02*
X170244695Y-42350847D01*
X170244695Y-42350847D02*
X170244695Y-42207990D01*
X170244695Y-42207990D02*
X170292314Y-42017514D01*
X170292314Y-42017514D02*
X170339933Y-41922276D01*
X170339933Y-41922276D02*
X170435171Y-41827038D01*
X170435171Y-41827038D02*
X170578028Y-41779419D01*
X170578028Y-41779419D02*
X170673266Y-41779419D01*
X170673266Y-41779419D02*
X170816123Y-41827038D01*
X170816123Y-41827038D02*
X170863742Y-41874657D01*
X171816123Y-42779419D02*
X171244695Y-42779419D01*
X171530409Y-42779419D02*
X171530409Y-41779419D01*
X171530409Y-41779419D02*
X171435171Y-41922276D01*
X171435171Y-41922276D02*
X171339933Y-42017514D01*
X171339933Y-42017514D02*
X171244695Y-42065133D01*
X172673266Y-42112752D02*
X172673266Y-42779419D01*
X172435171Y-41731800D02*
X172197076Y-42446085D01*
X172197076Y-42446085D02*
X172816123Y-42446085D01*
X161454609Y-59499028D02*
X161454609Y-59975219D01*
X161121276Y-58975219D02*
X161454609Y-59499028D01*
X161454609Y-59499028D02*
X161787942Y-58975219D01*
X162645085Y-59975219D02*
X162073657Y-59975219D01*
X162359371Y-59975219D02*
X162359371Y-58975219D01*
X162359371Y-58975219D02*
X162264133Y-59118076D01*
X162264133Y-59118076D02*
X162168895Y-59213314D01*
X162168895Y-59213314D02*
X162073657Y-59260933D01*
X167320933Y-50823019D02*
X166987600Y-50346828D01*
X166749505Y-50823019D02*
X166749505Y-49823019D01*
X166749505Y-49823019D02*
X167130457Y-49823019D01*
X167130457Y-49823019D02*
X167225695Y-49870638D01*
X167225695Y-49870638D02*
X167273314Y-49918257D01*
X167273314Y-49918257D02*
X167320933Y-50013495D01*
X167320933Y-50013495D02*
X167320933Y-50156352D01*
X167320933Y-50156352D02*
X167273314Y-50251590D01*
X167273314Y-50251590D02*
X167225695Y-50299209D01*
X167225695Y-50299209D02*
X167130457Y-50346828D01*
X167130457Y-50346828D02*
X166749505Y-50346828D01*
X167654267Y-49823019D02*
X168320933Y-49823019D01*
X168320933Y-49823019D02*
X167892362Y-50823019D01*
X253745276Y-34693000D02*
X253888133Y-34740619D01*
X253888133Y-34740619D02*
X254126228Y-34740619D01*
X254126228Y-34740619D02*
X254221466Y-34693000D01*
X254221466Y-34693000D02*
X254269085Y-34645380D01*
X254269085Y-34645380D02*
X254316704Y-34550142D01*
X254316704Y-34550142D02*
X254316704Y-34454904D01*
X254316704Y-34454904D02*
X254269085Y-34359666D01*
X254269085Y-34359666D02*
X254221466Y-34312047D01*
X254221466Y-34312047D02*
X254126228Y-34264428D01*
X254126228Y-34264428D02*
X253935752Y-34216809D01*
X253935752Y-34216809D02*
X253840514Y-34169190D01*
X253840514Y-34169190D02*
X253792895Y-34121571D01*
X253792895Y-34121571D02*
X253745276Y-34026333D01*
X253745276Y-34026333D02*
X253745276Y-33931095D01*
X253745276Y-33931095D02*
X253792895Y-33835857D01*
X253792895Y-33835857D02*
X253840514Y-33788238D01*
X253840514Y-33788238D02*
X253935752Y-33740619D01*
X253935752Y-33740619D02*
X254173847Y-33740619D01*
X254173847Y-33740619D02*
X254316704Y-33788238D01*
X254650038Y-33740619D02*
X254888133Y-34740619D01*
X254888133Y-34740619D02*
X255078609Y-34026333D01*
X255078609Y-34026333D02*
X255269085Y-34740619D01*
X255269085Y-34740619D02*
X255507181Y-33740619D01*
X256411942Y-34740619D02*
X255840514Y-34740619D01*
X256126228Y-34740619D02*
X256126228Y-33740619D01*
X256126228Y-33740619D02*
X256030990Y-33883476D01*
X256030990Y-33883476D02*
X255935752Y-33978714D01*
X255935752Y-33978714D02*
X255840514Y-34026333D01*
X256888133Y-34740619D02*
X257078609Y-34740619D01*
X257078609Y-34740619D02*
X257173847Y-34693000D01*
X257173847Y-34693000D02*
X257221466Y-34645380D01*
X257221466Y-34645380D02*
X257316704Y-34502523D01*
X257316704Y-34502523D02*
X257364323Y-34312047D01*
X257364323Y-34312047D02*
X257364323Y-33931095D01*
X257364323Y-33931095D02*
X257316704Y-33835857D01*
X257316704Y-33835857D02*
X257269085Y-33788238D01*
X257269085Y-33788238D02*
X257173847Y-33740619D01*
X257173847Y-33740619D02*
X256983371Y-33740619D01*
X256983371Y-33740619D02*
X256888133Y-33788238D01*
X256888133Y-33788238D02*
X256840514Y-33835857D01*
X256840514Y-33835857D02*
X256792895Y-33931095D01*
X256792895Y-33931095D02*
X256792895Y-34169190D01*
X256792895Y-34169190D02*
X256840514Y-34264428D01*
X256840514Y-34264428D02*
X256888133Y-34312047D01*
X256888133Y-34312047D02*
X256983371Y-34359666D01*
X256983371Y-34359666D02*
X257173847Y-34359666D01*
X257173847Y-34359666D02*
X257269085Y-34312047D01*
X257269085Y-34312047D02*
X257316704Y-34264428D01*
X257316704Y-34264428D02*
X257364323Y-34169190D01*
X169784733Y-49330780D02*
X169737114Y-49378400D01*
X169737114Y-49378400D02*
X169594257Y-49426019D01*
X169594257Y-49426019D02*
X169499019Y-49426019D01*
X169499019Y-49426019D02*
X169356162Y-49378400D01*
X169356162Y-49378400D02*
X169260924Y-49283161D01*
X169260924Y-49283161D02*
X169213305Y-49187923D01*
X169213305Y-49187923D02*
X169165686Y-48997447D01*
X169165686Y-48997447D02*
X169165686Y-48854590D01*
X169165686Y-48854590D02*
X169213305Y-48664114D01*
X169213305Y-48664114D02*
X169260924Y-48568876D01*
X169260924Y-48568876D02*
X169356162Y-48473638D01*
X169356162Y-48473638D02*
X169499019Y-48426019D01*
X169499019Y-48426019D02*
X169594257Y-48426019D01*
X169594257Y-48426019D02*
X169737114Y-48473638D01*
X169737114Y-48473638D02*
X169784733Y-48521257D01*
X170118067Y-48426019D02*
X170784733Y-48426019D01*
X170784733Y-48426019D02*
X170356162Y-49426019D01*
X169314342Y-44335180D02*
X169266723Y-44382800D01*
X169266723Y-44382800D02*
X169123866Y-44430419D01*
X169123866Y-44430419D02*
X169028628Y-44430419D01*
X169028628Y-44430419D02*
X168885771Y-44382800D01*
X168885771Y-44382800D02*
X168790533Y-44287561D01*
X168790533Y-44287561D02*
X168742914Y-44192323D01*
X168742914Y-44192323D02*
X168695295Y-44001847D01*
X168695295Y-44001847D02*
X168695295Y-43858990D01*
X168695295Y-43858990D02*
X168742914Y-43668514D01*
X168742914Y-43668514D02*
X168790533Y-43573276D01*
X168790533Y-43573276D02*
X168885771Y-43478038D01*
X168885771Y-43478038D02*
X169028628Y-43430419D01*
X169028628Y-43430419D02*
X169123866Y-43430419D01*
X169123866Y-43430419D02*
X169266723Y-43478038D01*
X169266723Y-43478038D02*
X169314342Y-43525657D01*
X170266723Y-44430419D02*
X169695295Y-44430419D01*
X169981009Y-44430419D02*
X169981009Y-43430419D01*
X169981009Y-43430419D02*
X169885771Y-43573276D01*
X169885771Y-43573276D02*
X169790533Y-43668514D01*
X169790533Y-43668514D02*
X169695295Y-43716133D01*
X171219104Y-44430419D02*
X170647676Y-44430419D01*
X170933390Y-44430419D02*
X170933390Y-43430419D01*
X170933390Y-43430419D02*
X170838152Y-43573276D01*
X170838152Y-43573276D02*
X170742914Y-43668514D01*
X170742914Y-43668514D02*
X170647676Y-43716133D01*
X234695276Y-34693000D02*
X234838133Y-34740619D01*
X234838133Y-34740619D02*
X235076228Y-34740619D01*
X235076228Y-34740619D02*
X235171466Y-34693000D01*
X235171466Y-34693000D02*
X235219085Y-34645380D01*
X235219085Y-34645380D02*
X235266704Y-34550142D01*
X235266704Y-34550142D02*
X235266704Y-34454904D01*
X235266704Y-34454904D02*
X235219085Y-34359666D01*
X235219085Y-34359666D02*
X235171466Y-34312047D01*
X235171466Y-34312047D02*
X235076228Y-34264428D01*
X235076228Y-34264428D02*
X234885752Y-34216809D01*
X234885752Y-34216809D02*
X234790514Y-34169190D01*
X234790514Y-34169190D02*
X234742895Y-34121571D01*
X234742895Y-34121571D02*
X234695276Y-34026333D01*
X234695276Y-34026333D02*
X234695276Y-33931095D01*
X234695276Y-33931095D02*
X234742895Y-33835857D01*
X234742895Y-33835857D02*
X234790514Y-33788238D01*
X234790514Y-33788238D02*
X234885752Y-33740619D01*
X234885752Y-33740619D02*
X235123847Y-33740619D01*
X235123847Y-33740619D02*
X235266704Y-33788238D01*
X235600038Y-33740619D02*
X235838133Y-34740619D01*
X235838133Y-34740619D02*
X236028609Y-34026333D01*
X236028609Y-34026333D02*
X236219085Y-34740619D01*
X236219085Y-34740619D02*
X236457181Y-33740619D01*
X236790514Y-33835857D02*
X236838133Y-33788238D01*
X236838133Y-33788238D02*
X236933371Y-33740619D01*
X236933371Y-33740619D02*
X237171466Y-33740619D01*
X237171466Y-33740619D02*
X237266704Y-33788238D01*
X237266704Y-33788238D02*
X237314323Y-33835857D01*
X237314323Y-33835857D02*
X237361942Y-33931095D01*
X237361942Y-33931095D02*
X237361942Y-34026333D01*
X237361942Y-34026333D02*
X237314323Y-34169190D01*
X237314323Y-34169190D02*
X236742895Y-34740619D01*
X236742895Y-34740619D02*
X237361942Y-34740619D01*
X237980990Y-33740619D02*
X238076228Y-33740619D01*
X238076228Y-33740619D02*
X238171466Y-33788238D01*
X238171466Y-33788238D02*
X238219085Y-33835857D01*
X238219085Y-33835857D02*
X238266704Y-33931095D01*
X238266704Y-33931095D02*
X238314323Y-34121571D01*
X238314323Y-34121571D02*
X238314323Y-34359666D01*
X238314323Y-34359666D02*
X238266704Y-34550142D01*
X238266704Y-34550142D02*
X238219085Y-34645380D01*
X238219085Y-34645380D02*
X238171466Y-34693000D01*
X238171466Y-34693000D02*
X238076228Y-34740619D01*
X238076228Y-34740619D02*
X237980990Y-34740619D01*
X237980990Y-34740619D02*
X237885752Y-34693000D01*
X237885752Y-34693000D02*
X237838133Y-34645380D01*
X237838133Y-34645380D02*
X237790514Y-34550142D01*
X237790514Y-34550142D02*
X237742895Y-34359666D01*
X237742895Y-34359666D02*
X237742895Y-34121571D01*
X237742895Y-34121571D02*
X237790514Y-33931095D01*
X237790514Y-33931095D02*
X237838133Y-33835857D01*
X237838133Y-33835857D02*
X237885752Y-33788238D01*
X237885752Y-33788238D02*
X237980990Y-33740619D01*
X169314342Y-45579780D02*
X169266723Y-45627400D01*
X169266723Y-45627400D02*
X169123866Y-45675019D01*
X169123866Y-45675019D02*
X169028628Y-45675019D01*
X169028628Y-45675019D02*
X168885771Y-45627400D01*
X168885771Y-45627400D02*
X168790533Y-45532161D01*
X168790533Y-45532161D02*
X168742914Y-45436923D01*
X168742914Y-45436923D02*
X168695295Y-45246447D01*
X168695295Y-45246447D02*
X168695295Y-45103590D01*
X168695295Y-45103590D02*
X168742914Y-44913114D01*
X168742914Y-44913114D02*
X168790533Y-44817876D01*
X168790533Y-44817876D02*
X168885771Y-44722638D01*
X168885771Y-44722638D02*
X169028628Y-44675019D01*
X169028628Y-44675019D02*
X169123866Y-44675019D01*
X169123866Y-44675019D02*
X169266723Y-44722638D01*
X169266723Y-44722638D02*
X169314342Y-44770257D01*
X170266723Y-45675019D02*
X169695295Y-45675019D01*
X169981009Y-45675019D02*
X169981009Y-44675019D01*
X169981009Y-44675019D02*
X169885771Y-44817876D01*
X169885771Y-44817876D02*
X169790533Y-44913114D01*
X169790533Y-44913114D02*
X169695295Y-44960733D01*
X170885771Y-44675019D02*
X170981009Y-44675019D01*
X170981009Y-44675019D02*
X171076247Y-44722638D01*
X171076247Y-44722638D02*
X171123866Y-44770257D01*
X171123866Y-44770257D02*
X171171485Y-44865495D01*
X171171485Y-44865495D02*
X171219104Y-45055971D01*
X171219104Y-45055971D02*
X171219104Y-45294066D01*
X171219104Y-45294066D02*
X171171485Y-45484542D01*
X171171485Y-45484542D02*
X171123866Y-45579780D01*
X171123866Y-45579780D02*
X171076247Y-45627400D01*
X171076247Y-45627400D02*
X170981009Y-45675019D01*
X170981009Y-45675019D02*
X170885771Y-45675019D01*
X170885771Y-45675019D02*
X170790533Y-45627400D01*
X170790533Y-45627400D02*
X170742914Y-45579780D01*
X170742914Y-45579780D02*
X170695295Y-45484542D01*
X170695295Y-45484542D02*
X170647676Y-45294066D01*
X170647676Y-45294066D02*
X170647676Y-45055971D01*
X170647676Y-45055971D02*
X170695295Y-44865495D01*
X170695295Y-44865495D02*
X170742914Y-44770257D01*
X170742914Y-44770257D02*
X170790533Y-44722638D01*
X170790533Y-44722638D02*
X170885771Y-44675019D01*
X155242742Y-35945219D02*
X154909409Y-35469028D01*
X154671314Y-35945219D02*
X154671314Y-34945219D01*
X154671314Y-34945219D02*
X155052266Y-34945219D01*
X155052266Y-34945219D02*
X155147504Y-34992838D01*
X155147504Y-34992838D02*
X155195123Y-35040457D01*
X155195123Y-35040457D02*
X155242742Y-35135695D01*
X155242742Y-35135695D02*
X155242742Y-35278552D01*
X155242742Y-35278552D02*
X155195123Y-35373790D01*
X155195123Y-35373790D02*
X155147504Y-35421409D01*
X155147504Y-35421409D02*
X155052266Y-35469028D01*
X155052266Y-35469028D02*
X154671314Y-35469028D01*
X156195123Y-35945219D02*
X155623695Y-35945219D01*
X155909409Y-35945219D02*
X155909409Y-34945219D01*
X155909409Y-34945219D02*
X155814171Y-35088076D01*
X155814171Y-35088076D02*
X155718933Y-35183314D01*
X155718933Y-35183314D02*
X155623695Y-35230933D01*
X156576076Y-35040457D02*
X156623695Y-34992838D01*
X156623695Y-34992838D02*
X156718933Y-34945219D01*
X156718933Y-34945219D02*
X156957028Y-34945219D01*
X156957028Y-34945219D02*
X157052266Y-34992838D01*
X157052266Y-34992838D02*
X157099885Y-35040457D01*
X157099885Y-35040457D02*
X157147504Y-35135695D01*
X157147504Y-35135695D02*
X157147504Y-35230933D01*
X157147504Y-35230933D02*
X157099885Y-35373790D01*
X157099885Y-35373790D02*
X156528457Y-35945219D01*
X156528457Y-35945219D02*
X157147504Y-35945219D01*
X162112580Y-38674857D02*
X162160200Y-38722476D01*
X162160200Y-38722476D02*
X162207819Y-38865333D01*
X162207819Y-38865333D02*
X162207819Y-38960571D01*
X162207819Y-38960571D02*
X162160200Y-39103428D01*
X162160200Y-39103428D02*
X162064961Y-39198666D01*
X162064961Y-39198666D02*
X161969723Y-39246285D01*
X161969723Y-39246285D02*
X161779247Y-39293904D01*
X161779247Y-39293904D02*
X161636390Y-39293904D01*
X161636390Y-39293904D02*
X161445914Y-39246285D01*
X161445914Y-39246285D02*
X161350676Y-39198666D01*
X161350676Y-39198666D02*
X161255438Y-39103428D01*
X161255438Y-39103428D02*
X161207819Y-38960571D01*
X161207819Y-38960571D02*
X161207819Y-38865333D01*
X161207819Y-38865333D02*
X161255438Y-38722476D01*
X161255438Y-38722476D02*
X161303057Y-38674857D01*
X162207819Y-37722476D02*
X162207819Y-38293904D01*
X162207819Y-38008190D02*
X161207819Y-38008190D01*
X161207819Y-38008190D02*
X161350676Y-38103428D01*
X161350676Y-38103428D02*
X161445914Y-38198666D01*
X161445914Y-38198666D02*
X161493533Y-38293904D01*
X161207819Y-37389142D02*
X161207819Y-36722476D01*
X161207819Y-36722476D02*
X162207819Y-37151047D01*
X156587866Y-30468219D02*
X156587866Y-31182504D01*
X156587866Y-31182504D02*
X156540247Y-31325361D01*
X156540247Y-31325361D02*
X156445009Y-31420600D01*
X156445009Y-31420600D02*
X156302152Y-31468219D01*
X156302152Y-31468219D02*
X156206914Y-31468219D01*
X157587866Y-31468219D02*
X157016438Y-31468219D01*
X157302152Y-31468219D02*
X157302152Y-30468219D01*
X157302152Y-30468219D02*
X157206914Y-30611076D01*
X157206914Y-30611076D02*
X157111676Y-30706314D01*
X157111676Y-30706314D02*
X157016438Y-30753933D01*
X164608933Y-43592219D02*
X164275600Y-43116028D01*
X164037505Y-43592219D02*
X164037505Y-42592219D01*
X164037505Y-42592219D02*
X164418457Y-42592219D01*
X164418457Y-42592219D02*
X164513695Y-42639838D01*
X164513695Y-42639838D02*
X164561314Y-42687457D01*
X164561314Y-42687457D02*
X164608933Y-42782695D01*
X164608933Y-42782695D02*
X164608933Y-42925552D01*
X164608933Y-42925552D02*
X164561314Y-43020790D01*
X164561314Y-43020790D02*
X164513695Y-43068409D01*
X164513695Y-43068409D02*
X164418457Y-43116028D01*
X164418457Y-43116028D02*
X164037505Y-43116028D01*
X164942267Y-42592219D02*
X165561314Y-42592219D01*
X165561314Y-42592219D02*
X165227981Y-42973171D01*
X165227981Y-42973171D02*
X165370838Y-42973171D01*
X165370838Y-42973171D02*
X165466076Y-43020790D01*
X165466076Y-43020790D02*
X165513695Y-43068409D01*
X165513695Y-43068409D02*
X165561314Y-43163647D01*
X165561314Y-43163647D02*
X165561314Y-43401742D01*
X165561314Y-43401742D02*
X165513695Y-43496980D01*
X165513695Y-43496980D02*
X165466076Y-43544600D01*
X165466076Y-43544600D02*
X165370838Y-43592219D01*
X165370838Y-43592219D02*
X165085124Y-43592219D01*
X165085124Y-43592219D02*
X164989886Y-43544600D01*
X164989886Y-43544600D02*
X164942267Y-43496980D01*
X154575933Y-34143419D02*
X154242600Y-33667228D01*
X154004505Y-34143419D02*
X154004505Y-33143419D01*
X154004505Y-33143419D02*
X154385457Y-33143419D01*
X154385457Y-33143419D02*
X154480695Y-33191038D01*
X154480695Y-33191038D02*
X154528314Y-33238657D01*
X154528314Y-33238657D02*
X154575933Y-33333895D01*
X154575933Y-33333895D02*
X154575933Y-33476752D01*
X154575933Y-33476752D02*
X154528314Y-33571990D01*
X154528314Y-33571990D02*
X154480695Y-33619609D01*
X154480695Y-33619609D02*
X154385457Y-33667228D01*
X154385457Y-33667228D02*
X154004505Y-33667228D01*
X155433076Y-33143419D02*
X155242600Y-33143419D01*
X155242600Y-33143419D02*
X155147362Y-33191038D01*
X155147362Y-33191038D02*
X155099743Y-33238657D01*
X155099743Y-33238657D02*
X155004505Y-33381514D01*
X155004505Y-33381514D02*
X154956886Y-33571990D01*
X154956886Y-33571990D02*
X154956886Y-33952942D01*
X154956886Y-33952942D02*
X155004505Y-34048180D01*
X155004505Y-34048180D02*
X155052124Y-34095800D01*
X155052124Y-34095800D02*
X155147362Y-34143419D01*
X155147362Y-34143419D02*
X155337838Y-34143419D01*
X155337838Y-34143419D02*
X155433076Y-34095800D01*
X155433076Y-34095800D02*
X155480695Y-34048180D01*
X155480695Y-34048180D02*
X155528314Y-33952942D01*
X155528314Y-33952942D02*
X155528314Y-33714847D01*
X155528314Y-33714847D02*
X155480695Y-33619609D01*
X155480695Y-33619609D02*
X155433076Y-33571990D01*
X155433076Y-33571990D02*
X155337838Y-33524371D01*
X155337838Y-33524371D02*
X155147362Y-33524371D01*
X155147362Y-33524371D02*
X155052124Y-33571990D01*
X155052124Y-33571990D02*
X155004505Y-33619609D01*
X155004505Y-33619609D02*
X154956886Y-33714847D01*
X162830933Y-43566819D02*
X162497600Y-43090628D01*
X162259505Y-43566819D02*
X162259505Y-42566819D01*
X162259505Y-42566819D02*
X162640457Y-42566819D01*
X162640457Y-42566819D02*
X162735695Y-42614438D01*
X162735695Y-42614438D02*
X162783314Y-42662057D01*
X162783314Y-42662057D02*
X162830933Y-42757295D01*
X162830933Y-42757295D02*
X162830933Y-42900152D01*
X162830933Y-42900152D02*
X162783314Y-42995390D01*
X162783314Y-42995390D02*
X162735695Y-43043009D01*
X162735695Y-43043009D02*
X162640457Y-43090628D01*
X162640457Y-43090628D02*
X162259505Y-43090628D01*
X163688076Y-42900152D02*
X163688076Y-43566819D01*
X163449981Y-42519200D02*
X163211886Y-43233485D01*
X163211886Y-43233485D02*
X163830933Y-43233485D01*
X169156142Y-48359219D02*
X168822809Y-47883028D01*
X168584714Y-48359219D02*
X168584714Y-47359219D01*
X168584714Y-47359219D02*
X168965666Y-47359219D01*
X168965666Y-47359219D02*
X169060904Y-47406838D01*
X169060904Y-47406838D02*
X169108523Y-47454457D01*
X169108523Y-47454457D02*
X169156142Y-47549695D01*
X169156142Y-47549695D02*
X169156142Y-47692552D01*
X169156142Y-47692552D02*
X169108523Y-47787790D01*
X169108523Y-47787790D02*
X169060904Y-47835409D01*
X169060904Y-47835409D02*
X168965666Y-47883028D01*
X168965666Y-47883028D02*
X168584714Y-47883028D01*
X170108523Y-48359219D02*
X169537095Y-48359219D01*
X169822809Y-48359219D02*
X169822809Y-47359219D01*
X169822809Y-47359219D02*
X169727571Y-47502076D01*
X169727571Y-47502076D02*
X169632333Y-47597314D01*
X169632333Y-47597314D02*
X169537095Y-47644933D01*
X170727571Y-47359219D02*
X170822809Y-47359219D01*
X170822809Y-47359219D02*
X170918047Y-47406838D01*
X170918047Y-47406838D02*
X170965666Y-47454457D01*
X170965666Y-47454457D02*
X171013285Y-47549695D01*
X171013285Y-47549695D02*
X171060904Y-47740171D01*
X171060904Y-47740171D02*
X171060904Y-47978266D01*
X171060904Y-47978266D02*
X171013285Y-48168742D01*
X171013285Y-48168742D02*
X170965666Y-48263980D01*
X170965666Y-48263980D02*
X170918047Y-48311600D01*
X170918047Y-48311600D02*
X170822809Y-48359219D01*
X170822809Y-48359219D02*
X170727571Y-48359219D01*
X170727571Y-48359219D02*
X170632333Y-48311600D01*
X170632333Y-48311600D02*
X170584714Y-48263980D01*
X170584714Y-48263980D02*
X170537095Y-48168742D01*
X170537095Y-48168742D02*
X170489476Y-47978266D01*
X170489476Y-47978266D02*
X170489476Y-47740171D01*
X170489476Y-47740171D02*
X170537095Y-47549695D01*
X170537095Y-47549695D02*
X170584714Y-47454457D01*
X170584714Y-47454457D02*
X170632333Y-47406838D01*
X170632333Y-47406838D02*
X170727571Y-47359219D01*
X250854380Y-44254657D02*
X250902000Y-44302276D01*
X250902000Y-44302276D02*
X250949619Y-44445133D01*
X250949619Y-44445133D02*
X250949619Y-44540371D01*
X250949619Y-44540371D02*
X250902000Y-44683228D01*
X250902000Y-44683228D02*
X250806761Y-44778466D01*
X250806761Y-44778466D02*
X250711523Y-44826085D01*
X250711523Y-44826085D02*
X250521047Y-44873704D01*
X250521047Y-44873704D02*
X250378190Y-44873704D01*
X250378190Y-44873704D02*
X250187714Y-44826085D01*
X250187714Y-44826085D02*
X250092476Y-44778466D01*
X250092476Y-44778466D02*
X249997238Y-44683228D01*
X249997238Y-44683228D02*
X249949619Y-44540371D01*
X249949619Y-44540371D02*
X249949619Y-44445133D01*
X249949619Y-44445133D02*
X249997238Y-44302276D01*
X249997238Y-44302276D02*
X250044857Y-44254657D01*
X250044857Y-43873704D02*
X249997238Y-43826085D01*
X249997238Y-43826085D02*
X249949619Y-43730847D01*
X249949619Y-43730847D02*
X249949619Y-43492752D01*
X249949619Y-43492752D02*
X249997238Y-43397514D01*
X249997238Y-43397514D02*
X250044857Y-43349895D01*
X250044857Y-43349895D02*
X250140095Y-43302276D01*
X250140095Y-43302276D02*
X250235333Y-43302276D01*
X250235333Y-43302276D02*
X250378190Y-43349895D01*
X250378190Y-43349895D02*
X250949619Y-43921323D01*
X250949619Y-43921323D02*
X250949619Y-43302276D01*
X250949619Y-42349895D02*
X250949619Y-42921323D01*
X250949619Y-42635609D02*
X249949619Y-42635609D01*
X249949619Y-42635609D02*
X250092476Y-42730847D01*
X250092476Y-42730847D02*
X250187714Y-42826085D01*
X250187714Y-42826085D02*
X250235333Y-42921323D01*
X165719380Y-53286266D02*
X165767000Y-53333885D01*
X165767000Y-53333885D02*
X165814619Y-53476742D01*
X165814619Y-53476742D02*
X165814619Y-53571980D01*
X165814619Y-53571980D02*
X165767000Y-53714837D01*
X165767000Y-53714837D02*
X165671761Y-53810075D01*
X165671761Y-53810075D02*
X165576523Y-53857694D01*
X165576523Y-53857694D02*
X165386047Y-53905313D01*
X165386047Y-53905313D02*
X165243190Y-53905313D01*
X165243190Y-53905313D02*
X165052714Y-53857694D01*
X165052714Y-53857694D02*
X164957476Y-53810075D01*
X164957476Y-53810075D02*
X164862238Y-53714837D01*
X164862238Y-53714837D02*
X164814619Y-53571980D01*
X164814619Y-53571980D02*
X164814619Y-53476742D01*
X164814619Y-53476742D02*
X164862238Y-53333885D01*
X164862238Y-53333885D02*
X164909857Y-53286266D01*
X165814619Y-52810075D02*
X165814619Y-52619599D01*
X165814619Y-52619599D02*
X165767000Y-52524361D01*
X165767000Y-52524361D02*
X165719380Y-52476742D01*
X165719380Y-52476742D02*
X165576523Y-52381504D01*
X165576523Y-52381504D02*
X165386047Y-52333885D01*
X165386047Y-52333885D02*
X165005095Y-52333885D01*
X165005095Y-52333885D02*
X164909857Y-52381504D01*
X164909857Y-52381504D02*
X164862238Y-52429123D01*
X164862238Y-52429123D02*
X164814619Y-52524361D01*
X164814619Y-52524361D02*
X164814619Y-52714837D01*
X164814619Y-52714837D02*
X164862238Y-52810075D01*
X164862238Y-52810075D02*
X164909857Y-52857694D01*
X164909857Y-52857694D02*
X165005095Y-52905313D01*
X165005095Y-52905313D02*
X165243190Y-52905313D01*
X165243190Y-52905313D02*
X165338428Y-52857694D01*
X165338428Y-52857694D02*
X165386047Y-52810075D01*
X165386047Y-52810075D02*
X165433666Y-52714837D01*
X165433666Y-52714837D02*
X165433666Y-52524361D01*
X165433666Y-52524361D02*
X165386047Y-52429123D01*
X165386047Y-52429123D02*
X165338428Y-52381504D01*
X165338428Y-52381504D02*
X165243190Y-52333885D01*
X165516180Y-39925866D02*
X165563800Y-39973485D01*
X165563800Y-39973485D02*
X165611419Y-40116342D01*
X165611419Y-40116342D02*
X165611419Y-40211580D01*
X165611419Y-40211580D02*
X165563800Y-40354437D01*
X165563800Y-40354437D02*
X165468561Y-40449675D01*
X165468561Y-40449675D02*
X165373323Y-40497294D01*
X165373323Y-40497294D02*
X165182847Y-40544913D01*
X165182847Y-40544913D02*
X165039990Y-40544913D01*
X165039990Y-40544913D02*
X164849514Y-40497294D01*
X164849514Y-40497294D02*
X164754276Y-40449675D01*
X164754276Y-40449675D02*
X164659038Y-40354437D01*
X164659038Y-40354437D02*
X164611419Y-40211580D01*
X164611419Y-40211580D02*
X164611419Y-40116342D01*
X164611419Y-40116342D02*
X164659038Y-39973485D01*
X164659038Y-39973485D02*
X164706657Y-39925866D01*
X164611419Y-39592532D02*
X164611419Y-38973485D01*
X164611419Y-38973485D02*
X164992371Y-39306818D01*
X164992371Y-39306818D02*
X164992371Y-39163961D01*
X164992371Y-39163961D02*
X165039990Y-39068723D01*
X165039990Y-39068723D02*
X165087609Y-39021104D01*
X165087609Y-39021104D02*
X165182847Y-38973485D01*
X165182847Y-38973485D02*
X165420942Y-38973485D01*
X165420942Y-38973485D02*
X165516180Y-39021104D01*
X165516180Y-39021104D02*
X165563800Y-39068723D01*
X165563800Y-39068723D02*
X165611419Y-39163961D01*
X165611419Y-39163961D02*
X165611419Y-39449675D01*
X165611419Y-39449675D02*
X165563800Y-39544913D01*
X165563800Y-39544913D02*
X165516180Y-39592532D01*
X244296419Y-46151866D02*
X243820228Y-46485199D01*
X244296419Y-46723294D02*
X243296419Y-46723294D01*
X243296419Y-46723294D02*
X243296419Y-46342342D01*
X243296419Y-46342342D02*
X243344038Y-46247104D01*
X243344038Y-46247104D02*
X243391657Y-46199485D01*
X243391657Y-46199485D02*
X243486895Y-46151866D01*
X243486895Y-46151866D02*
X243629752Y-46151866D01*
X243629752Y-46151866D02*
X243724990Y-46199485D01*
X243724990Y-46199485D02*
X243772609Y-46247104D01*
X243772609Y-46247104D02*
X243820228Y-46342342D01*
X243820228Y-46342342D02*
X243820228Y-46723294D01*
X244296419Y-45675675D02*
X244296419Y-45485199D01*
X244296419Y-45485199D02*
X244248800Y-45389961D01*
X244248800Y-45389961D02*
X244201180Y-45342342D01*
X244201180Y-45342342D02*
X244058323Y-45247104D01*
X244058323Y-45247104D02*
X243867847Y-45199485D01*
X243867847Y-45199485D02*
X243486895Y-45199485D01*
X243486895Y-45199485D02*
X243391657Y-45247104D01*
X243391657Y-45247104D02*
X243344038Y-45294723D01*
X243344038Y-45294723D02*
X243296419Y-45389961D01*
X243296419Y-45389961D02*
X243296419Y-45580437D01*
X243296419Y-45580437D02*
X243344038Y-45675675D01*
X243344038Y-45675675D02*
X243391657Y-45723294D01*
X243391657Y-45723294D02*
X243486895Y-45770913D01*
X243486895Y-45770913D02*
X243724990Y-45770913D01*
X243724990Y-45770913D02*
X243820228Y-45723294D01*
X243820228Y-45723294D02*
X243867847Y-45675675D01*
X243867847Y-45675675D02*
X243915466Y-45580437D01*
X243915466Y-45580437D02*
X243915466Y-45389961D01*
X243915466Y-45389961D02*
X243867847Y-45294723D01*
X243867847Y-45294723D02*
X243820228Y-45247104D01*
X243820228Y-45247104D02*
X243724990Y-45199485D01*
X245716466Y-46165419D02*
X245716466Y-46879704D01*
X245716466Y-46879704D02*
X245668847Y-47022561D01*
X245668847Y-47022561D02*
X245573609Y-47117800D01*
X245573609Y-47117800D02*
X245430752Y-47165419D01*
X245430752Y-47165419D02*
X245335514Y-47165419D01*
X246145038Y-46260657D02*
X246192657Y-46213038D01*
X246192657Y-46213038D02*
X246287895Y-46165419D01*
X246287895Y-46165419D02*
X246525990Y-46165419D01*
X246525990Y-46165419D02*
X246621228Y-46213038D01*
X246621228Y-46213038D02*
X246668847Y-46260657D01*
X246668847Y-46260657D02*
X246716466Y-46355895D01*
X246716466Y-46355895D02*
X246716466Y-46451133D01*
X246716466Y-46451133D02*
X246668847Y-46593990D01*
X246668847Y-46593990D02*
X246097419Y-47165419D01*
X246097419Y-47165419D02*
X246716466Y-47165419D01*
X239373580Y-42756057D02*
X239421200Y-42803676D01*
X239421200Y-42803676D02*
X239468819Y-42946533D01*
X239468819Y-42946533D02*
X239468819Y-43041771D01*
X239468819Y-43041771D02*
X239421200Y-43184628D01*
X239421200Y-43184628D02*
X239325961Y-43279866D01*
X239325961Y-43279866D02*
X239230723Y-43327485D01*
X239230723Y-43327485D02*
X239040247Y-43375104D01*
X239040247Y-43375104D02*
X238897390Y-43375104D01*
X238897390Y-43375104D02*
X238706914Y-43327485D01*
X238706914Y-43327485D02*
X238611676Y-43279866D01*
X238611676Y-43279866D02*
X238516438Y-43184628D01*
X238516438Y-43184628D02*
X238468819Y-43041771D01*
X238468819Y-43041771D02*
X238468819Y-42946533D01*
X238468819Y-42946533D02*
X238516438Y-42803676D01*
X238516438Y-42803676D02*
X238564057Y-42756057D01*
X238564057Y-42375104D02*
X238516438Y-42327485D01*
X238516438Y-42327485D02*
X238468819Y-42232247D01*
X238468819Y-42232247D02*
X238468819Y-41994152D01*
X238468819Y-41994152D02*
X238516438Y-41898914D01*
X238516438Y-41898914D02*
X238564057Y-41851295D01*
X238564057Y-41851295D02*
X238659295Y-41803676D01*
X238659295Y-41803676D02*
X238754533Y-41803676D01*
X238754533Y-41803676D02*
X238897390Y-41851295D01*
X238897390Y-41851295D02*
X239468819Y-42422723D01*
X239468819Y-42422723D02*
X239468819Y-41803676D01*
X238468819Y-41470342D02*
X238468819Y-40851295D01*
X238468819Y-40851295D02*
X238849771Y-41184628D01*
X238849771Y-41184628D02*
X238849771Y-41041771D01*
X238849771Y-41041771D02*
X238897390Y-40946533D01*
X238897390Y-40946533D02*
X238945009Y-40898914D01*
X238945009Y-40898914D02*
X239040247Y-40851295D01*
X239040247Y-40851295D02*
X239278342Y-40851295D01*
X239278342Y-40851295D02*
X239373580Y-40898914D01*
X239373580Y-40898914D02*
X239421200Y-40946533D01*
X239421200Y-40946533D02*
X239468819Y-41041771D01*
X239468819Y-41041771D02*
X239468819Y-41327485D01*
X239468819Y-41327485D02*
X239421200Y-41422723D01*
X239421200Y-41422723D02*
X239373580Y-41470342D01*
X157655742Y-55003180D02*
X157608123Y-55050800D01*
X157608123Y-55050800D02*
X157465266Y-55098419D01*
X157465266Y-55098419D02*
X157370028Y-55098419D01*
X157370028Y-55098419D02*
X157227171Y-55050800D01*
X157227171Y-55050800D02*
X157131933Y-54955561D01*
X157131933Y-54955561D02*
X157084314Y-54860323D01*
X157084314Y-54860323D02*
X157036695Y-54669847D01*
X157036695Y-54669847D02*
X157036695Y-54526990D01*
X157036695Y-54526990D02*
X157084314Y-54336514D01*
X157084314Y-54336514D02*
X157131933Y-54241276D01*
X157131933Y-54241276D02*
X157227171Y-54146038D01*
X157227171Y-54146038D02*
X157370028Y-54098419D01*
X157370028Y-54098419D02*
X157465266Y-54098419D01*
X157465266Y-54098419D02*
X157608123Y-54146038D01*
X157608123Y-54146038D02*
X157655742Y-54193657D01*
X158608123Y-55098419D02*
X158036695Y-55098419D01*
X158322409Y-55098419D02*
X158322409Y-54098419D01*
X158322409Y-54098419D02*
X158227171Y-54241276D01*
X158227171Y-54241276D02*
X158131933Y-54336514D01*
X158131933Y-54336514D02*
X158036695Y-54384133D01*
X159512885Y-54098419D02*
X159036695Y-54098419D01*
X159036695Y-54098419D02*
X158989076Y-54574609D01*
X158989076Y-54574609D02*
X159036695Y-54526990D01*
X159036695Y-54526990D02*
X159131933Y-54479371D01*
X159131933Y-54479371D02*
X159370028Y-54479371D01*
X159370028Y-54479371D02*
X159465266Y-54526990D01*
X159465266Y-54526990D02*
X159512885Y-54574609D01*
X159512885Y-54574609D02*
X159560504Y-54669847D01*
X159560504Y-54669847D02*
X159560504Y-54907942D01*
X159560504Y-54907942D02*
X159512885Y-55003180D01*
X159512885Y-55003180D02*
X159465266Y-55050800D01*
X159465266Y-55050800D02*
X159370028Y-55098419D01*
X159370028Y-55098419D02*
X159131933Y-55098419D01*
X159131933Y-55098419D02*
X159036695Y-55050800D01*
X159036695Y-55050800D02*
X158989076Y-55003180D01*
X169156142Y-47216219D02*
X168822809Y-46740028D01*
X168584714Y-47216219D02*
X168584714Y-46216219D01*
X168584714Y-46216219D02*
X168965666Y-46216219D01*
X168965666Y-46216219D02*
X169060904Y-46263838D01*
X169060904Y-46263838D02*
X169108523Y-46311457D01*
X169108523Y-46311457D02*
X169156142Y-46406695D01*
X169156142Y-46406695D02*
X169156142Y-46549552D01*
X169156142Y-46549552D02*
X169108523Y-46644790D01*
X169108523Y-46644790D02*
X169060904Y-46692409D01*
X169060904Y-46692409D02*
X168965666Y-46740028D01*
X168965666Y-46740028D02*
X168584714Y-46740028D01*
X170108523Y-47216219D02*
X169537095Y-47216219D01*
X169822809Y-47216219D02*
X169822809Y-46216219D01*
X169822809Y-46216219D02*
X169727571Y-46359076D01*
X169727571Y-46359076D02*
X169632333Y-46454314D01*
X169632333Y-46454314D02*
X169537095Y-46501933D01*
X171060904Y-47216219D02*
X170489476Y-47216219D01*
X170775190Y-47216219D02*
X170775190Y-46216219D01*
X170775190Y-46216219D02*
X170679952Y-46359076D01*
X170679952Y-46359076D02*
X170584714Y-46454314D01*
X170584714Y-46454314D02*
X170489476Y-46501933D01*
X249609780Y-44280057D02*
X249657400Y-44327676D01*
X249657400Y-44327676D02*
X249705019Y-44470533D01*
X249705019Y-44470533D02*
X249705019Y-44565771D01*
X249705019Y-44565771D02*
X249657400Y-44708628D01*
X249657400Y-44708628D02*
X249562161Y-44803866D01*
X249562161Y-44803866D02*
X249466923Y-44851485D01*
X249466923Y-44851485D02*
X249276447Y-44899104D01*
X249276447Y-44899104D02*
X249133590Y-44899104D01*
X249133590Y-44899104D02*
X248943114Y-44851485D01*
X248943114Y-44851485D02*
X248847876Y-44803866D01*
X248847876Y-44803866D02*
X248752638Y-44708628D01*
X248752638Y-44708628D02*
X248705019Y-44565771D01*
X248705019Y-44565771D02*
X248705019Y-44470533D01*
X248705019Y-44470533D02*
X248752638Y-44327676D01*
X248752638Y-44327676D02*
X248800257Y-44280057D01*
X248800257Y-43899104D02*
X248752638Y-43851485D01*
X248752638Y-43851485D02*
X248705019Y-43756247D01*
X248705019Y-43756247D02*
X248705019Y-43518152D01*
X248705019Y-43518152D02*
X248752638Y-43422914D01*
X248752638Y-43422914D02*
X248800257Y-43375295D01*
X248800257Y-43375295D02*
X248895495Y-43327676D01*
X248895495Y-43327676D02*
X248990733Y-43327676D01*
X248990733Y-43327676D02*
X249133590Y-43375295D01*
X249133590Y-43375295D02*
X249705019Y-43946723D01*
X249705019Y-43946723D02*
X249705019Y-43327676D01*
X248705019Y-42708628D02*
X248705019Y-42613390D01*
X248705019Y-42613390D02*
X248752638Y-42518152D01*
X248752638Y-42518152D02*
X248800257Y-42470533D01*
X248800257Y-42470533D02*
X248895495Y-42422914D01*
X248895495Y-42422914D02*
X249085971Y-42375295D01*
X249085971Y-42375295D02*
X249324066Y-42375295D01*
X249324066Y-42375295D02*
X249514542Y-42422914D01*
X249514542Y-42422914D02*
X249609780Y-42470533D01*
X249609780Y-42470533D02*
X249657400Y-42518152D01*
X249657400Y-42518152D02*
X249705019Y-42613390D01*
X249705019Y-42613390D02*
X249705019Y-42708628D01*
X249705019Y-42708628D02*
X249657400Y-42803866D01*
X249657400Y-42803866D02*
X249609780Y-42851485D01*
X249609780Y-42851485D02*
X249514542Y-42899104D01*
X249514542Y-42899104D02*
X249324066Y-42946723D01*
X249324066Y-42946723D02*
X249085971Y-42946723D01*
X249085971Y-42946723D02*
X248895495Y-42899104D01*
X248895495Y-42899104D02*
X248800257Y-42851485D01*
X248800257Y-42851485D02*
X248752638Y-42803866D01*
X248752638Y-42803866D02*
X248705019Y-42708628D01*
X171586780Y-35804657D02*
X171634400Y-35852276D01*
X171634400Y-35852276D02*
X171682019Y-35995133D01*
X171682019Y-35995133D02*
X171682019Y-36090371D01*
X171682019Y-36090371D02*
X171634400Y-36233228D01*
X171634400Y-36233228D02*
X171539161Y-36328466D01*
X171539161Y-36328466D02*
X171443923Y-36376085D01*
X171443923Y-36376085D02*
X171253447Y-36423704D01*
X171253447Y-36423704D02*
X171110590Y-36423704D01*
X171110590Y-36423704D02*
X170920114Y-36376085D01*
X170920114Y-36376085D02*
X170824876Y-36328466D01*
X170824876Y-36328466D02*
X170729638Y-36233228D01*
X170729638Y-36233228D02*
X170682019Y-36090371D01*
X170682019Y-36090371D02*
X170682019Y-35995133D01*
X170682019Y-35995133D02*
X170729638Y-35852276D01*
X170729638Y-35852276D02*
X170777257Y-35804657D01*
X171682019Y-34852276D02*
X171682019Y-35423704D01*
X171682019Y-35137990D02*
X170682019Y-35137990D01*
X170682019Y-35137990D02*
X170824876Y-35233228D01*
X170824876Y-35233228D02*
X170920114Y-35328466D01*
X170920114Y-35328466D02*
X170967733Y-35423704D01*
X170777257Y-34471323D02*
X170729638Y-34423704D01*
X170729638Y-34423704D02*
X170682019Y-34328466D01*
X170682019Y-34328466D02*
X170682019Y-34090371D01*
X170682019Y-34090371D02*
X170729638Y-33995133D01*
X170729638Y-33995133D02*
X170777257Y-33947514D01*
X170777257Y-33947514D02*
X170872495Y-33899895D01*
X170872495Y-33899895D02*
X170967733Y-33899895D01*
X170967733Y-33899895D02*
X171110590Y-33947514D01*
X171110590Y-33947514D02*
X171682019Y-34518942D01*
X171682019Y-34518942D02*
X171682019Y-33899895D01*
X154575933Y-32924219D02*
X154242600Y-32448028D01*
X154004505Y-32924219D02*
X154004505Y-31924219D01*
X154004505Y-31924219D02*
X154385457Y-31924219D01*
X154385457Y-31924219D02*
X154480695Y-31971838D01*
X154480695Y-31971838D02*
X154528314Y-32019457D01*
X154528314Y-32019457D02*
X154575933Y-32114695D01*
X154575933Y-32114695D02*
X154575933Y-32257552D01*
X154575933Y-32257552D02*
X154528314Y-32352790D01*
X154528314Y-32352790D02*
X154480695Y-32400409D01*
X154480695Y-32400409D02*
X154385457Y-32448028D01*
X154385457Y-32448028D02*
X154004505Y-32448028D01*
X155480695Y-31924219D02*
X155004505Y-31924219D01*
X155004505Y-31924219D02*
X154956886Y-32400409D01*
X154956886Y-32400409D02*
X155004505Y-32352790D01*
X155004505Y-32352790D02*
X155099743Y-32305171D01*
X155099743Y-32305171D02*
X155337838Y-32305171D01*
X155337838Y-32305171D02*
X155433076Y-32352790D01*
X155433076Y-32352790D02*
X155480695Y-32400409D01*
X155480695Y-32400409D02*
X155528314Y-32495647D01*
X155528314Y-32495647D02*
X155528314Y-32733742D01*
X155528314Y-32733742D02*
X155480695Y-32828980D01*
X155480695Y-32828980D02*
X155433076Y-32876600D01*
X155433076Y-32876600D02*
X155337838Y-32924219D01*
X155337838Y-32924219D02*
X155099743Y-32924219D01*
X155099743Y-32924219D02*
X155004505Y-32876600D01*
X155004505Y-32876600D02*
X154956886Y-32828980D01*
X167026830Y-53281216D02*
X167074450Y-53328835D01*
X167074450Y-53328835D02*
X167122069Y-53471692D01*
X167122069Y-53471692D02*
X167122069Y-53566930D01*
X167122069Y-53566930D02*
X167074450Y-53709787D01*
X167074450Y-53709787D02*
X166979211Y-53805025D01*
X166979211Y-53805025D02*
X166883973Y-53852644D01*
X166883973Y-53852644D02*
X166693497Y-53900263D01*
X166693497Y-53900263D02*
X166550640Y-53900263D01*
X166550640Y-53900263D02*
X166360164Y-53852644D01*
X166360164Y-53852644D02*
X166264926Y-53805025D01*
X166264926Y-53805025D02*
X166169688Y-53709787D01*
X166169688Y-53709787D02*
X166122069Y-53566930D01*
X166122069Y-53566930D02*
X166122069Y-53471692D01*
X166122069Y-53471692D02*
X166169688Y-53328835D01*
X166169688Y-53328835D02*
X166217307Y-53281216D01*
X166217307Y-52900263D02*
X166169688Y-52852644D01*
X166169688Y-52852644D02*
X166122069Y-52757406D01*
X166122069Y-52757406D02*
X166122069Y-52519311D01*
X166122069Y-52519311D02*
X166169688Y-52424073D01*
X166169688Y-52424073D02*
X166217307Y-52376454D01*
X166217307Y-52376454D02*
X166312545Y-52328835D01*
X166312545Y-52328835D02*
X166407783Y-52328835D01*
X166407783Y-52328835D02*
X166550640Y-52376454D01*
X166550640Y-52376454D02*
X167122069Y-52947882D01*
X167122069Y-52947882D02*
X167122069Y-52328835D01*
X166532180Y-39875066D02*
X166579800Y-39922685D01*
X166579800Y-39922685D02*
X166627419Y-40065542D01*
X166627419Y-40065542D02*
X166627419Y-40160780D01*
X166627419Y-40160780D02*
X166579800Y-40303637D01*
X166579800Y-40303637D02*
X166484561Y-40398875D01*
X166484561Y-40398875D02*
X166389323Y-40446494D01*
X166389323Y-40446494D02*
X166198847Y-40494113D01*
X166198847Y-40494113D02*
X166055990Y-40494113D01*
X166055990Y-40494113D02*
X165865514Y-40446494D01*
X165865514Y-40446494D02*
X165770276Y-40398875D01*
X165770276Y-40398875D02*
X165675038Y-40303637D01*
X165675038Y-40303637D02*
X165627419Y-40160780D01*
X165627419Y-40160780D02*
X165627419Y-40065542D01*
X165627419Y-40065542D02*
X165675038Y-39922685D01*
X165675038Y-39922685D02*
X165722657Y-39875066D01*
X165960752Y-39017923D02*
X166627419Y-39017923D01*
X165579800Y-39256018D02*
X166294085Y-39494113D01*
X166294085Y-39494113D02*
X166294085Y-38875066D01*
X156885333Y-50270380D02*
X156837714Y-50318000D01*
X156837714Y-50318000D02*
X156694857Y-50365619D01*
X156694857Y-50365619D02*
X156599619Y-50365619D01*
X156599619Y-50365619D02*
X156456762Y-50318000D01*
X156456762Y-50318000D02*
X156361524Y-50222761D01*
X156361524Y-50222761D02*
X156313905Y-50127523D01*
X156313905Y-50127523D02*
X156266286Y-49937047D01*
X156266286Y-49937047D02*
X156266286Y-49794190D01*
X156266286Y-49794190D02*
X156313905Y-49603714D01*
X156313905Y-49603714D02*
X156361524Y-49508476D01*
X156361524Y-49508476D02*
X156456762Y-49413238D01*
X156456762Y-49413238D02*
X156599619Y-49365619D01*
X156599619Y-49365619D02*
X156694857Y-49365619D01*
X156694857Y-49365619D02*
X156837714Y-49413238D01*
X156837714Y-49413238D02*
X156885333Y-49460857D01*
X157456762Y-49794190D02*
X157361524Y-49746571D01*
X157361524Y-49746571D02*
X157313905Y-49698952D01*
X157313905Y-49698952D02*
X157266286Y-49603714D01*
X157266286Y-49603714D02*
X157266286Y-49556095D01*
X157266286Y-49556095D02*
X157313905Y-49460857D01*
X157313905Y-49460857D02*
X157361524Y-49413238D01*
X157361524Y-49413238D02*
X157456762Y-49365619D01*
X157456762Y-49365619D02*
X157647238Y-49365619D01*
X157647238Y-49365619D02*
X157742476Y-49413238D01*
X157742476Y-49413238D02*
X157790095Y-49460857D01*
X157790095Y-49460857D02*
X157837714Y-49556095D01*
X157837714Y-49556095D02*
X157837714Y-49603714D01*
X157837714Y-49603714D02*
X157790095Y-49698952D01*
X157790095Y-49698952D02*
X157742476Y-49746571D01*
X157742476Y-49746571D02*
X157647238Y-49794190D01*
X157647238Y-49794190D02*
X157456762Y-49794190D01*
X157456762Y-49794190D02*
X157361524Y-49841809D01*
X157361524Y-49841809D02*
X157313905Y-49889428D01*
X157313905Y-49889428D02*
X157266286Y-49984666D01*
X157266286Y-49984666D02*
X157266286Y-50175142D01*
X157266286Y-50175142D02*
X157313905Y-50270380D01*
X157313905Y-50270380D02*
X157361524Y-50318000D01*
X157361524Y-50318000D02*
X157456762Y-50365619D01*
X157456762Y-50365619D02*
X157647238Y-50365619D01*
X157647238Y-50365619D02*
X157742476Y-50318000D01*
X157742476Y-50318000D02*
X157790095Y-50270380D01*
X157790095Y-50270380D02*
X157837714Y-50175142D01*
X157837714Y-50175142D02*
X157837714Y-49984666D01*
X157837714Y-49984666D02*
X157790095Y-49889428D01*
X157790095Y-49889428D02*
X157742476Y-49841809D01*
X157742476Y-49841809D02*
X157647238Y-49794190D01*
X170223919Y-39936904D02*
X171033442Y-39936904D01*
X171033442Y-39936904D02*
X171128680Y-39889285D01*
X171128680Y-39889285D02*
X171176300Y-39841666D01*
X171176300Y-39841666D02*
X171223919Y-39746428D01*
X171223919Y-39746428D02*
X171223919Y-39555952D01*
X171223919Y-39555952D02*
X171176300Y-39460714D01*
X171176300Y-39460714D02*
X171128680Y-39413095D01*
X171128680Y-39413095D02*
X171033442Y-39365476D01*
X171033442Y-39365476D02*
X170223919Y-39365476D01*
X170319157Y-38936904D02*
X170271538Y-38889285D01*
X170271538Y-38889285D02*
X170223919Y-38794047D01*
X170223919Y-38794047D02*
X170223919Y-38555952D01*
X170223919Y-38555952D02*
X170271538Y-38460714D01*
X170271538Y-38460714D02*
X170319157Y-38413095D01*
X170319157Y-38413095D02*
X170414395Y-38365476D01*
X170414395Y-38365476D02*
X170509633Y-38365476D01*
X170509633Y-38365476D02*
X170652490Y-38413095D01*
X170652490Y-38413095D02*
X171223919Y-38984523D01*
X171223919Y-38984523D02*
X171223919Y-38365476D01*
X189846619Y-42936488D02*
X190656142Y-42936488D01*
X190656142Y-42936488D02*
X190751380Y-42888869D01*
X190751380Y-42888869D02*
X190799000Y-42841250D01*
X190799000Y-42841250D02*
X190846619Y-42746012D01*
X190846619Y-42746012D02*
X190846619Y-42555536D01*
X190846619Y-42555536D02*
X190799000Y-42460298D01*
X190799000Y-42460298D02*
X190751380Y-42412679D01*
X190751380Y-42412679D02*
X190656142Y-42365060D01*
X190656142Y-42365060D02*
X189846619Y-42365060D01*
X189846619Y-41412679D02*
X189846619Y-41888869D01*
X189846619Y-41888869D02*
X190322809Y-41936488D01*
X190322809Y-41936488D02*
X190275190Y-41888869D01*
X190275190Y-41888869D02*
X190227571Y-41793631D01*
X190227571Y-41793631D02*
X190227571Y-41555536D01*
X190227571Y-41555536D02*
X190275190Y-41460298D01*
X190275190Y-41460298D02*
X190322809Y-41412679D01*
X190322809Y-41412679D02*
X190418047Y-41365060D01*
X190418047Y-41365060D02*
X190656142Y-41365060D01*
X190656142Y-41365060D02*
X190751380Y-41412679D01*
X190751380Y-41412679D02*
X190799000Y-41460298D01*
X190799000Y-41460298D02*
X190846619Y-41555536D01*
X190846619Y-41555536D02*
X190846619Y-41793631D01*
X190846619Y-41793631D02*
X190799000Y-41888869D01*
X190799000Y-41888869D02*
X190751380Y-41936488D01*
X109695667Y-70491300D02*
X109838524Y-70538919D01*
X109838524Y-70538919D02*
X110076619Y-70538919D01*
X110076619Y-70538919D02*
X110171857Y-70491300D01*
X110171857Y-70491300D02*
X110219476Y-70443680D01*
X110219476Y-70443680D02*
X110267095Y-70348442D01*
X110267095Y-70348442D02*
X110267095Y-70253204D01*
X110267095Y-70253204D02*
X110219476Y-70157966D01*
X110219476Y-70157966D02*
X110171857Y-70110347D01*
X110171857Y-70110347D02*
X110076619Y-70062728D01*
X110076619Y-70062728D02*
X109886143Y-70015109D01*
X109886143Y-70015109D02*
X109790905Y-69967490D01*
X109790905Y-69967490D02*
X109743286Y-69919871D01*
X109743286Y-69919871D02*
X109695667Y-69824633D01*
X109695667Y-69824633D02*
X109695667Y-69729395D01*
X109695667Y-69729395D02*
X109743286Y-69634157D01*
X109743286Y-69634157D02*
X109790905Y-69586538D01*
X109790905Y-69586538D02*
X109886143Y-69538919D01*
X109886143Y-69538919D02*
X110124238Y-69538919D01*
X110124238Y-69538919D02*
X110267095Y-69586538D01*
X110600429Y-69538919D02*
X110838524Y-70538919D01*
X110838524Y-70538919D02*
X111029000Y-69824633D01*
X111029000Y-69824633D02*
X111219476Y-70538919D01*
X111219476Y-70538919D02*
X111457572Y-69538919D01*
X112267095Y-69538919D02*
X112076619Y-69538919D01*
X112076619Y-69538919D02*
X111981381Y-69586538D01*
X111981381Y-69586538D02*
X111933762Y-69634157D01*
X111933762Y-69634157D02*
X111838524Y-69777014D01*
X111838524Y-69777014D02*
X111790905Y-69967490D01*
X111790905Y-69967490D02*
X111790905Y-70348442D01*
X111790905Y-70348442D02*
X111838524Y-70443680D01*
X111838524Y-70443680D02*
X111886143Y-70491300D01*
X111886143Y-70491300D02*
X111981381Y-70538919D01*
X111981381Y-70538919D02*
X112171857Y-70538919D01*
X112171857Y-70538919D02*
X112267095Y-70491300D01*
X112267095Y-70491300D02*
X112314714Y-70443680D01*
X112314714Y-70443680D02*
X112362333Y-70348442D01*
X112362333Y-70348442D02*
X112362333Y-70110347D01*
X112362333Y-70110347D02*
X112314714Y-70015109D01*
X112314714Y-70015109D02*
X112267095Y-69967490D01*
X112267095Y-69967490D02*
X112171857Y-69919871D01*
X112171857Y-69919871D02*
X111981381Y-69919871D01*
X111981381Y-69919871D02*
X111886143Y-69967490D01*
X111886143Y-69967490D02*
X111838524Y-70015109D01*
X111838524Y-70015109D02*
X111790905Y-70110347D01*
X79695667Y-40491200D02*
X79838524Y-40538819D01*
X79838524Y-40538819D02*
X80076619Y-40538819D01*
X80076619Y-40538819D02*
X80171857Y-40491200D01*
X80171857Y-40491200D02*
X80219476Y-40443580D01*
X80219476Y-40443580D02*
X80267095Y-40348342D01*
X80267095Y-40348342D02*
X80267095Y-40253104D01*
X80267095Y-40253104D02*
X80219476Y-40157866D01*
X80219476Y-40157866D02*
X80171857Y-40110247D01*
X80171857Y-40110247D02*
X80076619Y-40062628D01*
X80076619Y-40062628D02*
X79886143Y-40015009D01*
X79886143Y-40015009D02*
X79790905Y-39967390D01*
X79790905Y-39967390D02*
X79743286Y-39919771D01*
X79743286Y-39919771D02*
X79695667Y-39824533D01*
X79695667Y-39824533D02*
X79695667Y-39729295D01*
X79695667Y-39729295D02*
X79743286Y-39634057D01*
X79743286Y-39634057D02*
X79790905Y-39586438D01*
X79790905Y-39586438D02*
X79886143Y-39538819D01*
X79886143Y-39538819D02*
X80124238Y-39538819D01*
X80124238Y-39538819D02*
X80267095Y-39586438D01*
X80600429Y-39538819D02*
X80838524Y-40538819D01*
X80838524Y-40538819D02*
X81029000Y-39824533D01*
X81029000Y-39824533D02*
X81219476Y-40538819D01*
X81219476Y-40538819D02*
X81457572Y-39538819D01*
X81790905Y-39634057D02*
X81838524Y-39586438D01*
X81838524Y-39586438D02*
X81933762Y-39538819D01*
X81933762Y-39538819D02*
X82171857Y-39538819D01*
X82171857Y-39538819D02*
X82267095Y-39586438D01*
X82267095Y-39586438D02*
X82314714Y-39634057D01*
X82314714Y-39634057D02*
X82362333Y-39729295D01*
X82362333Y-39729295D02*
X82362333Y-39824533D01*
X82362333Y-39824533D02*
X82314714Y-39967390D01*
X82314714Y-39967390D02*
X81743286Y-40538819D01*
X81743286Y-40538819D02*
X82362333Y-40538819D01*
X109695667Y-40491200D02*
X109838524Y-40538819D01*
X109838524Y-40538819D02*
X110076619Y-40538819D01*
X110076619Y-40538819D02*
X110171857Y-40491200D01*
X110171857Y-40491200D02*
X110219476Y-40443580D01*
X110219476Y-40443580D02*
X110267095Y-40348342D01*
X110267095Y-40348342D02*
X110267095Y-40253104D01*
X110267095Y-40253104D02*
X110219476Y-40157866D01*
X110219476Y-40157866D02*
X110171857Y-40110247D01*
X110171857Y-40110247D02*
X110076619Y-40062628D01*
X110076619Y-40062628D02*
X109886143Y-40015009D01*
X109886143Y-40015009D02*
X109790905Y-39967390D01*
X109790905Y-39967390D02*
X109743286Y-39919771D01*
X109743286Y-39919771D02*
X109695667Y-39824533D01*
X109695667Y-39824533D02*
X109695667Y-39729295D01*
X109695667Y-39729295D02*
X109743286Y-39634057D01*
X109743286Y-39634057D02*
X109790905Y-39586438D01*
X109790905Y-39586438D02*
X109886143Y-39538819D01*
X109886143Y-39538819D02*
X110124238Y-39538819D01*
X110124238Y-39538819D02*
X110267095Y-39586438D01*
X110600429Y-39538819D02*
X110838524Y-40538819D01*
X110838524Y-40538819D02*
X111029000Y-39824533D01*
X111029000Y-39824533D02*
X111219476Y-40538819D01*
X111219476Y-40538819D02*
X111457572Y-39538819D01*
X112362333Y-40538819D02*
X111790905Y-40538819D01*
X112076619Y-40538819D02*
X112076619Y-39538819D01*
X112076619Y-39538819D02*
X111981381Y-39681676D01*
X111981381Y-39681676D02*
X111886143Y-39776914D01*
X111886143Y-39776914D02*
X111790905Y-39824533D01*
X148190476Y-123323100D02*
X148333333Y-123370719D01*
X148333333Y-123370719D02*
X148571428Y-123370719D01*
X148571428Y-123370719D02*
X148666666Y-123323100D01*
X148666666Y-123323100D02*
X148714285Y-123275480D01*
X148714285Y-123275480D02*
X148761904Y-123180242D01*
X148761904Y-123180242D02*
X148761904Y-123085004D01*
X148761904Y-123085004D02*
X148714285Y-122989766D01*
X148714285Y-122989766D02*
X148666666Y-122942147D01*
X148666666Y-122942147D02*
X148571428Y-122894528D01*
X148571428Y-122894528D02*
X148380952Y-122846909D01*
X148380952Y-122846909D02*
X148285714Y-122799290D01*
X148285714Y-122799290D02*
X148238095Y-122751671D01*
X148238095Y-122751671D02*
X148190476Y-122656433D01*
X148190476Y-122656433D02*
X148190476Y-122561195D01*
X148190476Y-122561195D02*
X148238095Y-122465957D01*
X148238095Y-122465957D02*
X148285714Y-122418338D01*
X148285714Y-122418338D02*
X148380952Y-122370719D01*
X148380952Y-122370719D02*
X148619047Y-122370719D01*
X148619047Y-122370719D02*
X148761904Y-122418338D01*
X149095238Y-122370719D02*
X149333333Y-123370719D01*
X149333333Y-123370719D02*
X149523809Y-122656433D01*
X149523809Y-122656433D02*
X149714285Y-123370719D01*
X149714285Y-123370719D02*
X149952381Y-122370719D01*
X150857142Y-123370719D02*
X150285714Y-123370719D01*
X150571428Y-123370719D02*
X150571428Y-122370719D01*
X150571428Y-122370719D02*
X150476190Y-122513576D01*
X150476190Y-122513576D02*
X150380952Y-122608814D01*
X150380952Y-122608814D02*
X150285714Y-122656433D01*
X151476190Y-122370719D02*
X151571428Y-122370719D01*
X151571428Y-122370719D02*
X151666666Y-122418338D01*
X151666666Y-122418338D02*
X151714285Y-122465957D01*
X151714285Y-122465957D02*
X151761904Y-122561195D01*
X151761904Y-122561195D02*
X151809523Y-122751671D01*
X151809523Y-122751671D02*
X151809523Y-122989766D01*
X151809523Y-122989766D02*
X151761904Y-123180242D01*
X151761904Y-123180242D02*
X151714285Y-123275480D01*
X151714285Y-123275480D02*
X151666666Y-123323100D01*
X151666666Y-123323100D02*
X151571428Y-123370719D01*
X151571428Y-123370719D02*
X151476190Y-123370719D01*
X151476190Y-123370719D02*
X151380952Y-123323100D01*
X151380952Y-123323100D02*
X151333333Y-123275480D01*
X151333333Y-123275480D02*
X151285714Y-123180242D01*
X151285714Y-123180242D02*
X151238095Y-122989766D01*
X151238095Y-122989766D02*
X151238095Y-122751671D01*
X151238095Y-122751671D02*
X151285714Y-122561195D01*
X151285714Y-122561195D02*
X151333333Y-122465957D01*
X151333333Y-122465957D02*
X151380952Y-122418338D01*
X151380952Y-122418338D02*
X151476190Y-122370719D01*
X161167476Y-70472300D02*
X161310333Y-70519919D01*
X161310333Y-70519919D02*
X161548428Y-70519919D01*
X161548428Y-70519919D02*
X161643666Y-70472300D01*
X161643666Y-70472300D02*
X161691285Y-70424680D01*
X161691285Y-70424680D02*
X161738904Y-70329442D01*
X161738904Y-70329442D02*
X161738904Y-70234204D01*
X161738904Y-70234204D02*
X161691285Y-70138966D01*
X161691285Y-70138966D02*
X161643666Y-70091347D01*
X161643666Y-70091347D02*
X161548428Y-70043728D01*
X161548428Y-70043728D02*
X161357952Y-69996109D01*
X161357952Y-69996109D02*
X161262714Y-69948490D01*
X161262714Y-69948490D02*
X161215095Y-69900871D01*
X161215095Y-69900871D02*
X161167476Y-69805633D01*
X161167476Y-69805633D02*
X161167476Y-69710395D01*
X161167476Y-69710395D02*
X161215095Y-69615157D01*
X161215095Y-69615157D02*
X161262714Y-69567538D01*
X161262714Y-69567538D02*
X161357952Y-69519919D01*
X161357952Y-69519919D02*
X161596047Y-69519919D01*
X161596047Y-69519919D02*
X161738904Y-69567538D01*
X162072238Y-69519919D02*
X162310333Y-70519919D01*
X162310333Y-70519919D02*
X162500809Y-69805633D01*
X162500809Y-69805633D02*
X162691285Y-70519919D01*
X162691285Y-70519919D02*
X162929381Y-69519919D01*
X163834142Y-70519919D02*
X163262714Y-70519919D01*
X163548428Y-70519919D02*
X163548428Y-69519919D01*
X163548428Y-69519919D02*
X163453190Y-69662776D01*
X163453190Y-69662776D02*
X163357952Y-69758014D01*
X163357952Y-69758014D02*
X163262714Y-69805633D01*
X164215095Y-69615157D02*
X164262714Y-69567538D01*
X164262714Y-69567538D02*
X164357952Y-69519919D01*
X164357952Y-69519919D02*
X164596047Y-69519919D01*
X164596047Y-69519919D02*
X164691285Y-69567538D01*
X164691285Y-69567538D02*
X164738904Y-69615157D01*
X164738904Y-69615157D02*
X164786523Y-69710395D01*
X164786523Y-69710395D02*
X164786523Y-69805633D01*
X164786523Y-69805633D02*
X164738904Y-69948490D01*
X164738904Y-69948490D02*
X164167476Y-70519919D01*
X164167476Y-70519919D02*
X164786523Y-70519919D01*
X246208976Y-62991300D02*
X246351833Y-63038919D01*
X246351833Y-63038919D02*
X246589928Y-63038919D01*
X246589928Y-63038919D02*
X246685166Y-62991300D01*
X246685166Y-62991300D02*
X246732785Y-62943680D01*
X246732785Y-62943680D02*
X246780404Y-62848442D01*
X246780404Y-62848442D02*
X246780404Y-62753204D01*
X246780404Y-62753204D02*
X246732785Y-62657966D01*
X246732785Y-62657966D02*
X246685166Y-62610347D01*
X246685166Y-62610347D02*
X246589928Y-62562728D01*
X246589928Y-62562728D02*
X246399452Y-62515109D01*
X246399452Y-62515109D02*
X246304214Y-62467490D01*
X246304214Y-62467490D02*
X246256595Y-62419871D01*
X246256595Y-62419871D02*
X246208976Y-62324633D01*
X246208976Y-62324633D02*
X246208976Y-62229395D01*
X246208976Y-62229395D02*
X246256595Y-62134157D01*
X246256595Y-62134157D02*
X246304214Y-62086538D01*
X246304214Y-62086538D02*
X246399452Y-62038919D01*
X246399452Y-62038919D02*
X246637547Y-62038919D01*
X246637547Y-62038919D02*
X246780404Y-62086538D01*
X247113738Y-62038919D02*
X247351833Y-63038919D01*
X247351833Y-63038919D02*
X247542309Y-62324633D01*
X247542309Y-62324633D02*
X247732785Y-63038919D01*
X247732785Y-63038919D02*
X247970881Y-62038919D01*
X248875642Y-63038919D02*
X248304214Y-63038919D01*
X248589928Y-63038919D02*
X248589928Y-62038919D01*
X248589928Y-62038919D02*
X248494690Y-62181776D01*
X248494690Y-62181776D02*
X248399452Y-62277014D01*
X248399452Y-62277014D02*
X248304214Y-62324633D01*
X249447071Y-62467490D02*
X249351833Y-62419871D01*
X249351833Y-62419871D02*
X249304214Y-62372252D01*
X249304214Y-62372252D02*
X249256595Y-62277014D01*
X249256595Y-62277014D02*
X249256595Y-62229395D01*
X249256595Y-62229395D02*
X249304214Y-62134157D01*
X249304214Y-62134157D02*
X249351833Y-62086538D01*
X249351833Y-62086538D02*
X249447071Y-62038919D01*
X249447071Y-62038919D02*
X249637547Y-62038919D01*
X249637547Y-62038919D02*
X249732785Y-62086538D01*
X249732785Y-62086538D02*
X249780404Y-62134157D01*
X249780404Y-62134157D02*
X249828023Y-62229395D01*
X249828023Y-62229395D02*
X249828023Y-62277014D01*
X249828023Y-62277014D02*
X249780404Y-62372252D01*
X249780404Y-62372252D02*
X249732785Y-62419871D01*
X249732785Y-62419871D02*
X249637547Y-62467490D01*
X249637547Y-62467490D02*
X249447071Y-62467490D01*
X249447071Y-62467490D02*
X249351833Y-62515109D01*
X249351833Y-62515109D02*
X249304214Y-62562728D01*
X249304214Y-62562728D02*
X249256595Y-62657966D01*
X249256595Y-62657966D02*
X249256595Y-62848442D01*
X249256595Y-62848442D02*
X249304214Y-62943680D01*
X249304214Y-62943680D02*
X249351833Y-62991300D01*
X249351833Y-62991300D02*
X249447071Y-63038919D01*
X249447071Y-63038919D02*
X249637547Y-63038919D01*
X249637547Y-63038919D02*
X249732785Y-62991300D01*
X249732785Y-62991300D02*
X249780404Y-62943680D01*
X249780404Y-62943680D02*
X249828023Y-62848442D01*
X249828023Y-62848442D02*
X249828023Y-62657966D01*
X249828023Y-62657966D02*
X249780404Y-62562728D01*
X249780404Y-62562728D02*
X249732785Y-62515109D01*
X249732785Y-62515109D02*
X249637547Y-62467490D01*
X246208976Y-92991300D02*
X246351833Y-93038919D01*
X246351833Y-93038919D02*
X246589928Y-93038919D01*
X246589928Y-93038919D02*
X246685166Y-92991300D01*
X246685166Y-92991300D02*
X246732785Y-92943680D01*
X246732785Y-92943680D02*
X246780404Y-92848442D01*
X246780404Y-92848442D02*
X246780404Y-92753204D01*
X246780404Y-92753204D02*
X246732785Y-92657966D01*
X246732785Y-92657966D02*
X246685166Y-92610347D01*
X246685166Y-92610347D02*
X246589928Y-92562728D01*
X246589928Y-92562728D02*
X246399452Y-92515109D01*
X246399452Y-92515109D02*
X246304214Y-92467490D01*
X246304214Y-92467490D02*
X246256595Y-92419871D01*
X246256595Y-92419871D02*
X246208976Y-92324633D01*
X246208976Y-92324633D02*
X246208976Y-92229395D01*
X246208976Y-92229395D02*
X246256595Y-92134157D01*
X246256595Y-92134157D02*
X246304214Y-92086538D01*
X246304214Y-92086538D02*
X246399452Y-92038919D01*
X246399452Y-92038919D02*
X246637547Y-92038919D01*
X246637547Y-92038919D02*
X246780404Y-92086538D01*
X247113738Y-92038919D02*
X247351833Y-93038919D01*
X247351833Y-93038919D02*
X247542309Y-92324633D01*
X247542309Y-92324633D02*
X247732785Y-93038919D01*
X247732785Y-93038919D02*
X247970881Y-92038919D01*
X248875642Y-93038919D02*
X248304214Y-93038919D01*
X248589928Y-93038919D02*
X248589928Y-92038919D01*
X248589928Y-92038919D02*
X248494690Y-92181776D01*
X248494690Y-92181776D02*
X248399452Y-92277014D01*
X248399452Y-92277014D02*
X248304214Y-92324633D01*
X249780404Y-92038919D02*
X249304214Y-92038919D01*
X249304214Y-92038919D02*
X249256595Y-92515109D01*
X249256595Y-92515109D02*
X249304214Y-92467490D01*
X249304214Y-92467490D02*
X249399452Y-92419871D01*
X249399452Y-92419871D02*
X249637547Y-92419871D01*
X249637547Y-92419871D02*
X249732785Y-92467490D01*
X249732785Y-92467490D02*
X249780404Y-92515109D01*
X249780404Y-92515109D02*
X249828023Y-92610347D01*
X249828023Y-92610347D02*
X249828023Y-92848442D01*
X249828023Y-92848442D02*
X249780404Y-92943680D01*
X249780404Y-92943680D02*
X249732785Y-92991300D01*
X249732785Y-92991300D02*
X249637547Y-93038919D01*
X249637547Y-93038919D02*
X249399452Y-93038919D01*
X249399452Y-93038919D02*
X249304214Y-92991300D01*
X249304214Y-92991300D02*
X249256595Y-92943680D01*
X50647667Y-77991300D02*
X50790524Y-78038919D01*
X50790524Y-78038919D02*
X51028619Y-78038919D01*
X51028619Y-78038919D02*
X51123857Y-77991300D01*
X51123857Y-77991300D02*
X51171476Y-77943680D01*
X51171476Y-77943680D02*
X51219095Y-77848442D01*
X51219095Y-77848442D02*
X51219095Y-77753204D01*
X51219095Y-77753204D02*
X51171476Y-77657966D01*
X51171476Y-77657966D02*
X51123857Y-77610347D01*
X51123857Y-77610347D02*
X51028619Y-77562728D01*
X51028619Y-77562728D02*
X50838143Y-77515109D01*
X50838143Y-77515109D02*
X50742905Y-77467490D01*
X50742905Y-77467490D02*
X50695286Y-77419871D01*
X50695286Y-77419871D02*
X50647667Y-77324633D01*
X50647667Y-77324633D02*
X50647667Y-77229395D01*
X50647667Y-77229395D02*
X50695286Y-77134157D01*
X50695286Y-77134157D02*
X50742905Y-77086538D01*
X50742905Y-77086538D02*
X50838143Y-77038919D01*
X50838143Y-77038919D02*
X51076238Y-77038919D01*
X51076238Y-77038919D02*
X51219095Y-77086538D01*
X51552429Y-77038919D02*
X51790524Y-78038919D01*
X51790524Y-78038919D02*
X51981000Y-77324633D01*
X51981000Y-77324633D02*
X52171476Y-78038919D01*
X52171476Y-78038919D02*
X52409572Y-77038919D01*
X53219095Y-77372252D02*
X53219095Y-78038919D01*
X52981000Y-76991300D02*
X52742905Y-77705585D01*
X52742905Y-77705585D02*
X53361952Y-77705585D01*
X217161576Y-55491300D02*
X217304433Y-55538919D01*
X217304433Y-55538919D02*
X217542528Y-55538919D01*
X217542528Y-55538919D02*
X217637766Y-55491300D01*
X217637766Y-55491300D02*
X217685385Y-55443680D01*
X217685385Y-55443680D02*
X217733004Y-55348442D01*
X217733004Y-55348442D02*
X217733004Y-55253204D01*
X217733004Y-55253204D02*
X217685385Y-55157966D01*
X217685385Y-55157966D02*
X217637766Y-55110347D01*
X217637766Y-55110347D02*
X217542528Y-55062728D01*
X217542528Y-55062728D02*
X217352052Y-55015109D01*
X217352052Y-55015109D02*
X217256814Y-54967490D01*
X217256814Y-54967490D02*
X217209195Y-54919871D01*
X217209195Y-54919871D02*
X217161576Y-54824633D01*
X217161576Y-54824633D02*
X217161576Y-54729395D01*
X217161576Y-54729395D02*
X217209195Y-54634157D01*
X217209195Y-54634157D02*
X217256814Y-54586538D01*
X217256814Y-54586538D02*
X217352052Y-54538919D01*
X217352052Y-54538919D02*
X217590147Y-54538919D01*
X217590147Y-54538919D02*
X217733004Y-54586538D01*
X218066338Y-54538919D02*
X218304433Y-55538919D01*
X218304433Y-55538919D02*
X218494909Y-54824633D01*
X218494909Y-54824633D02*
X218685385Y-55538919D01*
X218685385Y-55538919D02*
X218923481Y-54538919D01*
X219828242Y-55538919D02*
X219256814Y-55538919D01*
X219542528Y-55538919D02*
X219542528Y-54538919D01*
X219542528Y-54538919D02*
X219447290Y-54681776D01*
X219447290Y-54681776D02*
X219352052Y-54777014D01*
X219352052Y-54777014D02*
X219256814Y-54824633D01*
X220161576Y-54538919D02*
X220828242Y-54538919D01*
X220828242Y-54538919D02*
X220399671Y-55538919D01*
X135676667Y-55491300D02*
X135819524Y-55538919D01*
X135819524Y-55538919D02*
X136057619Y-55538919D01*
X136057619Y-55538919D02*
X136152857Y-55491300D01*
X136152857Y-55491300D02*
X136200476Y-55443680D01*
X136200476Y-55443680D02*
X136248095Y-55348442D01*
X136248095Y-55348442D02*
X136248095Y-55253204D01*
X136248095Y-55253204D02*
X136200476Y-55157966D01*
X136200476Y-55157966D02*
X136152857Y-55110347D01*
X136152857Y-55110347D02*
X136057619Y-55062728D01*
X136057619Y-55062728D02*
X135867143Y-55015109D01*
X135867143Y-55015109D02*
X135771905Y-54967490D01*
X135771905Y-54967490D02*
X135724286Y-54919871D01*
X135724286Y-54919871D02*
X135676667Y-54824633D01*
X135676667Y-54824633D02*
X135676667Y-54729395D01*
X135676667Y-54729395D02*
X135724286Y-54634157D01*
X135724286Y-54634157D02*
X135771905Y-54586538D01*
X135771905Y-54586538D02*
X135867143Y-54538919D01*
X135867143Y-54538919D02*
X136105238Y-54538919D01*
X136105238Y-54538919D02*
X136248095Y-54586538D01*
X136581429Y-54538919D02*
X136819524Y-55538919D01*
X136819524Y-55538919D02*
X137010000Y-54824633D01*
X137010000Y-54824633D02*
X137200476Y-55538919D01*
X137200476Y-55538919D02*
X137438572Y-54538919D01*
X137724286Y-54538919D02*
X138390952Y-54538919D01*
X138390952Y-54538919D02*
X137962381Y-55538919D01*
X79695667Y-70491300D02*
X79838524Y-70538919D01*
X79838524Y-70538919D02*
X80076619Y-70538919D01*
X80076619Y-70538919D02*
X80171857Y-70491300D01*
X80171857Y-70491300D02*
X80219476Y-70443680D01*
X80219476Y-70443680D02*
X80267095Y-70348442D01*
X80267095Y-70348442D02*
X80267095Y-70253204D01*
X80267095Y-70253204D02*
X80219476Y-70157966D01*
X80219476Y-70157966D02*
X80171857Y-70110347D01*
X80171857Y-70110347D02*
X80076619Y-70062728D01*
X80076619Y-70062728D02*
X79886143Y-70015109D01*
X79886143Y-70015109D02*
X79790905Y-69967490D01*
X79790905Y-69967490D02*
X79743286Y-69919871D01*
X79743286Y-69919871D02*
X79695667Y-69824633D01*
X79695667Y-69824633D02*
X79695667Y-69729395D01*
X79695667Y-69729395D02*
X79743286Y-69634157D01*
X79743286Y-69634157D02*
X79790905Y-69586538D01*
X79790905Y-69586538D02*
X79886143Y-69538919D01*
X79886143Y-69538919D02*
X80124238Y-69538919D01*
X80124238Y-69538919D02*
X80267095Y-69586538D01*
X80600429Y-69538919D02*
X80838524Y-70538919D01*
X80838524Y-70538919D02*
X81029000Y-69824633D01*
X81029000Y-69824633D02*
X81219476Y-70538919D01*
X81219476Y-70538919D02*
X81457572Y-69538919D01*
X82314714Y-69538919D02*
X81838524Y-69538919D01*
X81838524Y-69538919D02*
X81790905Y-70015109D01*
X81790905Y-70015109D02*
X81838524Y-69967490D01*
X81838524Y-69967490D02*
X81933762Y-69919871D01*
X81933762Y-69919871D02*
X82171857Y-69919871D01*
X82171857Y-69919871D02*
X82267095Y-69967490D01*
X82267095Y-69967490D02*
X82314714Y-70015109D01*
X82314714Y-70015109D02*
X82362333Y-70110347D01*
X82362333Y-70110347D02*
X82362333Y-70348442D01*
X82362333Y-70348442D02*
X82314714Y-70443680D01*
X82314714Y-70443680D02*
X82267095Y-70491300D01*
X82267095Y-70491300D02*
X82171857Y-70538919D01*
X82171857Y-70538919D02*
X81933762Y-70538919D01*
X81933762Y-70538919D02*
X81838524Y-70491300D01*
X81838524Y-70491300D02*
X81790905Y-70443680D01*
X181040876Y-120304100D02*
X181183733Y-120351719D01*
X181183733Y-120351719D02*
X181421828Y-120351719D01*
X181421828Y-120351719D02*
X181517066Y-120304100D01*
X181517066Y-120304100D02*
X181564685Y-120256480D01*
X181564685Y-120256480D02*
X181612304Y-120161242D01*
X181612304Y-120161242D02*
X181612304Y-120066004D01*
X181612304Y-120066004D02*
X181564685Y-119970766D01*
X181564685Y-119970766D02*
X181517066Y-119923147D01*
X181517066Y-119923147D02*
X181421828Y-119875528D01*
X181421828Y-119875528D02*
X181231352Y-119827909D01*
X181231352Y-119827909D02*
X181136114Y-119780290D01*
X181136114Y-119780290D02*
X181088495Y-119732671D01*
X181088495Y-119732671D02*
X181040876Y-119637433D01*
X181040876Y-119637433D02*
X181040876Y-119542195D01*
X181040876Y-119542195D02*
X181088495Y-119446957D01*
X181088495Y-119446957D02*
X181136114Y-119399338D01*
X181136114Y-119399338D02*
X181231352Y-119351719D01*
X181231352Y-119351719D02*
X181469447Y-119351719D01*
X181469447Y-119351719D02*
X181612304Y-119399338D01*
X181945638Y-119351719D02*
X182183733Y-120351719D01*
X182183733Y-120351719D02*
X182374209Y-119637433D01*
X182374209Y-119637433D02*
X182564685Y-120351719D01*
X182564685Y-120351719D02*
X182802781Y-119351719D01*
X183707542Y-120351719D02*
X183136114Y-120351719D01*
X183421828Y-120351719D02*
X183421828Y-119351719D01*
X183421828Y-119351719D02*
X183326590Y-119494576D01*
X183326590Y-119494576D02*
X183231352Y-119589814D01*
X183231352Y-119589814D02*
X183136114Y-119637433D01*
X184659923Y-120351719D02*
X184088495Y-120351719D01*
X184374209Y-120351719D02*
X184374209Y-119351719D01*
X184374209Y-119351719D02*
X184278971Y-119494576D01*
X184278971Y-119494576D02*
X184183733Y-119589814D01*
X184183733Y-119589814D02*
X184088495Y-119637433D01*
X135663667Y-85472300D02*
X135806524Y-85519919D01*
X135806524Y-85519919D02*
X136044619Y-85519919D01*
X136044619Y-85519919D02*
X136139857Y-85472300D01*
X136139857Y-85472300D02*
X136187476Y-85424680D01*
X136187476Y-85424680D02*
X136235095Y-85329442D01*
X136235095Y-85329442D02*
X136235095Y-85234204D01*
X136235095Y-85234204D02*
X136187476Y-85138966D01*
X136187476Y-85138966D02*
X136139857Y-85091347D01*
X136139857Y-85091347D02*
X136044619Y-85043728D01*
X136044619Y-85043728D02*
X135854143Y-84996109D01*
X135854143Y-84996109D02*
X135758905Y-84948490D01*
X135758905Y-84948490D02*
X135711286Y-84900871D01*
X135711286Y-84900871D02*
X135663667Y-84805633D01*
X135663667Y-84805633D02*
X135663667Y-84710395D01*
X135663667Y-84710395D02*
X135711286Y-84615157D01*
X135711286Y-84615157D02*
X135758905Y-84567538D01*
X135758905Y-84567538D02*
X135854143Y-84519919D01*
X135854143Y-84519919D02*
X136092238Y-84519919D01*
X136092238Y-84519919D02*
X136235095Y-84567538D01*
X136568429Y-84519919D02*
X136806524Y-85519919D01*
X136806524Y-85519919D02*
X136997000Y-84805633D01*
X136997000Y-84805633D02*
X137187476Y-85519919D01*
X137187476Y-85519919D02*
X137425572Y-84519919D01*
X137949381Y-84948490D02*
X137854143Y-84900871D01*
X137854143Y-84900871D02*
X137806524Y-84853252D01*
X137806524Y-84853252D02*
X137758905Y-84758014D01*
X137758905Y-84758014D02*
X137758905Y-84710395D01*
X137758905Y-84710395D02*
X137806524Y-84615157D01*
X137806524Y-84615157D02*
X137854143Y-84567538D01*
X137854143Y-84567538D02*
X137949381Y-84519919D01*
X137949381Y-84519919D02*
X138139857Y-84519919D01*
X138139857Y-84519919D02*
X138235095Y-84567538D01*
X138235095Y-84567538D02*
X138282714Y-84615157D01*
X138282714Y-84615157D02*
X138330333Y-84710395D01*
X138330333Y-84710395D02*
X138330333Y-84758014D01*
X138330333Y-84758014D02*
X138282714Y-84853252D01*
X138282714Y-84853252D02*
X138235095Y-84900871D01*
X138235095Y-84900871D02*
X138139857Y-84948490D01*
X138139857Y-84948490D02*
X137949381Y-84948490D01*
X137949381Y-84948490D02*
X137854143Y-84996109D01*
X137854143Y-84996109D02*
X137806524Y-85043728D01*
X137806524Y-85043728D02*
X137758905Y-85138966D01*
X137758905Y-85138966D02*
X137758905Y-85329442D01*
X137758905Y-85329442D02*
X137806524Y-85424680D01*
X137806524Y-85424680D02*
X137854143Y-85472300D01*
X137854143Y-85472300D02*
X137949381Y-85519919D01*
X137949381Y-85519919D02*
X138139857Y-85519919D01*
X138139857Y-85519919D02*
X138235095Y-85472300D01*
X138235095Y-85472300D02*
X138282714Y-85424680D01*
X138282714Y-85424680D02*
X138330333Y-85329442D01*
X138330333Y-85329442D02*
X138330333Y-85138966D01*
X138330333Y-85138966D02*
X138282714Y-85043728D01*
X138282714Y-85043728D02*
X138235095Y-84996109D01*
X138235095Y-84996109D02*
X138139857Y-84948490D01*
X50647667Y-47991300D02*
X50790524Y-48038919D01*
X50790524Y-48038919D02*
X51028619Y-48038919D01*
X51028619Y-48038919D02*
X51123857Y-47991300D01*
X51123857Y-47991300D02*
X51171476Y-47943680D01*
X51171476Y-47943680D02*
X51219095Y-47848442D01*
X51219095Y-47848442D02*
X51219095Y-47753204D01*
X51219095Y-47753204D02*
X51171476Y-47657966D01*
X51171476Y-47657966D02*
X51123857Y-47610347D01*
X51123857Y-47610347D02*
X51028619Y-47562728D01*
X51028619Y-47562728D02*
X50838143Y-47515109D01*
X50838143Y-47515109D02*
X50742905Y-47467490D01*
X50742905Y-47467490D02*
X50695286Y-47419871D01*
X50695286Y-47419871D02*
X50647667Y-47324633D01*
X50647667Y-47324633D02*
X50647667Y-47229395D01*
X50647667Y-47229395D02*
X50695286Y-47134157D01*
X50695286Y-47134157D02*
X50742905Y-47086538D01*
X50742905Y-47086538D02*
X50838143Y-47038919D01*
X50838143Y-47038919D02*
X51076238Y-47038919D01*
X51076238Y-47038919D02*
X51219095Y-47086538D01*
X51552429Y-47038919D02*
X51790524Y-48038919D01*
X51790524Y-48038919D02*
X51981000Y-47324633D01*
X51981000Y-47324633D02*
X52171476Y-48038919D01*
X52171476Y-48038919D02*
X52409572Y-47038919D01*
X52695286Y-47038919D02*
X53314333Y-47038919D01*
X53314333Y-47038919D02*
X52981000Y-47419871D01*
X52981000Y-47419871D02*
X53123857Y-47419871D01*
X53123857Y-47419871D02*
X53219095Y-47467490D01*
X53219095Y-47467490D02*
X53266714Y-47515109D01*
X53266714Y-47515109D02*
X53314333Y-47610347D01*
X53314333Y-47610347D02*
X53314333Y-47848442D01*
X53314333Y-47848442D02*
X53266714Y-47943680D01*
X53266714Y-47943680D02*
X53219095Y-47991300D01*
X53219095Y-47991300D02*
X53123857Y-48038919D01*
X53123857Y-48038919D02*
X52838143Y-48038919D01*
X52838143Y-48038919D02*
X52742905Y-47991300D01*
X52742905Y-47991300D02*
X52695286Y-47943680D01*
X187161576Y-55491300D02*
X187304433Y-55538919D01*
X187304433Y-55538919D02*
X187542528Y-55538919D01*
X187542528Y-55538919D02*
X187637766Y-55491300D01*
X187637766Y-55491300D02*
X187685385Y-55443680D01*
X187685385Y-55443680D02*
X187733004Y-55348442D01*
X187733004Y-55348442D02*
X187733004Y-55253204D01*
X187733004Y-55253204D02*
X187685385Y-55157966D01*
X187685385Y-55157966D02*
X187637766Y-55110347D01*
X187637766Y-55110347D02*
X187542528Y-55062728D01*
X187542528Y-55062728D02*
X187352052Y-55015109D01*
X187352052Y-55015109D02*
X187256814Y-54967490D01*
X187256814Y-54967490D02*
X187209195Y-54919871D01*
X187209195Y-54919871D02*
X187161576Y-54824633D01*
X187161576Y-54824633D02*
X187161576Y-54729395D01*
X187161576Y-54729395D02*
X187209195Y-54634157D01*
X187209195Y-54634157D02*
X187256814Y-54586538D01*
X187256814Y-54586538D02*
X187352052Y-54538919D01*
X187352052Y-54538919D02*
X187590147Y-54538919D01*
X187590147Y-54538919D02*
X187733004Y-54586538D01*
X188066338Y-54538919D02*
X188304433Y-55538919D01*
X188304433Y-55538919D02*
X188494909Y-54824633D01*
X188494909Y-54824633D02*
X188685385Y-55538919D01*
X188685385Y-55538919D02*
X188923481Y-54538919D01*
X189828242Y-55538919D02*
X189256814Y-55538919D01*
X189542528Y-55538919D02*
X189542528Y-54538919D01*
X189542528Y-54538919D02*
X189447290Y-54681776D01*
X189447290Y-54681776D02*
X189352052Y-54777014D01*
X189352052Y-54777014D02*
X189256814Y-54824633D01*
X190685385Y-54538919D02*
X190494909Y-54538919D01*
X190494909Y-54538919D02*
X190399671Y-54586538D01*
X190399671Y-54586538D02*
X190352052Y-54634157D01*
X190352052Y-54634157D02*
X190256814Y-54777014D01*
X190256814Y-54777014D02*
X190209195Y-54967490D01*
X190209195Y-54967490D02*
X190209195Y-55348442D01*
X190209195Y-55348442D02*
X190256814Y-55443680D01*
X190256814Y-55443680D02*
X190304433Y-55491300D01*
X190304433Y-55491300D02*
X190399671Y-55538919D01*
X190399671Y-55538919D02*
X190590147Y-55538919D01*
X190590147Y-55538919D02*
X190685385Y-55491300D01*
X190685385Y-55491300D02*
X190733004Y-55443680D01*
X190733004Y-55443680D02*
X190780623Y-55348442D01*
X190780623Y-55348442D02*
X190780623Y-55110347D01*
X190780623Y-55110347D02*
X190733004Y-55015109D01*
X190733004Y-55015109D02*
X190685385Y-54967490D01*
X190685385Y-54967490D02*
X190590147Y-54919871D01*
X190590147Y-54919871D02*
X190399671Y-54919871D01*
X190399671Y-54919871D02*
X190304433Y-54967490D01*
X190304433Y-54967490D02*
X190256814Y-55015109D01*
X190256814Y-55015109D02*
X190209195Y-55110347D01*
X217148576Y-85472300D02*
X217291433Y-85519919D01*
X217291433Y-85519919D02*
X217529528Y-85519919D01*
X217529528Y-85519919D02*
X217624766Y-85472300D01*
X217624766Y-85472300D02*
X217672385Y-85424680D01*
X217672385Y-85424680D02*
X217720004Y-85329442D01*
X217720004Y-85329442D02*
X217720004Y-85234204D01*
X217720004Y-85234204D02*
X217672385Y-85138966D01*
X217672385Y-85138966D02*
X217624766Y-85091347D01*
X217624766Y-85091347D02*
X217529528Y-85043728D01*
X217529528Y-85043728D02*
X217339052Y-84996109D01*
X217339052Y-84996109D02*
X217243814Y-84948490D01*
X217243814Y-84948490D02*
X217196195Y-84900871D01*
X217196195Y-84900871D02*
X217148576Y-84805633D01*
X217148576Y-84805633D02*
X217148576Y-84710395D01*
X217148576Y-84710395D02*
X217196195Y-84615157D01*
X217196195Y-84615157D02*
X217243814Y-84567538D01*
X217243814Y-84567538D02*
X217339052Y-84519919D01*
X217339052Y-84519919D02*
X217577147Y-84519919D01*
X217577147Y-84519919D02*
X217720004Y-84567538D01*
X218053338Y-84519919D02*
X218291433Y-85519919D01*
X218291433Y-85519919D02*
X218481909Y-84805633D01*
X218481909Y-84805633D02*
X218672385Y-85519919D01*
X218672385Y-85519919D02*
X218910481Y-84519919D01*
X219815242Y-85519919D02*
X219243814Y-85519919D01*
X219529528Y-85519919D02*
X219529528Y-84519919D01*
X219529528Y-84519919D02*
X219434290Y-84662776D01*
X219434290Y-84662776D02*
X219339052Y-84758014D01*
X219339052Y-84758014D02*
X219243814Y-84805633D01*
X220672385Y-84853252D02*
X220672385Y-85519919D01*
X220434290Y-84472300D02*
X220196195Y-85186585D01*
X220196195Y-85186585D02*
X220815242Y-85186585D01*
X187148576Y-85472300D02*
X187291433Y-85519919D01*
X187291433Y-85519919D02*
X187529528Y-85519919D01*
X187529528Y-85519919D02*
X187624766Y-85472300D01*
X187624766Y-85472300D02*
X187672385Y-85424680D01*
X187672385Y-85424680D02*
X187720004Y-85329442D01*
X187720004Y-85329442D02*
X187720004Y-85234204D01*
X187720004Y-85234204D02*
X187672385Y-85138966D01*
X187672385Y-85138966D02*
X187624766Y-85091347D01*
X187624766Y-85091347D02*
X187529528Y-85043728D01*
X187529528Y-85043728D02*
X187339052Y-84996109D01*
X187339052Y-84996109D02*
X187243814Y-84948490D01*
X187243814Y-84948490D02*
X187196195Y-84900871D01*
X187196195Y-84900871D02*
X187148576Y-84805633D01*
X187148576Y-84805633D02*
X187148576Y-84710395D01*
X187148576Y-84710395D02*
X187196195Y-84615157D01*
X187196195Y-84615157D02*
X187243814Y-84567538D01*
X187243814Y-84567538D02*
X187339052Y-84519919D01*
X187339052Y-84519919D02*
X187577147Y-84519919D01*
X187577147Y-84519919D02*
X187720004Y-84567538D01*
X188053338Y-84519919D02*
X188291433Y-85519919D01*
X188291433Y-85519919D02*
X188481909Y-84805633D01*
X188481909Y-84805633D02*
X188672385Y-85519919D01*
X188672385Y-85519919D02*
X188910481Y-84519919D01*
X189815242Y-85519919D02*
X189243814Y-85519919D01*
X189529528Y-85519919D02*
X189529528Y-84519919D01*
X189529528Y-84519919D02*
X189434290Y-84662776D01*
X189434290Y-84662776D02*
X189339052Y-84758014D01*
X189339052Y-84758014D02*
X189243814Y-84805633D01*
X190148576Y-84519919D02*
X190767623Y-84519919D01*
X190767623Y-84519919D02*
X190434290Y-84900871D01*
X190434290Y-84900871D02*
X190577147Y-84900871D01*
X190577147Y-84900871D02*
X190672385Y-84948490D01*
X190672385Y-84948490D02*
X190720004Y-84996109D01*
X190720004Y-84996109D02*
X190767623Y-85091347D01*
X190767623Y-85091347D02*
X190767623Y-85329442D01*
X190767623Y-85329442D02*
X190720004Y-85424680D01*
X190720004Y-85424680D02*
X190672385Y-85472300D01*
X190672385Y-85472300D02*
X190577147Y-85519919D01*
X190577147Y-85519919D02*
X190291433Y-85519919D01*
X190291433Y-85519919D02*
X190196195Y-85472300D01*
X190196195Y-85472300D02*
X190148576Y-85424680D01*
X118438667Y-110034900D02*
X118581524Y-110082519D01*
X118581524Y-110082519D02*
X118819619Y-110082519D01*
X118819619Y-110082519D02*
X118914857Y-110034900D01*
X118914857Y-110034900D02*
X118962476Y-109987280D01*
X118962476Y-109987280D02*
X119010095Y-109892042D01*
X119010095Y-109892042D02*
X119010095Y-109796804D01*
X119010095Y-109796804D02*
X118962476Y-109701566D01*
X118962476Y-109701566D02*
X118914857Y-109653947D01*
X118914857Y-109653947D02*
X118819619Y-109606328D01*
X118819619Y-109606328D02*
X118629143Y-109558709D01*
X118629143Y-109558709D02*
X118533905Y-109511090D01*
X118533905Y-109511090D02*
X118486286Y-109463471D01*
X118486286Y-109463471D02*
X118438667Y-109368233D01*
X118438667Y-109368233D02*
X118438667Y-109272995D01*
X118438667Y-109272995D02*
X118486286Y-109177757D01*
X118486286Y-109177757D02*
X118533905Y-109130138D01*
X118533905Y-109130138D02*
X118629143Y-109082519D01*
X118629143Y-109082519D02*
X118867238Y-109082519D01*
X118867238Y-109082519D02*
X119010095Y-109130138D01*
X119343429Y-109082519D02*
X119581524Y-110082519D01*
X119581524Y-110082519D02*
X119772000Y-109368233D01*
X119772000Y-109368233D02*
X119962476Y-110082519D01*
X119962476Y-110082519D02*
X120200572Y-109082519D01*
X120629143Y-110082519D02*
X120819619Y-110082519D01*
X120819619Y-110082519D02*
X120914857Y-110034900D01*
X120914857Y-110034900D02*
X120962476Y-109987280D01*
X120962476Y-109987280D02*
X121057714Y-109844423D01*
X121057714Y-109844423D02*
X121105333Y-109653947D01*
X121105333Y-109653947D02*
X121105333Y-109272995D01*
X121105333Y-109272995D02*
X121057714Y-109177757D01*
X121057714Y-109177757D02*
X121010095Y-109130138D01*
X121010095Y-109130138D02*
X120914857Y-109082519D01*
X120914857Y-109082519D02*
X120724381Y-109082519D01*
X120724381Y-109082519D02*
X120629143Y-109130138D01*
X120629143Y-109130138D02*
X120581524Y-109177757D01*
X120581524Y-109177757D02*
X120533905Y-109272995D01*
X120533905Y-109272995D02*
X120533905Y-109511090D01*
X120533905Y-109511090D02*
X120581524Y-109606328D01*
X120581524Y-109606328D02*
X120629143Y-109653947D01*
X120629143Y-109653947D02*
X120724381Y-109701566D01*
X120724381Y-109701566D02*
X120914857Y-109701566D01*
X120914857Y-109701566D02*
X121010095Y-109653947D01*
X121010095Y-109653947D02*
X121057714Y-109606328D01*
X121057714Y-109606328D02*
X121105333Y-109511090D01*
D12*
X163205036Y-54263250D02*
X162989364Y-54263250D01*
X163205036Y-54983250D02*
X162989364Y-54983250D01*
X161674150Y-53303691D02*
X161674150Y-52996409D01*
X162434150Y-53303691D02*
X162434150Y-52996409D01*
D13*
X181852200Y-28453784D02*
X195082200Y-28453784D01*
X181852200Y-29710284D02*
X181852200Y-28453784D01*
X181852200Y-35661284D02*
X181852200Y-32648284D01*
X181852200Y-38633784D02*
X181852200Y-38599784D01*
X183121200Y-34883284D02*
X183471200Y-29140284D01*
X183471200Y-29140284D02*
X186354200Y-29151784D01*
X183501200Y-34883284D02*
X183121200Y-34883284D01*
X183531200Y-34453284D02*
X183501200Y-34883284D01*
X183970700Y-38633784D02*
X181852200Y-38633784D01*
X184005200Y-29675284D02*
X183531200Y-34453284D01*
X185755200Y-29664284D02*
X184005200Y-29675284D01*
X185830200Y-30342784D02*
X185755200Y-29664284D01*
X185860700Y-31450284D02*
X183831200Y-31450284D01*
X186000700Y-32660284D02*
X183740700Y-32660284D01*
X186340700Y-34882784D02*
X185830200Y-30342784D01*
X186354200Y-29151784D02*
X186849200Y-34886784D01*
X186470200Y-38633784D02*
X185833200Y-38633784D01*
X186849200Y-34886784D02*
X186340700Y-34882784D01*
X188471700Y-38633784D02*
X188332700Y-38633784D01*
X189960200Y-34952784D02*
X190310200Y-29210284D01*
X190310200Y-29210284D02*
X193193200Y-29221284D01*
X190340700Y-34952784D02*
X189960200Y-34952784D01*
X190370200Y-34522784D02*
X190340700Y-34952784D01*
X190844200Y-29744784D02*
X190370200Y-34522784D01*
X190971200Y-38633784D02*
X190334200Y-38633784D01*
X192594200Y-29734284D02*
X190844200Y-29744784D01*
X192669200Y-30412284D02*
X192594200Y-29734284D01*
X192710700Y-31379284D02*
X190680700Y-31379284D01*
X192850700Y-32589784D02*
X190590700Y-32589784D01*
X193179700Y-34952284D02*
X192669200Y-30412284D01*
X193193200Y-29221284D02*
X193688200Y-34956284D01*
X193688200Y-34956284D02*
X193179700Y-34952284D01*
X194952200Y-38633784D02*
X192833700Y-38633784D01*
X195082200Y-28453784D02*
X195082200Y-29690284D01*
X195082200Y-32566784D02*
X195082200Y-35692284D01*
D12*
X153266159Y-36280400D02*
X153573441Y-36280400D01*
X153266159Y-37040400D02*
X153573441Y-37040400D01*
X162513600Y-39124400D02*
X162513600Y-37824400D01*
X164493600Y-39124400D02*
X164493600Y-38074400D01*
X164773600Y-37704400D02*
X164493600Y-37704400D01*
X164493600Y-37424400D01*
X164773600Y-37704400D01*
G36*
X164773600Y-37704400D02*
G01*
X164493600Y-37704400D01*
X164493600Y-37424400D01*
X164773600Y-37704400D01*
G37*
X160654400Y-41647036D02*
X160654400Y-41431364D01*
X161374400Y-41647036D02*
X161374400Y-41431364D01*
X168070559Y-52147200D02*
X168377841Y-52147200D01*
X168070559Y-52907200D02*
X168377841Y-52907200D01*
X251328600Y-45877364D02*
X251328600Y-46093036D01*
X252048600Y-45877364D02*
X252048600Y-46093036D01*
X156405800Y-37377000D02*
X154455800Y-37377000D01*
X156405800Y-37377000D02*
X158355800Y-37377000D01*
X156405800Y-42497000D02*
X154455800Y-42497000D01*
X156405800Y-42497000D02*
X158355800Y-42497000D01*
X153705800Y-37472000D02*
X153465800Y-37142000D01*
X153945800Y-37142000D01*
X153705800Y-37472000D01*
G36*
X153705800Y-37472000D02*
G01*
X153465800Y-37142000D01*
X153945800Y-37142000D01*
X153705800Y-37472000D01*
G37*
X240387200Y-44961948D02*
X240387200Y-45484452D01*
X241857200Y-44961948D02*
X241857200Y-45484452D01*
X157159836Y-44580800D02*
X156944164Y-44580800D01*
X157159836Y-45300800D02*
X156944164Y-45300800D01*
D13*
X145911200Y-37183200D02*
X145911200Y-38271200D01*
X146730200Y-39277200D02*
X149492200Y-39277200D01*
X147603200Y-36711200D02*
X148619200Y-36711200D01*
X147603200Y-38743200D02*
X148619200Y-38743200D01*
X149477700Y-36203200D02*
X146744700Y-36203200D01*
X150311200Y-37183200D02*
X150311200Y-38271200D01*
X147603200Y-38743200D02*
G75*
G02*
X147603200Y-36711200I0J1016000D01*
G01*
X148619200Y-36711200D02*
G75*
G02*
X148619200Y-38743200I0J-1016000D01*
G01*
D12*
X252471600Y-45902764D02*
X252471600Y-46118436D01*
X253191600Y-45902764D02*
X253191600Y-46118436D01*
X161645000Y-41647036D02*
X161645000Y-41431364D01*
X162365000Y-41647036D02*
X162365000Y-41431364D01*
X158689650Y-51359450D02*
X158689650Y-50709450D01*
X159339650Y-44139450D02*
X158689650Y-44139450D01*
X159339650Y-51359450D02*
X158689650Y-51359450D01*
X165259650Y-44139450D02*
X165909650Y-44139450D01*
X165259650Y-51359450D02*
X165909650Y-51359450D01*
X165909650Y-44139450D02*
X165909650Y-44789450D01*
X165909650Y-51359450D02*
X165909650Y-50709450D01*
X168093748Y-41589600D02*
X168616252Y-41589600D01*
X168093748Y-43059600D02*
X168616252Y-43059600D01*
X159915100Y-55216000D02*
X159915100Y-58516000D01*
X159915100Y-58516000D02*
X163915100Y-58516000D01*
X167308559Y-51080400D02*
X167615841Y-51080400D01*
X167308559Y-51840400D02*
X167615841Y-51840400D01*
D13*
X252111000Y-30034800D02*
X252111000Y-30972800D01*
X252621000Y-31900800D02*
X252709000Y-31900800D01*
X253871000Y-31900800D02*
X254209000Y-31900800D01*
X255371000Y-31900800D02*
X257209000Y-31900800D01*
X255553000Y-28034800D02*
X256930000Y-28034800D01*
X255553000Y-29106800D02*
X255553000Y-28034800D01*
X256930000Y-28034800D02*
X256930000Y-29106800D01*
X258371000Y-31900800D02*
X258459000Y-31900800D01*
X258461000Y-29106800D02*
X252621000Y-29106800D01*
X258969000Y-30034800D02*
X258969000Y-30972800D01*
D12*
X167405164Y-48560400D02*
X167620836Y-48560400D01*
X167405164Y-49280400D02*
X167620836Y-49280400D01*
X167485164Y-43514000D02*
X167700836Y-43514000D01*
X167485164Y-44234000D02*
X167700836Y-44234000D01*
D13*
X233061000Y-30034800D02*
X233061000Y-30972800D01*
X233571000Y-31900800D02*
X233659000Y-31900800D01*
X234821000Y-31900800D02*
X235159000Y-31900800D01*
X236321000Y-31900800D02*
X238159000Y-31900800D01*
X236503000Y-28034800D02*
X237880000Y-28034800D01*
X236503000Y-29106800D02*
X236503000Y-28034800D01*
X237880000Y-28034800D02*
X237880000Y-29106800D01*
X239321000Y-31900800D02*
X239409000Y-31900800D01*
X239411000Y-29106800D02*
X233571000Y-29106800D01*
X239919000Y-30034800D02*
X239919000Y-30972800D01*
D12*
X167485164Y-44504600D02*
X167700836Y-44504600D01*
X167485164Y-45224600D02*
X167700836Y-45224600D01*
X155196559Y-36280400D02*
X155503841Y-36280400D01*
X155196559Y-37040400D02*
X155503841Y-37040400D01*
X160349600Y-38624436D02*
X160349600Y-38408764D01*
X161069600Y-38624436D02*
X161069600Y-38408764D01*
X158413800Y-28328800D02*
X167573800Y-28328800D01*
X158413800Y-30033800D02*
X158413800Y-28328800D01*
X158413800Y-32043800D02*
X158413800Y-33963800D01*
X167573800Y-28328800D02*
X167573800Y-30033800D01*
X167573800Y-33963800D02*
X167573800Y-32043800D01*
X163631600Y-41383559D02*
X163631600Y-41690841D01*
X164391600Y-41383559D02*
X164391600Y-41690841D01*
X156799241Y-33207000D02*
X156491959Y-33207000D01*
X156799241Y-33967000D02*
X156491959Y-33967000D01*
X162615600Y-41383559D02*
X162615600Y-41690841D01*
X163375600Y-41383559D02*
X163375600Y-41690841D01*
X167690041Y-47499000D02*
X167382759Y-47499000D01*
X167690041Y-48259000D02*
X167382759Y-48259000D01*
X250160200Y-45877364D02*
X250160200Y-46093036D01*
X250880200Y-45877364D02*
X250880200Y-46093036D01*
X162735550Y-53042214D02*
X162735550Y-53257886D01*
X163455550Y-53042214D02*
X163455550Y-53257886D01*
X164642200Y-41647036D02*
X164642200Y-41431364D01*
X165362200Y-41647036D02*
X165362200Y-41431364D01*
X242291600Y-45831559D02*
X242291600Y-46138841D01*
X243051600Y-45831559D02*
X243051600Y-46138841D01*
D13*
X235139000Y-51680000D02*
X235639000Y-51680000D01*
X235139000Y-52980000D02*
X235139000Y-51680000D01*
X235639000Y-51680000D02*
X235639000Y-51360000D01*
X235659000Y-51681000D02*
X256359000Y-51681000D01*
X256359000Y-51681000D02*
X256359000Y-51361000D01*
X256859000Y-51681000D02*
X256359000Y-51681000D01*
X256859000Y-52981000D02*
X235159000Y-52981000D01*
X256859000Y-52981000D02*
X256859000Y-51681000D01*
X253986000Y-48101500D02*
G75*
G02*
X253732000Y-48101500I-127000J0D01*
G01*
X253732000Y-48101500D02*
G75*
G02*
X253986000Y-48101500I127000J0D01*
G01*
D12*
X238304400Y-44961948D02*
X238304400Y-45484452D01*
X239774400Y-44961948D02*
X239774400Y-45484452D01*
X160627164Y-54260200D02*
X160842836Y-54260200D01*
X160627164Y-54980200D02*
X160842836Y-54980200D01*
X167690041Y-46432200D02*
X167382759Y-46432200D01*
X167690041Y-47192200D02*
X167382759Y-47192200D01*
X249144200Y-45877364D02*
X249144200Y-46093036D01*
X249864200Y-45877364D02*
X249864200Y-46093036D01*
X168712200Y-35423052D02*
X168712200Y-34900548D01*
X170182200Y-35423052D02*
X170182200Y-34900548D01*
X156799241Y-32165600D02*
X156491959Y-32165600D01*
X156799241Y-32925600D02*
X156491959Y-32925600D01*
X163751550Y-53042214D02*
X163751550Y-53257886D01*
X164471550Y-53042214D02*
X164471550Y-53257886D01*
X165632800Y-41647036D02*
X165632800Y-41431364D01*
X166352800Y-41647036D02*
X166352800Y-41431364D01*
X157159836Y-48390800D02*
X156944164Y-48390800D01*
X157159836Y-49110800D02*
X156944164Y-49110800D01*
X166809100Y-39175000D02*
X166809100Y-38375000D01*
X166809100Y-39175000D02*
X166809100Y-39975000D01*
X169929100Y-39175000D02*
X169929100Y-38375000D01*
X169929100Y-39175000D02*
X169929100Y-39975000D01*
X170209100Y-38115000D02*
X169879100Y-37875000D01*
X170209100Y-37635000D01*
X170209100Y-38115000D01*
G36*
X170209100Y-38115000D02*
G01*
X169879100Y-37875000D01*
X170209100Y-37635000D01*
X170209100Y-38115000D01*
G37*
X187401800Y-42824584D02*
X187401800Y-41524584D01*
X189381800Y-42824584D02*
X189381800Y-41774584D01*
X189661800Y-41404584D02*
X189381800Y-41404584D01*
X189381800Y-41124584D01*
X189661800Y-41404584D01*
G36*
X189661800Y-41404584D02*
G01*
X189381800Y-41404584D01*
X189381800Y-41124584D01*
X189661800Y-41404584D01*
G37*
X103383000Y-76788100D02*
X103746000Y-76788100D01*
X103383000Y-77730100D02*
X103383000Y-76788100D01*
X103663000Y-73902100D02*
X103748000Y-73475100D01*
X103748000Y-73475100D02*
X103937000Y-73192100D01*
X103937000Y-73192100D02*
X104220000Y-73003100D01*
X104220000Y-73003100D02*
X104547000Y-72938100D01*
X104547000Y-72938100D02*
X107347000Y-72938100D01*
X107347000Y-72938100D02*
X107785000Y-72851100D01*
X107469000Y-77730100D02*
X103383000Y-77730100D01*
X107779000Y-77671100D02*
X107469000Y-77730100D01*
X107785000Y-72851100D02*
X108152000Y-72607100D01*
X108053000Y-77501100D02*
X107779000Y-77671100D01*
X108152000Y-72607100D02*
X108396000Y-72240100D01*
X108246000Y-77243100D02*
X108053000Y-77501100D01*
X108328000Y-76945100D02*
X108246000Y-77243100D01*
X108396000Y-72240100D02*
X108483000Y-71802100D01*
X108482000Y-76387100D02*
X108328000Y-76945100D01*
X108483000Y-71580100D02*
X109016000Y-71047100D01*
X108483000Y-71802100D02*
X108483000Y-71580100D01*
X108820000Y-75934100D02*
X108482000Y-76387100D01*
X109016000Y-71047100D02*
X109358000Y-70818100D01*
X109299000Y-75635100D02*
X108820000Y-75934100D01*
X109358000Y-70818100D02*
X109761000Y-70738100D01*
X109761000Y-70738100D02*
X112508000Y-70738100D01*
X109861000Y-75530100D02*
X109299000Y-75635100D01*
X112508000Y-70738100D02*
X113445000Y-71675100D01*
X112508000Y-75530100D02*
X109861000Y-75530100D01*
X113529000Y-74509100D02*
X112508000Y-75530100D01*
X73383000Y-46788000D02*
X73746000Y-46788000D01*
X73383000Y-47730000D02*
X73383000Y-46788000D01*
X73663000Y-43902000D02*
X73748000Y-43475000D01*
X73748000Y-43475000D02*
X73937000Y-43192000D01*
X73937000Y-43192000D02*
X74220000Y-43003000D01*
X74220000Y-43003000D02*
X74547000Y-42938000D01*
X74547000Y-42938000D02*
X77347000Y-42938000D01*
X77347000Y-42938000D02*
X77785000Y-42851000D01*
X77469000Y-47730000D02*
X73383000Y-47730000D01*
X77779000Y-47671000D02*
X77469000Y-47730000D01*
X77785000Y-42851000D02*
X78152000Y-42607000D01*
X78053000Y-47501000D02*
X77779000Y-47671000D01*
X78152000Y-42607000D02*
X78396000Y-42240000D01*
X78246000Y-47243000D02*
X78053000Y-47501000D01*
X78328000Y-46945000D02*
X78246000Y-47243000D01*
X78396000Y-42240000D02*
X78483000Y-41802000D01*
X78482000Y-46387000D02*
X78328000Y-46945000D01*
X78483000Y-41580000D02*
X79016000Y-41047000D01*
X78483000Y-41802000D02*
X78483000Y-41580000D01*
X78820000Y-45934000D02*
X78482000Y-46387000D01*
X79016000Y-41047000D02*
X79358000Y-40818000D01*
X79299000Y-45635000D02*
X78820000Y-45934000D01*
X79358000Y-40818000D02*
X79761000Y-40738000D01*
X79761000Y-40738000D02*
X82508000Y-40738000D01*
X79861000Y-45530000D02*
X79299000Y-45635000D01*
X82508000Y-40738000D02*
X83445000Y-41675000D01*
X82508000Y-45530000D02*
X79861000Y-45530000D01*
X83529000Y-44509000D02*
X82508000Y-45530000D01*
X103383000Y-46788000D02*
X103746000Y-46788000D01*
X103383000Y-47730000D02*
X103383000Y-46788000D01*
X103663000Y-43902000D02*
X103748000Y-43475000D01*
X103748000Y-43475000D02*
X103937000Y-43192000D01*
X103937000Y-43192000D02*
X104220000Y-43003000D01*
X104220000Y-43003000D02*
X104547000Y-42938000D01*
X104547000Y-42938000D02*
X107347000Y-42938000D01*
X107347000Y-42938000D02*
X107785000Y-42851000D01*
X107469000Y-47730000D02*
X103383000Y-47730000D01*
X107779000Y-47671000D02*
X107469000Y-47730000D01*
X107785000Y-42851000D02*
X108152000Y-42607000D01*
X108053000Y-47501000D02*
X107779000Y-47671000D01*
X108152000Y-42607000D02*
X108396000Y-42240000D01*
X108246000Y-47243000D02*
X108053000Y-47501000D01*
X108328000Y-46945000D02*
X108246000Y-47243000D01*
X108396000Y-42240000D02*
X108483000Y-41802000D01*
X108482000Y-46387000D02*
X108328000Y-46945000D01*
X108483000Y-41580000D02*
X109016000Y-41047000D01*
X108483000Y-41802000D02*
X108483000Y-41580000D01*
X108820000Y-45934000D02*
X108482000Y-46387000D01*
X109016000Y-41047000D02*
X109358000Y-40818000D01*
X109299000Y-45635000D02*
X108820000Y-45934000D01*
X109358000Y-40818000D02*
X109761000Y-40738000D01*
X109761000Y-40738000D02*
X112508000Y-40738000D01*
X109861000Y-45530000D02*
X109299000Y-45635000D01*
X112508000Y-40738000D02*
X113445000Y-41675000D01*
X112508000Y-45530000D02*
X109861000Y-45530000D01*
X113529000Y-44509000D02*
X112508000Y-45530000D01*
X142354000Y-129619900D02*
X142717000Y-129619900D01*
X142354000Y-130561900D02*
X142354000Y-129619900D01*
X142634000Y-126733900D02*
X142719000Y-126306900D01*
X142719000Y-126306900D02*
X142908000Y-126023900D01*
X142908000Y-126023900D02*
X143191000Y-125834900D01*
X143191000Y-125834900D02*
X143518000Y-125769900D01*
X143518000Y-125769900D02*
X146318000Y-125769900D01*
X146318000Y-125769900D02*
X146756000Y-125682900D01*
X146440000Y-130561900D02*
X142354000Y-130561900D01*
X146750000Y-130502900D02*
X146440000Y-130561900D01*
X146756000Y-125682900D02*
X147123000Y-125438900D01*
X147024000Y-130332900D02*
X146750000Y-130502900D01*
X147123000Y-125438900D02*
X147367000Y-125071900D01*
X147217000Y-130074900D02*
X147024000Y-130332900D01*
X147299000Y-129776900D02*
X147217000Y-130074900D01*
X147367000Y-125071900D02*
X147454000Y-124633900D01*
X147453000Y-129218900D02*
X147299000Y-129776900D01*
X147454000Y-124411900D02*
X147987000Y-123878900D01*
X147454000Y-124633900D02*
X147454000Y-124411900D01*
X147791000Y-128765900D02*
X147453000Y-129218900D01*
X147987000Y-123878900D02*
X148329000Y-123649900D01*
X148270000Y-128466900D02*
X147791000Y-128765900D01*
X148329000Y-123649900D02*
X148732000Y-123569900D01*
X148732000Y-123569900D02*
X151479000Y-123569900D01*
X148832000Y-128361900D02*
X148270000Y-128466900D01*
X151479000Y-123569900D02*
X152416000Y-124506900D01*
X151479000Y-128361900D02*
X148832000Y-128361900D01*
X152500000Y-127340900D02*
X151479000Y-128361900D01*
X155331000Y-76769100D02*
X155694000Y-76769100D01*
X155331000Y-77711100D02*
X155331000Y-76769100D01*
X155611000Y-73883100D02*
X155696000Y-73456100D01*
X155696000Y-73456100D02*
X155885000Y-73173100D01*
X155885000Y-73173100D02*
X156168000Y-72984100D01*
X156168000Y-72984100D02*
X156495000Y-72919100D01*
X156495000Y-72919100D02*
X159295000Y-72919100D01*
X159295000Y-72919100D02*
X159733000Y-72832100D01*
X159417000Y-77711100D02*
X155331000Y-77711100D01*
X159727000Y-77652100D02*
X159417000Y-77711100D01*
X159733000Y-72832100D02*
X160100000Y-72588100D01*
X160001000Y-77482100D02*
X159727000Y-77652100D01*
X160100000Y-72588100D02*
X160344000Y-72221100D01*
X160194000Y-77224100D02*
X160001000Y-77482100D01*
X160276000Y-76926100D02*
X160194000Y-77224100D01*
X160344000Y-72221100D02*
X160431000Y-71783100D01*
X160430000Y-76368100D02*
X160276000Y-76926100D01*
X160431000Y-71561100D02*
X160964000Y-71028100D01*
X160431000Y-71783100D02*
X160431000Y-71561100D01*
X160768000Y-75915100D02*
X160430000Y-76368100D01*
X160964000Y-71028100D02*
X161306000Y-70799100D01*
X161247000Y-75616100D02*
X160768000Y-75915100D01*
X161306000Y-70799100D02*
X161709000Y-70719100D01*
X161709000Y-70719100D02*
X164456000Y-70719100D01*
X161809000Y-75511100D02*
X161247000Y-75616100D01*
X164456000Y-70719100D02*
X165393000Y-71656100D01*
X164456000Y-75511100D02*
X161809000Y-75511100D01*
X165477000Y-74490100D02*
X164456000Y-75511100D01*
X240372500Y-69288100D02*
X240735500Y-69288100D01*
X240372500Y-70230100D02*
X240372500Y-69288100D01*
X240652500Y-66402100D02*
X240737500Y-65975100D01*
X240737500Y-65975100D02*
X240926500Y-65692100D01*
X240926500Y-65692100D02*
X241209500Y-65503100D01*
X241209500Y-65503100D02*
X241536500Y-65438100D01*
X241536500Y-65438100D02*
X244336500Y-65438100D01*
X244336500Y-65438100D02*
X244774500Y-65351100D01*
X244458500Y-70230100D02*
X240372500Y-70230100D01*
X244768500Y-70171100D02*
X244458500Y-70230100D01*
X244774500Y-65351100D02*
X245141500Y-65107100D01*
X245042500Y-70001100D02*
X244768500Y-70171100D01*
X245141500Y-65107100D02*
X245385500Y-64740100D01*
X245235500Y-69743100D02*
X245042500Y-70001100D01*
X245317500Y-69445100D02*
X245235500Y-69743100D01*
X245385500Y-64740100D02*
X245472500Y-64302100D01*
X245471500Y-68887100D02*
X245317500Y-69445100D01*
X245472500Y-64080100D02*
X246005500Y-63547100D01*
X245472500Y-64302100D02*
X245472500Y-64080100D01*
X245809500Y-68434100D02*
X245471500Y-68887100D01*
X246005500Y-63547100D02*
X246347500Y-63318100D01*
X246288500Y-68135100D02*
X245809500Y-68434100D01*
X246347500Y-63318100D02*
X246750500Y-63238100D01*
X246750500Y-63238100D02*
X249497500Y-63238100D01*
X246850500Y-68030100D02*
X246288500Y-68135100D01*
X249497500Y-63238100D02*
X250434500Y-64175100D01*
X249497500Y-68030100D02*
X246850500Y-68030100D01*
X250518500Y-67009100D02*
X249497500Y-68030100D01*
X240372500Y-99288100D02*
X240735500Y-99288100D01*
X240372500Y-100230100D02*
X240372500Y-99288100D01*
X240652500Y-96402100D02*
X240737500Y-95975100D01*
X240737500Y-95975100D02*
X240926500Y-95692100D01*
X240926500Y-95692100D02*
X241209500Y-95503100D01*
X241209500Y-95503100D02*
X241536500Y-95438100D01*
X241536500Y-95438100D02*
X244336500Y-95438100D01*
X244336500Y-95438100D02*
X244774500Y-95351100D01*
X244458500Y-100230100D02*
X240372500Y-100230100D01*
X244768500Y-100171100D02*
X244458500Y-100230100D01*
X244774500Y-95351100D02*
X245141500Y-95107100D01*
X245042500Y-100001100D02*
X244768500Y-100171100D01*
X245141500Y-95107100D02*
X245385500Y-94740100D01*
X245235500Y-99743100D02*
X245042500Y-100001100D01*
X245317500Y-99445100D02*
X245235500Y-99743100D01*
X245385500Y-94740100D02*
X245472500Y-94302100D01*
X245471500Y-98887100D02*
X245317500Y-99445100D01*
X245472500Y-94080100D02*
X246005500Y-93547100D01*
X245472500Y-94302100D02*
X245472500Y-94080100D01*
X245809500Y-98434100D02*
X245471500Y-98887100D01*
X246005500Y-93547100D02*
X246347500Y-93318100D01*
X246288500Y-98135100D02*
X245809500Y-98434100D01*
X246347500Y-93318100D02*
X246750500Y-93238100D01*
X246750500Y-93238100D02*
X249497500Y-93238100D01*
X246850500Y-98030100D02*
X246288500Y-98135100D01*
X249497500Y-93238100D02*
X250434500Y-94175100D01*
X249497500Y-98030100D02*
X246850500Y-98030100D01*
X250518500Y-97009100D02*
X249497500Y-98030100D01*
X44335000Y-84288100D02*
X44698000Y-84288100D01*
X44335000Y-85230100D02*
X44335000Y-84288100D01*
X44615000Y-81402100D02*
X44700000Y-80975100D01*
X44700000Y-80975100D02*
X44889000Y-80692100D01*
X44889000Y-80692100D02*
X45172000Y-80503100D01*
X45172000Y-80503100D02*
X45499000Y-80438100D01*
X45499000Y-80438100D02*
X48299000Y-80438100D01*
X48299000Y-80438100D02*
X48737000Y-80351100D01*
X48421000Y-85230100D02*
X44335000Y-85230100D01*
X48731000Y-85171100D02*
X48421000Y-85230100D01*
X48737000Y-80351100D02*
X49104000Y-80107100D01*
X49005000Y-85001100D02*
X48731000Y-85171100D01*
X49104000Y-80107100D02*
X49348000Y-79740100D01*
X49198000Y-84743100D02*
X49005000Y-85001100D01*
X49280000Y-84445100D02*
X49198000Y-84743100D01*
X49348000Y-79740100D02*
X49435000Y-79302100D01*
X49434000Y-83887100D02*
X49280000Y-84445100D01*
X49435000Y-79080100D02*
X49968000Y-78547100D01*
X49435000Y-79302100D02*
X49435000Y-79080100D01*
X49772000Y-83434100D02*
X49434000Y-83887100D01*
X49968000Y-78547100D02*
X50310000Y-78318100D01*
X50251000Y-83135100D02*
X49772000Y-83434100D01*
X50310000Y-78318100D02*
X50713000Y-78238100D01*
X50713000Y-78238100D02*
X53460000Y-78238100D01*
X50813000Y-83030100D02*
X50251000Y-83135100D01*
X53460000Y-78238100D02*
X54397000Y-79175100D01*
X53460000Y-83030100D02*
X50813000Y-83030100D01*
X54481000Y-82009100D02*
X53460000Y-83030100D01*
X211325100Y-61788100D02*
X211688100Y-61788100D01*
X211325100Y-62730100D02*
X211325100Y-61788100D01*
X211605100Y-58902100D02*
X211690100Y-58475100D01*
X211690100Y-58475100D02*
X211879100Y-58192100D01*
X211879100Y-58192100D02*
X212162100Y-58003100D01*
X212162100Y-58003100D02*
X212489100Y-57938100D01*
X212489100Y-57938100D02*
X215289100Y-57938100D01*
X215289100Y-57938100D02*
X215727100Y-57851100D01*
X215411100Y-62730100D02*
X211325100Y-62730100D01*
X215721100Y-62671100D02*
X215411100Y-62730100D01*
X215727100Y-57851100D02*
X216094100Y-57607100D01*
X215995100Y-62501100D02*
X215721100Y-62671100D01*
X216094100Y-57607100D02*
X216338100Y-57240100D01*
X216188100Y-62243100D02*
X215995100Y-62501100D01*
X216270100Y-61945100D02*
X216188100Y-62243100D01*
X216338100Y-57240100D02*
X216425100Y-56802100D01*
X216424100Y-61387100D02*
X216270100Y-61945100D01*
X216425100Y-56580100D02*
X216958100Y-56047100D01*
X216425100Y-56802100D02*
X216425100Y-56580100D01*
X216762100Y-60934100D02*
X216424100Y-61387100D01*
X216958100Y-56047100D02*
X217300100Y-55818100D01*
X217241100Y-60635100D02*
X216762100Y-60934100D01*
X217300100Y-55818100D02*
X217703100Y-55738100D01*
X217703100Y-55738100D02*
X220450100Y-55738100D01*
X217803100Y-60530100D02*
X217241100Y-60635100D01*
X220450100Y-55738100D02*
X221387100Y-56675100D01*
X220450100Y-60530100D02*
X217803100Y-60530100D01*
X221471100Y-59509100D02*
X220450100Y-60530100D01*
X129364000Y-61788100D02*
X129727000Y-61788100D01*
X129364000Y-62730100D02*
X129364000Y-61788100D01*
X129644000Y-58902100D02*
X129729000Y-58475100D01*
X129729000Y-58475100D02*
X129918000Y-58192100D01*
X129918000Y-58192100D02*
X130201000Y-58003100D01*
X130201000Y-58003100D02*
X130528000Y-57938100D01*
X130528000Y-57938100D02*
X133328000Y-57938100D01*
X133328000Y-57938100D02*
X133766000Y-57851100D01*
X133450000Y-62730100D02*
X129364000Y-62730100D01*
X133760000Y-62671100D02*
X133450000Y-62730100D01*
X133766000Y-57851100D02*
X134133000Y-57607100D01*
X134034000Y-62501100D02*
X133760000Y-62671100D01*
X134133000Y-57607100D02*
X134377000Y-57240100D01*
X134227000Y-62243100D02*
X134034000Y-62501100D01*
X134309000Y-61945100D02*
X134227000Y-62243100D01*
X134377000Y-57240100D02*
X134464000Y-56802100D01*
X134463000Y-61387100D02*
X134309000Y-61945100D01*
X134464000Y-56580100D02*
X134997000Y-56047100D01*
X134464000Y-56802100D02*
X134464000Y-56580100D01*
X134801000Y-60934100D02*
X134463000Y-61387100D01*
X134997000Y-56047100D02*
X135339000Y-55818100D01*
X135280000Y-60635100D02*
X134801000Y-60934100D01*
X135339000Y-55818100D02*
X135742000Y-55738100D01*
X135742000Y-55738100D02*
X138489000Y-55738100D01*
X135842000Y-60530100D02*
X135280000Y-60635100D01*
X138489000Y-55738100D02*
X139426000Y-56675100D01*
X138489000Y-60530100D02*
X135842000Y-60530100D01*
X139510000Y-59509100D02*
X138489000Y-60530100D01*
X73383000Y-76788100D02*
X73746000Y-76788100D01*
X73383000Y-77730100D02*
X73383000Y-76788100D01*
X73663000Y-73902100D02*
X73748000Y-73475100D01*
X73748000Y-73475100D02*
X73937000Y-73192100D01*
X73937000Y-73192100D02*
X74220000Y-73003100D01*
X74220000Y-73003100D02*
X74547000Y-72938100D01*
X74547000Y-72938100D02*
X77347000Y-72938100D01*
X77347000Y-72938100D02*
X77785000Y-72851100D01*
X77469000Y-77730100D02*
X73383000Y-77730100D01*
X77779000Y-77671100D02*
X77469000Y-77730100D01*
X77785000Y-72851100D02*
X78152000Y-72607100D01*
X78053000Y-77501100D02*
X77779000Y-77671100D01*
X78152000Y-72607100D02*
X78396000Y-72240100D01*
X78246000Y-77243100D02*
X78053000Y-77501100D01*
X78328000Y-76945100D02*
X78246000Y-77243100D01*
X78396000Y-72240100D02*
X78483000Y-71802100D01*
X78482000Y-76387100D02*
X78328000Y-76945100D01*
X78483000Y-71580100D02*
X79016000Y-71047100D01*
X78483000Y-71802100D02*
X78483000Y-71580100D01*
X78820000Y-75934100D02*
X78482000Y-76387100D01*
X79016000Y-71047100D02*
X79358000Y-70818100D01*
X79299000Y-75635100D02*
X78820000Y-75934100D01*
X79358000Y-70818100D02*
X79761000Y-70738100D01*
X79761000Y-70738100D02*
X82508000Y-70738100D01*
X79861000Y-75530100D02*
X79299000Y-75635100D01*
X82508000Y-70738100D02*
X83445000Y-71675100D01*
X82508000Y-75530100D02*
X79861000Y-75530100D01*
X83529000Y-74509100D02*
X82508000Y-75530100D01*
X175204400Y-126600900D02*
X175567400Y-126600900D01*
X175204400Y-127542900D02*
X175204400Y-126600900D01*
X175484400Y-123714900D02*
X175569400Y-123287900D01*
X175569400Y-123287900D02*
X175758400Y-123004900D01*
X175758400Y-123004900D02*
X176041400Y-122815900D01*
X176041400Y-122815900D02*
X176368400Y-122750900D01*
X176368400Y-122750900D02*
X179168400Y-122750900D01*
X179168400Y-122750900D02*
X179606400Y-122663900D01*
X179290400Y-127542900D02*
X175204400Y-127542900D01*
X179600400Y-127483900D02*
X179290400Y-127542900D01*
X179606400Y-122663900D02*
X179973400Y-122419900D01*
X179874400Y-127313900D02*
X179600400Y-127483900D01*
X179973400Y-122419900D02*
X180217400Y-122052900D01*
X180067400Y-127055900D02*
X179874400Y-127313900D01*
X180149400Y-126757900D02*
X180067400Y-127055900D01*
X180217400Y-122052900D02*
X180304400Y-121614900D01*
X180303400Y-126199900D02*
X180149400Y-126757900D01*
X180304400Y-121392900D02*
X180837400Y-120859900D01*
X180304400Y-121614900D02*
X180304400Y-121392900D01*
X180641400Y-125746900D02*
X180303400Y-126199900D01*
X180837400Y-120859900D02*
X181179400Y-120630900D01*
X181120400Y-125447900D02*
X180641400Y-125746900D01*
X181179400Y-120630900D02*
X181582400Y-120550900D01*
X181582400Y-120550900D02*
X184329400Y-120550900D01*
X181682400Y-125342900D02*
X181120400Y-125447900D01*
X184329400Y-120550900D02*
X185266400Y-121487900D01*
X184329400Y-125342900D02*
X181682400Y-125342900D01*
X185350400Y-124321900D02*
X184329400Y-125342900D01*
X129351000Y-91769100D02*
X129714000Y-91769100D01*
X129351000Y-92711100D02*
X129351000Y-91769100D01*
X129631000Y-88883100D02*
X129716000Y-88456100D01*
X129716000Y-88456100D02*
X129905000Y-88173100D01*
X129905000Y-88173100D02*
X130188000Y-87984100D01*
X130188000Y-87984100D02*
X130515000Y-87919100D01*
X130515000Y-87919100D02*
X133315000Y-87919100D01*
X133315000Y-87919100D02*
X133753000Y-87832100D01*
X133437000Y-92711100D02*
X129351000Y-92711100D01*
X133747000Y-92652100D02*
X133437000Y-92711100D01*
X133753000Y-87832100D02*
X134120000Y-87588100D01*
X134021000Y-92482100D02*
X133747000Y-92652100D01*
X134120000Y-87588100D02*
X134364000Y-87221100D01*
X134214000Y-92224100D02*
X134021000Y-92482100D01*
X134296000Y-91926100D02*
X134214000Y-92224100D01*
X134364000Y-87221100D02*
X134451000Y-86783100D01*
X134450000Y-91368100D02*
X134296000Y-91926100D01*
X134451000Y-86561100D02*
X134984000Y-86028100D01*
X134451000Y-86783100D02*
X134451000Y-86561100D01*
X134788000Y-90915100D02*
X134450000Y-91368100D01*
X134984000Y-86028100D02*
X135326000Y-85799100D01*
X135267000Y-90616100D02*
X134788000Y-90915100D01*
X135326000Y-85799100D02*
X135729000Y-85719100D01*
X135729000Y-85719100D02*
X138476000Y-85719100D01*
X135829000Y-90511100D02*
X135267000Y-90616100D01*
X138476000Y-85719100D02*
X139413000Y-86656100D01*
X138476000Y-90511100D02*
X135829000Y-90511100D01*
X139497000Y-89490100D02*
X138476000Y-90511100D01*
X44335000Y-54288100D02*
X44698000Y-54288100D01*
X44335000Y-55230100D02*
X44335000Y-54288100D01*
X44615000Y-51402100D02*
X44700000Y-50975100D01*
X44700000Y-50975100D02*
X44889000Y-50692100D01*
X44889000Y-50692100D02*
X45172000Y-50503100D01*
X45172000Y-50503100D02*
X45499000Y-50438100D01*
X45499000Y-50438100D02*
X48299000Y-50438100D01*
X48299000Y-50438100D02*
X48737000Y-50351100D01*
X48421000Y-55230100D02*
X44335000Y-55230100D01*
X48731000Y-55171100D02*
X48421000Y-55230100D01*
X48737000Y-50351100D02*
X49104000Y-50107100D01*
X49005000Y-55001100D02*
X48731000Y-55171100D01*
X49104000Y-50107100D02*
X49348000Y-49740100D01*
X49198000Y-54743100D02*
X49005000Y-55001100D01*
X49280000Y-54445100D02*
X49198000Y-54743100D01*
X49348000Y-49740100D02*
X49435000Y-49302100D01*
X49434000Y-53887100D02*
X49280000Y-54445100D01*
X49435000Y-49080100D02*
X49968000Y-48547100D01*
X49435000Y-49302100D02*
X49435000Y-49080100D01*
X49772000Y-53434100D02*
X49434000Y-53887100D01*
X49968000Y-48547100D02*
X50310000Y-48318100D01*
X50251000Y-53135100D02*
X49772000Y-53434100D01*
X50310000Y-48318100D02*
X50713000Y-48238100D01*
X50713000Y-48238100D02*
X53460000Y-48238100D01*
X50813000Y-53030100D02*
X50251000Y-53135100D01*
X53460000Y-48238100D02*
X54397000Y-49175100D01*
X53460000Y-53030100D02*
X50813000Y-53030100D01*
X54481000Y-52009100D02*
X53460000Y-53030100D01*
X181325100Y-61788100D02*
X181688100Y-61788100D01*
X181325100Y-62730100D02*
X181325100Y-61788100D01*
X181605100Y-58902100D02*
X181690100Y-58475100D01*
X181690100Y-58475100D02*
X181879100Y-58192100D01*
X181879100Y-58192100D02*
X182162100Y-58003100D01*
X182162100Y-58003100D02*
X182489100Y-57938100D01*
X182489100Y-57938100D02*
X185289100Y-57938100D01*
X185289100Y-57938100D02*
X185727100Y-57851100D01*
X185411100Y-62730100D02*
X181325100Y-62730100D01*
X185721100Y-62671100D02*
X185411100Y-62730100D01*
X185727100Y-57851100D02*
X186094100Y-57607100D01*
X185995100Y-62501100D02*
X185721100Y-62671100D01*
X186094100Y-57607100D02*
X186338100Y-57240100D01*
X186188100Y-62243100D02*
X185995100Y-62501100D01*
X186270100Y-61945100D02*
X186188100Y-62243100D01*
X186338100Y-57240100D02*
X186425100Y-56802100D01*
X186424100Y-61387100D02*
X186270100Y-61945100D01*
X186425100Y-56580100D02*
X186958100Y-56047100D01*
X186425100Y-56802100D02*
X186425100Y-56580100D01*
X186762100Y-60934100D02*
X186424100Y-61387100D01*
X186958100Y-56047100D02*
X187300100Y-55818100D01*
X187241100Y-60635100D02*
X186762100Y-60934100D01*
X187300100Y-55818100D02*
X187703100Y-55738100D01*
X187703100Y-55738100D02*
X190450100Y-55738100D01*
X187803100Y-60530100D02*
X187241100Y-60635100D01*
X190450100Y-55738100D02*
X191387100Y-56675100D01*
X190450100Y-60530100D02*
X187803100Y-60530100D01*
X191471100Y-59509100D02*
X190450100Y-60530100D01*
X211312100Y-91769100D02*
X211675100Y-91769100D01*
X211312100Y-92711100D02*
X211312100Y-91769100D01*
X211592100Y-88883100D02*
X211677100Y-88456100D01*
X211677100Y-88456100D02*
X211866100Y-88173100D01*
X211866100Y-88173100D02*
X212149100Y-87984100D01*
X212149100Y-87984100D02*
X212476100Y-87919100D01*
X212476100Y-87919100D02*
X215276100Y-87919100D01*
X215276100Y-87919100D02*
X215714100Y-87832100D01*
X215398100Y-92711100D02*
X211312100Y-92711100D01*
X215708100Y-92652100D02*
X215398100Y-92711100D01*
X215714100Y-87832100D02*
X216081100Y-87588100D01*
X215982100Y-92482100D02*
X215708100Y-92652100D01*
X216081100Y-87588100D02*
X216325100Y-87221100D01*
X216175100Y-92224100D02*
X215982100Y-92482100D01*
X216257100Y-91926100D02*
X216175100Y-92224100D01*
X216325100Y-87221100D02*
X216412100Y-86783100D01*
X216411100Y-91368100D02*
X216257100Y-91926100D01*
X216412100Y-86561100D02*
X216945100Y-86028100D01*
X216412100Y-86783100D02*
X216412100Y-86561100D01*
X216749100Y-90915100D02*
X216411100Y-91368100D01*
X216945100Y-86028100D02*
X217287100Y-85799100D01*
X217228100Y-90616100D02*
X216749100Y-90915100D01*
X217287100Y-85799100D02*
X217690100Y-85719100D01*
X217690100Y-85719100D02*
X220437100Y-85719100D01*
X217790100Y-90511100D02*
X217228100Y-90616100D01*
X220437100Y-85719100D02*
X221374100Y-86656100D01*
X220437100Y-90511100D02*
X217790100Y-90511100D01*
X221458100Y-89490100D02*
X220437100Y-90511100D01*
X181312100Y-91769100D02*
X181675100Y-91769100D01*
X181312100Y-92711100D02*
X181312100Y-91769100D01*
X181592100Y-88883100D02*
X181677100Y-88456100D01*
X181677100Y-88456100D02*
X181866100Y-88173100D01*
X181866100Y-88173100D02*
X182149100Y-87984100D01*
X182149100Y-87984100D02*
X182476100Y-87919100D01*
X182476100Y-87919100D02*
X185276100Y-87919100D01*
X185276100Y-87919100D02*
X185714100Y-87832100D01*
X185398100Y-92711100D02*
X181312100Y-92711100D01*
X185708100Y-92652100D02*
X185398100Y-92711100D01*
X185714100Y-87832100D02*
X186081100Y-87588100D01*
X185982100Y-92482100D02*
X185708100Y-92652100D01*
X186081100Y-87588100D02*
X186325100Y-87221100D01*
X186175100Y-92224100D02*
X185982100Y-92482100D01*
X186257100Y-91926100D02*
X186175100Y-92224100D01*
X186325100Y-87221100D02*
X186412100Y-86783100D01*
X186411100Y-91368100D02*
X186257100Y-91926100D01*
X186412100Y-86561100D02*
X186945100Y-86028100D01*
X186412100Y-86783100D02*
X186412100Y-86561100D01*
X186749100Y-90915100D02*
X186411100Y-91368100D01*
X186945100Y-86028100D02*
X187287100Y-85799100D01*
X187228100Y-90616100D02*
X186749100Y-90915100D01*
X187287100Y-85799100D02*
X187690100Y-85719100D01*
X187690100Y-85719100D02*
X190437100Y-85719100D01*
X187790100Y-90511100D02*
X187228100Y-90616100D01*
X190437100Y-85719100D02*
X191374100Y-86656100D01*
X190437100Y-90511100D02*
X187790100Y-90511100D01*
X191458100Y-89490100D02*
X190437100Y-90511100D01*
X112126000Y-116331700D02*
X112489000Y-116331700D01*
X112126000Y-117273700D02*
X112126000Y-116331700D01*
X112406000Y-113445700D02*
X112491000Y-113018700D01*
X112491000Y-113018700D02*
X112680000Y-112735700D01*
X112680000Y-112735700D02*
X112963000Y-112546700D01*
X112963000Y-112546700D02*
X113290000Y-112481700D01*
X113290000Y-112481700D02*
X116090000Y-112481700D01*
X116090000Y-112481700D02*
X116528000Y-112394700D01*
X116212000Y-117273700D02*
X112126000Y-117273700D01*
X116522000Y-117214700D02*
X116212000Y-117273700D01*
X116528000Y-112394700D02*
X116895000Y-112150700D01*
X116796000Y-117044700D02*
X116522000Y-117214700D01*
X116895000Y-112150700D02*
X117139000Y-111783700D01*
X116989000Y-116786700D02*
X116796000Y-117044700D01*
X117071000Y-116488700D02*
X116989000Y-116786700D01*
X117139000Y-111783700D02*
X117226000Y-111345700D01*
X117225000Y-115930700D02*
X117071000Y-116488700D01*
X117226000Y-111123700D02*
X117759000Y-110590700D01*
X117226000Y-111345700D02*
X117226000Y-111123700D01*
X117563000Y-115477700D02*
X117225000Y-115930700D01*
X117759000Y-110590700D02*
X118101000Y-110361700D01*
X118042000Y-115178700D02*
X117563000Y-115477700D01*
X118101000Y-110361700D02*
X118504000Y-110281700D01*
X118504000Y-110281700D02*
X121251000Y-110281700D01*
X118604000Y-115073700D02*
X118042000Y-115178700D01*
X121251000Y-110281700D02*
X122188000Y-111218700D01*
X121251000Y-115073700D02*
X118604000Y-115073700D01*
X122272000Y-114052700D02*
X121251000Y-115073700D01*
%LPC*%
D14*
X163577200Y-54623250D03*
X162617200Y-54623250D03*
D15*
X162054150Y-53660050D03*
X162054150Y-52640050D03*
D16*
X191902200Y-38603784D03*
X189403200Y-38603784D03*
X187401200Y-38603784D03*
X184902200Y-38603784D03*
D17*
X194803200Y-37130784D03*
X194803200Y-31128784D03*
X182001200Y-31179284D03*
X182001200Y-37130784D03*
D18*
X152909800Y-36660400D03*
X153929800Y-36660400D03*
D19*
X164041100Y-37624400D03*
D20*
X163503600Y-37549400D03*
D19*
X162966100Y-37624400D03*
X162966100Y-39324400D03*
D20*
X163503600Y-39399400D03*
D19*
X164041100Y-39324400D03*
D21*
X161014400Y-42019200D03*
X161014400Y-41059200D03*
D18*
X167714200Y-52527200D03*
X168734200Y-52527200D03*
D22*
X251688600Y-45505200D03*
X251688600Y-46465200D03*
D23*
X153930800Y-38032000D03*
X153930800Y-39302000D03*
X153930800Y-40572000D03*
X153930800Y-41842000D03*
X158880800Y-41842000D03*
X158880800Y-40572000D03*
X158880800Y-39302000D03*
X158880800Y-38032000D03*
D24*
X241122200Y-44273200D03*
X241122200Y-46173200D03*
D14*
X157532000Y-44940800D03*
X156572000Y-44940800D03*
D25*
X146011200Y-36652200D03*
X150211200Y-36652200D03*
X146011200Y-38802200D03*
X150211200Y-38802200D03*
D22*
X252831600Y-45530600D03*
X252831600Y-46490600D03*
D21*
X162005000Y-42019200D03*
X162005000Y-41059200D03*
D26*
X158862150Y-45149450D03*
X158862150Y-45549450D03*
X158862150Y-45949450D03*
X158862150Y-46349450D03*
X158862150Y-46749450D03*
X158862150Y-47149450D03*
X158862150Y-47549450D03*
X158862150Y-47949450D03*
X158862150Y-48349450D03*
X158862150Y-48749450D03*
X158862150Y-49149450D03*
X158862150Y-49549450D03*
X158862150Y-49949450D03*
X158862150Y-50349450D03*
D27*
X159699650Y-51186950D03*
X160099650Y-51186950D03*
X160499650Y-51186950D03*
X160899650Y-51186950D03*
X161299650Y-51186950D03*
X161699650Y-51186950D03*
X162099650Y-51186950D03*
X162499650Y-51186950D03*
X162899650Y-51186950D03*
X163299650Y-51186950D03*
X163699650Y-51186950D03*
X164099650Y-51186950D03*
X164499650Y-51186950D03*
X164899650Y-51186950D03*
D26*
X165737150Y-50349450D03*
X165737150Y-49949450D03*
X165737150Y-49549450D03*
X165737150Y-49149450D03*
X165737150Y-48749450D03*
X165737150Y-48349450D03*
X165737150Y-47949450D03*
X165737150Y-47549450D03*
X165737150Y-47149450D03*
X165737150Y-46749450D03*
X165737150Y-46349450D03*
X165737150Y-45949450D03*
X165737150Y-45549450D03*
X165737150Y-45149450D03*
D27*
X164899650Y-44311950D03*
X164499650Y-44311950D03*
X164099650Y-44311950D03*
X163699650Y-44311950D03*
X163299650Y-44311950D03*
X162899650Y-44311950D03*
X162499650Y-44311950D03*
X162099650Y-44311950D03*
X161699650Y-44311950D03*
X161299650Y-44311950D03*
X160899650Y-44311950D03*
X160499650Y-44311950D03*
X160099650Y-44311950D03*
X159699650Y-44311950D03*
D28*
X162299650Y-47749450D03*
D29*
X167405000Y-42324600D03*
X169305000Y-42324600D03*
D30*
X160815100Y-57716000D03*
X163015100Y-57716000D03*
X163015100Y-56016000D03*
X160815100Y-56016000D03*
D18*
X166952200Y-51460400D03*
X167972200Y-51460400D03*
D31*
X253290000Y-32253800D03*
X254790000Y-32253800D03*
X257790000Y-32253800D03*
D32*
X251890000Y-31603800D03*
X251890000Y-29403800D03*
X259190000Y-31603800D03*
X259190000Y-29403800D03*
D33*
X167033000Y-48920400D03*
X167993000Y-48920400D03*
X167113000Y-43874000D03*
X168073000Y-43874000D03*
D31*
X234240000Y-32253800D03*
X235740000Y-32253800D03*
X238740000Y-32253800D03*
D32*
X232840000Y-31603800D03*
X232840000Y-29403800D03*
X240140000Y-31603800D03*
X240140000Y-29403800D03*
D33*
X167113000Y-44864600D03*
X168073000Y-44864600D03*
D18*
X154840200Y-36660400D03*
X155860200Y-36660400D03*
D21*
X160709600Y-38996600D03*
X160709600Y-38036600D03*
D34*
X165883800Y-34718800D03*
X160103800Y-34718800D03*
D35*
X166343800Y-35783800D03*
X165543800Y-35783800D03*
X164243800Y-35783800D03*
X163243800Y-35783800D03*
X162743800Y-35783800D03*
X161743800Y-35783800D03*
X160443800Y-35783800D03*
X159643800Y-35783800D03*
X159943800Y-35783800D03*
X160743800Y-35783800D03*
X161243800Y-35783800D03*
X162243800Y-35783800D03*
X163743800Y-35783800D03*
X164743800Y-35783800D03*
X165243800Y-35783800D03*
X166043800Y-35783800D03*
D36*
X167313800Y-35218800D03*
D37*
X167313800Y-31038800D03*
D36*
X158673800Y-35218800D03*
D37*
X158673800Y-31038800D03*
D38*
X164011600Y-41027200D03*
X164011600Y-42047200D03*
D39*
X157155600Y-33587000D03*
X156135600Y-33587000D03*
D38*
X162995600Y-41027200D03*
X162995600Y-42047200D03*
D39*
X168046400Y-47879000D03*
X167026400Y-47879000D03*
D22*
X250520200Y-45505200D03*
X250520200Y-46465200D03*
X163095550Y-52670050D03*
X163095550Y-53630050D03*
D21*
X165002200Y-42019200D03*
X165002200Y-41059200D03*
D38*
X242671600Y-45475200D03*
X242671600Y-46495200D03*
D40*
X253259000Y-48200000D03*
X252759000Y-48200000D03*
X252259000Y-48200000D03*
X251759000Y-48200000D03*
X251259000Y-48200000D03*
X250759000Y-48200000D03*
X250259500Y-48200000D03*
X249759000Y-48200000D03*
X249259500Y-48200000D03*
X248759000Y-48200000D03*
X248259500Y-48200000D03*
X247759000Y-48200000D03*
X247259500Y-48200000D03*
X246759000Y-48200000D03*
X246259500Y-48200000D03*
X245759000Y-48200000D03*
X245259500Y-48200000D03*
X244759000Y-48200000D03*
X244259500Y-48200000D03*
X243759000Y-48200000D03*
X243259500Y-48200000D03*
X242759000Y-48200000D03*
X242259500Y-48200000D03*
X241759000Y-48200000D03*
X241259500Y-48200000D03*
X240759000Y-48200000D03*
X240259500Y-48200000D03*
X239759000Y-48200000D03*
X239259500Y-48200000D03*
X238759000Y-48200000D03*
D41*
X236759000Y-49880000D03*
X255259000Y-49880000D03*
D24*
X239039400Y-44273200D03*
X239039400Y-46173200D03*
D33*
X160255000Y-54620200D03*
X161215000Y-54620200D03*
D39*
X168046400Y-46812200D03*
X167026400Y-46812200D03*
D22*
X249504200Y-45505200D03*
X249504200Y-46465200D03*
D42*
X169447200Y-36111800D03*
X169447200Y-34211800D03*
D39*
X157155600Y-32545600D03*
X156135600Y-32545600D03*
D22*
X164111550Y-52670050D03*
X164111550Y-53630050D03*
D21*
X165992800Y-42019200D03*
X165992800Y-41059200D03*
D14*
X157532000Y-48750800D03*
X156572000Y-48750800D03*
D43*
X169319100Y-38037500D03*
X168369100Y-38037500D03*
X167419100Y-38037500D03*
X167419100Y-40312500D03*
X169319100Y-40312500D03*
D19*
X188929300Y-41324584D03*
D20*
X188391800Y-41249584D03*
D19*
X187854300Y-41324584D03*
X187854300Y-43024584D03*
D20*
X188391800Y-43099584D03*
D19*
X188929300Y-43024584D03*
D44*
X116529000Y-79084100D03*
D45*
X116029000Y-84234100D03*
D46*
X111029000Y-79084100D03*
D47*
X111029000Y-73184100D03*
X106029000Y-75284100D03*
D44*
X105529000Y-79084100D03*
D48*
X114529000Y-73084100D03*
X102529000Y-75284100D03*
D44*
X86529000Y-49084000D03*
D45*
X86029000Y-54234000D03*
D46*
X81029000Y-49084000D03*
D47*
X81029000Y-43184000D03*
X76029000Y-45284000D03*
D44*
X75529000Y-49084000D03*
D48*
X84529000Y-43084000D03*
X72529000Y-45284000D03*
D44*
X116529000Y-49084000D03*
D45*
X116029000Y-54234000D03*
D46*
X111029000Y-49084000D03*
D47*
X111029000Y-43184000D03*
X106029000Y-45284000D03*
D44*
X105529000Y-49084000D03*
D48*
X114529000Y-43084000D03*
X102529000Y-45284000D03*
D44*
X155500000Y-131915900D03*
D45*
X155000000Y-137065900D03*
D46*
X150000000Y-131915900D03*
D47*
X150000000Y-126015900D03*
X145000000Y-128115900D03*
D44*
X144500000Y-131915900D03*
D48*
X153500000Y-125915900D03*
X141500000Y-128115900D03*
D44*
X168477000Y-79065100D03*
D45*
X167977000Y-84215100D03*
D46*
X162977000Y-79065100D03*
D47*
X162977000Y-73165100D03*
X157977000Y-75265100D03*
D44*
X157477000Y-79065100D03*
D48*
X166477000Y-73065100D03*
X154477000Y-75265100D03*
D44*
X253518500Y-71584100D03*
D45*
X253018500Y-76734100D03*
D46*
X248018500Y-71584100D03*
D47*
X248018500Y-65684100D03*
X243018500Y-67784100D03*
D44*
X242518500Y-71584100D03*
D48*
X251518500Y-65584100D03*
X239518500Y-67784100D03*
D44*
X253518500Y-101584100D03*
D45*
X253018500Y-106734100D03*
D46*
X248018500Y-101584100D03*
D47*
X248018500Y-95684100D03*
X243018500Y-97784100D03*
D44*
X242518500Y-101584100D03*
D48*
X251518500Y-95584100D03*
X239518500Y-97784100D03*
D44*
X57481000Y-86584100D03*
D45*
X56981000Y-91734100D03*
D46*
X51981000Y-86584100D03*
D47*
X51981000Y-80684100D03*
X46981000Y-82784100D03*
D44*
X46481000Y-86584100D03*
D48*
X55481000Y-80584100D03*
X43481000Y-82784100D03*
D44*
X224471100Y-64084100D03*
D45*
X223971100Y-69234100D03*
D46*
X218971100Y-64084100D03*
D47*
X218971100Y-58184100D03*
X213971100Y-60284100D03*
D44*
X213471100Y-64084100D03*
D48*
X222471100Y-58084100D03*
X210471100Y-60284100D03*
D44*
X142510000Y-64084100D03*
D45*
X142010000Y-69234100D03*
D46*
X137010000Y-64084100D03*
D47*
X137010000Y-58184100D03*
X132010000Y-60284100D03*
D44*
X131510000Y-64084100D03*
D48*
X140510000Y-58084100D03*
X128510000Y-60284100D03*
D44*
X86529000Y-79084100D03*
D45*
X86029000Y-84234100D03*
D46*
X81029000Y-79084100D03*
D47*
X81029000Y-73184100D03*
X76029000Y-75284100D03*
D44*
X75529000Y-79084100D03*
D48*
X84529000Y-73084100D03*
X72529000Y-75284100D03*
D44*
X188350400Y-128896900D03*
D45*
X187850400Y-134046900D03*
D46*
X182850400Y-128896900D03*
D47*
X182850400Y-122996900D03*
X177850400Y-125096900D03*
D44*
X177350400Y-128896900D03*
D48*
X186350400Y-122896900D03*
X174350400Y-125096900D03*
D44*
X142497000Y-94065100D03*
D45*
X141997000Y-99215100D03*
D46*
X136997000Y-94065100D03*
D47*
X136997000Y-88165100D03*
X131997000Y-90265100D03*
D44*
X131497000Y-94065100D03*
D48*
X140497000Y-88065100D03*
X128497000Y-90265100D03*
D44*
X57481000Y-56584100D03*
D45*
X56981000Y-61734100D03*
D46*
X51981000Y-56584100D03*
D47*
X51981000Y-50684100D03*
X46981000Y-52784100D03*
D44*
X46481000Y-56584100D03*
D48*
X55481000Y-50584100D03*
X43481000Y-52784100D03*
D44*
X194471100Y-64084100D03*
D45*
X193971100Y-69234100D03*
D46*
X188971100Y-64084100D03*
D47*
X188971100Y-58184100D03*
X183971100Y-60284100D03*
D44*
X183471100Y-64084100D03*
D48*
X192471100Y-58084100D03*
X180471100Y-60284100D03*
D44*
X224458100Y-94065100D03*
D45*
X223958100Y-99215100D03*
D46*
X218958100Y-94065100D03*
D47*
X218958100Y-88165100D03*
X213958100Y-90265100D03*
D44*
X213458100Y-94065100D03*
D48*
X222458100Y-88065100D03*
X210458100Y-90265100D03*
D44*
X194458100Y-94065100D03*
D45*
X193958100Y-99215100D03*
D46*
X188958100Y-94065100D03*
D47*
X188958100Y-88165100D03*
X183958100Y-90265100D03*
D44*
X183458100Y-94065100D03*
D48*
X192458100Y-88065100D03*
X180458100Y-90265100D03*
D44*
X125272000Y-118627700D03*
D45*
X124772000Y-123777700D03*
D46*
X119772000Y-118627700D03*
D47*
X119772000Y-112727700D03*
X114772000Y-114827700D03*
D44*
X114272000Y-118627700D03*
D48*
X123272000Y-112627700D03*
X111272000Y-114827700D03*
%LPD*%
M02*
