M48
; DRILL file {KiCad 8.0.1} date 2024-03-30T21:55:52-0700
; FORMAT={-:-/ absolute / metric / decimal}
; #@! TF.CreationDate,2024-03-30T21:55:52-07:00
; #@! TF.GenerationSoftware,Kicad,Pcbnew,8.0.1
; #@! TF.FileFunction,NonPlated,1,2,NPTH
FMAT,2
METRIC
; #@! TA.AperFunction,NonPlated,NPTH,ComponentDrill
T1C0.650
; #@! TA.AperFunction,NonPlated,NPTH,ComponentDrill
T2C1.600
; #@! TA.AperFunction,NonPlated,NPTH,ComponentDrill
T3C1.900
; #@! TA.AperFunction,NonPlated,NPTH,ComponentDrill
T4C3.050
; #@! TA.AperFunction,NonPlated,NPTH,ComponentDrill
T5C5.050
%
G90
G05
T1
X160.104Y-34.719
X165.884Y-34.719
T2
X56.981Y-61.734
X56.981Y-91.734
X86.029Y-54.234
X86.029Y-84.234
X116.029Y-54.234
X116.029Y-84.234
X124.772Y-123.778
X141.997Y-99.215
X142.01Y-69.234
X155.0Y-137.066
X167.977Y-84.215
X187.85Y-134.047
X193.958Y-99.215
X193.971Y-69.234
X223.958Y-99.215
X223.971Y-69.234
X253.018Y-76.734
X253.018Y-106.734
T3
X46.481Y-56.584
X46.481Y-86.584
X57.481Y-56.584
X57.481Y-86.584
X75.529Y-49.084
X75.529Y-79.084
X86.529Y-49.084
X86.529Y-79.084
X105.529Y-49.084
X105.529Y-79.084
X114.272Y-118.628
X116.529Y-49.084
X116.529Y-79.084
X125.272Y-118.628
X131.497Y-94.065
X131.51Y-64.084
X142.497Y-94.065
X142.51Y-64.084
X144.5Y-131.916
X155.5Y-131.916
X157.477Y-79.065
X168.477Y-79.065
X177.35Y-128.897
X183.458Y-94.065
X183.471Y-64.084
X188.35Y-128.897
X194.458Y-94.065
X194.471Y-64.084
X213.458Y-94.065
X213.471Y-64.084
X224.458Y-94.065
X224.471Y-64.084
X242.518Y-71.584
X242.518Y-101.584
X253.518Y-71.584
X253.518Y-101.584
T4
X46.981Y-52.784
X46.981Y-82.784
X51.981Y-50.684
X51.981Y-80.684
X76.029Y-45.284
X76.029Y-75.284
X81.029Y-43.184
X81.029Y-73.184
X106.029Y-45.284
X106.029Y-75.284
X111.029Y-43.184
X111.029Y-73.184
X114.772Y-114.828
X119.772Y-112.728
X131.997Y-90.265
X132.01Y-60.284
X136.997Y-88.165
X137.01Y-58.184
X145.0Y-128.116
X150.0Y-126.016
X157.977Y-75.265
X162.977Y-73.165
X177.85Y-125.097
X182.85Y-122.997
X183.958Y-90.265
X183.971Y-60.284
X188.958Y-88.165
X188.971Y-58.184
X213.958Y-90.265
X213.971Y-60.284
X218.958Y-88.165
X218.971Y-58.184
X243.018Y-67.784
X243.018Y-97.784
X248.018Y-65.684
X248.018Y-95.684
T5
X51.981Y-56.584
X51.981Y-86.584
X81.029Y-49.084
X81.029Y-79.084
X111.029Y-49.084
X111.029Y-79.084
X119.772Y-118.628
X136.997Y-94.065
X137.01Y-64.084
X150.0Y-131.916
X162.977Y-79.065
X182.85Y-128.897
X188.958Y-94.065
X188.971Y-64.084
X218.958Y-94.065
X218.971Y-64.084
X248.018Y-71.584
X248.018Y-101.584
M30
