M48
; DRILL file {KiCad 8.0.1} date 2024-03-30T21:55:52-0700
; FORMAT={-:-/ absolute / metric / decimal}
; #@! TF.CreationDate,2024-03-30T21:55:52-07:00
; #@! TF.GenerationSoftware,Kicad,Pcbnew,8.0.1
; #@! TF.FileFunction,Plated,1,2,PTH
FMAT,2
METRIC
; #@! TA.AperFunction,Plated,PTH,ViaDrill
T1C0.350
; #@! TA.AperFunction,Plated,PTH,ComponentDrill
T2C0.350
; #@! TA.AperFunction,Plated,PTH,ComponentDrill
T3C0.600
; #@! TA.AperFunction,Plated,PTH,ComponentDrill
T4C0.700
%
G90
G05
T1
X43.485Y-54.635
X43.485Y-84.63
X72.521Y-47.139
X72.521Y-77.137
X102.544Y-47.139
X102.544Y-77.188
X111.303Y-116.688
X128.502Y-62.125
X128.502Y-92.123
X141.482Y-129.969
X144.729Y-36.627
X153.949Y-42.596
X154.487Y-77.111
X155.423Y-33.096
X155.778Y-44.933
X155.829Y-48.751
X157.277Y-38.049
X158.394Y-44.475
X159.236Y-54.61
X159.236Y-56.881
X159.795Y-36.813
X160.911Y-52.566
X161.014Y-40.31
X161.429Y-42.634
X161.493Y-38.989
X161.902Y-59.017
X162.001Y-40.31
X162.886Y-49.799
X163.491Y-40.115
X163.504Y-38.21
X163.551Y-45.237
X163.642Y-52.074
X164.647Y-54.61
X164.647Y-56.881
X164.744Y-50.19
X165.289Y-40.321
X165.659Y-51.105
X165.989Y-40.335
X166.065Y-31.031
X166.196Y-36.813
X166.755Y-38.007
X168.072Y-36.932
X168.732Y-50.28
X168.732Y-51.638
X168.758Y-48.92
X168.808Y-44.856
X169.291Y-43.84
X169.443Y-32.995
X174.349Y-126.946
X180.445Y-92.123
X184.912Y-40.615
X188.392Y-40.382
X192.485Y-59.966
X210.468Y-92.123
X222.482Y-59.941
X234.239Y-33.655
X239.039Y-43.205
X239.209Y-47.262
X239.526Y-99.667
X241.122Y-43.205
X242.672Y-44.755
X243.256Y-47.269
X245.77Y-47.269
X247.777Y-47.269
X248.666Y-47.193
X249.504Y-44.755
X249.832Y-47.245
X250.52Y-44.755
X251.515Y-67.434
X253.289Y-33.68
T2
X161.025Y-46.474
X161.025Y-47.749
X161.025Y-49.024
X162.3Y-46.474
X162.3Y-47.749
X162.3Y-49.024
X163.575Y-46.474
X163.575Y-47.749
X163.575Y-49.024
T3
X158.674Y-31.339G85X158.674Y-30.739
G05
X158.674Y-35.769G85X158.674Y-34.669
G05
X167.314Y-31.339G85X167.314Y-30.739
G05
X167.314Y-35.769G85X167.314Y-34.669
G05
T4
X182.001Y-30.629G85X182.001Y-31.729
G05
X182.001Y-36.581G85X182.001Y-37.681
G05
X194.803Y-31.679G85X194.803Y-30.579
G05
X194.803Y-37.681G85X194.803Y-36.581
G05
M30
