G04 #@! TF.GenerationSoftware,KiCad,Pcbnew,8.0.1*
G04 #@! TF.CreationDate,2024-03-30T21:55:46-07:00*
G04 #@! TF.ProjectId,proj,70726f6a-2e6b-4696-9361-645f70636258,rev?*
G04 #@! TF.SameCoordinates,Original*
G04 #@! TF.FileFunction,Soldermask,Bot*
G04 #@! TF.FilePolarity,Negative*
%FSLAX46Y46*%
G04 Gerber Fmt 4.6, Leading zero omitted, Abs format (unit mm)*
G04 Created by KiCad (PCBNEW 8.0.1) date 2024-03-30 21:55:46*
%MOMM*%
%LPD*%
G01*
G04 APERTURE LIST*
%ADD10O,1.400000X2.500000*%
%ADD11C,0.650000*%
%ADD12O,1.000000X2.100000*%
%ADD13O,1.000000X1.600000*%
%ADD14C,1.900000*%
%ADD15C,1.600000*%
%ADD16C,5.050000*%
%ADD17C,3.050000*%
G04 APERTURE END LIST*
D10*
X194803200Y-37130784D03*
X194803200Y-31128784D03*
X182001200Y-31179284D03*
X182001200Y-37130784D03*
D11*
X165883800Y-34718800D03*
X160103800Y-34718800D03*
D12*
X167313800Y-35218800D03*
D13*
X167313800Y-31038800D03*
D12*
X158673800Y-35218800D03*
D13*
X158673800Y-31038800D03*
D14*
X116529000Y-79084100D03*
D15*
X116029000Y-84234100D03*
D16*
X111029000Y-79084100D03*
D17*
X111029000Y-73184100D03*
X106029000Y-75284100D03*
D14*
X105529000Y-79084100D03*
X86529000Y-49084000D03*
D15*
X86029000Y-54234000D03*
D16*
X81029000Y-49084000D03*
D17*
X81029000Y-43184000D03*
X76029000Y-45284000D03*
D14*
X75529000Y-49084000D03*
X116529000Y-49084000D03*
D15*
X116029000Y-54234000D03*
D16*
X111029000Y-49084000D03*
D17*
X111029000Y-43184000D03*
X106029000Y-45284000D03*
D14*
X105529000Y-49084000D03*
X155500000Y-131915900D03*
D15*
X155000000Y-137065900D03*
D16*
X150000000Y-131915900D03*
D17*
X150000000Y-126015900D03*
X145000000Y-128115900D03*
D14*
X144500000Y-131915900D03*
X168477000Y-79065100D03*
D15*
X167977000Y-84215100D03*
D16*
X162977000Y-79065100D03*
D17*
X162977000Y-73165100D03*
X157977000Y-75265100D03*
D14*
X157477000Y-79065100D03*
X253518500Y-71584100D03*
D15*
X253018500Y-76734100D03*
D16*
X248018500Y-71584100D03*
D17*
X248018500Y-65684100D03*
X243018500Y-67784100D03*
D14*
X242518500Y-71584100D03*
X253518500Y-101584100D03*
D15*
X253018500Y-106734100D03*
D16*
X248018500Y-101584100D03*
D17*
X248018500Y-95684100D03*
X243018500Y-97784100D03*
D14*
X242518500Y-101584100D03*
X57481000Y-86584100D03*
D15*
X56981000Y-91734100D03*
D16*
X51981000Y-86584100D03*
D17*
X51981000Y-80684100D03*
X46981000Y-82784100D03*
D14*
X46481000Y-86584100D03*
X224471100Y-64084100D03*
D15*
X223971100Y-69234100D03*
D16*
X218971100Y-64084100D03*
D17*
X218971100Y-58184100D03*
X213971100Y-60284100D03*
D14*
X213471100Y-64084100D03*
X142510000Y-64084100D03*
D15*
X142010000Y-69234100D03*
D16*
X137010000Y-64084100D03*
D17*
X137010000Y-58184100D03*
X132010000Y-60284100D03*
D14*
X131510000Y-64084100D03*
X86529000Y-79084100D03*
D15*
X86029000Y-84234100D03*
D16*
X81029000Y-79084100D03*
D17*
X81029000Y-73184100D03*
X76029000Y-75284100D03*
D14*
X75529000Y-79084100D03*
X188350400Y-128896900D03*
D15*
X187850400Y-134046900D03*
D16*
X182850400Y-128896900D03*
D17*
X182850400Y-122996900D03*
X177850400Y-125096900D03*
D14*
X177350400Y-128896900D03*
X142497000Y-94065100D03*
D15*
X141997000Y-99215100D03*
D16*
X136997000Y-94065100D03*
D17*
X136997000Y-88165100D03*
X131997000Y-90265100D03*
D14*
X131497000Y-94065100D03*
X57481000Y-56584100D03*
D15*
X56981000Y-61734100D03*
D16*
X51981000Y-56584100D03*
D17*
X51981000Y-50684100D03*
X46981000Y-52784100D03*
D14*
X46481000Y-56584100D03*
X194471100Y-64084100D03*
D15*
X193971100Y-69234100D03*
D16*
X188971100Y-64084100D03*
D17*
X188971100Y-58184100D03*
X183971100Y-60284100D03*
D14*
X183471100Y-64084100D03*
X224458100Y-94065100D03*
D15*
X223958100Y-99215100D03*
D16*
X218958100Y-94065100D03*
D17*
X218958100Y-88165100D03*
X213958100Y-90265100D03*
D14*
X213458100Y-94065100D03*
X194458100Y-94065100D03*
D15*
X193958100Y-99215100D03*
D16*
X188958100Y-94065100D03*
D17*
X188958100Y-88165100D03*
X183958100Y-90265100D03*
D14*
X183458100Y-94065100D03*
X125272000Y-118627700D03*
D15*
X124772000Y-123777700D03*
D16*
X119772000Y-118627700D03*
D17*
X119772000Y-112727700D03*
X114772000Y-114827700D03*
D14*
X114272000Y-118627700D03*
M02*
