%TF.GenerationSoftware,KiCad,Pcbnew,8.0.1*%
%TF.CreationDate,2024-03-30T21:55:53-07:00*%
%TF.ProjectId,proj,70726f6a-2e6b-4696-9361-645f70636258,rev?*%
%TF.SameCoordinates,Original*%
%TF.FileFunction,Drillmap*%
%TF.FilePolarity,Positive*%
%FSLAX45Y45*%
G04 Gerber Fmt 4.5, Leading zero omitted, Abs format (unit mm)*
G04 Created by KiCad (PCBNEW 8.0.1) date 2024-03-30 21:55:53*
%MOMM*%
%LPD*%
G01*
G04 APERTURE LIST*
%ADD10C,0.200000*%
%ADD11C,0.000000*%
%ADD12C,0.100000*%
%ADD13C,0.160000*%
%ADD14C,0.190000*%
%ADD15C,0.305000*%
%ADD16C,0.505000*%
G04 APERTURE END LIST*
D10*
X16979600Y-14548100D02*
G75*
G02*
X16579600Y-14548100I-200000J0D01*
G01*
X16579600Y-14548100D02*
G75*
G02*
X16979600Y-14548100I200000J0D01*
G01*
X27700000Y-14549120D02*
G75*
G02*
X26700000Y-15549120I-1000000J0D01*
G01*
X3300000Y-2849120D02*
X26700000Y-2849120D01*
X3500000Y-14549120D02*
G75*
G02*
X3100000Y-14549120I-200000J0D01*
G01*
X3100000Y-14549120D02*
G75*
G02*
X3500000Y-14549120I200000J0D01*
G01*
X26700000Y-2849120D02*
G75*
G02*
X27700000Y-3849120I0J-1000000D01*
G01*
X26700000Y-15549120D02*
X3300000Y-15549120D01*
X25381500Y-5650100D02*
G75*
G02*
X25381500Y-5750100I0J-50000D01*
G01*
X13417800Y-3848100D02*
G75*
G02*
X13017800Y-3848100I-200000J0D01*
G01*
X13017800Y-3848100D02*
G75*
G02*
X13417800Y-3848100I200000J0D01*
G01*
X3300000Y-15549120D02*
G75*
G02*
X2300000Y-14549120I0J1000000D01*
G01*
X23821500Y-5750100D02*
G75*
G02*
X23821500Y-5650100I0J50000D01*
G01*
X27700000Y-3849120D02*
X27700000Y-14549120D01*
X2300000Y-3849120D02*
G75*
G02*
X3300000Y-2849120I1000000J0D01*
G01*
X3500000Y-3849120D02*
G75*
G02*
X3100000Y-3849120I-200000J0D01*
G01*
X3100000Y-3849120D02*
G75*
G02*
X3500000Y-3849120I200000J0D01*
G01*
X23821500Y-5750100D02*
X25381500Y-5750100D01*
X26900000Y-3849120D02*
G75*
G02*
X26500000Y-3849120I-200000J0D01*
G01*
X26500000Y-3849120D02*
G75*
G02*
X26900000Y-3849120I200000J0D01*
G01*
X26900000Y-14549120D02*
G75*
G02*
X26500000Y-14549120I-200000J0D01*
G01*
X26500000Y-14549120D02*
G75*
G02*
X26900000Y-14549120I200000J0D01*
G01*
X2300000Y-14549120D02*
X2300000Y-3849120D01*
X23821500Y-5650100D02*
X25381500Y-5650100D01*
D11*
G36*
X25424771Y-3004898D02*
G01*
X25436743Y-3012592D01*
X25446063Y-3023348D01*
X25451975Y-3036293D01*
X25454000Y-3050380D01*
X25451975Y-3064467D01*
X25446063Y-3077412D01*
X25436743Y-3088167D01*
X25424771Y-3095862D01*
X25411116Y-3099871D01*
X25396884Y-3099871D01*
X25383229Y-3095862D01*
X25371257Y-3088167D01*
X25361937Y-3077412D01*
X25356025Y-3064467D01*
X25354000Y-3050380D01*
X25356025Y-3036293D01*
X25361937Y-3023348D01*
X25371257Y-3012592D01*
X25383229Y-3004898D01*
X25396884Y-3000889D01*
X25411116Y-3000889D01*
X25424771Y-3004898D01*
G37*
G36*
X25724771Y-3004898D02*
G01*
X25736743Y-3012592D01*
X25746063Y-3023348D01*
X25751975Y-3036293D01*
X25754000Y-3050380D01*
X25751975Y-3064467D01*
X25746063Y-3077412D01*
X25736743Y-3088167D01*
X25724771Y-3095862D01*
X25711116Y-3099871D01*
X25696884Y-3099871D01*
X25683229Y-3095862D01*
X25671257Y-3088167D01*
X25661937Y-3077412D01*
X25656025Y-3064467D01*
X25654000Y-3050380D01*
X25656025Y-3036293D01*
X25661937Y-3023348D01*
X25671257Y-3012592D01*
X25683229Y-3004898D01*
X25696884Y-3000889D01*
X25711116Y-3000889D01*
X25724771Y-3004898D01*
G37*
G36*
X23519771Y-3004898D02*
G01*
X23531743Y-3012592D01*
X23541063Y-3023348D01*
X23546975Y-3036293D01*
X23549000Y-3050380D01*
X23546975Y-3064467D01*
X23541063Y-3077412D01*
X23531743Y-3088167D01*
X23519771Y-3095862D01*
X23506116Y-3099871D01*
X23491884Y-3099871D01*
X23478229Y-3095862D01*
X23466257Y-3088167D01*
X23456937Y-3077412D01*
X23451025Y-3064467D01*
X23449000Y-3050380D01*
X23451025Y-3036293D01*
X23456937Y-3023348D01*
X23466257Y-3012592D01*
X23478229Y-3004898D01*
X23491884Y-3000889D01*
X23506116Y-3000889D01*
X23519771Y-3004898D01*
G37*
G36*
X23819771Y-3004898D02*
G01*
X23831743Y-3012592D01*
X23841063Y-3023348D01*
X23846975Y-3036293D01*
X23849000Y-3050380D01*
X23846975Y-3064467D01*
X23841063Y-3077412D01*
X23831743Y-3088167D01*
X23819771Y-3095862D01*
X23806116Y-3099871D01*
X23791884Y-3099871D01*
X23778229Y-3095862D01*
X23766257Y-3088167D01*
X23756937Y-3077412D01*
X23751025Y-3064467D01*
X23749000Y-3050380D01*
X23751025Y-3036293D01*
X23756937Y-3023348D01*
X23766257Y-3012592D01*
X23778229Y-3004898D01*
X23791884Y-3000889D01*
X23806116Y-3000889D01*
X23819771Y-3004898D01*
G37*
D10*
D12*
X15977880Y-3439380D02*
X16042880Y-3504380D01*
X16042880Y-3439380D02*
X15977880Y-3504380D01*
X16555880Y-3439380D02*
X16620880Y-3504380D01*
X16620880Y-3439380D02*
X16555880Y-3504380D01*
D13*
X5778100Y-6173410D02*
G75*
G02*
X5618100Y-6173410I-80000J0D01*
G01*
X5618100Y-6173410D02*
G75*
G02*
X5778100Y-6173410I80000J0D01*
G01*
X5778100Y-9173410D02*
G75*
G02*
X5618100Y-9173410I-80000J0D01*
G01*
X5618100Y-9173410D02*
G75*
G02*
X5778100Y-9173410I80000J0D01*
G01*
X8682900Y-5423400D02*
G75*
G02*
X8522900Y-5423400I-80000J0D01*
G01*
X8522900Y-5423400D02*
G75*
G02*
X8682900Y-5423400I80000J0D01*
G01*
X8682900Y-8423410D02*
G75*
G02*
X8522900Y-8423410I-80000J0D01*
G01*
X8522900Y-8423410D02*
G75*
G02*
X8682900Y-8423410I80000J0D01*
G01*
X11682900Y-5423400D02*
G75*
G02*
X11522900Y-5423400I-80000J0D01*
G01*
X11522900Y-5423400D02*
G75*
G02*
X11682900Y-5423400I80000J0D01*
G01*
X11682900Y-8423410D02*
G75*
G02*
X11522900Y-8423410I-80000J0D01*
G01*
X11522900Y-8423410D02*
G75*
G02*
X11682900Y-8423410I80000J0D01*
G01*
X12557200Y-12377770D02*
G75*
G02*
X12397200Y-12377770I-80000J0D01*
G01*
X12397200Y-12377770D02*
G75*
G02*
X12557200Y-12377770I80000J0D01*
G01*
X14279700Y-9921510D02*
G75*
G02*
X14119700Y-9921510I-80000J0D01*
G01*
X14119700Y-9921510D02*
G75*
G02*
X14279700Y-9921510I80000J0D01*
G01*
X14281000Y-6923410D02*
G75*
G02*
X14121000Y-6923410I-80000J0D01*
G01*
X14121000Y-6923410D02*
G75*
G02*
X14281000Y-6923410I80000J0D01*
G01*
X15580000Y-13706590D02*
G75*
G02*
X15420000Y-13706590I-80000J0D01*
G01*
X15420000Y-13706590D02*
G75*
G02*
X15580000Y-13706590I80000J0D01*
G01*
X16877700Y-8421510D02*
G75*
G02*
X16717700Y-8421510I-80000J0D01*
G01*
X16717700Y-8421510D02*
G75*
G02*
X16877700Y-8421510I80000J0D01*
G01*
X18865040Y-13404690D02*
G75*
G02*
X18705040Y-13404690I-80000J0D01*
G01*
X18705040Y-13404690D02*
G75*
G02*
X18865040Y-13404690I80000J0D01*
G01*
X19475810Y-9921510D02*
G75*
G02*
X19315810Y-9921510I-80000J0D01*
G01*
X19315810Y-9921510D02*
G75*
G02*
X19475810Y-9921510I80000J0D01*
G01*
X19477110Y-6923410D02*
G75*
G02*
X19317110Y-6923410I-80000J0D01*
G01*
X19317110Y-6923410D02*
G75*
G02*
X19477110Y-6923410I80000J0D01*
G01*
X22475810Y-9921510D02*
G75*
G02*
X22315810Y-9921510I-80000J0D01*
G01*
X22315810Y-9921510D02*
G75*
G02*
X22475810Y-9921510I80000J0D01*
G01*
X22477110Y-6923410D02*
G75*
G02*
X22317110Y-6923410I-80000J0D01*
G01*
X22317110Y-6923410D02*
G75*
G02*
X22477110Y-6923410I80000J0D01*
G01*
X25381850Y-7673410D02*
G75*
G02*
X25221850Y-7673410I-80000J0D01*
G01*
X25221850Y-7673410D02*
G75*
G02*
X25381850Y-7673410I80000J0D01*
G01*
X25381850Y-10673410D02*
G75*
G02*
X25221850Y-10673410I-80000J0D01*
G01*
X25221850Y-10673410D02*
G75*
G02*
X25381850Y-10673410I80000J0D01*
G01*
D14*
X4648100Y-5563410D02*
X4648100Y-5753410D01*
X4553100Y-5658410D02*
X4743100Y-5658410D01*
X4648100Y-8563410D02*
X4648100Y-8753410D01*
X4553100Y-8658410D02*
X4743100Y-8658410D01*
X5748100Y-5563410D02*
X5748100Y-5753410D01*
X5653100Y-5658410D02*
X5843100Y-5658410D01*
X5748100Y-8563410D02*
X5748100Y-8753410D01*
X5653100Y-8658410D02*
X5843100Y-8658410D01*
X7552900Y-4813400D02*
X7552900Y-5003400D01*
X7457900Y-4908400D02*
X7647900Y-4908400D01*
X7552900Y-7813410D02*
X7552900Y-8003410D01*
X7457900Y-7908410D02*
X7647900Y-7908410D01*
X8652900Y-4813400D02*
X8652900Y-5003400D01*
X8557900Y-4908400D02*
X8747900Y-4908400D01*
X8652900Y-7813410D02*
X8652900Y-8003410D01*
X8557900Y-7908410D02*
X8747900Y-7908410D01*
X10552900Y-4813400D02*
X10552900Y-5003400D01*
X10457900Y-4908400D02*
X10647900Y-4908400D01*
X10552900Y-7813410D02*
X10552900Y-8003410D01*
X10457900Y-7908410D02*
X10647900Y-7908410D01*
X11427200Y-11767770D02*
X11427200Y-11957770D01*
X11332200Y-11862770D02*
X11522200Y-11862770D01*
X11652900Y-4813400D02*
X11652900Y-5003400D01*
X11557900Y-4908400D02*
X11747900Y-4908400D01*
X11652900Y-7813410D02*
X11652900Y-8003410D01*
X11557900Y-7908410D02*
X11747900Y-7908410D01*
X12527200Y-11767770D02*
X12527200Y-11957770D01*
X12432200Y-11862770D02*
X12622200Y-11862770D01*
X13149700Y-9311510D02*
X13149700Y-9501510D01*
X13054700Y-9406510D02*
X13244700Y-9406510D01*
X13151000Y-6313410D02*
X13151000Y-6503410D01*
X13056000Y-6408410D02*
X13246000Y-6408410D01*
X14249700Y-9311510D02*
X14249700Y-9501510D01*
X14154700Y-9406510D02*
X14344700Y-9406510D01*
X14251000Y-6313410D02*
X14251000Y-6503410D01*
X14156000Y-6408410D02*
X14346000Y-6408410D01*
X14450000Y-13096590D02*
X14450000Y-13286590D01*
X14355000Y-13191590D02*
X14545000Y-13191590D01*
X15550000Y-13096590D02*
X15550000Y-13286590D01*
X15455000Y-13191590D02*
X15645000Y-13191590D01*
X15747700Y-7811510D02*
X15747700Y-8001510D01*
X15652700Y-7906510D02*
X15842700Y-7906510D01*
X16847700Y-7811510D02*
X16847700Y-8001510D01*
X16752700Y-7906510D02*
X16942700Y-7906510D01*
X17735040Y-12794690D02*
X17735040Y-12984690D01*
X17640040Y-12889690D02*
X17830040Y-12889690D01*
X18345810Y-9311510D02*
X18345810Y-9501510D01*
X18250810Y-9406510D02*
X18440810Y-9406510D01*
X18347110Y-6313410D02*
X18347110Y-6503410D01*
X18252110Y-6408410D02*
X18442110Y-6408410D01*
X18835040Y-12794690D02*
X18835040Y-12984690D01*
X18740040Y-12889690D02*
X18930040Y-12889690D01*
X19445810Y-9311510D02*
X19445810Y-9501510D01*
X19350810Y-9406510D02*
X19540810Y-9406510D01*
X19447110Y-6313410D02*
X19447110Y-6503410D01*
X19352110Y-6408410D02*
X19542110Y-6408410D01*
X21345810Y-9311510D02*
X21345810Y-9501510D01*
X21250810Y-9406510D02*
X21440810Y-9406510D01*
X21347110Y-6313410D02*
X21347110Y-6503410D01*
X21252110Y-6408410D02*
X21442110Y-6408410D01*
X22445810Y-9311510D02*
X22445810Y-9501510D01*
X22350810Y-9406510D02*
X22540810Y-9406510D01*
X22447110Y-6313410D02*
X22447110Y-6503410D01*
X22352110Y-6408410D02*
X22542110Y-6408410D01*
X24251850Y-7063410D02*
X24251850Y-7253410D01*
X24156850Y-7158410D02*
X24346850Y-7158410D01*
X24251850Y-10063410D02*
X24251850Y-10253410D01*
X24156850Y-10158410D02*
X24346850Y-10158410D01*
X25351850Y-7063410D02*
X25351850Y-7253410D01*
X25256850Y-7158410D02*
X25446850Y-7158410D01*
X25351850Y-10063410D02*
X25351850Y-10253410D01*
X25256850Y-10158410D02*
X25446850Y-10158410D01*
D15*
X4805935Y-5386245D02*
X4805935Y-5170575D01*
X4590265Y-5170575D01*
X4590265Y-5386245D01*
X4805935Y-5386245D01*
X4805935Y-8386245D02*
X4805935Y-8170575D01*
X4590265Y-8170575D01*
X4590265Y-8386245D01*
X4805935Y-8386245D01*
X5305935Y-5176245D02*
X5305935Y-4960575D01*
X5090265Y-4960575D01*
X5090265Y-5176245D01*
X5305935Y-5176245D01*
X5305935Y-8176245D02*
X5305935Y-7960575D01*
X5090265Y-7960575D01*
X5090265Y-8176245D01*
X5305935Y-8176245D01*
X7710735Y-4636235D02*
X7710735Y-4420565D01*
X7495065Y-4420565D01*
X7495065Y-4636235D01*
X7710735Y-4636235D01*
X7710735Y-7636245D02*
X7710735Y-7420575D01*
X7495065Y-7420575D01*
X7495065Y-7636245D01*
X7710735Y-7636245D01*
X8210735Y-4426235D02*
X8210735Y-4210565D01*
X7995065Y-4210565D01*
X7995065Y-4426235D01*
X8210735Y-4426235D01*
X8210735Y-7426245D02*
X8210735Y-7210575D01*
X7995065Y-7210575D01*
X7995065Y-7426245D01*
X8210735Y-7426245D01*
X10710735Y-4636235D02*
X10710735Y-4420565D01*
X10495065Y-4420565D01*
X10495065Y-4636235D01*
X10710735Y-4636235D01*
X10710735Y-7636245D02*
X10710735Y-7420575D01*
X10495065Y-7420575D01*
X10495065Y-7636245D01*
X10710735Y-7636245D01*
X11210735Y-4426235D02*
X11210735Y-4210565D01*
X10995065Y-4210565D01*
X10995065Y-4426235D01*
X11210735Y-4426235D01*
X11210735Y-7426245D02*
X11210735Y-7210575D01*
X10995065Y-7210575D01*
X10995065Y-7426245D01*
X11210735Y-7426245D01*
X11585035Y-11590605D02*
X11585035Y-11374935D01*
X11369365Y-11374935D01*
X11369365Y-11590605D01*
X11585035Y-11590605D01*
X12085035Y-11380605D02*
X12085035Y-11164935D01*
X11869365Y-11164935D01*
X11869365Y-11380605D01*
X12085035Y-11380605D01*
X13307535Y-9134345D02*
X13307535Y-8918675D01*
X13091865Y-8918675D01*
X13091865Y-9134345D01*
X13307535Y-9134345D01*
X13308835Y-6136245D02*
X13308835Y-5920575D01*
X13093165Y-5920575D01*
X13093165Y-6136245D01*
X13308835Y-6136245D01*
X13807535Y-8924345D02*
X13807535Y-8708675D01*
X13591865Y-8708675D01*
X13591865Y-8924345D01*
X13807535Y-8924345D01*
X13808835Y-5926245D02*
X13808835Y-5710575D01*
X13593165Y-5710575D01*
X13593165Y-5926245D01*
X13808835Y-5926245D01*
X14607835Y-12919425D02*
X14607835Y-12703755D01*
X14392165Y-12703755D01*
X14392165Y-12919425D01*
X14607835Y-12919425D01*
X15107835Y-12709425D02*
X15107835Y-12493755D01*
X14892165Y-12493755D01*
X14892165Y-12709425D01*
X15107835Y-12709425D01*
X15905535Y-7634345D02*
X15905535Y-7418675D01*
X15689865Y-7418675D01*
X15689865Y-7634345D01*
X15905535Y-7634345D01*
X16405535Y-7424345D02*
X16405535Y-7208675D01*
X16189865Y-7208675D01*
X16189865Y-7424345D01*
X16405535Y-7424345D01*
X17892875Y-12617525D02*
X17892875Y-12401855D01*
X17677205Y-12401855D01*
X17677205Y-12617525D01*
X17892875Y-12617525D01*
X18392875Y-12407525D02*
X18392875Y-12191855D01*
X18177205Y-12191855D01*
X18177205Y-12407525D01*
X18392875Y-12407525D01*
X18503645Y-9134345D02*
X18503645Y-8918675D01*
X18287975Y-8918675D01*
X18287975Y-9134345D01*
X18503645Y-9134345D01*
X18504945Y-6136245D02*
X18504945Y-5920575D01*
X18289275Y-5920575D01*
X18289275Y-6136245D01*
X18504945Y-6136245D01*
X19003645Y-8924345D02*
X19003645Y-8708675D01*
X18787975Y-8708675D01*
X18787975Y-8924345D01*
X19003645Y-8924345D01*
X19004945Y-5926245D02*
X19004945Y-5710575D01*
X18789275Y-5710575D01*
X18789275Y-5926245D01*
X19004945Y-5926245D01*
X21503645Y-9134345D02*
X21503645Y-8918675D01*
X21287975Y-8918675D01*
X21287975Y-9134345D01*
X21503645Y-9134345D01*
X21504945Y-6136245D02*
X21504945Y-5920575D01*
X21289275Y-5920575D01*
X21289275Y-6136245D01*
X21504945Y-6136245D01*
X22003645Y-8924345D02*
X22003645Y-8708675D01*
X21787975Y-8708675D01*
X21787975Y-8924345D01*
X22003645Y-8924345D01*
X22004945Y-5926245D02*
X22004945Y-5710575D01*
X21789275Y-5710575D01*
X21789275Y-5926245D01*
X22004945Y-5926245D01*
X24409685Y-6886245D02*
X24409685Y-6670575D01*
X24194015Y-6670575D01*
X24194015Y-6886245D01*
X24409685Y-6886245D01*
X24409685Y-9886245D02*
X24409685Y-9670575D01*
X24194015Y-9670575D01*
X24194015Y-9886245D01*
X24409685Y-9886245D01*
X24909685Y-6676245D02*
X24909685Y-6460575D01*
X24694015Y-6460575D01*
X24694015Y-6676245D01*
X24909685Y-6676245D01*
X24909685Y-9676245D02*
X24909685Y-9460575D01*
X24694015Y-9460575D01*
X24694015Y-9676245D01*
X24909685Y-9676245D01*
D16*
X5198100Y-5910910D02*
X5450600Y-5658410D01*
X5198100Y-5405910D01*
X4945600Y-5658410D01*
X5198100Y-5910910D01*
X5198100Y-8910910D02*
X5450600Y-8658410D01*
X5198100Y-8405910D01*
X4945600Y-8658410D01*
X5198100Y-8910910D01*
X8102900Y-5160900D02*
X8355400Y-4908400D01*
X8102900Y-4655900D01*
X7850400Y-4908400D01*
X8102900Y-5160900D01*
X8102900Y-8160910D02*
X8355400Y-7908410D01*
X8102900Y-7655910D01*
X7850400Y-7908410D01*
X8102900Y-8160910D01*
X11102900Y-5160900D02*
X11355400Y-4908400D01*
X11102900Y-4655900D01*
X10850400Y-4908400D01*
X11102900Y-5160900D01*
X11102900Y-8160910D02*
X11355400Y-7908410D01*
X11102900Y-7655910D01*
X10850400Y-7908410D01*
X11102900Y-8160910D01*
X11977200Y-12115270D02*
X12229700Y-11862770D01*
X11977200Y-11610270D01*
X11724700Y-11862770D01*
X11977200Y-12115270D01*
X13699700Y-9659010D02*
X13952200Y-9406510D01*
X13699700Y-9154010D01*
X13447200Y-9406510D01*
X13699700Y-9659010D01*
X13701000Y-6660910D02*
X13953500Y-6408410D01*
X13701000Y-6155910D01*
X13448500Y-6408410D01*
X13701000Y-6660910D01*
X15000000Y-13444090D02*
X15252500Y-13191590D01*
X15000000Y-12939090D01*
X14747500Y-13191590D01*
X15000000Y-13444090D01*
X16297700Y-8159010D02*
X16550200Y-7906510D01*
X16297700Y-7654010D01*
X16045200Y-7906510D01*
X16297700Y-8159010D01*
X18285040Y-13142190D02*
X18537540Y-12889690D01*
X18285040Y-12637190D01*
X18032540Y-12889690D01*
X18285040Y-13142190D01*
X18895810Y-9659010D02*
X19148310Y-9406510D01*
X18895810Y-9154010D01*
X18643310Y-9406510D01*
X18895810Y-9659010D01*
X18897110Y-6660910D02*
X19149610Y-6408410D01*
X18897110Y-6155910D01*
X18644610Y-6408410D01*
X18897110Y-6660910D01*
X21895810Y-9659010D02*
X22148310Y-9406510D01*
X21895810Y-9154010D01*
X21643310Y-9406510D01*
X21895810Y-9659010D01*
X21897110Y-6660910D02*
X22149610Y-6408410D01*
X21897110Y-6155910D01*
X21644610Y-6408410D01*
X21897110Y-6660910D01*
X24801850Y-7410910D02*
X25054350Y-7158410D01*
X24801850Y-6905910D01*
X24549350Y-7158410D01*
X24801850Y-7410910D01*
X24801850Y-10410910D02*
X25054350Y-10158410D01*
X24801850Y-9905910D01*
X24549350Y-10158410D01*
X24801850Y-10410910D01*
D10*
X2550777Y-15870604D02*
X2550777Y-15670604D01*
X2550777Y-15670604D02*
X2598396Y-15670604D01*
X2598396Y-15670604D02*
X2626967Y-15680128D01*
X2626967Y-15680128D02*
X2646015Y-15699175D01*
X2646015Y-15699175D02*
X2655539Y-15718223D01*
X2655539Y-15718223D02*
X2665063Y-15756318D01*
X2665063Y-15756318D02*
X2665063Y-15784889D01*
X2665063Y-15784889D02*
X2655539Y-15822985D01*
X2655539Y-15822985D02*
X2646015Y-15842032D01*
X2646015Y-15842032D02*
X2626967Y-15861080D01*
X2626967Y-15861080D02*
X2598396Y-15870604D01*
X2598396Y-15870604D02*
X2550777Y-15870604D01*
X2750777Y-15870604D02*
X2750777Y-15737270D01*
X2750777Y-15775366D02*
X2760301Y-15756318D01*
X2760301Y-15756318D02*
X2769824Y-15746794D01*
X2769824Y-15746794D02*
X2788872Y-15737270D01*
X2788872Y-15737270D02*
X2807920Y-15737270D01*
X2874586Y-15870604D02*
X2874586Y-15737270D01*
X2874586Y-15670604D02*
X2865062Y-15680128D01*
X2865062Y-15680128D02*
X2874586Y-15689651D01*
X2874586Y-15689651D02*
X2884110Y-15680128D01*
X2884110Y-15680128D02*
X2874586Y-15670604D01*
X2874586Y-15670604D02*
X2874586Y-15689651D01*
X2998396Y-15870604D02*
X2979348Y-15861080D01*
X2979348Y-15861080D02*
X2969824Y-15842032D01*
X2969824Y-15842032D02*
X2969824Y-15670604D01*
X3103158Y-15870604D02*
X3084110Y-15861080D01*
X3084110Y-15861080D02*
X3074586Y-15842032D01*
X3074586Y-15842032D02*
X3074586Y-15670604D01*
X3331729Y-15870604D02*
X3331729Y-15670604D01*
X3331729Y-15670604D02*
X3398396Y-15813461D01*
X3398396Y-15813461D02*
X3465062Y-15670604D01*
X3465062Y-15670604D02*
X3465062Y-15870604D01*
X3646015Y-15870604D02*
X3646015Y-15765842D01*
X3646015Y-15765842D02*
X3636491Y-15746794D01*
X3636491Y-15746794D02*
X3617443Y-15737270D01*
X3617443Y-15737270D02*
X3579348Y-15737270D01*
X3579348Y-15737270D02*
X3560301Y-15746794D01*
X3646015Y-15861080D02*
X3626967Y-15870604D01*
X3626967Y-15870604D02*
X3579348Y-15870604D01*
X3579348Y-15870604D02*
X3560301Y-15861080D01*
X3560301Y-15861080D02*
X3550777Y-15842032D01*
X3550777Y-15842032D02*
X3550777Y-15822985D01*
X3550777Y-15822985D02*
X3560301Y-15803937D01*
X3560301Y-15803937D02*
X3579348Y-15794413D01*
X3579348Y-15794413D02*
X3626967Y-15794413D01*
X3626967Y-15794413D02*
X3646015Y-15784889D01*
X3741253Y-15737270D02*
X3741253Y-15937270D01*
X3741253Y-15746794D02*
X3760301Y-15737270D01*
X3760301Y-15737270D02*
X3798396Y-15737270D01*
X3798396Y-15737270D02*
X3817443Y-15746794D01*
X3817443Y-15746794D02*
X3826967Y-15756318D01*
X3826967Y-15756318D02*
X3836491Y-15775366D01*
X3836491Y-15775366D02*
X3836491Y-15832508D01*
X3836491Y-15832508D02*
X3826967Y-15851556D01*
X3826967Y-15851556D02*
X3817443Y-15861080D01*
X3817443Y-15861080D02*
X3798396Y-15870604D01*
X3798396Y-15870604D02*
X3760301Y-15870604D01*
X3760301Y-15870604D02*
X3741253Y-15861080D01*
X3922205Y-15851556D02*
X3931729Y-15861080D01*
X3931729Y-15861080D02*
X3922205Y-15870604D01*
X3922205Y-15870604D02*
X3912682Y-15861080D01*
X3912682Y-15861080D02*
X3922205Y-15851556D01*
X3922205Y-15851556D02*
X3922205Y-15870604D01*
X3922205Y-15746794D02*
X3931729Y-15756318D01*
X3931729Y-15756318D02*
X3922205Y-15765842D01*
X3922205Y-15765842D02*
X3912682Y-15756318D01*
X3912682Y-15756318D02*
X3922205Y-15746794D01*
X3922205Y-15746794D02*
X3922205Y-15765842D01*
D12*
X2225000Y-16166620D02*
X2290000Y-16231620D01*
X2290000Y-16166620D02*
X2225000Y-16231620D01*
D10*
X2588872Y-16090604D02*
X2607920Y-16090604D01*
X2607920Y-16090604D02*
X2626967Y-16100128D01*
X2626967Y-16100128D02*
X2636491Y-16109651D01*
X2636491Y-16109651D02*
X2646015Y-16128699D01*
X2646015Y-16128699D02*
X2655539Y-16166794D01*
X2655539Y-16166794D02*
X2655539Y-16214413D01*
X2655539Y-16214413D02*
X2646015Y-16252508D01*
X2646015Y-16252508D02*
X2636491Y-16271556D01*
X2636491Y-16271556D02*
X2626967Y-16281080D01*
X2626967Y-16281080D02*
X2607920Y-16290604D01*
X2607920Y-16290604D02*
X2588872Y-16290604D01*
X2588872Y-16290604D02*
X2569824Y-16281080D01*
X2569824Y-16281080D02*
X2560301Y-16271556D01*
X2560301Y-16271556D02*
X2550777Y-16252508D01*
X2550777Y-16252508D02*
X2541253Y-16214413D01*
X2541253Y-16214413D02*
X2541253Y-16166794D01*
X2541253Y-16166794D02*
X2550777Y-16128699D01*
X2550777Y-16128699D02*
X2560301Y-16109651D01*
X2560301Y-16109651D02*
X2569824Y-16100128D01*
X2569824Y-16100128D02*
X2588872Y-16090604D01*
X2741253Y-16271556D02*
X2750777Y-16281080D01*
X2750777Y-16281080D02*
X2741253Y-16290604D01*
X2741253Y-16290604D02*
X2731729Y-16281080D01*
X2731729Y-16281080D02*
X2741253Y-16271556D01*
X2741253Y-16271556D02*
X2741253Y-16290604D01*
X2922205Y-16090604D02*
X2884110Y-16090604D01*
X2884110Y-16090604D02*
X2865062Y-16100128D01*
X2865062Y-16100128D02*
X2855539Y-16109651D01*
X2855539Y-16109651D02*
X2836491Y-16138223D01*
X2836491Y-16138223D02*
X2826967Y-16176318D01*
X2826967Y-16176318D02*
X2826967Y-16252508D01*
X2826967Y-16252508D02*
X2836491Y-16271556D01*
X2836491Y-16271556D02*
X2846015Y-16281080D01*
X2846015Y-16281080D02*
X2865062Y-16290604D01*
X2865062Y-16290604D02*
X2903158Y-16290604D01*
X2903158Y-16290604D02*
X2922205Y-16281080D01*
X2922205Y-16281080D02*
X2931729Y-16271556D01*
X2931729Y-16271556D02*
X2941253Y-16252508D01*
X2941253Y-16252508D02*
X2941253Y-16204889D01*
X2941253Y-16204889D02*
X2931729Y-16185842D01*
X2931729Y-16185842D02*
X2922205Y-16176318D01*
X2922205Y-16176318D02*
X2903158Y-16166794D01*
X2903158Y-16166794D02*
X2865062Y-16166794D01*
X2865062Y-16166794D02*
X2846015Y-16176318D01*
X2846015Y-16176318D02*
X2836491Y-16185842D01*
X2836491Y-16185842D02*
X2826967Y-16204889D01*
X3122205Y-16090604D02*
X3026967Y-16090604D01*
X3026967Y-16090604D02*
X3017443Y-16185842D01*
X3017443Y-16185842D02*
X3026967Y-16176318D01*
X3026967Y-16176318D02*
X3046015Y-16166794D01*
X3046015Y-16166794D02*
X3093634Y-16166794D01*
X3093634Y-16166794D02*
X3112682Y-16176318D01*
X3112682Y-16176318D02*
X3122205Y-16185842D01*
X3122205Y-16185842D02*
X3131729Y-16204889D01*
X3131729Y-16204889D02*
X3131729Y-16252508D01*
X3131729Y-16252508D02*
X3122205Y-16271556D01*
X3122205Y-16271556D02*
X3112682Y-16281080D01*
X3112682Y-16281080D02*
X3093634Y-16290604D01*
X3093634Y-16290604D02*
X3046015Y-16290604D01*
X3046015Y-16290604D02*
X3026967Y-16281080D01*
X3026967Y-16281080D02*
X3017443Y-16271556D01*
X3255539Y-16090604D02*
X3274586Y-16090604D01*
X3274586Y-16090604D02*
X3293634Y-16100128D01*
X3293634Y-16100128D02*
X3303158Y-16109651D01*
X3303158Y-16109651D02*
X3312682Y-16128699D01*
X3312682Y-16128699D02*
X3322205Y-16166794D01*
X3322205Y-16166794D02*
X3322205Y-16214413D01*
X3322205Y-16214413D02*
X3312682Y-16252508D01*
X3312682Y-16252508D02*
X3303158Y-16271556D01*
X3303158Y-16271556D02*
X3293634Y-16281080D01*
X3293634Y-16281080D02*
X3274586Y-16290604D01*
X3274586Y-16290604D02*
X3255539Y-16290604D01*
X3255539Y-16290604D02*
X3236491Y-16281080D01*
X3236491Y-16281080D02*
X3226967Y-16271556D01*
X3226967Y-16271556D02*
X3217443Y-16252508D01*
X3217443Y-16252508D02*
X3207920Y-16214413D01*
X3207920Y-16214413D02*
X3207920Y-16166794D01*
X3207920Y-16166794D02*
X3217443Y-16128699D01*
X3217443Y-16128699D02*
X3226967Y-16109651D01*
X3226967Y-16109651D02*
X3236491Y-16100128D01*
X3236491Y-16100128D02*
X3255539Y-16090604D01*
X3407920Y-16290604D02*
X3407920Y-16157270D01*
X3407920Y-16176318D02*
X3417443Y-16166794D01*
X3417443Y-16166794D02*
X3436491Y-16157270D01*
X3436491Y-16157270D02*
X3465063Y-16157270D01*
X3465063Y-16157270D02*
X3484110Y-16166794D01*
X3484110Y-16166794D02*
X3493634Y-16185842D01*
X3493634Y-16185842D02*
X3493634Y-16290604D01*
X3493634Y-16185842D02*
X3503158Y-16166794D01*
X3503158Y-16166794D02*
X3522205Y-16157270D01*
X3522205Y-16157270D02*
X3550777Y-16157270D01*
X3550777Y-16157270D02*
X3569824Y-16166794D01*
X3569824Y-16166794D02*
X3579348Y-16185842D01*
X3579348Y-16185842D02*
X3579348Y-16290604D01*
X3674586Y-16290604D02*
X3674586Y-16157270D01*
X3674586Y-16176318D02*
X3684110Y-16166794D01*
X3684110Y-16166794D02*
X3703158Y-16157270D01*
X3703158Y-16157270D02*
X3731729Y-16157270D01*
X3731729Y-16157270D02*
X3750777Y-16166794D01*
X3750777Y-16166794D02*
X3760301Y-16185842D01*
X3760301Y-16185842D02*
X3760301Y-16290604D01*
X3760301Y-16185842D02*
X3769824Y-16166794D01*
X3769824Y-16166794D02*
X3788872Y-16157270D01*
X3788872Y-16157270D02*
X3817443Y-16157270D01*
X3817443Y-16157270D02*
X3836491Y-16166794D01*
X3836491Y-16166794D02*
X3846015Y-16185842D01*
X3846015Y-16185842D02*
X3846015Y-16290604D01*
X4236491Y-16081080D02*
X4065063Y-16338223D01*
X4493634Y-16090604D02*
X4512682Y-16090604D01*
X4512682Y-16090604D02*
X4531729Y-16100128D01*
X4531729Y-16100128D02*
X4541253Y-16109651D01*
X4541253Y-16109651D02*
X4550777Y-16128699D01*
X4550777Y-16128699D02*
X4560301Y-16166794D01*
X4560301Y-16166794D02*
X4560301Y-16214413D01*
X4560301Y-16214413D02*
X4550777Y-16252508D01*
X4550777Y-16252508D02*
X4541253Y-16271556D01*
X4541253Y-16271556D02*
X4531729Y-16281080D01*
X4531729Y-16281080D02*
X4512682Y-16290604D01*
X4512682Y-16290604D02*
X4493634Y-16290604D01*
X4493634Y-16290604D02*
X4474587Y-16281080D01*
X4474587Y-16281080D02*
X4465063Y-16271556D01*
X4465063Y-16271556D02*
X4455539Y-16252508D01*
X4455539Y-16252508D02*
X4446015Y-16214413D01*
X4446015Y-16214413D02*
X4446015Y-16166794D01*
X4446015Y-16166794D02*
X4455539Y-16128699D01*
X4455539Y-16128699D02*
X4465063Y-16109651D01*
X4465063Y-16109651D02*
X4474587Y-16100128D01*
X4474587Y-16100128D02*
X4493634Y-16090604D01*
X4646015Y-16271556D02*
X4655539Y-16281080D01*
X4655539Y-16281080D02*
X4646015Y-16290604D01*
X4646015Y-16290604D02*
X4636491Y-16281080D01*
X4636491Y-16281080D02*
X4646015Y-16271556D01*
X4646015Y-16271556D02*
X4646015Y-16290604D01*
X4779348Y-16090604D02*
X4798396Y-16090604D01*
X4798396Y-16090604D02*
X4817444Y-16100128D01*
X4817444Y-16100128D02*
X4826968Y-16109651D01*
X4826968Y-16109651D02*
X4836491Y-16128699D01*
X4836491Y-16128699D02*
X4846015Y-16166794D01*
X4846015Y-16166794D02*
X4846015Y-16214413D01*
X4846015Y-16214413D02*
X4836491Y-16252508D01*
X4836491Y-16252508D02*
X4826968Y-16271556D01*
X4826968Y-16271556D02*
X4817444Y-16281080D01*
X4817444Y-16281080D02*
X4798396Y-16290604D01*
X4798396Y-16290604D02*
X4779348Y-16290604D01*
X4779348Y-16290604D02*
X4760301Y-16281080D01*
X4760301Y-16281080D02*
X4750777Y-16271556D01*
X4750777Y-16271556D02*
X4741253Y-16252508D01*
X4741253Y-16252508D02*
X4731729Y-16214413D01*
X4731729Y-16214413D02*
X4731729Y-16166794D01*
X4731729Y-16166794D02*
X4741253Y-16128699D01*
X4741253Y-16128699D02*
X4750777Y-16109651D01*
X4750777Y-16109651D02*
X4760301Y-16100128D01*
X4760301Y-16100128D02*
X4779348Y-16090604D01*
X4922206Y-16109651D02*
X4931729Y-16100128D01*
X4931729Y-16100128D02*
X4950777Y-16090604D01*
X4950777Y-16090604D02*
X4998396Y-16090604D01*
X4998396Y-16090604D02*
X5017444Y-16100128D01*
X5017444Y-16100128D02*
X5026968Y-16109651D01*
X5026968Y-16109651D02*
X5036491Y-16128699D01*
X5036491Y-16128699D02*
X5036491Y-16147747D01*
X5036491Y-16147747D02*
X5026968Y-16176318D01*
X5026968Y-16176318D02*
X4912682Y-16290604D01*
X4912682Y-16290604D02*
X5036491Y-16290604D01*
X5217444Y-16090604D02*
X5122206Y-16090604D01*
X5122206Y-16090604D02*
X5112682Y-16185842D01*
X5112682Y-16185842D02*
X5122206Y-16176318D01*
X5122206Y-16176318D02*
X5141253Y-16166794D01*
X5141253Y-16166794D02*
X5188872Y-16166794D01*
X5188872Y-16166794D02*
X5207920Y-16176318D01*
X5207920Y-16176318D02*
X5217444Y-16185842D01*
X5217444Y-16185842D02*
X5226968Y-16204889D01*
X5226968Y-16204889D02*
X5226968Y-16252508D01*
X5226968Y-16252508D02*
X5217444Y-16271556D01*
X5217444Y-16271556D02*
X5207920Y-16281080D01*
X5207920Y-16281080D02*
X5188872Y-16290604D01*
X5188872Y-16290604D02*
X5141253Y-16290604D01*
X5141253Y-16290604D02*
X5122206Y-16281080D01*
X5122206Y-16281080D02*
X5112682Y-16271556D01*
X5398396Y-16090604D02*
X5360301Y-16090604D01*
X5360301Y-16090604D02*
X5341253Y-16100128D01*
X5341253Y-16100128D02*
X5331729Y-16109651D01*
X5331729Y-16109651D02*
X5312682Y-16138223D01*
X5312682Y-16138223D02*
X5303158Y-16176318D01*
X5303158Y-16176318D02*
X5303158Y-16252508D01*
X5303158Y-16252508D02*
X5312682Y-16271556D01*
X5312682Y-16271556D02*
X5322206Y-16281080D01*
X5322206Y-16281080D02*
X5341253Y-16290604D01*
X5341253Y-16290604D02*
X5379349Y-16290604D01*
X5379349Y-16290604D02*
X5398396Y-16281080D01*
X5398396Y-16281080D02*
X5407920Y-16271556D01*
X5407920Y-16271556D02*
X5417444Y-16252508D01*
X5417444Y-16252508D02*
X5417444Y-16204889D01*
X5417444Y-16204889D02*
X5407920Y-16185842D01*
X5407920Y-16185842D02*
X5398396Y-16176318D01*
X5398396Y-16176318D02*
X5379349Y-16166794D01*
X5379349Y-16166794D02*
X5341253Y-16166794D01*
X5341253Y-16166794D02*
X5322206Y-16176318D01*
X5322206Y-16176318D02*
X5312682Y-16185842D01*
X5312682Y-16185842D02*
X5303158Y-16204889D01*
X5493634Y-16090604D02*
X5493634Y-16128699D01*
X5569825Y-16090604D02*
X5569825Y-16128699D01*
X5865063Y-16366794D02*
X5855539Y-16357270D01*
X5855539Y-16357270D02*
X5836491Y-16328699D01*
X5836491Y-16328699D02*
X5826968Y-16309651D01*
X5826968Y-16309651D02*
X5817444Y-16281080D01*
X5817444Y-16281080D02*
X5807920Y-16233461D01*
X5807920Y-16233461D02*
X5807920Y-16195366D01*
X5807920Y-16195366D02*
X5817444Y-16147747D01*
X5817444Y-16147747D02*
X5826968Y-16119175D01*
X5826968Y-16119175D02*
X5836491Y-16100128D01*
X5836491Y-16100128D02*
X5855539Y-16071556D01*
X5855539Y-16071556D02*
X5865063Y-16062032D01*
X5931729Y-16109651D02*
X5941253Y-16100128D01*
X5941253Y-16100128D02*
X5960301Y-16090604D01*
X5960301Y-16090604D02*
X6007920Y-16090604D01*
X6007920Y-16090604D02*
X6026968Y-16100128D01*
X6026968Y-16100128D02*
X6036491Y-16109651D01*
X6036491Y-16109651D02*
X6046015Y-16128699D01*
X6046015Y-16128699D02*
X6046015Y-16147747D01*
X6046015Y-16147747D02*
X6036491Y-16176318D01*
X6036491Y-16176318D02*
X5922206Y-16290604D01*
X5922206Y-16290604D02*
X6046015Y-16290604D01*
X6284110Y-16290604D02*
X6284110Y-16090604D01*
X6369825Y-16290604D02*
X6369825Y-16185842D01*
X6369825Y-16185842D02*
X6360301Y-16166794D01*
X6360301Y-16166794D02*
X6341253Y-16157270D01*
X6341253Y-16157270D02*
X6312682Y-16157270D01*
X6312682Y-16157270D02*
X6293634Y-16166794D01*
X6293634Y-16166794D02*
X6284110Y-16176318D01*
X6493634Y-16290604D02*
X6474587Y-16281080D01*
X6474587Y-16281080D02*
X6465063Y-16271556D01*
X6465063Y-16271556D02*
X6455539Y-16252508D01*
X6455539Y-16252508D02*
X6455539Y-16195366D01*
X6455539Y-16195366D02*
X6465063Y-16176318D01*
X6465063Y-16176318D02*
X6474587Y-16166794D01*
X6474587Y-16166794D02*
X6493634Y-16157270D01*
X6493634Y-16157270D02*
X6522206Y-16157270D01*
X6522206Y-16157270D02*
X6541253Y-16166794D01*
X6541253Y-16166794D02*
X6550777Y-16176318D01*
X6550777Y-16176318D02*
X6560301Y-16195366D01*
X6560301Y-16195366D02*
X6560301Y-16252508D01*
X6560301Y-16252508D02*
X6550777Y-16271556D01*
X6550777Y-16271556D02*
X6541253Y-16281080D01*
X6541253Y-16281080D02*
X6522206Y-16290604D01*
X6522206Y-16290604D02*
X6493634Y-16290604D01*
X6674587Y-16290604D02*
X6655539Y-16281080D01*
X6655539Y-16281080D02*
X6646015Y-16262032D01*
X6646015Y-16262032D02*
X6646015Y-16090604D01*
X6826968Y-16281080D02*
X6807920Y-16290604D01*
X6807920Y-16290604D02*
X6769825Y-16290604D01*
X6769825Y-16290604D02*
X6750777Y-16281080D01*
X6750777Y-16281080D02*
X6741253Y-16262032D01*
X6741253Y-16262032D02*
X6741253Y-16185842D01*
X6741253Y-16185842D02*
X6750777Y-16166794D01*
X6750777Y-16166794D02*
X6769825Y-16157270D01*
X6769825Y-16157270D02*
X6807920Y-16157270D01*
X6807920Y-16157270D02*
X6826968Y-16166794D01*
X6826968Y-16166794D02*
X6836491Y-16185842D01*
X6836491Y-16185842D02*
X6836491Y-16204889D01*
X6836491Y-16204889D02*
X6741253Y-16223937D01*
X6912682Y-16281080D02*
X6931730Y-16290604D01*
X6931730Y-16290604D02*
X6969825Y-16290604D01*
X6969825Y-16290604D02*
X6988872Y-16281080D01*
X6988872Y-16281080D02*
X6998396Y-16262032D01*
X6998396Y-16262032D02*
X6998396Y-16252508D01*
X6998396Y-16252508D02*
X6988872Y-16233461D01*
X6988872Y-16233461D02*
X6969825Y-16223937D01*
X6969825Y-16223937D02*
X6941253Y-16223937D01*
X6941253Y-16223937D02*
X6922206Y-16214413D01*
X6922206Y-16214413D02*
X6912682Y-16195366D01*
X6912682Y-16195366D02*
X6912682Y-16185842D01*
X6912682Y-16185842D02*
X6922206Y-16166794D01*
X6922206Y-16166794D02*
X6941253Y-16157270D01*
X6941253Y-16157270D02*
X6969825Y-16157270D01*
X6969825Y-16157270D02*
X6988872Y-16166794D01*
X7065063Y-16366794D02*
X7074587Y-16357270D01*
X7074587Y-16357270D02*
X7093634Y-16328699D01*
X7093634Y-16328699D02*
X7103158Y-16309651D01*
X7103158Y-16309651D02*
X7112682Y-16281080D01*
X7112682Y-16281080D02*
X7122206Y-16233461D01*
X7122206Y-16233461D02*
X7122206Y-16195366D01*
X7122206Y-16195366D02*
X7112682Y-16147747D01*
X7112682Y-16147747D02*
X7103158Y-16119175D01*
X7103158Y-16119175D02*
X7093634Y-16100128D01*
X7093634Y-16100128D02*
X7074587Y-16071556D01*
X7074587Y-16071556D02*
X7065063Y-16062032D01*
X7426968Y-16366794D02*
X7417444Y-16357270D01*
X7417444Y-16357270D02*
X7398396Y-16328699D01*
X7398396Y-16328699D02*
X7388872Y-16309651D01*
X7388872Y-16309651D02*
X7379349Y-16281080D01*
X7379349Y-16281080D02*
X7369825Y-16233461D01*
X7369825Y-16233461D02*
X7369825Y-16195366D01*
X7369825Y-16195366D02*
X7379349Y-16147747D01*
X7379349Y-16147747D02*
X7388872Y-16119175D01*
X7388872Y-16119175D02*
X7398396Y-16100128D01*
X7398396Y-16100128D02*
X7417444Y-16071556D01*
X7417444Y-16071556D02*
X7426968Y-16062032D01*
X7503158Y-16157270D02*
X7503158Y-16290604D01*
X7503158Y-16176318D02*
X7512682Y-16166794D01*
X7512682Y-16166794D02*
X7531730Y-16157270D01*
X7531730Y-16157270D02*
X7560301Y-16157270D01*
X7560301Y-16157270D02*
X7579349Y-16166794D01*
X7579349Y-16166794D02*
X7588872Y-16185842D01*
X7588872Y-16185842D02*
X7588872Y-16290604D01*
X7712682Y-16290604D02*
X7693634Y-16281080D01*
X7693634Y-16281080D02*
X7684111Y-16271556D01*
X7684111Y-16271556D02*
X7674587Y-16252508D01*
X7674587Y-16252508D02*
X7674587Y-16195366D01*
X7674587Y-16195366D02*
X7684111Y-16176318D01*
X7684111Y-16176318D02*
X7693634Y-16166794D01*
X7693634Y-16166794D02*
X7712682Y-16157270D01*
X7712682Y-16157270D02*
X7741253Y-16157270D01*
X7741253Y-16157270D02*
X7760301Y-16166794D01*
X7760301Y-16166794D02*
X7769825Y-16176318D01*
X7769825Y-16176318D02*
X7779349Y-16195366D01*
X7779349Y-16195366D02*
X7779349Y-16252508D01*
X7779349Y-16252508D02*
X7769825Y-16271556D01*
X7769825Y-16271556D02*
X7760301Y-16281080D01*
X7760301Y-16281080D02*
X7741253Y-16290604D01*
X7741253Y-16290604D02*
X7712682Y-16290604D01*
X7836492Y-16157270D02*
X7912682Y-16157270D01*
X7865063Y-16090604D02*
X7865063Y-16262032D01*
X7865063Y-16262032D02*
X7874587Y-16281080D01*
X7874587Y-16281080D02*
X7893634Y-16290604D01*
X7893634Y-16290604D02*
X7912682Y-16290604D01*
X8131730Y-16157270D02*
X8131730Y-16357270D01*
X8131730Y-16166794D02*
X8150777Y-16157270D01*
X8150777Y-16157270D02*
X8188873Y-16157270D01*
X8188873Y-16157270D02*
X8207920Y-16166794D01*
X8207920Y-16166794D02*
X8217444Y-16176318D01*
X8217444Y-16176318D02*
X8226968Y-16195366D01*
X8226968Y-16195366D02*
X8226968Y-16252508D01*
X8226968Y-16252508D02*
X8217444Y-16271556D01*
X8217444Y-16271556D02*
X8207920Y-16281080D01*
X8207920Y-16281080D02*
X8188873Y-16290604D01*
X8188873Y-16290604D02*
X8150777Y-16290604D01*
X8150777Y-16290604D02*
X8131730Y-16281080D01*
X8341253Y-16290604D02*
X8322206Y-16281080D01*
X8322206Y-16281080D02*
X8312682Y-16262032D01*
X8312682Y-16262032D02*
X8312682Y-16090604D01*
X8503158Y-16290604D02*
X8503158Y-16185842D01*
X8503158Y-16185842D02*
X8493635Y-16166794D01*
X8493635Y-16166794D02*
X8474587Y-16157270D01*
X8474587Y-16157270D02*
X8436492Y-16157270D01*
X8436492Y-16157270D02*
X8417444Y-16166794D01*
X8503158Y-16281080D02*
X8484111Y-16290604D01*
X8484111Y-16290604D02*
X8436492Y-16290604D01*
X8436492Y-16290604D02*
X8417444Y-16281080D01*
X8417444Y-16281080D02*
X8407920Y-16262032D01*
X8407920Y-16262032D02*
X8407920Y-16242985D01*
X8407920Y-16242985D02*
X8417444Y-16223937D01*
X8417444Y-16223937D02*
X8436492Y-16214413D01*
X8436492Y-16214413D02*
X8484111Y-16214413D01*
X8484111Y-16214413D02*
X8503158Y-16204889D01*
X8569825Y-16157270D02*
X8646015Y-16157270D01*
X8598396Y-16090604D02*
X8598396Y-16262032D01*
X8598396Y-16262032D02*
X8607920Y-16281080D01*
X8607920Y-16281080D02*
X8626968Y-16290604D01*
X8626968Y-16290604D02*
X8646015Y-16290604D01*
X8788873Y-16281080D02*
X8769825Y-16290604D01*
X8769825Y-16290604D02*
X8731730Y-16290604D01*
X8731730Y-16290604D02*
X8712682Y-16281080D01*
X8712682Y-16281080D02*
X8703158Y-16262032D01*
X8703158Y-16262032D02*
X8703158Y-16185842D01*
X8703158Y-16185842D02*
X8712682Y-16166794D01*
X8712682Y-16166794D02*
X8731730Y-16157270D01*
X8731730Y-16157270D02*
X8769825Y-16157270D01*
X8769825Y-16157270D02*
X8788873Y-16166794D01*
X8788873Y-16166794D02*
X8798396Y-16185842D01*
X8798396Y-16185842D02*
X8798396Y-16204889D01*
X8798396Y-16204889D02*
X8703158Y-16223937D01*
X8969825Y-16290604D02*
X8969825Y-16090604D01*
X8969825Y-16281080D02*
X8950777Y-16290604D01*
X8950777Y-16290604D02*
X8912682Y-16290604D01*
X8912682Y-16290604D02*
X8893635Y-16281080D01*
X8893635Y-16281080D02*
X8884111Y-16271556D01*
X8884111Y-16271556D02*
X8874587Y-16252508D01*
X8874587Y-16252508D02*
X8874587Y-16195366D01*
X8874587Y-16195366D02*
X8884111Y-16176318D01*
X8884111Y-16176318D02*
X8893635Y-16166794D01*
X8893635Y-16166794D02*
X8912682Y-16157270D01*
X8912682Y-16157270D02*
X8950777Y-16157270D01*
X8950777Y-16157270D02*
X8969825Y-16166794D01*
X9046016Y-16366794D02*
X9055539Y-16357270D01*
X9055539Y-16357270D02*
X9074587Y-16328699D01*
X9074587Y-16328699D02*
X9084111Y-16309651D01*
X9084111Y-16309651D02*
X9093635Y-16281080D01*
X9093635Y-16281080D02*
X9103158Y-16233461D01*
X9103158Y-16233461D02*
X9103158Y-16195366D01*
X9103158Y-16195366D02*
X9093635Y-16147747D01*
X9093635Y-16147747D02*
X9084111Y-16119175D01*
X9084111Y-16119175D02*
X9074587Y-16100128D01*
X9074587Y-16100128D02*
X9055539Y-16071556D01*
X9055539Y-16071556D02*
X9046016Y-16062032D01*
D13*
X2290000Y-16463120D02*
G75*
G02*
X2130000Y-16463120I-80000J0D01*
G01*
X2130000Y-16463120D02*
G75*
G02*
X2290000Y-16463120I80000J0D01*
G01*
D10*
X2655539Y-16554604D02*
X2541253Y-16554604D01*
X2598396Y-16554604D02*
X2598396Y-16354604D01*
X2598396Y-16354604D02*
X2579348Y-16383175D01*
X2579348Y-16383175D02*
X2560301Y-16402223D01*
X2560301Y-16402223D02*
X2541253Y-16411747D01*
X2741253Y-16535556D02*
X2750777Y-16545080D01*
X2750777Y-16545080D02*
X2741253Y-16554604D01*
X2741253Y-16554604D02*
X2731729Y-16545080D01*
X2731729Y-16545080D02*
X2741253Y-16535556D01*
X2741253Y-16535556D02*
X2741253Y-16554604D01*
X2922205Y-16354604D02*
X2884110Y-16354604D01*
X2884110Y-16354604D02*
X2865062Y-16364128D01*
X2865062Y-16364128D02*
X2855539Y-16373651D01*
X2855539Y-16373651D02*
X2836491Y-16402223D01*
X2836491Y-16402223D02*
X2826967Y-16440318D01*
X2826967Y-16440318D02*
X2826967Y-16516508D01*
X2826967Y-16516508D02*
X2836491Y-16535556D01*
X2836491Y-16535556D02*
X2846015Y-16545080D01*
X2846015Y-16545080D02*
X2865062Y-16554604D01*
X2865062Y-16554604D02*
X2903158Y-16554604D01*
X2903158Y-16554604D02*
X2922205Y-16545080D01*
X2922205Y-16545080D02*
X2931729Y-16535556D01*
X2931729Y-16535556D02*
X2941253Y-16516508D01*
X2941253Y-16516508D02*
X2941253Y-16468889D01*
X2941253Y-16468889D02*
X2931729Y-16449842D01*
X2931729Y-16449842D02*
X2922205Y-16440318D01*
X2922205Y-16440318D02*
X2903158Y-16430794D01*
X2903158Y-16430794D02*
X2865062Y-16430794D01*
X2865062Y-16430794D02*
X2846015Y-16440318D01*
X2846015Y-16440318D02*
X2836491Y-16449842D01*
X2836491Y-16449842D02*
X2826967Y-16468889D01*
X3065062Y-16354604D02*
X3084110Y-16354604D01*
X3084110Y-16354604D02*
X3103158Y-16364128D01*
X3103158Y-16364128D02*
X3112682Y-16373651D01*
X3112682Y-16373651D02*
X3122205Y-16392699D01*
X3122205Y-16392699D02*
X3131729Y-16430794D01*
X3131729Y-16430794D02*
X3131729Y-16478413D01*
X3131729Y-16478413D02*
X3122205Y-16516508D01*
X3122205Y-16516508D02*
X3112682Y-16535556D01*
X3112682Y-16535556D02*
X3103158Y-16545080D01*
X3103158Y-16545080D02*
X3084110Y-16554604D01*
X3084110Y-16554604D02*
X3065062Y-16554604D01*
X3065062Y-16554604D02*
X3046015Y-16545080D01*
X3046015Y-16545080D02*
X3036491Y-16535556D01*
X3036491Y-16535556D02*
X3026967Y-16516508D01*
X3026967Y-16516508D02*
X3017443Y-16478413D01*
X3017443Y-16478413D02*
X3017443Y-16430794D01*
X3017443Y-16430794D02*
X3026967Y-16392699D01*
X3026967Y-16392699D02*
X3036491Y-16373651D01*
X3036491Y-16373651D02*
X3046015Y-16364128D01*
X3046015Y-16364128D02*
X3065062Y-16354604D01*
X3255539Y-16354604D02*
X3274586Y-16354604D01*
X3274586Y-16354604D02*
X3293634Y-16364128D01*
X3293634Y-16364128D02*
X3303158Y-16373651D01*
X3303158Y-16373651D02*
X3312682Y-16392699D01*
X3312682Y-16392699D02*
X3322205Y-16430794D01*
X3322205Y-16430794D02*
X3322205Y-16478413D01*
X3322205Y-16478413D02*
X3312682Y-16516508D01*
X3312682Y-16516508D02*
X3303158Y-16535556D01*
X3303158Y-16535556D02*
X3293634Y-16545080D01*
X3293634Y-16545080D02*
X3274586Y-16554604D01*
X3274586Y-16554604D02*
X3255539Y-16554604D01*
X3255539Y-16554604D02*
X3236491Y-16545080D01*
X3236491Y-16545080D02*
X3226967Y-16535556D01*
X3226967Y-16535556D02*
X3217443Y-16516508D01*
X3217443Y-16516508D02*
X3207920Y-16478413D01*
X3207920Y-16478413D02*
X3207920Y-16430794D01*
X3207920Y-16430794D02*
X3217443Y-16392699D01*
X3217443Y-16392699D02*
X3226967Y-16373651D01*
X3226967Y-16373651D02*
X3236491Y-16364128D01*
X3236491Y-16364128D02*
X3255539Y-16354604D01*
X3407920Y-16554604D02*
X3407920Y-16421270D01*
X3407920Y-16440318D02*
X3417443Y-16430794D01*
X3417443Y-16430794D02*
X3436491Y-16421270D01*
X3436491Y-16421270D02*
X3465063Y-16421270D01*
X3465063Y-16421270D02*
X3484110Y-16430794D01*
X3484110Y-16430794D02*
X3493634Y-16449842D01*
X3493634Y-16449842D02*
X3493634Y-16554604D01*
X3493634Y-16449842D02*
X3503158Y-16430794D01*
X3503158Y-16430794D02*
X3522205Y-16421270D01*
X3522205Y-16421270D02*
X3550777Y-16421270D01*
X3550777Y-16421270D02*
X3569824Y-16430794D01*
X3569824Y-16430794D02*
X3579348Y-16449842D01*
X3579348Y-16449842D02*
X3579348Y-16554604D01*
X3674586Y-16554604D02*
X3674586Y-16421270D01*
X3674586Y-16440318D02*
X3684110Y-16430794D01*
X3684110Y-16430794D02*
X3703158Y-16421270D01*
X3703158Y-16421270D02*
X3731729Y-16421270D01*
X3731729Y-16421270D02*
X3750777Y-16430794D01*
X3750777Y-16430794D02*
X3760301Y-16449842D01*
X3760301Y-16449842D02*
X3760301Y-16554604D01*
X3760301Y-16449842D02*
X3769824Y-16430794D01*
X3769824Y-16430794D02*
X3788872Y-16421270D01*
X3788872Y-16421270D02*
X3817443Y-16421270D01*
X3817443Y-16421270D02*
X3836491Y-16430794D01*
X3836491Y-16430794D02*
X3846015Y-16449842D01*
X3846015Y-16449842D02*
X3846015Y-16554604D01*
X4236491Y-16345080D02*
X4065063Y-16602223D01*
X4493634Y-16354604D02*
X4512682Y-16354604D01*
X4512682Y-16354604D02*
X4531729Y-16364128D01*
X4531729Y-16364128D02*
X4541253Y-16373651D01*
X4541253Y-16373651D02*
X4550777Y-16392699D01*
X4550777Y-16392699D02*
X4560301Y-16430794D01*
X4560301Y-16430794D02*
X4560301Y-16478413D01*
X4560301Y-16478413D02*
X4550777Y-16516508D01*
X4550777Y-16516508D02*
X4541253Y-16535556D01*
X4541253Y-16535556D02*
X4531729Y-16545080D01*
X4531729Y-16545080D02*
X4512682Y-16554604D01*
X4512682Y-16554604D02*
X4493634Y-16554604D01*
X4493634Y-16554604D02*
X4474587Y-16545080D01*
X4474587Y-16545080D02*
X4465063Y-16535556D01*
X4465063Y-16535556D02*
X4455539Y-16516508D01*
X4455539Y-16516508D02*
X4446015Y-16478413D01*
X4446015Y-16478413D02*
X4446015Y-16430794D01*
X4446015Y-16430794D02*
X4455539Y-16392699D01*
X4455539Y-16392699D02*
X4465063Y-16373651D01*
X4465063Y-16373651D02*
X4474587Y-16364128D01*
X4474587Y-16364128D02*
X4493634Y-16354604D01*
X4646015Y-16535556D02*
X4655539Y-16545080D01*
X4655539Y-16545080D02*
X4646015Y-16554604D01*
X4646015Y-16554604D02*
X4636491Y-16545080D01*
X4636491Y-16545080D02*
X4646015Y-16535556D01*
X4646015Y-16535556D02*
X4646015Y-16554604D01*
X4779348Y-16354604D02*
X4798396Y-16354604D01*
X4798396Y-16354604D02*
X4817444Y-16364128D01*
X4817444Y-16364128D02*
X4826968Y-16373651D01*
X4826968Y-16373651D02*
X4836491Y-16392699D01*
X4836491Y-16392699D02*
X4846015Y-16430794D01*
X4846015Y-16430794D02*
X4846015Y-16478413D01*
X4846015Y-16478413D02*
X4836491Y-16516508D01*
X4836491Y-16516508D02*
X4826968Y-16535556D01*
X4826968Y-16535556D02*
X4817444Y-16545080D01*
X4817444Y-16545080D02*
X4798396Y-16554604D01*
X4798396Y-16554604D02*
X4779348Y-16554604D01*
X4779348Y-16554604D02*
X4760301Y-16545080D01*
X4760301Y-16545080D02*
X4750777Y-16535556D01*
X4750777Y-16535556D02*
X4741253Y-16516508D01*
X4741253Y-16516508D02*
X4731729Y-16478413D01*
X4731729Y-16478413D02*
X4731729Y-16430794D01*
X4731729Y-16430794D02*
X4741253Y-16392699D01*
X4741253Y-16392699D02*
X4750777Y-16373651D01*
X4750777Y-16373651D02*
X4760301Y-16364128D01*
X4760301Y-16364128D02*
X4779348Y-16354604D01*
X5017444Y-16354604D02*
X4979348Y-16354604D01*
X4979348Y-16354604D02*
X4960301Y-16364128D01*
X4960301Y-16364128D02*
X4950777Y-16373651D01*
X4950777Y-16373651D02*
X4931729Y-16402223D01*
X4931729Y-16402223D02*
X4922206Y-16440318D01*
X4922206Y-16440318D02*
X4922206Y-16516508D01*
X4922206Y-16516508D02*
X4931729Y-16535556D01*
X4931729Y-16535556D02*
X4941253Y-16545080D01*
X4941253Y-16545080D02*
X4960301Y-16554604D01*
X4960301Y-16554604D02*
X4998396Y-16554604D01*
X4998396Y-16554604D02*
X5017444Y-16545080D01*
X5017444Y-16545080D02*
X5026968Y-16535556D01*
X5026968Y-16535556D02*
X5036491Y-16516508D01*
X5036491Y-16516508D02*
X5036491Y-16468889D01*
X5036491Y-16468889D02*
X5026968Y-16449842D01*
X5026968Y-16449842D02*
X5017444Y-16440318D01*
X5017444Y-16440318D02*
X4998396Y-16430794D01*
X4998396Y-16430794D02*
X4960301Y-16430794D01*
X4960301Y-16430794D02*
X4941253Y-16440318D01*
X4941253Y-16440318D02*
X4931729Y-16449842D01*
X4931729Y-16449842D02*
X4922206Y-16468889D01*
X5103158Y-16354604D02*
X5226968Y-16354604D01*
X5226968Y-16354604D02*
X5160301Y-16430794D01*
X5160301Y-16430794D02*
X5188872Y-16430794D01*
X5188872Y-16430794D02*
X5207920Y-16440318D01*
X5207920Y-16440318D02*
X5217444Y-16449842D01*
X5217444Y-16449842D02*
X5226968Y-16468889D01*
X5226968Y-16468889D02*
X5226968Y-16516508D01*
X5226968Y-16516508D02*
X5217444Y-16535556D01*
X5217444Y-16535556D02*
X5207920Y-16545080D01*
X5207920Y-16545080D02*
X5188872Y-16554604D01*
X5188872Y-16554604D02*
X5131729Y-16554604D01*
X5131729Y-16554604D02*
X5112682Y-16545080D01*
X5112682Y-16545080D02*
X5103158Y-16535556D01*
X5350777Y-16354604D02*
X5369825Y-16354604D01*
X5369825Y-16354604D02*
X5388872Y-16364128D01*
X5388872Y-16364128D02*
X5398396Y-16373651D01*
X5398396Y-16373651D02*
X5407920Y-16392699D01*
X5407920Y-16392699D02*
X5417444Y-16430794D01*
X5417444Y-16430794D02*
X5417444Y-16478413D01*
X5417444Y-16478413D02*
X5407920Y-16516508D01*
X5407920Y-16516508D02*
X5398396Y-16535556D01*
X5398396Y-16535556D02*
X5388872Y-16545080D01*
X5388872Y-16545080D02*
X5369825Y-16554604D01*
X5369825Y-16554604D02*
X5350777Y-16554604D01*
X5350777Y-16554604D02*
X5331729Y-16545080D01*
X5331729Y-16545080D02*
X5322206Y-16535556D01*
X5322206Y-16535556D02*
X5312682Y-16516508D01*
X5312682Y-16516508D02*
X5303158Y-16478413D01*
X5303158Y-16478413D02*
X5303158Y-16430794D01*
X5303158Y-16430794D02*
X5312682Y-16392699D01*
X5312682Y-16392699D02*
X5322206Y-16373651D01*
X5322206Y-16373651D02*
X5331729Y-16364128D01*
X5331729Y-16364128D02*
X5350777Y-16354604D01*
X5493634Y-16354604D02*
X5493634Y-16392699D01*
X5569825Y-16354604D02*
X5569825Y-16392699D01*
X5865063Y-16630794D02*
X5855539Y-16621270D01*
X5855539Y-16621270D02*
X5836491Y-16592699D01*
X5836491Y-16592699D02*
X5826968Y-16573651D01*
X5826968Y-16573651D02*
X5817444Y-16545080D01*
X5817444Y-16545080D02*
X5807920Y-16497461D01*
X5807920Y-16497461D02*
X5807920Y-16459366D01*
X5807920Y-16459366D02*
X5817444Y-16411747D01*
X5817444Y-16411747D02*
X5826968Y-16383175D01*
X5826968Y-16383175D02*
X5836491Y-16364128D01*
X5836491Y-16364128D02*
X5855539Y-16335556D01*
X5855539Y-16335556D02*
X5865063Y-16326032D01*
X6046015Y-16554604D02*
X5931729Y-16554604D01*
X5988872Y-16554604D02*
X5988872Y-16354604D01*
X5988872Y-16354604D02*
X5969825Y-16383175D01*
X5969825Y-16383175D02*
X5950777Y-16402223D01*
X5950777Y-16402223D02*
X5931729Y-16411747D01*
X6160301Y-16440318D02*
X6141253Y-16430794D01*
X6141253Y-16430794D02*
X6131729Y-16421270D01*
X6131729Y-16421270D02*
X6122206Y-16402223D01*
X6122206Y-16402223D02*
X6122206Y-16392699D01*
X6122206Y-16392699D02*
X6131729Y-16373651D01*
X6131729Y-16373651D02*
X6141253Y-16364128D01*
X6141253Y-16364128D02*
X6160301Y-16354604D01*
X6160301Y-16354604D02*
X6198396Y-16354604D01*
X6198396Y-16354604D02*
X6217444Y-16364128D01*
X6217444Y-16364128D02*
X6226968Y-16373651D01*
X6226968Y-16373651D02*
X6236491Y-16392699D01*
X6236491Y-16392699D02*
X6236491Y-16402223D01*
X6236491Y-16402223D02*
X6226968Y-16421270D01*
X6226968Y-16421270D02*
X6217444Y-16430794D01*
X6217444Y-16430794D02*
X6198396Y-16440318D01*
X6198396Y-16440318D02*
X6160301Y-16440318D01*
X6160301Y-16440318D02*
X6141253Y-16449842D01*
X6141253Y-16449842D02*
X6131729Y-16459366D01*
X6131729Y-16459366D02*
X6122206Y-16478413D01*
X6122206Y-16478413D02*
X6122206Y-16516508D01*
X6122206Y-16516508D02*
X6131729Y-16535556D01*
X6131729Y-16535556D02*
X6141253Y-16545080D01*
X6141253Y-16545080D02*
X6160301Y-16554604D01*
X6160301Y-16554604D02*
X6198396Y-16554604D01*
X6198396Y-16554604D02*
X6217444Y-16545080D01*
X6217444Y-16545080D02*
X6226968Y-16535556D01*
X6226968Y-16535556D02*
X6236491Y-16516508D01*
X6236491Y-16516508D02*
X6236491Y-16478413D01*
X6236491Y-16478413D02*
X6226968Y-16459366D01*
X6226968Y-16459366D02*
X6217444Y-16449842D01*
X6217444Y-16449842D02*
X6198396Y-16440318D01*
X6474587Y-16554604D02*
X6474587Y-16354604D01*
X6560301Y-16554604D02*
X6560301Y-16449842D01*
X6560301Y-16449842D02*
X6550777Y-16430794D01*
X6550777Y-16430794D02*
X6531730Y-16421270D01*
X6531730Y-16421270D02*
X6503158Y-16421270D01*
X6503158Y-16421270D02*
X6484110Y-16430794D01*
X6484110Y-16430794D02*
X6474587Y-16440318D01*
X6684110Y-16554604D02*
X6665063Y-16545080D01*
X6665063Y-16545080D02*
X6655539Y-16535556D01*
X6655539Y-16535556D02*
X6646015Y-16516508D01*
X6646015Y-16516508D02*
X6646015Y-16459366D01*
X6646015Y-16459366D02*
X6655539Y-16440318D01*
X6655539Y-16440318D02*
X6665063Y-16430794D01*
X6665063Y-16430794D02*
X6684110Y-16421270D01*
X6684110Y-16421270D02*
X6712682Y-16421270D01*
X6712682Y-16421270D02*
X6731730Y-16430794D01*
X6731730Y-16430794D02*
X6741253Y-16440318D01*
X6741253Y-16440318D02*
X6750777Y-16459366D01*
X6750777Y-16459366D02*
X6750777Y-16516508D01*
X6750777Y-16516508D02*
X6741253Y-16535556D01*
X6741253Y-16535556D02*
X6731730Y-16545080D01*
X6731730Y-16545080D02*
X6712682Y-16554604D01*
X6712682Y-16554604D02*
X6684110Y-16554604D01*
X6865063Y-16554604D02*
X6846015Y-16545080D01*
X6846015Y-16545080D02*
X6836491Y-16526032D01*
X6836491Y-16526032D02*
X6836491Y-16354604D01*
X7017444Y-16545080D02*
X6998396Y-16554604D01*
X6998396Y-16554604D02*
X6960301Y-16554604D01*
X6960301Y-16554604D02*
X6941253Y-16545080D01*
X6941253Y-16545080D02*
X6931730Y-16526032D01*
X6931730Y-16526032D02*
X6931730Y-16449842D01*
X6931730Y-16449842D02*
X6941253Y-16430794D01*
X6941253Y-16430794D02*
X6960301Y-16421270D01*
X6960301Y-16421270D02*
X6998396Y-16421270D01*
X6998396Y-16421270D02*
X7017444Y-16430794D01*
X7017444Y-16430794D02*
X7026968Y-16449842D01*
X7026968Y-16449842D02*
X7026968Y-16468889D01*
X7026968Y-16468889D02*
X6931730Y-16487937D01*
X7103158Y-16545080D02*
X7122206Y-16554604D01*
X7122206Y-16554604D02*
X7160301Y-16554604D01*
X7160301Y-16554604D02*
X7179349Y-16545080D01*
X7179349Y-16545080D02*
X7188872Y-16526032D01*
X7188872Y-16526032D02*
X7188872Y-16516508D01*
X7188872Y-16516508D02*
X7179349Y-16497461D01*
X7179349Y-16497461D02*
X7160301Y-16487937D01*
X7160301Y-16487937D02*
X7131730Y-16487937D01*
X7131730Y-16487937D02*
X7112682Y-16478413D01*
X7112682Y-16478413D02*
X7103158Y-16459366D01*
X7103158Y-16459366D02*
X7103158Y-16449842D01*
X7103158Y-16449842D02*
X7112682Y-16430794D01*
X7112682Y-16430794D02*
X7131730Y-16421270D01*
X7131730Y-16421270D02*
X7160301Y-16421270D01*
X7160301Y-16421270D02*
X7179349Y-16430794D01*
X7255539Y-16630794D02*
X7265063Y-16621270D01*
X7265063Y-16621270D02*
X7284111Y-16592699D01*
X7284111Y-16592699D02*
X7293634Y-16573651D01*
X7293634Y-16573651D02*
X7303158Y-16545080D01*
X7303158Y-16545080D02*
X7312682Y-16497461D01*
X7312682Y-16497461D02*
X7312682Y-16459366D01*
X7312682Y-16459366D02*
X7303158Y-16411747D01*
X7303158Y-16411747D02*
X7293634Y-16383175D01*
X7293634Y-16383175D02*
X7284111Y-16364128D01*
X7284111Y-16364128D02*
X7265063Y-16335556D01*
X7265063Y-16335556D02*
X7255539Y-16326032D01*
X7617444Y-16630794D02*
X7607920Y-16621270D01*
X7607920Y-16621270D02*
X7588872Y-16592699D01*
X7588872Y-16592699D02*
X7579349Y-16573651D01*
X7579349Y-16573651D02*
X7569825Y-16545080D01*
X7569825Y-16545080D02*
X7560301Y-16497461D01*
X7560301Y-16497461D02*
X7560301Y-16459366D01*
X7560301Y-16459366D02*
X7569825Y-16411747D01*
X7569825Y-16411747D02*
X7579349Y-16383175D01*
X7579349Y-16383175D02*
X7588872Y-16364128D01*
X7588872Y-16364128D02*
X7607920Y-16335556D01*
X7607920Y-16335556D02*
X7617444Y-16326032D01*
X7693634Y-16421270D02*
X7693634Y-16554604D01*
X7693634Y-16440318D02*
X7703158Y-16430794D01*
X7703158Y-16430794D02*
X7722206Y-16421270D01*
X7722206Y-16421270D02*
X7750777Y-16421270D01*
X7750777Y-16421270D02*
X7769825Y-16430794D01*
X7769825Y-16430794D02*
X7779349Y-16449842D01*
X7779349Y-16449842D02*
X7779349Y-16554604D01*
X7903158Y-16554604D02*
X7884111Y-16545080D01*
X7884111Y-16545080D02*
X7874587Y-16535556D01*
X7874587Y-16535556D02*
X7865063Y-16516508D01*
X7865063Y-16516508D02*
X7865063Y-16459366D01*
X7865063Y-16459366D02*
X7874587Y-16440318D01*
X7874587Y-16440318D02*
X7884111Y-16430794D01*
X7884111Y-16430794D02*
X7903158Y-16421270D01*
X7903158Y-16421270D02*
X7931730Y-16421270D01*
X7931730Y-16421270D02*
X7950777Y-16430794D01*
X7950777Y-16430794D02*
X7960301Y-16440318D01*
X7960301Y-16440318D02*
X7969825Y-16459366D01*
X7969825Y-16459366D02*
X7969825Y-16516508D01*
X7969825Y-16516508D02*
X7960301Y-16535556D01*
X7960301Y-16535556D02*
X7950777Y-16545080D01*
X7950777Y-16545080D02*
X7931730Y-16554604D01*
X7931730Y-16554604D02*
X7903158Y-16554604D01*
X8026968Y-16421270D02*
X8103158Y-16421270D01*
X8055539Y-16354604D02*
X8055539Y-16526032D01*
X8055539Y-16526032D02*
X8065063Y-16545080D01*
X8065063Y-16545080D02*
X8084111Y-16554604D01*
X8084111Y-16554604D02*
X8103158Y-16554604D01*
X8322206Y-16421270D02*
X8322206Y-16621270D01*
X8322206Y-16430794D02*
X8341253Y-16421270D01*
X8341253Y-16421270D02*
X8379349Y-16421270D01*
X8379349Y-16421270D02*
X8398396Y-16430794D01*
X8398396Y-16430794D02*
X8407920Y-16440318D01*
X8407920Y-16440318D02*
X8417444Y-16459366D01*
X8417444Y-16459366D02*
X8417444Y-16516508D01*
X8417444Y-16516508D02*
X8407920Y-16535556D01*
X8407920Y-16535556D02*
X8398396Y-16545080D01*
X8398396Y-16545080D02*
X8379349Y-16554604D01*
X8379349Y-16554604D02*
X8341253Y-16554604D01*
X8341253Y-16554604D02*
X8322206Y-16545080D01*
X8531730Y-16554604D02*
X8512682Y-16545080D01*
X8512682Y-16545080D02*
X8503158Y-16526032D01*
X8503158Y-16526032D02*
X8503158Y-16354604D01*
X8693635Y-16554604D02*
X8693635Y-16449842D01*
X8693635Y-16449842D02*
X8684111Y-16430794D01*
X8684111Y-16430794D02*
X8665063Y-16421270D01*
X8665063Y-16421270D02*
X8626968Y-16421270D01*
X8626968Y-16421270D02*
X8607920Y-16430794D01*
X8693635Y-16545080D02*
X8674587Y-16554604D01*
X8674587Y-16554604D02*
X8626968Y-16554604D01*
X8626968Y-16554604D02*
X8607920Y-16545080D01*
X8607920Y-16545080D02*
X8598396Y-16526032D01*
X8598396Y-16526032D02*
X8598396Y-16506985D01*
X8598396Y-16506985D02*
X8607920Y-16487937D01*
X8607920Y-16487937D02*
X8626968Y-16478413D01*
X8626968Y-16478413D02*
X8674587Y-16478413D01*
X8674587Y-16478413D02*
X8693635Y-16468889D01*
X8760301Y-16421270D02*
X8836492Y-16421270D01*
X8788873Y-16354604D02*
X8788873Y-16526032D01*
X8788873Y-16526032D02*
X8798396Y-16545080D01*
X8798396Y-16545080D02*
X8817444Y-16554604D01*
X8817444Y-16554604D02*
X8836492Y-16554604D01*
X8979349Y-16545080D02*
X8960301Y-16554604D01*
X8960301Y-16554604D02*
X8922206Y-16554604D01*
X8922206Y-16554604D02*
X8903158Y-16545080D01*
X8903158Y-16545080D02*
X8893635Y-16526032D01*
X8893635Y-16526032D02*
X8893635Y-16449842D01*
X8893635Y-16449842D02*
X8903158Y-16430794D01*
X8903158Y-16430794D02*
X8922206Y-16421270D01*
X8922206Y-16421270D02*
X8960301Y-16421270D01*
X8960301Y-16421270D02*
X8979349Y-16430794D01*
X8979349Y-16430794D02*
X8988873Y-16449842D01*
X8988873Y-16449842D02*
X8988873Y-16468889D01*
X8988873Y-16468889D02*
X8893635Y-16487937D01*
X9160301Y-16554604D02*
X9160301Y-16354604D01*
X9160301Y-16545080D02*
X9141254Y-16554604D01*
X9141254Y-16554604D02*
X9103158Y-16554604D01*
X9103158Y-16554604D02*
X9084111Y-16545080D01*
X9084111Y-16545080D02*
X9074587Y-16535556D01*
X9074587Y-16535556D02*
X9065063Y-16516508D01*
X9065063Y-16516508D02*
X9065063Y-16459366D01*
X9065063Y-16459366D02*
X9074587Y-16440318D01*
X9074587Y-16440318D02*
X9084111Y-16430794D01*
X9084111Y-16430794D02*
X9103158Y-16421270D01*
X9103158Y-16421270D02*
X9141254Y-16421270D01*
X9141254Y-16421270D02*
X9160301Y-16430794D01*
X9236492Y-16630794D02*
X9246016Y-16621270D01*
X9246016Y-16621270D02*
X9265063Y-16592699D01*
X9265063Y-16592699D02*
X9274587Y-16573651D01*
X9274587Y-16573651D02*
X9284111Y-16545080D01*
X9284111Y-16545080D02*
X9293635Y-16497461D01*
X9293635Y-16497461D02*
X9293635Y-16459366D01*
X9293635Y-16459366D02*
X9284111Y-16411747D01*
X9284111Y-16411747D02*
X9274587Y-16383175D01*
X9274587Y-16383175D02*
X9265063Y-16364128D01*
X9265063Y-16364128D02*
X9246016Y-16335556D01*
X9246016Y-16335556D02*
X9236492Y-16326032D01*
D14*
X2195000Y-16648120D02*
X2195000Y-16838120D01*
X2100000Y-16743120D02*
X2290000Y-16743120D01*
D10*
X2655539Y-16834604D02*
X2541253Y-16834604D01*
X2598396Y-16834604D02*
X2598396Y-16634604D01*
X2598396Y-16634604D02*
X2579348Y-16663175D01*
X2579348Y-16663175D02*
X2560301Y-16682223D01*
X2560301Y-16682223D02*
X2541253Y-16691747D01*
X2741253Y-16815556D02*
X2750777Y-16825080D01*
X2750777Y-16825080D02*
X2741253Y-16834604D01*
X2741253Y-16834604D02*
X2731729Y-16825080D01*
X2731729Y-16825080D02*
X2741253Y-16815556D01*
X2741253Y-16815556D02*
X2741253Y-16834604D01*
X2846015Y-16834604D02*
X2884110Y-16834604D01*
X2884110Y-16834604D02*
X2903158Y-16825080D01*
X2903158Y-16825080D02*
X2912682Y-16815556D01*
X2912682Y-16815556D02*
X2931729Y-16786985D01*
X2931729Y-16786985D02*
X2941253Y-16748889D01*
X2941253Y-16748889D02*
X2941253Y-16672699D01*
X2941253Y-16672699D02*
X2931729Y-16653651D01*
X2931729Y-16653651D02*
X2922205Y-16644128D01*
X2922205Y-16644128D02*
X2903158Y-16634604D01*
X2903158Y-16634604D02*
X2865062Y-16634604D01*
X2865062Y-16634604D02*
X2846015Y-16644128D01*
X2846015Y-16644128D02*
X2836491Y-16653651D01*
X2836491Y-16653651D02*
X2826967Y-16672699D01*
X2826967Y-16672699D02*
X2826967Y-16720318D01*
X2826967Y-16720318D02*
X2836491Y-16739366D01*
X2836491Y-16739366D02*
X2846015Y-16748889D01*
X2846015Y-16748889D02*
X2865062Y-16758413D01*
X2865062Y-16758413D02*
X2903158Y-16758413D01*
X2903158Y-16758413D02*
X2922205Y-16748889D01*
X2922205Y-16748889D02*
X2931729Y-16739366D01*
X2931729Y-16739366D02*
X2941253Y-16720318D01*
X3065062Y-16634604D02*
X3084110Y-16634604D01*
X3084110Y-16634604D02*
X3103158Y-16644128D01*
X3103158Y-16644128D02*
X3112682Y-16653651D01*
X3112682Y-16653651D02*
X3122205Y-16672699D01*
X3122205Y-16672699D02*
X3131729Y-16710794D01*
X3131729Y-16710794D02*
X3131729Y-16758413D01*
X3131729Y-16758413D02*
X3122205Y-16796509D01*
X3122205Y-16796509D02*
X3112682Y-16815556D01*
X3112682Y-16815556D02*
X3103158Y-16825080D01*
X3103158Y-16825080D02*
X3084110Y-16834604D01*
X3084110Y-16834604D02*
X3065062Y-16834604D01*
X3065062Y-16834604D02*
X3046015Y-16825080D01*
X3046015Y-16825080D02*
X3036491Y-16815556D01*
X3036491Y-16815556D02*
X3026967Y-16796509D01*
X3026967Y-16796509D02*
X3017443Y-16758413D01*
X3017443Y-16758413D02*
X3017443Y-16710794D01*
X3017443Y-16710794D02*
X3026967Y-16672699D01*
X3026967Y-16672699D02*
X3036491Y-16653651D01*
X3036491Y-16653651D02*
X3046015Y-16644128D01*
X3046015Y-16644128D02*
X3065062Y-16634604D01*
X3255539Y-16634604D02*
X3274586Y-16634604D01*
X3274586Y-16634604D02*
X3293634Y-16644128D01*
X3293634Y-16644128D02*
X3303158Y-16653651D01*
X3303158Y-16653651D02*
X3312682Y-16672699D01*
X3312682Y-16672699D02*
X3322205Y-16710794D01*
X3322205Y-16710794D02*
X3322205Y-16758413D01*
X3322205Y-16758413D02*
X3312682Y-16796509D01*
X3312682Y-16796509D02*
X3303158Y-16815556D01*
X3303158Y-16815556D02*
X3293634Y-16825080D01*
X3293634Y-16825080D02*
X3274586Y-16834604D01*
X3274586Y-16834604D02*
X3255539Y-16834604D01*
X3255539Y-16834604D02*
X3236491Y-16825080D01*
X3236491Y-16825080D02*
X3226967Y-16815556D01*
X3226967Y-16815556D02*
X3217443Y-16796509D01*
X3217443Y-16796509D02*
X3207920Y-16758413D01*
X3207920Y-16758413D02*
X3207920Y-16710794D01*
X3207920Y-16710794D02*
X3217443Y-16672699D01*
X3217443Y-16672699D02*
X3226967Y-16653651D01*
X3226967Y-16653651D02*
X3236491Y-16644128D01*
X3236491Y-16644128D02*
X3255539Y-16634604D01*
X3407920Y-16834604D02*
X3407920Y-16701270D01*
X3407920Y-16720318D02*
X3417443Y-16710794D01*
X3417443Y-16710794D02*
X3436491Y-16701270D01*
X3436491Y-16701270D02*
X3465063Y-16701270D01*
X3465063Y-16701270D02*
X3484110Y-16710794D01*
X3484110Y-16710794D02*
X3493634Y-16729842D01*
X3493634Y-16729842D02*
X3493634Y-16834604D01*
X3493634Y-16729842D02*
X3503158Y-16710794D01*
X3503158Y-16710794D02*
X3522205Y-16701270D01*
X3522205Y-16701270D02*
X3550777Y-16701270D01*
X3550777Y-16701270D02*
X3569824Y-16710794D01*
X3569824Y-16710794D02*
X3579348Y-16729842D01*
X3579348Y-16729842D02*
X3579348Y-16834604D01*
X3674586Y-16834604D02*
X3674586Y-16701270D01*
X3674586Y-16720318D02*
X3684110Y-16710794D01*
X3684110Y-16710794D02*
X3703158Y-16701270D01*
X3703158Y-16701270D02*
X3731729Y-16701270D01*
X3731729Y-16701270D02*
X3750777Y-16710794D01*
X3750777Y-16710794D02*
X3760301Y-16729842D01*
X3760301Y-16729842D02*
X3760301Y-16834604D01*
X3760301Y-16729842D02*
X3769824Y-16710794D01*
X3769824Y-16710794D02*
X3788872Y-16701270D01*
X3788872Y-16701270D02*
X3817443Y-16701270D01*
X3817443Y-16701270D02*
X3836491Y-16710794D01*
X3836491Y-16710794D02*
X3846015Y-16729842D01*
X3846015Y-16729842D02*
X3846015Y-16834604D01*
X4236491Y-16625080D02*
X4065063Y-16882223D01*
X4493634Y-16634604D02*
X4512682Y-16634604D01*
X4512682Y-16634604D02*
X4531729Y-16644128D01*
X4531729Y-16644128D02*
X4541253Y-16653651D01*
X4541253Y-16653651D02*
X4550777Y-16672699D01*
X4550777Y-16672699D02*
X4560301Y-16710794D01*
X4560301Y-16710794D02*
X4560301Y-16758413D01*
X4560301Y-16758413D02*
X4550777Y-16796509D01*
X4550777Y-16796509D02*
X4541253Y-16815556D01*
X4541253Y-16815556D02*
X4531729Y-16825080D01*
X4531729Y-16825080D02*
X4512682Y-16834604D01*
X4512682Y-16834604D02*
X4493634Y-16834604D01*
X4493634Y-16834604D02*
X4474587Y-16825080D01*
X4474587Y-16825080D02*
X4465063Y-16815556D01*
X4465063Y-16815556D02*
X4455539Y-16796509D01*
X4455539Y-16796509D02*
X4446015Y-16758413D01*
X4446015Y-16758413D02*
X4446015Y-16710794D01*
X4446015Y-16710794D02*
X4455539Y-16672699D01*
X4455539Y-16672699D02*
X4465063Y-16653651D01*
X4465063Y-16653651D02*
X4474587Y-16644128D01*
X4474587Y-16644128D02*
X4493634Y-16634604D01*
X4646015Y-16815556D02*
X4655539Y-16825080D01*
X4655539Y-16825080D02*
X4646015Y-16834604D01*
X4646015Y-16834604D02*
X4636491Y-16825080D01*
X4636491Y-16825080D02*
X4646015Y-16815556D01*
X4646015Y-16815556D02*
X4646015Y-16834604D01*
X4779348Y-16634604D02*
X4798396Y-16634604D01*
X4798396Y-16634604D02*
X4817444Y-16644128D01*
X4817444Y-16644128D02*
X4826968Y-16653651D01*
X4826968Y-16653651D02*
X4836491Y-16672699D01*
X4836491Y-16672699D02*
X4846015Y-16710794D01*
X4846015Y-16710794D02*
X4846015Y-16758413D01*
X4846015Y-16758413D02*
X4836491Y-16796509D01*
X4836491Y-16796509D02*
X4826968Y-16815556D01*
X4826968Y-16815556D02*
X4817444Y-16825080D01*
X4817444Y-16825080D02*
X4798396Y-16834604D01*
X4798396Y-16834604D02*
X4779348Y-16834604D01*
X4779348Y-16834604D02*
X4760301Y-16825080D01*
X4760301Y-16825080D02*
X4750777Y-16815556D01*
X4750777Y-16815556D02*
X4741253Y-16796509D01*
X4741253Y-16796509D02*
X4731729Y-16758413D01*
X4731729Y-16758413D02*
X4731729Y-16710794D01*
X4731729Y-16710794D02*
X4741253Y-16672699D01*
X4741253Y-16672699D02*
X4750777Y-16653651D01*
X4750777Y-16653651D02*
X4760301Y-16644128D01*
X4760301Y-16644128D02*
X4779348Y-16634604D01*
X4912682Y-16634604D02*
X5046015Y-16634604D01*
X5046015Y-16634604D02*
X4960301Y-16834604D01*
X5207920Y-16701270D02*
X5207920Y-16834604D01*
X5160301Y-16625080D02*
X5112682Y-16767937D01*
X5112682Y-16767937D02*
X5236491Y-16767937D01*
X5341253Y-16720318D02*
X5322206Y-16710794D01*
X5322206Y-16710794D02*
X5312682Y-16701270D01*
X5312682Y-16701270D02*
X5303158Y-16682223D01*
X5303158Y-16682223D02*
X5303158Y-16672699D01*
X5303158Y-16672699D02*
X5312682Y-16653651D01*
X5312682Y-16653651D02*
X5322206Y-16644128D01*
X5322206Y-16644128D02*
X5341253Y-16634604D01*
X5341253Y-16634604D02*
X5379349Y-16634604D01*
X5379349Y-16634604D02*
X5398396Y-16644128D01*
X5398396Y-16644128D02*
X5407920Y-16653651D01*
X5407920Y-16653651D02*
X5417444Y-16672699D01*
X5417444Y-16672699D02*
X5417444Y-16682223D01*
X5417444Y-16682223D02*
X5407920Y-16701270D01*
X5407920Y-16701270D02*
X5398396Y-16710794D01*
X5398396Y-16710794D02*
X5379349Y-16720318D01*
X5379349Y-16720318D02*
X5341253Y-16720318D01*
X5341253Y-16720318D02*
X5322206Y-16729842D01*
X5322206Y-16729842D02*
X5312682Y-16739366D01*
X5312682Y-16739366D02*
X5303158Y-16758413D01*
X5303158Y-16758413D02*
X5303158Y-16796509D01*
X5303158Y-16796509D02*
X5312682Y-16815556D01*
X5312682Y-16815556D02*
X5322206Y-16825080D01*
X5322206Y-16825080D02*
X5341253Y-16834604D01*
X5341253Y-16834604D02*
X5379349Y-16834604D01*
X5379349Y-16834604D02*
X5398396Y-16825080D01*
X5398396Y-16825080D02*
X5407920Y-16815556D01*
X5407920Y-16815556D02*
X5417444Y-16796509D01*
X5417444Y-16796509D02*
X5417444Y-16758413D01*
X5417444Y-16758413D02*
X5407920Y-16739366D01*
X5407920Y-16739366D02*
X5398396Y-16729842D01*
X5398396Y-16729842D02*
X5379349Y-16720318D01*
X5493634Y-16634604D02*
X5493634Y-16672699D01*
X5569825Y-16634604D02*
X5569825Y-16672699D01*
X5865063Y-16910794D02*
X5855539Y-16901270D01*
X5855539Y-16901270D02*
X5836491Y-16872699D01*
X5836491Y-16872699D02*
X5826968Y-16853651D01*
X5826968Y-16853651D02*
X5817444Y-16825080D01*
X5817444Y-16825080D02*
X5807920Y-16777461D01*
X5807920Y-16777461D02*
X5807920Y-16739366D01*
X5807920Y-16739366D02*
X5817444Y-16691747D01*
X5817444Y-16691747D02*
X5826968Y-16663175D01*
X5826968Y-16663175D02*
X5836491Y-16644128D01*
X5836491Y-16644128D02*
X5855539Y-16615556D01*
X5855539Y-16615556D02*
X5865063Y-16606032D01*
X5922206Y-16634604D02*
X6046015Y-16634604D01*
X6046015Y-16634604D02*
X5979348Y-16710794D01*
X5979348Y-16710794D02*
X6007920Y-16710794D01*
X6007920Y-16710794D02*
X6026968Y-16720318D01*
X6026968Y-16720318D02*
X6036491Y-16729842D01*
X6036491Y-16729842D02*
X6046015Y-16748889D01*
X6046015Y-16748889D02*
X6046015Y-16796509D01*
X6046015Y-16796509D02*
X6036491Y-16815556D01*
X6036491Y-16815556D02*
X6026968Y-16825080D01*
X6026968Y-16825080D02*
X6007920Y-16834604D01*
X6007920Y-16834604D02*
X5950777Y-16834604D01*
X5950777Y-16834604D02*
X5931729Y-16825080D01*
X5931729Y-16825080D02*
X5922206Y-16815556D01*
X6217444Y-16634604D02*
X6179348Y-16634604D01*
X6179348Y-16634604D02*
X6160301Y-16644128D01*
X6160301Y-16644128D02*
X6150777Y-16653651D01*
X6150777Y-16653651D02*
X6131729Y-16682223D01*
X6131729Y-16682223D02*
X6122206Y-16720318D01*
X6122206Y-16720318D02*
X6122206Y-16796509D01*
X6122206Y-16796509D02*
X6131729Y-16815556D01*
X6131729Y-16815556D02*
X6141253Y-16825080D01*
X6141253Y-16825080D02*
X6160301Y-16834604D01*
X6160301Y-16834604D02*
X6198396Y-16834604D01*
X6198396Y-16834604D02*
X6217444Y-16825080D01*
X6217444Y-16825080D02*
X6226968Y-16815556D01*
X6226968Y-16815556D02*
X6236491Y-16796509D01*
X6236491Y-16796509D02*
X6236491Y-16748889D01*
X6236491Y-16748889D02*
X6226968Y-16729842D01*
X6226968Y-16729842D02*
X6217444Y-16720318D01*
X6217444Y-16720318D02*
X6198396Y-16710794D01*
X6198396Y-16710794D02*
X6160301Y-16710794D01*
X6160301Y-16710794D02*
X6141253Y-16720318D01*
X6141253Y-16720318D02*
X6131729Y-16729842D01*
X6131729Y-16729842D02*
X6122206Y-16748889D01*
X6474587Y-16834604D02*
X6474587Y-16634604D01*
X6560301Y-16834604D02*
X6560301Y-16729842D01*
X6560301Y-16729842D02*
X6550777Y-16710794D01*
X6550777Y-16710794D02*
X6531730Y-16701270D01*
X6531730Y-16701270D02*
X6503158Y-16701270D01*
X6503158Y-16701270D02*
X6484110Y-16710794D01*
X6484110Y-16710794D02*
X6474587Y-16720318D01*
X6684110Y-16834604D02*
X6665063Y-16825080D01*
X6665063Y-16825080D02*
X6655539Y-16815556D01*
X6655539Y-16815556D02*
X6646015Y-16796509D01*
X6646015Y-16796509D02*
X6646015Y-16739366D01*
X6646015Y-16739366D02*
X6655539Y-16720318D01*
X6655539Y-16720318D02*
X6665063Y-16710794D01*
X6665063Y-16710794D02*
X6684110Y-16701270D01*
X6684110Y-16701270D02*
X6712682Y-16701270D01*
X6712682Y-16701270D02*
X6731730Y-16710794D01*
X6731730Y-16710794D02*
X6741253Y-16720318D01*
X6741253Y-16720318D02*
X6750777Y-16739366D01*
X6750777Y-16739366D02*
X6750777Y-16796509D01*
X6750777Y-16796509D02*
X6741253Y-16815556D01*
X6741253Y-16815556D02*
X6731730Y-16825080D01*
X6731730Y-16825080D02*
X6712682Y-16834604D01*
X6712682Y-16834604D02*
X6684110Y-16834604D01*
X6865063Y-16834604D02*
X6846015Y-16825080D01*
X6846015Y-16825080D02*
X6836491Y-16806032D01*
X6836491Y-16806032D02*
X6836491Y-16634604D01*
X7017444Y-16825080D02*
X6998396Y-16834604D01*
X6998396Y-16834604D02*
X6960301Y-16834604D01*
X6960301Y-16834604D02*
X6941253Y-16825080D01*
X6941253Y-16825080D02*
X6931730Y-16806032D01*
X6931730Y-16806032D02*
X6931730Y-16729842D01*
X6931730Y-16729842D02*
X6941253Y-16710794D01*
X6941253Y-16710794D02*
X6960301Y-16701270D01*
X6960301Y-16701270D02*
X6998396Y-16701270D01*
X6998396Y-16701270D02*
X7017444Y-16710794D01*
X7017444Y-16710794D02*
X7026968Y-16729842D01*
X7026968Y-16729842D02*
X7026968Y-16748889D01*
X7026968Y-16748889D02*
X6931730Y-16767937D01*
X7103158Y-16825080D02*
X7122206Y-16834604D01*
X7122206Y-16834604D02*
X7160301Y-16834604D01*
X7160301Y-16834604D02*
X7179349Y-16825080D01*
X7179349Y-16825080D02*
X7188872Y-16806032D01*
X7188872Y-16806032D02*
X7188872Y-16796509D01*
X7188872Y-16796509D02*
X7179349Y-16777461D01*
X7179349Y-16777461D02*
X7160301Y-16767937D01*
X7160301Y-16767937D02*
X7131730Y-16767937D01*
X7131730Y-16767937D02*
X7112682Y-16758413D01*
X7112682Y-16758413D02*
X7103158Y-16739366D01*
X7103158Y-16739366D02*
X7103158Y-16729842D01*
X7103158Y-16729842D02*
X7112682Y-16710794D01*
X7112682Y-16710794D02*
X7131730Y-16701270D01*
X7131730Y-16701270D02*
X7160301Y-16701270D01*
X7160301Y-16701270D02*
X7179349Y-16710794D01*
X7255539Y-16910794D02*
X7265063Y-16901270D01*
X7265063Y-16901270D02*
X7284111Y-16872699D01*
X7284111Y-16872699D02*
X7293634Y-16853651D01*
X7293634Y-16853651D02*
X7303158Y-16825080D01*
X7303158Y-16825080D02*
X7312682Y-16777461D01*
X7312682Y-16777461D02*
X7312682Y-16739366D01*
X7312682Y-16739366D02*
X7303158Y-16691747D01*
X7303158Y-16691747D02*
X7293634Y-16663175D01*
X7293634Y-16663175D02*
X7284111Y-16644128D01*
X7284111Y-16644128D02*
X7265063Y-16615556D01*
X7265063Y-16615556D02*
X7255539Y-16606032D01*
X7617444Y-16910794D02*
X7607920Y-16901270D01*
X7607920Y-16901270D02*
X7588872Y-16872699D01*
X7588872Y-16872699D02*
X7579349Y-16853651D01*
X7579349Y-16853651D02*
X7569825Y-16825080D01*
X7569825Y-16825080D02*
X7560301Y-16777461D01*
X7560301Y-16777461D02*
X7560301Y-16739366D01*
X7560301Y-16739366D02*
X7569825Y-16691747D01*
X7569825Y-16691747D02*
X7579349Y-16663175D01*
X7579349Y-16663175D02*
X7588872Y-16644128D01*
X7588872Y-16644128D02*
X7607920Y-16615556D01*
X7607920Y-16615556D02*
X7617444Y-16606032D01*
X7693634Y-16701270D02*
X7693634Y-16834604D01*
X7693634Y-16720318D02*
X7703158Y-16710794D01*
X7703158Y-16710794D02*
X7722206Y-16701270D01*
X7722206Y-16701270D02*
X7750777Y-16701270D01*
X7750777Y-16701270D02*
X7769825Y-16710794D01*
X7769825Y-16710794D02*
X7779349Y-16729842D01*
X7779349Y-16729842D02*
X7779349Y-16834604D01*
X7903158Y-16834604D02*
X7884111Y-16825080D01*
X7884111Y-16825080D02*
X7874587Y-16815556D01*
X7874587Y-16815556D02*
X7865063Y-16796509D01*
X7865063Y-16796509D02*
X7865063Y-16739366D01*
X7865063Y-16739366D02*
X7874587Y-16720318D01*
X7874587Y-16720318D02*
X7884111Y-16710794D01*
X7884111Y-16710794D02*
X7903158Y-16701270D01*
X7903158Y-16701270D02*
X7931730Y-16701270D01*
X7931730Y-16701270D02*
X7950777Y-16710794D01*
X7950777Y-16710794D02*
X7960301Y-16720318D01*
X7960301Y-16720318D02*
X7969825Y-16739366D01*
X7969825Y-16739366D02*
X7969825Y-16796509D01*
X7969825Y-16796509D02*
X7960301Y-16815556D01*
X7960301Y-16815556D02*
X7950777Y-16825080D01*
X7950777Y-16825080D02*
X7931730Y-16834604D01*
X7931730Y-16834604D02*
X7903158Y-16834604D01*
X8026968Y-16701270D02*
X8103158Y-16701270D01*
X8055539Y-16634604D02*
X8055539Y-16806032D01*
X8055539Y-16806032D02*
X8065063Y-16825080D01*
X8065063Y-16825080D02*
X8084111Y-16834604D01*
X8084111Y-16834604D02*
X8103158Y-16834604D01*
X8322206Y-16701270D02*
X8322206Y-16901270D01*
X8322206Y-16710794D02*
X8341253Y-16701270D01*
X8341253Y-16701270D02*
X8379349Y-16701270D01*
X8379349Y-16701270D02*
X8398396Y-16710794D01*
X8398396Y-16710794D02*
X8407920Y-16720318D01*
X8407920Y-16720318D02*
X8417444Y-16739366D01*
X8417444Y-16739366D02*
X8417444Y-16796509D01*
X8417444Y-16796509D02*
X8407920Y-16815556D01*
X8407920Y-16815556D02*
X8398396Y-16825080D01*
X8398396Y-16825080D02*
X8379349Y-16834604D01*
X8379349Y-16834604D02*
X8341253Y-16834604D01*
X8341253Y-16834604D02*
X8322206Y-16825080D01*
X8531730Y-16834604D02*
X8512682Y-16825080D01*
X8512682Y-16825080D02*
X8503158Y-16806032D01*
X8503158Y-16806032D02*
X8503158Y-16634604D01*
X8693635Y-16834604D02*
X8693635Y-16729842D01*
X8693635Y-16729842D02*
X8684111Y-16710794D01*
X8684111Y-16710794D02*
X8665063Y-16701270D01*
X8665063Y-16701270D02*
X8626968Y-16701270D01*
X8626968Y-16701270D02*
X8607920Y-16710794D01*
X8693635Y-16825080D02*
X8674587Y-16834604D01*
X8674587Y-16834604D02*
X8626968Y-16834604D01*
X8626968Y-16834604D02*
X8607920Y-16825080D01*
X8607920Y-16825080D02*
X8598396Y-16806032D01*
X8598396Y-16806032D02*
X8598396Y-16786985D01*
X8598396Y-16786985D02*
X8607920Y-16767937D01*
X8607920Y-16767937D02*
X8626968Y-16758413D01*
X8626968Y-16758413D02*
X8674587Y-16758413D01*
X8674587Y-16758413D02*
X8693635Y-16748889D01*
X8760301Y-16701270D02*
X8836492Y-16701270D01*
X8788873Y-16634604D02*
X8788873Y-16806032D01*
X8788873Y-16806032D02*
X8798396Y-16825080D01*
X8798396Y-16825080D02*
X8817444Y-16834604D01*
X8817444Y-16834604D02*
X8836492Y-16834604D01*
X8979349Y-16825080D02*
X8960301Y-16834604D01*
X8960301Y-16834604D02*
X8922206Y-16834604D01*
X8922206Y-16834604D02*
X8903158Y-16825080D01*
X8903158Y-16825080D02*
X8893635Y-16806032D01*
X8893635Y-16806032D02*
X8893635Y-16729842D01*
X8893635Y-16729842D02*
X8903158Y-16710794D01*
X8903158Y-16710794D02*
X8922206Y-16701270D01*
X8922206Y-16701270D02*
X8960301Y-16701270D01*
X8960301Y-16701270D02*
X8979349Y-16710794D01*
X8979349Y-16710794D02*
X8988873Y-16729842D01*
X8988873Y-16729842D02*
X8988873Y-16748889D01*
X8988873Y-16748889D02*
X8893635Y-16767937D01*
X9160301Y-16834604D02*
X9160301Y-16634604D01*
X9160301Y-16825080D02*
X9141254Y-16834604D01*
X9141254Y-16834604D02*
X9103158Y-16834604D01*
X9103158Y-16834604D02*
X9084111Y-16825080D01*
X9084111Y-16825080D02*
X9074587Y-16815556D01*
X9074587Y-16815556D02*
X9065063Y-16796509D01*
X9065063Y-16796509D02*
X9065063Y-16739366D01*
X9065063Y-16739366D02*
X9074587Y-16720318D01*
X9074587Y-16720318D02*
X9084111Y-16710794D01*
X9084111Y-16710794D02*
X9103158Y-16701270D01*
X9103158Y-16701270D02*
X9141254Y-16701270D01*
X9141254Y-16701270D02*
X9160301Y-16710794D01*
X9236492Y-16910794D02*
X9246016Y-16901270D01*
X9246016Y-16901270D02*
X9265063Y-16872699D01*
X9265063Y-16872699D02*
X9274587Y-16853651D01*
X9274587Y-16853651D02*
X9284111Y-16825080D01*
X9284111Y-16825080D02*
X9293635Y-16777461D01*
X9293635Y-16777461D02*
X9293635Y-16739366D01*
X9293635Y-16739366D02*
X9284111Y-16691747D01*
X9284111Y-16691747D02*
X9274587Y-16663175D01*
X9274587Y-16663175D02*
X9265063Y-16644128D01*
X9265063Y-16644128D02*
X9246016Y-16615556D01*
X9246016Y-16615556D02*
X9236492Y-16606032D01*
X2260711Y-17123831D02*
X2260711Y-16982409D01*
X2119289Y-16982409D01*
X2119289Y-17123831D01*
X2260711Y-17123831D01*
X2531729Y-16944604D02*
X2655539Y-16944604D01*
X2655539Y-16944604D02*
X2588872Y-17020794D01*
X2588872Y-17020794D02*
X2617444Y-17020794D01*
X2617444Y-17020794D02*
X2636491Y-17030318D01*
X2636491Y-17030318D02*
X2646015Y-17039842D01*
X2646015Y-17039842D02*
X2655539Y-17058890D01*
X2655539Y-17058890D02*
X2655539Y-17106509D01*
X2655539Y-17106509D02*
X2646015Y-17125556D01*
X2646015Y-17125556D02*
X2636491Y-17135080D01*
X2636491Y-17135080D02*
X2617444Y-17144604D01*
X2617444Y-17144604D02*
X2560301Y-17144604D01*
X2560301Y-17144604D02*
X2541253Y-17135080D01*
X2541253Y-17135080D02*
X2531729Y-17125556D01*
X2741253Y-17125556D02*
X2750777Y-17135080D01*
X2750777Y-17135080D02*
X2741253Y-17144604D01*
X2741253Y-17144604D02*
X2731729Y-17135080D01*
X2731729Y-17135080D02*
X2741253Y-17125556D01*
X2741253Y-17125556D02*
X2741253Y-17144604D01*
X2874586Y-16944604D02*
X2893634Y-16944604D01*
X2893634Y-16944604D02*
X2912682Y-16954128D01*
X2912682Y-16954128D02*
X2922205Y-16963651D01*
X2922205Y-16963651D02*
X2931729Y-16982699D01*
X2931729Y-16982699D02*
X2941253Y-17020794D01*
X2941253Y-17020794D02*
X2941253Y-17068413D01*
X2941253Y-17068413D02*
X2931729Y-17106509D01*
X2931729Y-17106509D02*
X2922205Y-17125556D01*
X2922205Y-17125556D02*
X2912682Y-17135080D01*
X2912682Y-17135080D02*
X2893634Y-17144604D01*
X2893634Y-17144604D02*
X2874586Y-17144604D01*
X2874586Y-17144604D02*
X2855539Y-17135080D01*
X2855539Y-17135080D02*
X2846015Y-17125556D01*
X2846015Y-17125556D02*
X2836491Y-17106509D01*
X2836491Y-17106509D02*
X2826967Y-17068413D01*
X2826967Y-17068413D02*
X2826967Y-17020794D01*
X2826967Y-17020794D02*
X2836491Y-16982699D01*
X2836491Y-16982699D02*
X2846015Y-16963651D01*
X2846015Y-16963651D02*
X2855539Y-16954128D01*
X2855539Y-16954128D02*
X2874586Y-16944604D01*
X3122205Y-16944604D02*
X3026967Y-16944604D01*
X3026967Y-16944604D02*
X3017443Y-17039842D01*
X3017443Y-17039842D02*
X3026967Y-17030318D01*
X3026967Y-17030318D02*
X3046015Y-17020794D01*
X3046015Y-17020794D02*
X3093634Y-17020794D01*
X3093634Y-17020794D02*
X3112682Y-17030318D01*
X3112682Y-17030318D02*
X3122205Y-17039842D01*
X3122205Y-17039842D02*
X3131729Y-17058890D01*
X3131729Y-17058890D02*
X3131729Y-17106509D01*
X3131729Y-17106509D02*
X3122205Y-17125556D01*
X3122205Y-17125556D02*
X3112682Y-17135080D01*
X3112682Y-17135080D02*
X3093634Y-17144604D01*
X3093634Y-17144604D02*
X3046015Y-17144604D01*
X3046015Y-17144604D02*
X3026967Y-17135080D01*
X3026967Y-17135080D02*
X3017443Y-17125556D01*
X3255539Y-16944604D02*
X3274586Y-16944604D01*
X3274586Y-16944604D02*
X3293634Y-16954128D01*
X3293634Y-16954128D02*
X3303158Y-16963651D01*
X3303158Y-16963651D02*
X3312682Y-16982699D01*
X3312682Y-16982699D02*
X3322205Y-17020794D01*
X3322205Y-17020794D02*
X3322205Y-17068413D01*
X3322205Y-17068413D02*
X3312682Y-17106509D01*
X3312682Y-17106509D02*
X3303158Y-17125556D01*
X3303158Y-17125556D02*
X3293634Y-17135080D01*
X3293634Y-17135080D02*
X3274586Y-17144604D01*
X3274586Y-17144604D02*
X3255539Y-17144604D01*
X3255539Y-17144604D02*
X3236491Y-17135080D01*
X3236491Y-17135080D02*
X3226967Y-17125556D01*
X3226967Y-17125556D02*
X3217443Y-17106509D01*
X3217443Y-17106509D02*
X3207920Y-17068413D01*
X3207920Y-17068413D02*
X3207920Y-17020794D01*
X3207920Y-17020794D02*
X3217443Y-16982699D01*
X3217443Y-16982699D02*
X3226967Y-16963651D01*
X3226967Y-16963651D02*
X3236491Y-16954128D01*
X3236491Y-16954128D02*
X3255539Y-16944604D01*
X3407920Y-17144604D02*
X3407920Y-17011270D01*
X3407920Y-17030318D02*
X3417443Y-17020794D01*
X3417443Y-17020794D02*
X3436491Y-17011270D01*
X3436491Y-17011270D02*
X3465063Y-17011270D01*
X3465063Y-17011270D02*
X3484110Y-17020794D01*
X3484110Y-17020794D02*
X3493634Y-17039842D01*
X3493634Y-17039842D02*
X3493634Y-17144604D01*
X3493634Y-17039842D02*
X3503158Y-17020794D01*
X3503158Y-17020794D02*
X3522205Y-17011270D01*
X3522205Y-17011270D02*
X3550777Y-17011270D01*
X3550777Y-17011270D02*
X3569824Y-17020794D01*
X3569824Y-17020794D02*
X3579348Y-17039842D01*
X3579348Y-17039842D02*
X3579348Y-17144604D01*
X3674586Y-17144604D02*
X3674586Y-17011270D01*
X3674586Y-17030318D02*
X3684110Y-17020794D01*
X3684110Y-17020794D02*
X3703158Y-17011270D01*
X3703158Y-17011270D02*
X3731729Y-17011270D01*
X3731729Y-17011270D02*
X3750777Y-17020794D01*
X3750777Y-17020794D02*
X3760301Y-17039842D01*
X3760301Y-17039842D02*
X3760301Y-17144604D01*
X3760301Y-17039842D02*
X3769824Y-17020794D01*
X3769824Y-17020794D02*
X3788872Y-17011270D01*
X3788872Y-17011270D02*
X3817443Y-17011270D01*
X3817443Y-17011270D02*
X3836491Y-17020794D01*
X3836491Y-17020794D02*
X3846015Y-17039842D01*
X3846015Y-17039842D02*
X3846015Y-17144604D01*
X4236491Y-16935080D02*
X4065063Y-17192223D01*
X4493634Y-16944604D02*
X4512682Y-16944604D01*
X4512682Y-16944604D02*
X4531729Y-16954128D01*
X4531729Y-16954128D02*
X4541253Y-16963651D01*
X4541253Y-16963651D02*
X4550777Y-16982699D01*
X4550777Y-16982699D02*
X4560301Y-17020794D01*
X4560301Y-17020794D02*
X4560301Y-17068413D01*
X4560301Y-17068413D02*
X4550777Y-17106509D01*
X4550777Y-17106509D02*
X4541253Y-17125556D01*
X4541253Y-17125556D02*
X4531729Y-17135080D01*
X4531729Y-17135080D02*
X4512682Y-17144604D01*
X4512682Y-17144604D02*
X4493634Y-17144604D01*
X4493634Y-17144604D02*
X4474587Y-17135080D01*
X4474587Y-17135080D02*
X4465063Y-17125556D01*
X4465063Y-17125556D02*
X4455539Y-17106509D01*
X4455539Y-17106509D02*
X4446015Y-17068413D01*
X4446015Y-17068413D02*
X4446015Y-17020794D01*
X4446015Y-17020794D02*
X4455539Y-16982699D01*
X4455539Y-16982699D02*
X4465063Y-16963651D01*
X4465063Y-16963651D02*
X4474587Y-16954128D01*
X4474587Y-16954128D02*
X4493634Y-16944604D01*
X4646015Y-17125556D02*
X4655539Y-17135080D01*
X4655539Y-17135080D02*
X4646015Y-17144604D01*
X4646015Y-17144604D02*
X4636491Y-17135080D01*
X4636491Y-17135080D02*
X4646015Y-17125556D01*
X4646015Y-17125556D02*
X4646015Y-17144604D01*
X4846015Y-17144604D02*
X4731729Y-17144604D01*
X4788872Y-17144604D02*
X4788872Y-16944604D01*
X4788872Y-16944604D02*
X4769825Y-16973175D01*
X4769825Y-16973175D02*
X4750777Y-16992223D01*
X4750777Y-16992223D02*
X4731729Y-17001747D01*
X4922206Y-16963651D02*
X4931729Y-16954128D01*
X4931729Y-16954128D02*
X4950777Y-16944604D01*
X4950777Y-16944604D02*
X4998396Y-16944604D01*
X4998396Y-16944604D02*
X5017444Y-16954128D01*
X5017444Y-16954128D02*
X5026968Y-16963651D01*
X5026968Y-16963651D02*
X5036491Y-16982699D01*
X5036491Y-16982699D02*
X5036491Y-17001747D01*
X5036491Y-17001747D02*
X5026968Y-17030318D01*
X5026968Y-17030318D02*
X4912682Y-17144604D01*
X4912682Y-17144604D02*
X5036491Y-17144604D01*
X5160301Y-16944604D02*
X5179349Y-16944604D01*
X5179349Y-16944604D02*
X5198396Y-16954128D01*
X5198396Y-16954128D02*
X5207920Y-16963651D01*
X5207920Y-16963651D02*
X5217444Y-16982699D01*
X5217444Y-16982699D02*
X5226968Y-17020794D01*
X5226968Y-17020794D02*
X5226968Y-17068413D01*
X5226968Y-17068413D02*
X5217444Y-17106509D01*
X5217444Y-17106509D02*
X5207920Y-17125556D01*
X5207920Y-17125556D02*
X5198396Y-17135080D01*
X5198396Y-17135080D02*
X5179349Y-17144604D01*
X5179349Y-17144604D02*
X5160301Y-17144604D01*
X5160301Y-17144604D02*
X5141253Y-17135080D01*
X5141253Y-17135080D02*
X5131729Y-17125556D01*
X5131729Y-17125556D02*
X5122206Y-17106509D01*
X5122206Y-17106509D02*
X5112682Y-17068413D01*
X5112682Y-17068413D02*
X5112682Y-17020794D01*
X5112682Y-17020794D02*
X5122206Y-16982699D01*
X5122206Y-16982699D02*
X5131729Y-16963651D01*
X5131729Y-16963651D02*
X5141253Y-16954128D01*
X5141253Y-16954128D02*
X5160301Y-16944604D01*
X5417444Y-17144604D02*
X5303158Y-17144604D01*
X5360301Y-17144604D02*
X5360301Y-16944604D01*
X5360301Y-16944604D02*
X5341253Y-16973175D01*
X5341253Y-16973175D02*
X5322206Y-16992223D01*
X5322206Y-16992223D02*
X5303158Y-17001747D01*
X5493634Y-16944604D02*
X5493634Y-16982699D01*
X5569825Y-16944604D02*
X5569825Y-16982699D01*
X5865063Y-17220794D02*
X5855539Y-17211270D01*
X5855539Y-17211270D02*
X5836491Y-17182699D01*
X5836491Y-17182699D02*
X5826968Y-17163651D01*
X5826968Y-17163651D02*
X5817444Y-17135080D01*
X5817444Y-17135080D02*
X5807920Y-17087461D01*
X5807920Y-17087461D02*
X5807920Y-17049366D01*
X5807920Y-17049366D02*
X5817444Y-17001747D01*
X5817444Y-17001747D02*
X5826968Y-16973175D01*
X5826968Y-16973175D02*
X5836491Y-16954128D01*
X5836491Y-16954128D02*
X5855539Y-16925556D01*
X5855539Y-16925556D02*
X5865063Y-16916032D01*
X5922206Y-16944604D02*
X6046015Y-16944604D01*
X6046015Y-16944604D02*
X5979348Y-17020794D01*
X5979348Y-17020794D02*
X6007920Y-17020794D01*
X6007920Y-17020794D02*
X6026968Y-17030318D01*
X6026968Y-17030318D02*
X6036491Y-17039842D01*
X6036491Y-17039842D02*
X6046015Y-17058890D01*
X6046015Y-17058890D02*
X6046015Y-17106509D01*
X6046015Y-17106509D02*
X6036491Y-17125556D01*
X6036491Y-17125556D02*
X6026968Y-17135080D01*
X6026968Y-17135080D02*
X6007920Y-17144604D01*
X6007920Y-17144604D02*
X5950777Y-17144604D01*
X5950777Y-17144604D02*
X5931729Y-17135080D01*
X5931729Y-17135080D02*
X5922206Y-17125556D01*
X6217444Y-16944604D02*
X6179348Y-16944604D01*
X6179348Y-16944604D02*
X6160301Y-16954128D01*
X6160301Y-16954128D02*
X6150777Y-16963651D01*
X6150777Y-16963651D02*
X6131729Y-16992223D01*
X6131729Y-16992223D02*
X6122206Y-17030318D01*
X6122206Y-17030318D02*
X6122206Y-17106509D01*
X6122206Y-17106509D02*
X6131729Y-17125556D01*
X6131729Y-17125556D02*
X6141253Y-17135080D01*
X6141253Y-17135080D02*
X6160301Y-17144604D01*
X6160301Y-17144604D02*
X6198396Y-17144604D01*
X6198396Y-17144604D02*
X6217444Y-17135080D01*
X6217444Y-17135080D02*
X6226968Y-17125556D01*
X6226968Y-17125556D02*
X6236491Y-17106509D01*
X6236491Y-17106509D02*
X6236491Y-17058890D01*
X6236491Y-17058890D02*
X6226968Y-17039842D01*
X6226968Y-17039842D02*
X6217444Y-17030318D01*
X6217444Y-17030318D02*
X6198396Y-17020794D01*
X6198396Y-17020794D02*
X6160301Y-17020794D01*
X6160301Y-17020794D02*
X6141253Y-17030318D01*
X6141253Y-17030318D02*
X6131729Y-17039842D01*
X6131729Y-17039842D02*
X6122206Y-17058890D01*
X6474587Y-17144604D02*
X6474587Y-16944604D01*
X6560301Y-17144604D02*
X6560301Y-17039842D01*
X6560301Y-17039842D02*
X6550777Y-17020794D01*
X6550777Y-17020794D02*
X6531730Y-17011270D01*
X6531730Y-17011270D02*
X6503158Y-17011270D01*
X6503158Y-17011270D02*
X6484110Y-17020794D01*
X6484110Y-17020794D02*
X6474587Y-17030318D01*
X6684110Y-17144604D02*
X6665063Y-17135080D01*
X6665063Y-17135080D02*
X6655539Y-17125556D01*
X6655539Y-17125556D02*
X6646015Y-17106509D01*
X6646015Y-17106509D02*
X6646015Y-17049366D01*
X6646015Y-17049366D02*
X6655539Y-17030318D01*
X6655539Y-17030318D02*
X6665063Y-17020794D01*
X6665063Y-17020794D02*
X6684110Y-17011270D01*
X6684110Y-17011270D02*
X6712682Y-17011270D01*
X6712682Y-17011270D02*
X6731730Y-17020794D01*
X6731730Y-17020794D02*
X6741253Y-17030318D01*
X6741253Y-17030318D02*
X6750777Y-17049366D01*
X6750777Y-17049366D02*
X6750777Y-17106509D01*
X6750777Y-17106509D02*
X6741253Y-17125556D01*
X6741253Y-17125556D02*
X6731730Y-17135080D01*
X6731730Y-17135080D02*
X6712682Y-17144604D01*
X6712682Y-17144604D02*
X6684110Y-17144604D01*
X6865063Y-17144604D02*
X6846015Y-17135080D01*
X6846015Y-17135080D02*
X6836491Y-17116032D01*
X6836491Y-17116032D02*
X6836491Y-16944604D01*
X7017444Y-17135080D02*
X6998396Y-17144604D01*
X6998396Y-17144604D02*
X6960301Y-17144604D01*
X6960301Y-17144604D02*
X6941253Y-17135080D01*
X6941253Y-17135080D02*
X6931730Y-17116032D01*
X6931730Y-17116032D02*
X6931730Y-17039842D01*
X6931730Y-17039842D02*
X6941253Y-17020794D01*
X6941253Y-17020794D02*
X6960301Y-17011270D01*
X6960301Y-17011270D02*
X6998396Y-17011270D01*
X6998396Y-17011270D02*
X7017444Y-17020794D01*
X7017444Y-17020794D02*
X7026968Y-17039842D01*
X7026968Y-17039842D02*
X7026968Y-17058890D01*
X7026968Y-17058890D02*
X6931730Y-17077937D01*
X7103158Y-17135080D02*
X7122206Y-17144604D01*
X7122206Y-17144604D02*
X7160301Y-17144604D01*
X7160301Y-17144604D02*
X7179349Y-17135080D01*
X7179349Y-17135080D02*
X7188872Y-17116032D01*
X7188872Y-17116032D02*
X7188872Y-17106509D01*
X7188872Y-17106509D02*
X7179349Y-17087461D01*
X7179349Y-17087461D02*
X7160301Y-17077937D01*
X7160301Y-17077937D02*
X7131730Y-17077937D01*
X7131730Y-17077937D02*
X7112682Y-17068413D01*
X7112682Y-17068413D02*
X7103158Y-17049366D01*
X7103158Y-17049366D02*
X7103158Y-17039842D01*
X7103158Y-17039842D02*
X7112682Y-17020794D01*
X7112682Y-17020794D02*
X7131730Y-17011270D01*
X7131730Y-17011270D02*
X7160301Y-17011270D01*
X7160301Y-17011270D02*
X7179349Y-17020794D01*
X7255539Y-17220794D02*
X7265063Y-17211270D01*
X7265063Y-17211270D02*
X7284111Y-17182699D01*
X7284111Y-17182699D02*
X7293634Y-17163651D01*
X7293634Y-17163651D02*
X7303158Y-17135080D01*
X7303158Y-17135080D02*
X7312682Y-17087461D01*
X7312682Y-17087461D02*
X7312682Y-17049366D01*
X7312682Y-17049366D02*
X7303158Y-17001747D01*
X7303158Y-17001747D02*
X7293634Y-16973175D01*
X7293634Y-16973175D02*
X7284111Y-16954128D01*
X7284111Y-16954128D02*
X7265063Y-16925556D01*
X7265063Y-16925556D02*
X7255539Y-16916032D01*
X7617444Y-17220794D02*
X7607920Y-17211270D01*
X7607920Y-17211270D02*
X7588872Y-17182699D01*
X7588872Y-17182699D02*
X7579349Y-17163651D01*
X7579349Y-17163651D02*
X7569825Y-17135080D01*
X7569825Y-17135080D02*
X7560301Y-17087461D01*
X7560301Y-17087461D02*
X7560301Y-17049366D01*
X7560301Y-17049366D02*
X7569825Y-17001747D01*
X7569825Y-17001747D02*
X7579349Y-16973175D01*
X7579349Y-16973175D02*
X7588872Y-16954128D01*
X7588872Y-16954128D02*
X7607920Y-16925556D01*
X7607920Y-16925556D02*
X7617444Y-16916032D01*
X7693634Y-17011270D02*
X7693634Y-17144604D01*
X7693634Y-17030318D02*
X7703158Y-17020794D01*
X7703158Y-17020794D02*
X7722206Y-17011270D01*
X7722206Y-17011270D02*
X7750777Y-17011270D01*
X7750777Y-17011270D02*
X7769825Y-17020794D01*
X7769825Y-17020794D02*
X7779349Y-17039842D01*
X7779349Y-17039842D02*
X7779349Y-17144604D01*
X7903158Y-17144604D02*
X7884111Y-17135080D01*
X7884111Y-17135080D02*
X7874587Y-17125556D01*
X7874587Y-17125556D02*
X7865063Y-17106509D01*
X7865063Y-17106509D02*
X7865063Y-17049366D01*
X7865063Y-17049366D02*
X7874587Y-17030318D01*
X7874587Y-17030318D02*
X7884111Y-17020794D01*
X7884111Y-17020794D02*
X7903158Y-17011270D01*
X7903158Y-17011270D02*
X7931730Y-17011270D01*
X7931730Y-17011270D02*
X7950777Y-17020794D01*
X7950777Y-17020794D02*
X7960301Y-17030318D01*
X7960301Y-17030318D02*
X7969825Y-17049366D01*
X7969825Y-17049366D02*
X7969825Y-17106509D01*
X7969825Y-17106509D02*
X7960301Y-17125556D01*
X7960301Y-17125556D02*
X7950777Y-17135080D01*
X7950777Y-17135080D02*
X7931730Y-17144604D01*
X7931730Y-17144604D02*
X7903158Y-17144604D01*
X8026968Y-17011270D02*
X8103158Y-17011270D01*
X8055539Y-16944604D02*
X8055539Y-17116032D01*
X8055539Y-17116032D02*
X8065063Y-17135080D01*
X8065063Y-17135080D02*
X8084111Y-17144604D01*
X8084111Y-17144604D02*
X8103158Y-17144604D01*
X8322206Y-17011270D02*
X8322206Y-17211270D01*
X8322206Y-17020794D02*
X8341253Y-17011270D01*
X8341253Y-17011270D02*
X8379349Y-17011270D01*
X8379349Y-17011270D02*
X8398396Y-17020794D01*
X8398396Y-17020794D02*
X8407920Y-17030318D01*
X8407920Y-17030318D02*
X8417444Y-17049366D01*
X8417444Y-17049366D02*
X8417444Y-17106509D01*
X8417444Y-17106509D02*
X8407920Y-17125556D01*
X8407920Y-17125556D02*
X8398396Y-17135080D01*
X8398396Y-17135080D02*
X8379349Y-17144604D01*
X8379349Y-17144604D02*
X8341253Y-17144604D01*
X8341253Y-17144604D02*
X8322206Y-17135080D01*
X8531730Y-17144604D02*
X8512682Y-17135080D01*
X8512682Y-17135080D02*
X8503158Y-17116032D01*
X8503158Y-17116032D02*
X8503158Y-16944604D01*
X8693635Y-17144604D02*
X8693635Y-17039842D01*
X8693635Y-17039842D02*
X8684111Y-17020794D01*
X8684111Y-17020794D02*
X8665063Y-17011270D01*
X8665063Y-17011270D02*
X8626968Y-17011270D01*
X8626968Y-17011270D02*
X8607920Y-17020794D01*
X8693635Y-17135080D02*
X8674587Y-17144604D01*
X8674587Y-17144604D02*
X8626968Y-17144604D01*
X8626968Y-17144604D02*
X8607920Y-17135080D01*
X8607920Y-17135080D02*
X8598396Y-17116032D01*
X8598396Y-17116032D02*
X8598396Y-17096985D01*
X8598396Y-17096985D02*
X8607920Y-17077937D01*
X8607920Y-17077937D02*
X8626968Y-17068413D01*
X8626968Y-17068413D02*
X8674587Y-17068413D01*
X8674587Y-17068413D02*
X8693635Y-17058890D01*
X8760301Y-17011270D02*
X8836492Y-17011270D01*
X8788873Y-16944604D02*
X8788873Y-17116032D01*
X8788873Y-17116032D02*
X8798396Y-17135080D01*
X8798396Y-17135080D02*
X8817444Y-17144604D01*
X8817444Y-17144604D02*
X8836492Y-17144604D01*
X8979349Y-17135080D02*
X8960301Y-17144604D01*
X8960301Y-17144604D02*
X8922206Y-17144604D01*
X8922206Y-17144604D02*
X8903158Y-17135080D01*
X8903158Y-17135080D02*
X8893635Y-17116032D01*
X8893635Y-17116032D02*
X8893635Y-17039842D01*
X8893635Y-17039842D02*
X8903158Y-17020794D01*
X8903158Y-17020794D02*
X8922206Y-17011270D01*
X8922206Y-17011270D02*
X8960301Y-17011270D01*
X8960301Y-17011270D02*
X8979349Y-17020794D01*
X8979349Y-17020794D02*
X8988873Y-17039842D01*
X8988873Y-17039842D02*
X8988873Y-17058890D01*
X8988873Y-17058890D02*
X8893635Y-17077937D01*
X9160301Y-17144604D02*
X9160301Y-16944604D01*
X9160301Y-17135080D02*
X9141254Y-17144604D01*
X9141254Y-17144604D02*
X9103158Y-17144604D01*
X9103158Y-17144604D02*
X9084111Y-17135080D01*
X9084111Y-17135080D02*
X9074587Y-17125556D01*
X9074587Y-17125556D02*
X9065063Y-17106509D01*
X9065063Y-17106509D02*
X9065063Y-17049366D01*
X9065063Y-17049366D02*
X9074587Y-17030318D01*
X9074587Y-17030318D02*
X9084111Y-17020794D01*
X9084111Y-17020794D02*
X9103158Y-17011270D01*
X9103158Y-17011270D02*
X9141254Y-17011270D01*
X9141254Y-17011270D02*
X9160301Y-17020794D01*
X9236492Y-17220794D02*
X9246016Y-17211270D01*
X9246016Y-17211270D02*
X9265063Y-17182699D01*
X9265063Y-17182699D02*
X9274587Y-17163651D01*
X9274587Y-17163651D02*
X9284111Y-17135080D01*
X9284111Y-17135080D02*
X9293635Y-17087461D01*
X9293635Y-17087461D02*
X9293635Y-17049366D01*
X9293635Y-17049366D02*
X9284111Y-17001747D01*
X9284111Y-17001747D02*
X9274587Y-16973175D01*
X9274587Y-16973175D02*
X9265063Y-16954128D01*
X9265063Y-16954128D02*
X9246016Y-16925556D01*
X9246016Y-16925556D02*
X9236492Y-16916032D01*
X2190000Y-17473120D02*
X2290000Y-17373120D01*
X2190000Y-17273120D01*
X2090000Y-17373120D01*
X2190000Y-17473120D01*
X2646015Y-17264604D02*
X2550777Y-17264604D01*
X2550777Y-17264604D02*
X2541253Y-17359842D01*
X2541253Y-17359842D02*
X2550777Y-17350318D01*
X2550777Y-17350318D02*
X2569824Y-17340794D01*
X2569824Y-17340794D02*
X2617444Y-17340794D01*
X2617444Y-17340794D02*
X2636491Y-17350318D01*
X2636491Y-17350318D02*
X2646015Y-17359842D01*
X2646015Y-17359842D02*
X2655539Y-17378890D01*
X2655539Y-17378890D02*
X2655539Y-17426509D01*
X2655539Y-17426509D02*
X2646015Y-17445556D01*
X2646015Y-17445556D02*
X2636491Y-17455080D01*
X2636491Y-17455080D02*
X2617444Y-17464604D01*
X2617444Y-17464604D02*
X2569824Y-17464604D01*
X2569824Y-17464604D02*
X2550777Y-17455080D01*
X2550777Y-17455080D02*
X2541253Y-17445556D01*
X2741253Y-17445556D02*
X2750777Y-17455080D01*
X2750777Y-17455080D02*
X2741253Y-17464604D01*
X2741253Y-17464604D02*
X2731729Y-17455080D01*
X2731729Y-17455080D02*
X2741253Y-17445556D01*
X2741253Y-17445556D02*
X2741253Y-17464604D01*
X2874586Y-17264604D02*
X2893634Y-17264604D01*
X2893634Y-17264604D02*
X2912682Y-17274128D01*
X2912682Y-17274128D02*
X2922205Y-17283651D01*
X2922205Y-17283651D02*
X2931729Y-17302699D01*
X2931729Y-17302699D02*
X2941253Y-17340794D01*
X2941253Y-17340794D02*
X2941253Y-17388413D01*
X2941253Y-17388413D02*
X2931729Y-17426509D01*
X2931729Y-17426509D02*
X2922205Y-17445556D01*
X2922205Y-17445556D02*
X2912682Y-17455080D01*
X2912682Y-17455080D02*
X2893634Y-17464604D01*
X2893634Y-17464604D02*
X2874586Y-17464604D01*
X2874586Y-17464604D02*
X2855539Y-17455080D01*
X2855539Y-17455080D02*
X2846015Y-17445556D01*
X2846015Y-17445556D02*
X2836491Y-17426509D01*
X2836491Y-17426509D02*
X2826967Y-17388413D01*
X2826967Y-17388413D02*
X2826967Y-17340794D01*
X2826967Y-17340794D02*
X2836491Y-17302699D01*
X2836491Y-17302699D02*
X2846015Y-17283651D01*
X2846015Y-17283651D02*
X2855539Y-17274128D01*
X2855539Y-17274128D02*
X2874586Y-17264604D01*
X3122205Y-17264604D02*
X3026967Y-17264604D01*
X3026967Y-17264604D02*
X3017443Y-17359842D01*
X3017443Y-17359842D02*
X3026967Y-17350318D01*
X3026967Y-17350318D02*
X3046015Y-17340794D01*
X3046015Y-17340794D02*
X3093634Y-17340794D01*
X3093634Y-17340794D02*
X3112682Y-17350318D01*
X3112682Y-17350318D02*
X3122205Y-17359842D01*
X3122205Y-17359842D02*
X3131729Y-17378890D01*
X3131729Y-17378890D02*
X3131729Y-17426509D01*
X3131729Y-17426509D02*
X3122205Y-17445556D01*
X3122205Y-17445556D02*
X3112682Y-17455080D01*
X3112682Y-17455080D02*
X3093634Y-17464604D01*
X3093634Y-17464604D02*
X3046015Y-17464604D01*
X3046015Y-17464604D02*
X3026967Y-17455080D01*
X3026967Y-17455080D02*
X3017443Y-17445556D01*
X3255539Y-17264604D02*
X3274586Y-17264604D01*
X3274586Y-17264604D02*
X3293634Y-17274128D01*
X3293634Y-17274128D02*
X3303158Y-17283651D01*
X3303158Y-17283651D02*
X3312682Y-17302699D01*
X3312682Y-17302699D02*
X3322205Y-17340794D01*
X3322205Y-17340794D02*
X3322205Y-17388413D01*
X3322205Y-17388413D02*
X3312682Y-17426509D01*
X3312682Y-17426509D02*
X3303158Y-17445556D01*
X3303158Y-17445556D02*
X3293634Y-17455080D01*
X3293634Y-17455080D02*
X3274586Y-17464604D01*
X3274586Y-17464604D02*
X3255539Y-17464604D01*
X3255539Y-17464604D02*
X3236491Y-17455080D01*
X3236491Y-17455080D02*
X3226967Y-17445556D01*
X3226967Y-17445556D02*
X3217443Y-17426509D01*
X3217443Y-17426509D02*
X3207920Y-17388413D01*
X3207920Y-17388413D02*
X3207920Y-17340794D01*
X3207920Y-17340794D02*
X3217443Y-17302699D01*
X3217443Y-17302699D02*
X3226967Y-17283651D01*
X3226967Y-17283651D02*
X3236491Y-17274128D01*
X3236491Y-17274128D02*
X3255539Y-17264604D01*
X3407920Y-17464604D02*
X3407920Y-17331270D01*
X3407920Y-17350318D02*
X3417443Y-17340794D01*
X3417443Y-17340794D02*
X3436491Y-17331270D01*
X3436491Y-17331270D02*
X3465063Y-17331270D01*
X3465063Y-17331270D02*
X3484110Y-17340794D01*
X3484110Y-17340794D02*
X3493634Y-17359842D01*
X3493634Y-17359842D02*
X3493634Y-17464604D01*
X3493634Y-17359842D02*
X3503158Y-17340794D01*
X3503158Y-17340794D02*
X3522205Y-17331270D01*
X3522205Y-17331270D02*
X3550777Y-17331270D01*
X3550777Y-17331270D02*
X3569824Y-17340794D01*
X3569824Y-17340794D02*
X3579348Y-17359842D01*
X3579348Y-17359842D02*
X3579348Y-17464604D01*
X3674586Y-17464604D02*
X3674586Y-17331270D01*
X3674586Y-17350318D02*
X3684110Y-17340794D01*
X3684110Y-17340794D02*
X3703158Y-17331270D01*
X3703158Y-17331270D02*
X3731729Y-17331270D01*
X3731729Y-17331270D02*
X3750777Y-17340794D01*
X3750777Y-17340794D02*
X3760301Y-17359842D01*
X3760301Y-17359842D02*
X3760301Y-17464604D01*
X3760301Y-17359842D02*
X3769824Y-17340794D01*
X3769824Y-17340794D02*
X3788872Y-17331270D01*
X3788872Y-17331270D02*
X3817443Y-17331270D01*
X3817443Y-17331270D02*
X3836491Y-17340794D01*
X3836491Y-17340794D02*
X3846015Y-17359842D01*
X3846015Y-17359842D02*
X3846015Y-17464604D01*
X4236491Y-17255080D02*
X4065063Y-17512223D01*
X4493634Y-17264604D02*
X4512682Y-17264604D01*
X4512682Y-17264604D02*
X4531729Y-17274128D01*
X4531729Y-17274128D02*
X4541253Y-17283651D01*
X4541253Y-17283651D02*
X4550777Y-17302699D01*
X4550777Y-17302699D02*
X4560301Y-17340794D01*
X4560301Y-17340794D02*
X4560301Y-17388413D01*
X4560301Y-17388413D02*
X4550777Y-17426509D01*
X4550777Y-17426509D02*
X4541253Y-17445556D01*
X4541253Y-17445556D02*
X4531729Y-17455080D01*
X4531729Y-17455080D02*
X4512682Y-17464604D01*
X4512682Y-17464604D02*
X4493634Y-17464604D01*
X4493634Y-17464604D02*
X4474587Y-17455080D01*
X4474587Y-17455080D02*
X4465063Y-17445556D01*
X4465063Y-17445556D02*
X4455539Y-17426509D01*
X4455539Y-17426509D02*
X4446015Y-17388413D01*
X4446015Y-17388413D02*
X4446015Y-17340794D01*
X4446015Y-17340794D02*
X4455539Y-17302699D01*
X4455539Y-17302699D02*
X4465063Y-17283651D01*
X4465063Y-17283651D02*
X4474587Y-17274128D01*
X4474587Y-17274128D02*
X4493634Y-17264604D01*
X4646015Y-17445556D02*
X4655539Y-17455080D01*
X4655539Y-17455080D02*
X4646015Y-17464604D01*
X4646015Y-17464604D02*
X4636491Y-17455080D01*
X4636491Y-17455080D02*
X4646015Y-17445556D01*
X4646015Y-17445556D02*
X4646015Y-17464604D01*
X4846015Y-17464604D02*
X4731729Y-17464604D01*
X4788872Y-17464604D02*
X4788872Y-17264604D01*
X4788872Y-17264604D02*
X4769825Y-17293175D01*
X4769825Y-17293175D02*
X4750777Y-17312223D01*
X4750777Y-17312223D02*
X4731729Y-17321747D01*
X4941253Y-17464604D02*
X4979348Y-17464604D01*
X4979348Y-17464604D02*
X4998396Y-17455080D01*
X4998396Y-17455080D02*
X5007920Y-17445556D01*
X5007920Y-17445556D02*
X5026968Y-17416985D01*
X5026968Y-17416985D02*
X5036491Y-17378890D01*
X5036491Y-17378890D02*
X5036491Y-17302699D01*
X5036491Y-17302699D02*
X5026968Y-17283651D01*
X5026968Y-17283651D02*
X5017444Y-17274128D01*
X5017444Y-17274128D02*
X4998396Y-17264604D01*
X4998396Y-17264604D02*
X4960301Y-17264604D01*
X4960301Y-17264604D02*
X4941253Y-17274128D01*
X4941253Y-17274128D02*
X4931729Y-17283651D01*
X4931729Y-17283651D02*
X4922206Y-17302699D01*
X4922206Y-17302699D02*
X4922206Y-17350318D01*
X4922206Y-17350318D02*
X4931729Y-17369366D01*
X4931729Y-17369366D02*
X4941253Y-17378890D01*
X4941253Y-17378890D02*
X4960301Y-17388413D01*
X4960301Y-17388413D02*
X4998396Y-17388413D01*
X4998396Y-17388413D02*
X5017444Y-17378890D01*
X5017444Y-17378890D02*
X5026968Y-17369366D01*
X5026968Y-17369366D02*
X5036491Y-17350318D01*
X5150777Y-17350318D02*
X5131729Y-17340794D01*
X5131729Y-17340794D02*
X5122206Y-17331270D01*
X5122206Y-17331270D02*
X5112682Y-17312223D01*
X5112682Y-17312223D02*
X5112682Y-17302699D01*
X5112682Y-17302699D02*
X5122206Y-17283651D01*
X5122206Y-17283651D02*
X5131729Y-17274128D01*
X5131729Y-17274128D02*
X5150777Y-17264604D01*
X5150777Y-17264604D02*
X5188872Y-17264604D01*
X5188872Y-17264604D02*
X5207920Y-17274128D01*
X5207920Y-17274128D02*
X5217444Y-17283651D01*
X5217444Y-17283651D02*
X5226968Y-17302699D01*
X5226968Y-17302699D02*
X5226968Y-17312223D01*
X5226968Y-17312223D02*
X5217444Y-17331270D01*
X5217444Y-17331270D02*
X5207920Y-17340794D01*
X5207920Y-17340794D02*
X5188872Y-17350318D01*
X5188872Y-17350318D02*
X5150777Y-17350318D01*
X5150777Y-17350318D02*
X5131729Y-17359842D01*
X5131729Y-17359842D02*
X5122206Y-17369366D01*
X5122206Y-17369366D02*
X5112682Y-17388413D01*
X5112682Y-17388413D02*
X5112682Y-17426509D01*
X5112682Y-17426509D02*
X5122206Y-17445556D01*
X5122206Y-17445556D02*
X5131729Y-17455080D01*
X5131729Y-17455080D02*
X5150777Y-17464604D01*
X5150777Y-17464604D02*
X5188872Y-17464604D01*
X5188872Y-17464604D02*
X5207920Y-17455080D01*
X5207920Y-17455080D02*
X5217444Y-17445556D01*
X5217444Y-17445556D02*
X5226968Y-17426509D01*
X5226968Y-17426509D02*
X5226968Y-17388413D01*
X5226968Y-17388413D02*
X5217444Y-17369366D01*
X5217444Y-17369366D02*
X5207920Y-17359842D01*
X5207920Y-17359842D02*
X5188872Y-17350318D01*
X5341253Y-17350318D02*
X5322206Y-17340794D01*
X5322206Y-17340794D02*
X5312682Y-17331270D01*
X5312682Y-17331270D02*
X5303158Y-17312223D01*
X5303158Y-17312223D02*
X5303158Y-17302699D01*
X5303158Y-17302699D02*
X5312682Y-17283651D01*
X5312682Y-17283651D02*
X5322206Y-17274128D01*
X5322206Y-17274128D02*
X5341253Y-17264604D01*
X5341253Y-17264604D02*
X5379349Y-17264604D01*
X5379349Y-17264604D02*
X5398396Y-17274128D01*
X5398396Y-17274128D02*
X5407920Y-17283651D01*
X5407920Y-17283651D02*
X5417444Y-17302699D01*
X5417444Y-17302699D02*
X5417444Y-17312223D01*
X5417444Y-17312223D02*
X5407920Y-17331270D01*
X5407920Y-17331270D02*
X5398396Y-17340794D01*
X5398396Y-17340794D02*
X5379349Y-17350318D01*
X5379349Y-17350318D02*
X5341253Y-17350318D01*
X5341253Y-17350318D02*
X5322206Y-17359842D01*
X5322206Y-17359842D02*
X5312682Y-17369366D01*
X5312682Y-17369366D02*
X5303158Y-17388413D01*
X5303158Y-17388413D02*
X5303158Y-17426509D01*
X5303158Y-17426509D02*
X5312682Y-17445556D01*
X5312682Y-17445556D02*
X5322206Y-17455080D01*
X5322206Y-17455080D02*
X5341253Y-17464604D01*
X5341253Y-17464604D02*
X5379349Y-17464604D01*
X5379349Y-17464604D02*
X5398396Y-17455080D01*
X5398396Y-17455080D02*
X5407920Y-17445556D01*
X5407920Y-17445556D02*
X5417444Y-17426509D01*
X5417444Y-17426509D02*
X5417444Y-17388413D01*
X5417444Y-17388413D02*
X5407920Y-17369366D01*
X5407920Y-17369366D02*
X5398396Y-17359842D01*
X5398396Y-17359842D02*
X5379349Y-17350318D01*
X5493634Y-17264604D02*
X5493634Y-17302699D01*
X5569825Y-17264604D02*
X5569825Y-17302699D01*
X5865063Y-17540794D02*
X5855539Y-17531270D01*
X5855539Y-17531270D02*
X5836491Y-17502699D01*
X5836491Y-17502699D02*
X5826968Y-17483651D01*
X5826968Y-17483651D02*
X5817444Y-17455080D01*
X5817444Y-17455080D02*
X5807920Y-17407461D01*
X5807920Y-17407461D02*
X5807920Y-17369366D01*
X5807920Y-17369366D02*
X5817444Y-17321747D01*
X5817444Y-17321747D02*
X5826968Y-17293175D01*
X5826968Y-17293175D02*
X5836491Y-17274128D01*
X5836491Y-17274128D02*
X5855539Y-17245556D01*
X5855539Y-17245556D02*
X5865063Y-17236032D01*
X6046015Y-17464604D02*
X5931729Y-17464604D01*
X5988872Y-17464604D02*
X5988872Y-17264604D01*
X5988872Y-17264604D02*
X5969825Y-17293175D01*
X5969825Y-17293175D02*
X5950777Y-17312223D01*
X5950777Y-17312223D02*
X5931729Y-17321747D01*
X6160301Y-17350318D02*
X6141253Y-17340794D01*
X6141253Y-17340794D02*
X6131729Y-17331270D01*
X6131729Y-17331270D02*
X6122206Y-17312223D01*
X6122206Y-17312223D02*
X6122206Y-17302699D01*
X6122206Y-17302699D02*
X6131729Y-17283651D01*
X6131729Y-17283651D02*
X6141253Y-17274128D01*
X6141253Y-17274128D02*
X6160301Y-17264604D01*
X6160301Y-17264604D02*
X6198396Y-17264604D01*
X6198396Y-17264604D02*
X6217444Y-17274128D01*
X6217444Y-17274128D02*
X6226968Y-17283651D01*
X6226968Y-17283651D02*
X6236491Y-17302699D01*
X6236491Y-17302699D02*
X6236491Y-17312223D01*
X6236491Y-17312223D02*
X6226968Y-17331270D01*
X6226968Y-17331270D02*
X6217444Y-17340794D01*
X6217444Y-17340794D02*
X6198396Y-17350318D01*
X6198396Y-17350318D02*
X6160301Y-17350318D01*
X6160301Y-17350318D02*
X6141253Y-17359842D01*
X6141253Y-17359842D02*
X6131729Y-17369366D01*
X6131729Y-17369366D02*
X6122206Y-17388413D01*
X6122206Y-17388413D02*
X6122206Y-17426509D01*
X6122206Y-17426509D02*
X6131729Y-17445556D01*
X6131729Y-17445556D02*
X6141253Y-17455080D01*
X6141253Y-17455080D02*
X6160301Y-17464604D01*
X6160301Y-17464604D02*
X6198396Y-17464604D01*
X6198396Y-17464604D02*
X6217444Y-17455080D01*
X6217444Y-17455080D02*
X6226968Y-17445556D01*
X6226968Y-17445556D02*
X6236491Y-17426509D01*
X6236491Y-17426509D02*
X6236491Y-17388413D01*
X6236491Y-17388413D02*
X6226968Y-17369366D01*
X6226968Y-17369366D02*
X6217444Y-17359842D01*
X6217444Y-17359842D02*
X6198396Y-17350318D01*
X6474587Y-17464604D02*
X6474587Y-17264604D01*
X6560301Y-17464604D02*
X6560301Y-17359842D01*
X6560301Y-17359842D02*
X6550777Y-17340794D01*
X6550777Y-17340794D02*
X6531730Y-17331270D01*
X6531730Y-17331270D02*
X6503158Y-17331270D01*
X6503158Y-17331270D02*
X6484110Y-17340794D01*
X6484110Y-17340794D02*
X6474587Y-17350318D01*
X6684110Y-17464604D02*
X6665063Y-17455080D01*
X6665063Y-17455080D02*
X6655539Y-17445556D01*
X6655539Y-17445556D02*
X6646015Y-17426509D01*
X6646015Y-17426509D02*
X6646015Y-17369366D01*
X6646015Y-17369366D02*
X6655539Y-17350318D01*
X6655539Y-17350318D02*
X6665063Y-17340794D01*
X6665063Y-17340794D02*
X6684110Y-17331270D01*
X6684110Y-17331270D02*
X6712682Y-17331270D01*
X6712682Y-17331270D02*
X6731730Y-17340794D01*
X6731730Y-17340794D02*
X6741253Y-17350318D01*
X6741253Y-17350318D02*
X6750777Y-17369366D01*
X6750777Y-17369366D02*
X6750777Y-17426509D01*
X6750777Y-17426509D02*
X6741253Y-17445556D01*
X6741253Y-17445556D02*
X6731730Y-17455080D01*
X6731730Y-17455080D02*
X6712682Y-17464604D01*
X6712682Y-17464604D02*
X6684110Y-17464604D01*
X6865063Y-17464604D02*
X6846015Y-17455080D01*
X6846015Y-17455080D02*
X6836491Y-17436032D01*
X6836491Y-17436032D02*
X6836491Y-17264604D01*
X7017444Y-17455080D02*
X6998396Y-17464604D01*
X6998396Y-17464604D02*
X6960301Y-17464604D01*
X6960301Y-17464604D02*
X6941253Y-17455080D01*
X6941253Y-17455080D02*
X6931730Y-17436032D01*
X6931730Y-17436032D02*
X6931730Y-17359842D01*
X6931730Y-17359842D02*
X6941253Y-17340794D01*
X6941253Y-17340794D02*
X6960301Y-17331270D01*
X6960301Y-17331270D02*
X6998396Y-17331270D01*
X6998396Y-17331270D02*
X7017444Y-17340794D01*
X7017444Y-17340794D02*
X7026968Y-17359842D01*
X7026968Y-17359842D02*
X7026968Y-17378890D01*
X7026968Y-17378890D02*
X6931730Y-17397937D01*
X7103158Y-17455080D02*
X7122206Y-17464604D01*
X7122206Y-17464604D02*
X7160301Y-17464604D01*
X7160301Y-17464604D02*
X7179349Y-17455080D01*
X7179349Y-17455080D02*
X7188872Y-17436032D01*
X7188872Y-17436032D02*
X7188872Y-17426509D01*
X7188872Y-17426509D02*
X7179349Y-17407461D01*
X7179349Y-17407461D02*
X7160301Y-17397937D01*
X7160301Y-17397937D02*
X7131730Y-17397937D01*
X7131730Y-17397937D02*
X7112682Y-17388413D01*
X7112682Y-17388413D02*
X7103158Y-17369366D01*
X7103158Y-17369366D02*
X7103158Y-17359842D01*
X7103158Y-17359842D02*
X7112682Y-17340794D01*
X7112682Y-17340794D02*
X7131730Y-17331270D01*
X7131730Y-17331270D02*
X7160301Y-17331270D01*
X7160301Y-17331270D02*
X7179349Y-17340794D01*
X7255539Y-17540794D02*
X7265063Y-17531270D01*
X7265063Y-17531270D02*
X7284111Y-17502699D01*
X7284111Y-17502699D02*
X7293634Y-17483651D01*
X7293634Y-17483651D02*
X7303158Y-17455080D01*
X7303158Y-17455080D02*
X7312682Y-17407461D01*
X7312682Y-17407461D02*
X7312682Y-17369366D01*
X7312682Y-17369366D02*
X7303158Y-17321747D01*
X7303158Y-17321747D02*
X7293634Y-17293175D01*
X7293634Y-17293175D02*
X7284111Y-17274128D01*
X7284111Y-17274128D02*
X7265063Y-17245556D01*
X7265063Y-17245556D02*
X7255539Y-17236032D01*
X7617444Y-17540794D02*
X7607920Y-17531270D01*
X7607920Y-17531270D02*
X7588872Y-17502699D01*
X7588872Y-17502699D02*
X7579349Y-17483651D01*
X7579349Y-17483651D02*
X7569825Y-17455080D01*
X7569825Y-17455080D02*
X7560301Y-17407461D01*
X7560301Y-17407461D02*
X7560301Y-17369366D01*
X7560301Y-17369366D02*
X7569825Y-17321747D01*
X7569825Y-17321747D02*
X7579349Y-17293175D01*
X7579349Y-17293175D02*
X7588872Y-17274128D01*
X7588872Y-17274128D02*
X7607920Y-17245556D01*
X7607920Y-17245556D02*
X7617444Y-17236032D01*
X7693634Y-17331270D02*
X7693634Y-17464604D01*
X7693634Y-17350318D02*
X7703158Y-17340794D01*
X7703158Y-17340794D02*
X7722206Y-17331270D01*
X7722206Y-17331270D02*
X7750777Y-17331270D01*
X7750777Y-17331270D02*
X7769825Y-17340794D01*
X7769825Y-17340794D02*
X7779349Y-17359842D01*
X7779349Y-17359842D02*
X7779349Y-17464604D01*
X7903158Y-17464604D02*
X7884111Y-17455080D01*
X7884111Y-17455080D02*
X7874587Y-17445556D01*
X7874587Y-17445556D02*
X7865063Y-17426509D01*
X7865063Y-17426509D02*
X7865063Y-17369366D01*
X7865063Y-17369366D02*
X7874587Y-17350318D01*
X7874587Y-17350318D02*
X7884111Y-17340794D01*
X7884111Y-17340794D02*
X7903158Y-17331270D01*
X7903158Y-17331270D02*
X7931730Y-17331270D01*
X7931730Y-17331270D02*
X7950777Y-17340794D01*
X7950777Y-17340794D02*
X7960301Y-17350318D01*
X7960301Y-17350318D02*
X7969825Y-17369366D01*
X7969825Y-17369366D02*
X7969825Y-17426509D01*
X7969825Y-17426509D02*
X7960301Y-17445556D01*
X7960301Y-17445556D02*
X7950777Y-17455080D01*
X7950777Y-17455080D02*
X7931730Y-17464604D01*
X7931730Y-17464604D02*
X7903158Y-17464604D01*
X8026968Y-17331270D02*
X8103158Y-17331270D01*
X8055539Y-17264604D02*
X8055539Y-17436032D01*
X8055539Y-17436032D02*
X8065063Y-17455080D01*
X8065063Y-17455080D02*
X8084111Y-17464604D01*
X8084111Y-17464604D02*
X8103158Y-17464604D01*
X8322206Y-17331270D02*
X8322206Y-17531270D01*
X8322206Y-17340794D02*
X8341253Y-17331270D01*
X8341253Y-17331270D02*
X8379349Y-17331270D01*
X8379349Y-17331270D02*
X8398396Y-17340794D01*
X8398396Y-17340794D02*
X8407920Y-17350318D01*
X8407920Y-17350318D02*
X8417444Y-17369366D01*
X8417444Y-17369366D02*
X8417444Y-17426509D01*
X8417444Y-17426509D02*
X8407920Y-17445556D01*
X8407920Y-17445556D02*
X8398396Y-17455080D01*
X8398396Y-17455080D02*
X8379349Y-17464604D01*
X8379349Y-17464604D02*
X8341253Y-17464604D01*
X8341253Y-17464604D02*
X8322206Y-17455080D01*
X8531730Y-17464604D02*
X8512682Y-17455080D01*
X8512682Y-17455080D02*
X8503158Y-17436032D01*
X8503158Y-17436032D02*
X8503158Y-17264604D01*
X8693635Y-17464604D02*
X8693635Y-17359842D01*
X8693635Y-17359842D02*
X8684111Y-17340794D01*
X8684111Y-17340794D02*
X8665063Y-17331270D01*
X8665063Y-17331270D02*
X8626968Y-17331270D01*
X8626968Y-17331270D02*
X8607920Y-17340794D01*
X8693635Y-17455080D02*
X8674587Y-17464604D01*
X8674587Y-17464604D02*
X8626968Y-17464604D01*
X8626968Y-17464604D02*
X8607920Y-17455080D01*
X8607920Y-17455080D02*
X8598396Y-17436032D01*
X8598396Y-17436032D02*
X8598396Y-17416985D01*
X8598396Y-17416985D02*
X8607920Y-17397937D01*
X8607920Y-17397937D02*
X8626968Y-17388413D01*
X8626968Y-17388413D02*
X8674587Y-17388413D01*
X8674587Y-17388413D02*
X8693635Y-17378890D01*
X8760301Y-17331270D02*
X8836492Y-17331270D01*
X8788873Y-17264604D02*
X8788873Y-17436032D01*
X8788873Y-17436032D02*
X8798396Y-17455080D01*
X8798396Y-17455080D02*
X8817444Y-17464604D01*
X8817444Y-17464604D02*
X8836492Y-17464604D01*
X8979349Y-17455080D02*
X8960301Y-17464604D01*
X8960301Y-17464604D02*
X8922206Y-17464604D01*
X8922206Y-17464604D02*
X8903158Y-17455080D01*
X8903158Y-17455080D02*
X8893635Y-17436032D01*
X8893635Y-17436032D02*
X8893635Y-17359842D01*
X8893635Y-17359842D02*
X8903158Y-17340794D01*
X8903158Y-17340794D02*
X8922206Y-17331270D01*
X8922206Y-17331270D02*
X8960301Y-17331270D01*
X8960301Y-17331270D02*
X8979349Y-17340794D01*
X8979349Y-17340794D02*
X8988873Y-17359842D01*
X8988873Y-17359842D02*
X8988873Y-17378890D01*
X8988873Y-17378890D02*
X8893635Y-17397937D01*
X9160301Y-17464604D02*
X9160301Y-17264604D01*
X9160301Y-17455080D02*
X9141254Y-17464604D01*
X9141254Y-17464604D02*
X9103158Y-17464604D01*
X9103158Y-17464604D02*
X9084111Y-17455080D01*
X9084111Y-17455080D02*
X9074587Y-17445556D01*
X9074587Y-17445556D02*
X9065063Y-17426509D01*
X9065063Y-17426509D02*
X9065063Y-17369366D01*
X9065063Y-17369366D02*
X9074587Y-17350318D01*
X9074587Y-17350318D02*
X9084111Y-17340794D01*
X9084111Y-17340794D02*
X9103158Y-17331270D01*
X9103158Y-17331270D02*
X9141254Y-17331270D01*
X9141254Y-17331270D02*
X9160301Y-17340794D01*
X9236492Y-17540794D02*
X9246016Y-17531270D01*
X9246016Y-17531270D02*
X9265063Y-17502699D01*
X9265063Y-17502699D02*
X9274587Y-17483651D01*
X9274587Y-17483651D02*
X9284111Y-17455080D01*
X9284111Y-17455080D02*
X9293635Y-17407461D01*
X9293635Y-17407461D02*
X9293635Y-17369366D01*
X9293635Y-17369366D02*
X9284111Y-17321747D01*
X9284111Y-17321747D02*
X9274587Y-17293175D01*
X9274587Y-17293175D02*
X9265063Y-17274128D01*
X9265063Y-17274128D02*
X9246016Y-17245556D01*
X9246016Y-17245556D02*
X9236492Y-17236032D01*
M02*
